  0
SECTION
  2
HEADER
  9
$ACADVER
  1
AC1015
  9
$ACADMAINTVER
 70
     6
  9
$DWGCODEPAGE
  3
ANSI_1252
  9
$INSBASE
 10
0.0
 20
0.0
 30
0.0
  9
$EXTMIN
 10
-0.2018849342
 20
-11.6992826219
 30
0.0
  9
$EXTMAX
 10
13.3571038497
 20
1.1860938719
 30
0.0
  9
$LIMMIN
 10
0.0
 20
0.0
  9
$LIMMAX
 10
12.0
 20
9.0
  9
$ORTHOMODE
 70
     0
  9
$REGENMODE
 70
     1
  9
$FILLMODE
 70
     1
  9
$QTEXTMODE
 70
     0
  9
$MIRRTEXT
 70
     1
  9
$LTSCALE
 40
1.0
  9
$ATTMODE
 70
     1
  9
$TEXTSIZE
 40
0.125
  9
$TRACEWID
 40
0.05
  9
$TEXTSTYLE
  7
Standard
  9
$CLAYER
  8
0
  9
$CELTYPE
  6
ByLayer
  9
$CECOLOR
 62
   256
  9
$CELTSCALE
 40
1.0
  9
$DISPSILH
 70
     0
  9
$DIMSCALE
 40
1.0
  9
$DIMASZ
 40
0.13
  9
$DIMEXO
 40
0.05
  9
$DIMDLI
 40
0.38
  9
$DIMRND
 40
0.0
  9
$DIMDLE
 40
0.0
  9
$DIMEXE
 40
0.125
  9
$DIMTP
 40
0.0
  9
$DIMTM
 40
0.0
  9
$DIMTXT
 40
0.125
  9
$DIMCEN
 40
0.09
  9
$DIMTSZ
 40
0.0
  9
$DIMTOL
 70
     0
  9
$DIMLIM
 70
     0
  9
$DIMTIH
 70
     1
  9
$DIMTOH
 70
     1
  9
$DIMSE1
 70
     0
  9
$DIMSE2
 70
     0
  9
$DIMTAD
 70
     0
  9
$DIMZIN
 70
     0
  9
$DIMBLK
  1

  9
$DIMASO
 70
     1
  9
$DIMSHO
 70
     1
  9
$DIMPOST
  1

  9
$DIMAPOST
  1

  9
$DIMALT
 70
     0
  9
$DIMALTD
 70
     2
  9
$DIMALTF
 40
25.4
  9
$DIMLFAC
 40
1.0
  9
$DIMTOFL
 70
     0
  9
$DIMTVP
 40
0.0
  9
$DIMTIX
 70
     0
  9
$DIMSOXD
 70
     0
  9
$DIMSAH
 70
     0
  9
$DIMBLK1
  1

  9
$DIMBLK2
  1

  9
$DIMSTYLE
  2
Standard
  9
$DIMCLRD
 70
     0
  9
$DIMCLRE
 70
     0
  9
$DIMCLRT
 70
     0
  9
$DIMTFAC
 40
1.0
  9
$DIMGAP
 40
0.06
  9
$DIMJUST
 70
     0
  9
$DIMSD1
 70
     0
  9
$DIMSD2
 70
     0
  9
$DIMTOLJ
 70
     1
  9
$DIMTZIN
 70
     0
  9
$DIMALTZ
 70
     0
  9
$DIMALTTZ
 70
     0
  9
$DIMUPT
 70
     0
  9
$DIMDEC
 70
     2
  9
$DIMTDEC
 70
     2
  9
$DIMALTU
 70
     2
  9
$DIMALTTD
 70
     2
  9
$DIMTXSTY
  7
Standard
  9
$DIMAUNIT
 70
     0
  9
$DIMADEC
 70
     2
  9
$DIMALTRND
 40
0.0
  9
$DIMAZIN
 70
     0
  9
$DIMDSEP
 70
    46
  9
$DIMATFIT
 70
     3
  9
$DIMFRAC
 70
     0
  9
$DIMLDRBLK
  1

  9
$DIMLUNIT
 70
     2
  9
$DIMLWD
 70
    -2
  9
$DIMLWE
 70
    -2
  9
$DIMTMOVE
 70
     0
  9
$LUNITS
 70
     2
  9
$LUPREC
 70
     2
  9
$SKETCHINC
 40
0.1
  9
$FILLETRAD
 40
0.5
  9
$AUNITS
 70
     0
  9
$AUPREC
 70
     2
  9
$MENU
  1
.
  9
$ELEVATION
 40
0.0
  9
$PELEVATION
 40
0.0
  9
$THICKNESS
 40
0.0
  9
$LIMCHECK
 70
     0
  9
$CHAMFERA
 40
0.0
  9
$CHAMFERB
 40
0.0
  9
$CHAMFERC
 40
0.0
  9
$CHAMFERD
 40
0.0
  9
$SKPOLY
 70
     0
  9
$TDCREATE
 40
2458225.678221204
  9
$TDUCREATE
 40
2458225.84488787
  9
$TDUPDATE
 40
2458225.678288727
  9
$TDUUPDATE
 40
2458225.844955394
  9
$TDINDWG
 40
0.0000000116
  9
$TDUSRTIMER
 40
0.0000000116
  9
$USRTIMER
 70
     1
  9
$ANGBASE
 50
0.0
  9
$ANGDIR
 70
     0
  9
$PDMODE
 70
     0
  9
$PDSIZE
 40
-1.0
  9
$PLINEWID
 40
0.0
  9
$SPLFRAME
 70
     0
  9
$SPLINETYPE
 70
     6
  9
$SPLINESEGS
 70
     8
  9
$HANDSEED
  5
13B
  9
$SURFTAB1
 70
     6
  9
$SURFTAB2
 70
     6
  9
$SURFTYPE
 70
     6
  9
$SURFU
 70
     6
  9
$SURFV
 70
     6
  9
$UCSBASE
  2

  9
$UCSNAME
  2

  9
$UCSORG
 10
0.0
 20
0.0
 30
0.0
  9
$UCSXDIR
 10
1.0
 20
0.0
 30
0.0
  9
$UCSYDIR
 10
0.0
 20
1.0
 30
0.0
  9
$UCSORTHOREF
  2

  9
$UCSORTHOVIEW
 70
     0
  9
$UCSORGTOP
 10
0.0
 20
0.0
 30
0.0
  9
$UCSORGBOTTOM
 10
0.0
 20
0.0
 30
0.0
  9
$UCSORGLEFT
 10
0.0
 20
0.0
 30
0.0
  9
$UCSORGRIGHT
 10
0.0
 20
0.0
 30
0.0
  9
$UCSORGFRONT
 10
0.0
 20
0.0
 30
0.0
  9
$UCSORGBACK
 10
0.0
 20
0.0
 30
0.0
  9
$PUCSBASE
  2

  9
$PUCSNAME
  2

  9
$PUCSORG
 10
0.0
 20
0.0
 30
0.0
  9
$PUCSXDIR
 10
1.0
 20
0.0
 30
0.0
  9
$PUCSYDIR
 10
0.0
 20
1.0
 30
0.0
  9
$PUCSORTHOREF
  2

  9
$PUCSORTHOVIEW
 70
     0
  9
$PUCSORGTOP
 10
0.0
 20
0.0
 30
0.0
  9
$PUCSORGBOTTOM
 10
0.0
 20
0.0
 30
0.0
  9
$PUCSORGLEFT
 10
0.0
 20
0.0
 30
0.0
  9
$PUCSORGRIGHT
 10
0.0
 20
0.0
 30
0.0
  9
$PUCSORGFRONT
 10
0.0
 20
0.0
 30
0.0
  9
$PUCSORGBACK
 10
0.0
 20
0.0
 30
0.0
  9
$USERI1
 70
     0
  9
$USERI2
 70
     0
  9
$USERI3
 70
     0
  9
$USERI4
 70
     0
  9
$USERI5
 70
     0
  9
$USERR1
 40
0.0
  9
$USERR2
 40
0.0
  9
$USERR3
 40
0.0
  9
$USERR4
 40
0.0
  9
$USERR5
 40
0.0
  9
$WORLDVIEW
 70
     1
  9
$SHADEDGE
 70
     3
  9
$SHADEDIF
 70
    70
  9
$TILEMODE
 70
     1
  9
$MAXACTVP
 70
    64
  9
$PINSBASE
 10
0.0
 20
0.0
 30
0.0
  9
$PLIMCHECK
 70
     0
  9
$PEXTMIN
 10
1.0000000000E+20
 20
1.0000000000E+20
 30
1.0000000000E+20
  9
$PEXTMAX
 10
-1.0000000000E+20
 20
-1.0000000000E+20
 30
-1.0000000000E+20
  9
$PLIMMIN
 10
0.0
 20
0.0
  9
$PLIMMAX
 10
12.0
 20
9.0
  9
$UNITMODE
 70
     0
  9
$VISRETAIN
 70
     1
  9
$PLINEGEN
 70
     0
  9
$PSLTSCALE
 70
     1
  9
$TREEDEPTH
 70
  3020
  9
$CMLSTYLE
  2
Standard
  9
$CMLJUST
 70
     0
  9
$CMLSCALE
 40
1.0
  9
$PROXYGRAPHICS
 70
     1
  9
$MEASUREMENT
 70
     0
  9
$CELWEIGHT
370
    -1
  9
$ENDCAPS
280
     0
  9
$JOINSTYLE
280
     0
  9
$LWDISPLAY
290
     1
  9
$INSUNITS
 70
     1
  9
$HYPERLINKBASE
  1

  9
$STYLESHEET
  1

  9
$XEDIT
290
     1
  9
$CEPSNTYPE
380
     0
  9
$PSTYLEMODE
290
     1
  9
$FINGERPRINTGUID
  2
{E14BC068-E491-466B-91E6-DE42BFB1E75B}
  9
$VERSIONGUID
  2
{FAEB1C32-E019-11D5-929B-00C0DF256EC4}
  9
$EXTNAMES
290
     1
  9
$PSVPSCALE
 40
0.0
  9
$OLESTARTUP
290
     0
  0
ENDSEC
  0
SECTION
  2
CLASSES
  0
CLASS
  1
ACDBDICTIONARYWDFLT
  2
AcDbDictionaryWithDefault
  3
ObjectDBX Classes
 90
        0
280
     0
281
     0
  0
CLASS
  1
VISUALSTYLE
  2
AcDbVisualStyle
  3
ObjectDBX Classes
 90
     4095
280
     0
281
     0
  0
CLASS
  1
MATERIAL
  2
AcDbMaterial
  3
ObjectDBX Classes
 90
     1153
280
     0
281
     0
  0
CLASS
  1
SCALE
  2
AcDbScale
  3
ObjectDBX Classes
 90
     1153
280
     0
281
     0
  0
CLASS
  1
TABLESTYLE
  2
AcDbTableStyle
  3
ObjectDBX Classes
 90
     4095
280
     0
281
     0
  0
CLASS
  1
MLEADERSTYLE
  2
AcDbMLeaderStyle
  3
ACDB_MLEADERSTYLE_CLASS
 90
     4095
280
     0
281
     0
  0
CLASS
  1
SUN
  2
AcDbSun
  3
SCENEOE
 90
     1153
280
     0
281
     0
  0
CLASS
  1
ACDBPLACEHOLDER
  2
AcDbPlaceHolder
  3
ObjectDBX Classes
 90
        0
280
     0
281
     0
  0
CLASS
  1
LAYOUT
  2
AcDbLayout
  3
ObjectDBX Classes
 90
        0
280
     0
281
     0
  0
ENDSEC
  0
SECTION
  2
TABLES
  0
TABLE
  2
VPORT
  5
8
330
0
100
AcDbSymbolTable
 70
     1
  0
VPORT
  5
29
330
8
100
AcDbSymbolTableRecord
100
AcDbViewportTableRecord
  2
*Active
 70
     0
 10
0.0
 20
0.0
 11
1.0
 21
1.0
 12
6.5776094577
 22
-5.256594375
 13
0.0
 23
0.0
 14
0.5
 24
0.5
 15
0.5
 25
0.5
 16
0.0
 26
0.0
 36
1.0
 17
0.0
 27
0.0
 37
0.0
 40
13.1430840237
 41
1.0522772688
 42
50.0
 43
0.0
 44
0.0
 50
0.0
 51
0.0
 71
     0
 72
   100
 73
     1
 74
     3
 75
     0
 76
     0
 77
     0
 78
     0
281
     0
 65
     1
110
0.0
120
0.0
130
0.0
111
1.0
121
0.0
131
0.0
112
0.0
122
1.0
132
0.0
 79
     0
146
0.0
  0
ENDTAB
  0
TABLE
  2
LTYPE
  5
5
330
0
100
AcDbSymbolTable
 70
     6
  0
LTYPE
  5
14
330
5
100
AcDbSymbolTableRecord
100
AcDbLinetypeTableRecord
  2
ByBlock
 70
     0
  3

 72
    65
 73
     0
 40
0.0
  0
LTYPE
  5
15
330
5
100
AcDbSymbolTableRecord
100
AcDbLinetypeTableRecord
  2
ByLayer
 70
     0
  3

 72
    65
 73
     0
 40
0.0
  0
LTYPE
  5
16
330
5
100
AcDbSymbolTableRecord
100
AcDbLinetypeTableRecord
  2
Continuous
 70
     0
  3
Solid line
 72
    65
 73
     0
 40
0.0
  0
LTYPE
  5
6E
330
5
100
AcDbSymbolTableRecord
100
AcDbLinetypeTableRecord
  2
HIDDEN
 70
     0
  3
Hidden __ __ __ __ __ __ __ __ __ __ __ __ __ __
 72
    65
 73
     2
 40
0.075
 49
0.05
 74
     0
 49
-0.025
 74
     0
  0
LTYPE
  5
6F
330
5
100
AcDbSymbolTableRecord
100
AcDbLinetypeTableRecord
  2
PHANTOM
 70
     0
  3
Phantom ______  __  __  ______  __  __  ______
 72
    65
 73
     6
 40
0.5
 49
0.25
 74
     0
 49
-0.05
 74
     0
 49
0.05
 74
     0
 49
-0.05
 74
     0
 49
0.05
 74
     0
 49
-0.05
 74
     0
  0
LTYPE
  5
70
330
5
100
AcDbSymbolTableRecord
100
AcDbLinetypeTableRecord
  2
CENTER
 70
     0
  3
Center ____ _ ____ _ ____ _ ____ _ ____ _ ____
 72
    65
 73
     4
 40
0.4
 49
0.25
 74
     0
 49
-0.05
 74
     0
 49
0.05
 74
     0
 49
-0.05
 74
     0
  0
LTYPE
  5
71
330
5
100
AcDbSymbolTableRecord
100
AcDbLinetypeTableRecord
  2
CENTERX2
 70
     0
  3
Center (2x) ________  __  ________  __  _____
 72
    65
 73
     4
 40
0.8
 49
0.5
 74
     0
 49
-0.1
 74
     0
 49
0.1
 74
     0
 49
-0.1
 74
     0
  0
LTYPE
  5
72
330
5
100
AcDbSymbolTableRecord
100
AcDbLinetypeTableRecord
  2
DOT2
 70
     0
  3
Dot (.5x) ........................................
 72
    65
 73
     2
 40
0.025
 49
0.0
 74
     0
 49
-0.025
 74
     0
  0
ENDTAB
  0
TABLE
  2
LAYER
  5
2
330
0
100
AcDbSymbolTable
 70
     1
  0
LAYER
  5
10
330
2
100
AcDbSymbolTableRecord
100
AcDbLayerTableRecord
  2
0
 70
     0
 62
     7
  6
Continuous
370
    -3
390
F
  0
ENDTAB
  0
TABLE
  2
STYLE
  5
3
330
0
100
AcDbSymbolTable
 70
     2
  0
STYLE
  5
11
330
3
100
AcDbSymbolTableRecord
100
AcDbTextStyleTableRecord
  2
Standard
 70
     0
 40
0.0
 41
1.0
 50
0.0
 71
     0
 42
0.125
  3
txt
  4

  0
STYLE
  5
138
330
3
100
AcDbSymbolTableRecord
100
AcDbTextStyleTableRecord
  2
SLDTEXTSTYLE0
 70
     0
 40
0.0
 41
0.7
 50
0.0
 71
     0
 42
0.125
  3
TXT
  4

  0
ENDTAB
  0
TABLE
  2
VIEW
  5
6
330
0
100
AcDbSymbolTable
 70
     0
  0
ENDTAB
  0
TABLE
  2
UCS
  5
7
330
0
100
AcDbSymbolTable
 70
     0
  0
ENDTAB
  0
TABLE
  2
APPID
  5
9
330
0
100
AcDbSymbolTable
 70
     1
  0
APPID
  5
12
330
9
100
AcDbSymbolTableRecord
100
AcDbRegAppTableRecord
  2
ACAD
 70
     0
  0
ENDTAB
  0
TABLE
  2
DIMSTYLE
  5
A
330
0
100
AcDbSymbolTable
 70
     1
100
AcDbDimStyleTable
  0
DIMSTYLE
105
27
330
A
100
AcDbSymbolTableRecord
100
AcDbDimStyleTableRecord
  2
Standard
 70
     0
178
     0
340
11
  0
ENDTAB
  0
TABLE
  2
BLOCK_RECORD
  5
1
330
0
100
AcDbSymbolTable
 70
     1
  0
BLOCK_RECORD
  5
1F
330
1
100
AcDbSymbolTableRecord
100
AcDbBlockTableRecord
  2
*Model_Space
340
22
  0
BLOCK_RECORD
  5
1B
330
1
100
AcDbSymbolTableRecord
100
AcDbBlockTableRecord
  2
*Paper_Space
340
1E
  0
BLOCK_RECORD
  5
23
330
1
100
AcDbSymbolTableRecord
100
AcDbBlockTableRecord
  2
*Paper_Space0
340
26
  0
ENDTAB
  0
ENDSEC
  0
SECTION
  2
BLOCKS
  0
BLOCK
  5
20
330
1F
100
AcDbEntity
  8
0
100
AcDbBlockBegin
  2
*Model_Space
 70
     0
 10
0.0
 20
0.0
 30
0.0
  3
*Model_Space
  1

  0
ENDBLK
  5
21
330
1F
100
AcDbEntity
  8
0
100
AcDbBlockEnd
  0
BLOCK
  5
1C
330
1B
100
AcDbEntity
 67
     1
  8
0
100
AcDbBlockBegin
  2
*Paper_Space
 70
     0
 10
0.0
 20
0.0
 30
0.0
  3
*Paper_Space
  1

  0
ENDBLK
  5
1D
330
1B
100
AcDbEntity
 67
     1
  8
0
100
AcDbBlockEnd
  0
BLOCK
  5
24
330
23
100
AcDbEntity
  8
0
100
AcDbBlockBegin
  2
*Paper_Space0
 70
     0
 10
0.0
 20
0.0
 30
0.0
  3
*Paper_Space0
  1

  0
ENDBLK
  5
25
330
23
100
AcDbEntity
  8
0
100
AcDbBlockEnd
  0
ENDSEC
  0
SECTION
  2
ENTITIES
  0
CIRCLE
  5
73
330
1F
100
AcDbEntity
  8
0
  6
Continuous
 62
     7
370
    25
100
AcDbCircle
 10
0.6875
 20
0.0
 30
0.0
 40
0.375
  0
LINE
  5
74
330
1F
100
AcDbEntity
  8
0
  6
Continuous
 62
     7
370
    25
100
AcDbLine
 10
7.9543640077
 20
0.371791823
 30
0.0
 11
5.2967324596
 21
0.721675654
 31
0.0
  0
ARC
  5
75
330
1F
100
AcDbEntity
  8
0
  6
Continuous
 62
     7
370
    25
100
AcDbCircle
 10
7.9054166856
 20
0.0
 30
0.0
 40
0.3750000000000003
100
AcDbArc
 50
277.5
 51
82.5
  0
LINE
  5
76
330
1F
100
AcDbEntity
  8
0
  6
Continuous
 62
     7
370
    25
100
AcDbLine
 10
5.2967324596
 20
-0.721675654
 30
0.0
 11
7.9543640077
 21
-0.371791823
 31
0.0
  0
ARC
  5
77
330
1F
100
AcDbEntity
  8
0
  6
Continuous
 62
     7
370
    25
100
AcDbCircle
 10
5.2804166856
 20
-0.5977450463
 30
0.0
 40
0.1250000000000009
100
AcDbArc
 50
180.0
 51
277.5
  0
LINE
  5
78
330
1F
100
AcDbEntity
  8
0
  6
Continuous
 62
     7
370
    25
100
AcDbLine
 10
5.1554166856
 20
0.5977450463
 30
0.0
 11
5.1554166856
 21
-0.5977450463
 31
0.0
  0
ARC
  5
79
330
1F
100
AcDbEntity
  8
0
  6
Continuous
 62
     7
370
    25
100
AcDbCircle
 10
5.2804166856
 20
0.5977450463
 30
0.0
 40
0.1250000000000009
100
AcDbArc
 50
82.5
 51
180.0
  0
SPLINE
  5
7A
330
1F
100
AcDbEntity
  8
0
  6
Continuous
 62
     7
370
    25
100
AcDbSpline
210
0.0
220
0.0
230
1.0
 70
     8
 71
     3
 72
    26
 73
    22
 74
     0
 42
0.000000001
 43
0.00000001
 40
0.0
 40
0.0
 40
0.0
 40
0.0
 40
0.2500000000000002
 40
0.2500000000000002
 40
0.3750000000000002
 40
0.3750000000000002
 40
0.4375000000000002
 40
0.4375000000000002
 40
0.4687500000000002
 40
0.4687500000000002
 40
0.5000000000000002
 40
0.5000000000000002
 40
0.5312500000000002
 40
0.5312500000000002
 40
0.5625000000000002
 40
0.5625000000000002
 40
0.6250000000000002
 40
0.6250000000000002
 40
0.7500000000000001
 40
0.7500000000000001
 40
1.0
 40
1.0
 40
1.0
 40
1.0
 10
12.64785136383944
 20
-0.0311425022114117
 30
0.0
 10
10.45925280558527
 20
-0.2131455125001979
 30
0.0
 10
8.309622762984901
 20
-0.7153565549262711
 30
0.0
 10
5.046393726423015
 20
-1.126407501963074
 30
0.0
 10
3.948364619176452
 20
-1.223885394396674
 30
0.0
 10
2.304339244557944
 20
-1.153271083337463
 30
0.0
 10
1.754550847699105
 20
-1.095669976599064
 30
0.0
 10
0.9593559201376098
 20
-0.8763695062272194
 30
0.0
 10
0.6992054700488158
 20
-0.7825578028563116
 30
0.0
 10
0.2277702480903099
 20
-0.4915056294679743
 30
0.0
 10
-0.0059534978608415
 20
-0.2713406683792197
 30
0.0
 10
0.0061774510733793
 20
0.2921361940093453
 30
0.0
 10
0.2464092883721987
 20
0.507169831940168
 30
0.0
 10
0.7228274469213333
 20
0.7925948176129065
 30
0.0
 10
0.9872424887222929
 20
0.8858632528398985
 30
0.0
 10
1.786720636273843
 20
1.100619122082147
 30
0.0
 10
2.331917313877035
 20
1.155830462018067
 30
0.0
 10
3.981255442987173
 20
1.222435103032757
 30
0.0
 10
5.075701255253136
 20
1.123470735635811
 30
0.0
 10
8.327751590768658
 20
0.7115359955020193
 30
0.0
 10
10.46845435802114
 20
0.2123803150739212
 30
0.0
 10
12.64785136383945
 20
0.0311425022114112
 30
0.0
  0
ARC
  5
7B
330
1F
100
AcDbEntity
  8
0
  6
Continuous
 62
     7
370
    25
100
AcDbCircle
 10
12.6452615654
 20
0.0
 30
0.0
 40
0.0312500000000002
100
AcDbArc
 50
274.7537567848
 51
85.2462432152
  0
ARC
  5
7C
330
1F
100
AcDbEntity
  8
0
  6
Continuous
 62
     7
370
    25
100
AcDbCircle
 10
4.0304166856
 20
0.0
 30
0.0
 40
0.375
100
AcDbArc
 50
277.000665828
 51
82.999334172
  0
LINE
  5
7D
330
1F
100
AcDbEntity
  8
0
  6
Continuous
 62
     7
370
    25
100
AcDbLine
 10
2.278021459
 20
-0.5930044735
 30
0.0
 11
4.0761220147
 21
-0.3722042758
 31
0.0
  0
ARC
  5
7E
330
1F
100
AcDbEntity
  8
0
  6
Continuous
 62
     7
370
    25
100
AcDbCircle
 10
2.2658333712
 20
-0.49375
 30
0.0
 40
0.1000000000000001
100
AcDbArc
 50
270.0
 51
277.000665828
  0
LINE
  5
7F
330
1F
100
AcDbEntity
  8
0
  6
Continuous
 62
     7
370
    25
100
AcDbLine
 10
1.475
 20
-0.59375
 30
0.0
 11
2.2658333712
 21
-0.59375
 31
0.0
  0
ARC
  5
80
330
1F
100
AcDbEntity
  8
0
  6
Continuous
 62
     7
370
    25
100
AcDbCircle
 10
1.475
 20
-0.49375
 30
0.0
 40
0.1
100
AcDbArc
 50
180.0
 51
270.0
  0
LINE
  5
81
330
1F
100
AcDbEntity
  8
0
  6
Continuous
 62
     7
370
    25
100
AcDbLine
 10
1.375
 20
0.49375
 30
0.0
 11
1.375
 21
-0.49375
 31
0.0
  0
ARC
  5
82
330
1F
100
AcDbEntity
  8
0
  6
Continuous
 62
     7
370
    25
100
AcDbCircle
 10
1.475
 20
0.49375
 30
0.0
 40
0.1
100
AcDbArc
 50
90.0
 51
180.0
  0
LINE
  5
83
330
1F
100
AcDbEntity
  8
0
  6
Continuous
 62
     7
370
    25
100
AcDbLine
 10
2.2658333712
 20
0.59375
 30
0.0
 11
1.475
 21
0.59375
 31
0.0
  0
ARC
  5
84
330
1F
100
AcDbEntity
  8
0
  6
Continuous
 62
     7
370
    25
100
AcDbCircle
 10
2.2658333712
 20
0.49375
 30
0.0
 40
0.1000000000000001
100
AcDbArc
 50
82.999334172
 51
90.0
  0
LINE
  5
85
330
1F
100
AcDbEntity
  8
0
  6
Continuous
 62
     7
370
    25
100
AcDbLine
 10
4.0761220147
 20
0.3722042758
 30
0.0
 11
2.278021459
 21
0.5930044735
 31
0.0
  0
CIRCLE
  5
86
330
1F
100
AcDbEntity
  8
0
  6
Continuous
 62
     7
370
    25
100
AcDbCircle
 10
12.6696822333
 20
-1.4353205792
 30
0.0
 40
0.3000000000000007
  0
LINE
  5
87
330
1F
100
AcDbEntity
  8
0
  6
Continuous
 62
     7
370
    25
100
AcDbLine
 10
8.3104497737
 20
-1.1303677873
 30
0.0
 11
6.9354497737
 21
-1.3113899715
 31
0.0
  0
ARC
  5
88
330
1F
100
AcDbEntity
  8
0
  6
Continuous
 62
     7
370
    25
100
AcDbCircle
 10
8.3267655477
 20
-1.254298395
 30
0.0
 40
0.1250000000000018
100
AcDbArc
 50
0.0
 51
97.5
  0
LINE
  5
89
330
1F
100
AcDbEntity
  8
0
  6
Continuous
 62
     7
370
    25
100
AcDbLine
 10
8.4517655477
 20
-1.6163427634
 30
0.0
 11
8.4517655477
 21
-1.254298395
 31
0.0
  0
ARC
  5
8A
330
1F
100
AcDbEntity
  8
0
  6
Continuous
 62
     7
370
    25
100
AcDbCircle
 10
8.3267655477
 20
-1.6163427634
 30
0.0
 40
0.125
100
AcDbArc
 50
262.5
 51
0.0
  0
LINE
  5
8B
330
1F
100
AcDbEntity
  8
0
  6
Continuous
 62
     7
370
    25
100
AcDbLine
 10
6.9354497737
 20
-1.5592511869
 30
0.0
 11
8.3104497737
 21
-1.740273371
 31
0.0
  0
ARC
  5
8C
330
1F
100
AcDbEntity
  8
0
  6
Continuous
 62
     7
370
    25
100
AcDbCircle
 10
6.9517655477
 20
-1.4353205792
 30
0.0
 40
0.125
100
AcDbArc
 50
97.5
 51
262.5
  0
SPLINE
  5
8D
330
1F
100
AcDbEntity
  8
0
  6
Continuous
 62
     7
370
    25
100
AcDbSpline
210
0.0
220
0.0
230
1.0
 70
     8
 71
     3
 72
    22
 73
    18
 74
     0
 42
0.000000001
 43
0.00000001
 40
0.0
 40
0.0
 40
0.0
 40
0.0
 40
0.2499999999999999
 40
0.2499999999999999
 40
0.3749999999999998
 40
0.3749999999999998
 40
0.4374999999999998
 40
0.4374999999999998
 40
0.4999999999999998
 40
0.4999999999999998
 40
0.5624999999999998
 40
0.5624999999999998
 40
0.6249999999999998
 40
0.6249999999999998
 40
0.7499999999999998
 40
0.7499999999999998
 40
1.0
 40
1.0
 40
1.0
 40
1.0
 10
4.503686278605398
 20
-1.413520827641126
 30
0.0
 10
6.035705269383177
 20
-1.286118720439005
 30
0.0
 10
7.540446299203292
 20
-0.9345709907407842
 30
0.0
 10
9.824706624796393
 20
-0.6468353278150137
 30
0.0
 10
10.59332699986891
 20
-0.5786008031114792
 30
0.0
 10
11.74414476210177
 20
-0.6280308208528305
 30
0.0
 10
12.12899663990291
 20
-0.6683515955696641
 30
0.0
 10
12.87117857229363
 20
-0.8730320345831935
 30
0.0
 10
13.36559551392154
 20
-1.048165209486516
 30
0.0
 10
13.34861218541574
 20
-1.837032816831012
 30
0.0
 10
12.85265739228357
 20
-2.00531515335354
 30
0.0
 10
12.10647778790206
 20
-2.205753964646513
 30
0.0
 10
11.72484011357981
 20
-2.244401902601698
 30
0.0
 10
10.57030342320272
 20
-2.291025151312085
 30
0.0
 10
9.804191354616382
 20
-2.221750094134241
 30
0.0
 10
7.527756119755266
 20
-1.933395776040594
 30
0.0
 10
6.029264182677716
 20
-1.583986799740823
 30
0.0
 10
4.503686278605394
 20
-1.457120330737102
 30
0.0
  0
ARC
  5
8E
330
1F
100
AcDbEntity
  8
0
  6
Continuous
 62
     7
370
    25
100
AcDbCircle
 10
4.5054991375
 20
-1.4353205792
 30
0.0
 40
0.0218750000000002
100
AcDbArc
 50
94.7537567848
 51
265.2462432152
  0
ARC
  5
8F
330
1F
100
AcDbEntity
  8
0
  6
Continuous
 62
     7
370
    25
100
AcDbCircle
 10
9.3267655477
 20
-1.4353205792
 30
0.0
 40
0.3749999999999999
100
AcDbArc
 50
97.000665828
 51
262.999334172
  0
LINE
  5
90
330
1F
100
AcDbEntity
  8
0
  6
Continuous
 62
     7
370
    25
100
AcDbLine
 10
11.0791607743
 20
-0.8423161057
 30
0.0
 11
9.2810602186
 21
-1.0631163034
 31
0.0
  0
ARC
  5
91
330
1F
100
AcDbEntity
  8
0
  6
Continuous
 62
     7
370
    25
100
AcDbCircle
 10
11.0913488621
 20
-0.9415705792
 30
0.0
 40
0.1
100
AcDbArc
 50
90.0
 51
97.000665828
  0
LINE
  5
92
330
1F
100
AcDbEntity
  8
0
  6
Continuous
 62
     7
370
    25
100
AcDbLine
 10
11.8821822333
 20
-0.8415705792
 30
0.0
 11
11.0913488621
 21
-0.8415705792
 31
0.0
  0
ARC
  5
93
330
1F
100
AcDbEntity
  8
0
  6
Continuous
 62
     7
370
    25
100
AcDbCircle
 10
11.8821822333
 20
-0.9415705792
 30
0.0
 40
0.1000000000000014
100
AcDbArc
 50
0.0
 51
90.0
  0
LINE
  5
94
330
1F
100
AcDbEntity
  8
0
  6
Continuous
 62
     7
370
    25
100
AcDbLine
 10
11.9821822333
 20
-1.9290705792
 30
0.0
 11
11.9821822333
 21
-0.9415705792
 31
0.0
  0
ARC
  5
95
330
1F
100
AcDbEntity
  8
0
  6
Continuous
 62
     7
370
    25
100
AcDbCircle
 10
11.8821822333
 20
-1.9290705792
 30
0.0
 40
0.1000000000000014
100
AcDbArc
 50
270.0
 51
0.0
  0
LINE
  5
96
330
1F
100
AcDbEntity
  8
0
  6
Continuous
 62
     7
370
    25
100
AcDbLine
 10
11.0913488621
 20
-2.0290705792
 30
0.0
 11
11.8821822333
 21
-2.0290705792
 31
0.0
  0
ARC
  5
97
330
1F
100
AcDbEntity
  8
0
  6
Continuous
 62
     7
370
    25
100
AcDbCircle
 10
11.0913488621
 20
-1.9290705792
 30
0.0
 40
0.1000000000000001
100
AcDbArc
 50
262.999334172
 51
270.0
  0
LINE
  5
98
330
1F
100
AcDbEntity
  8
0
  6
Continuous
 62
     7
370
    25
100
AcDbLine
 10
9.2810602186
 20
-1.8075248549
 30
0.0
 11
11.0791607743
 21
-2.0283250527
 31
0.0
  0
CIRCLE
  5
99
330
1F
100
AcDbEntity
  8
0
  6
Continuous
 62
     7
370
    25
100
AcDbCircle
 10
0.5330232875
 20
-2.6068594294
 30
0.0
 40
0.3125
  0
LINE
  5
9A
330
1F
100
AcDbEntity
  8
0
  6
Continuous
 62
     7
370
    25
100
AcDbLine
 10
7.0335715212
 20
-2.8547206447
 30
0.0
 11
4.8922557472
 21
-3.1366302145
 31
0.0
  0
ARC
  5
9B
330
1F
100
AcDbEntity
  8
0
  6
Continuous
 62
     7
370
    25
100
AcDbCircle
 10
4.8759399731
 20
-3.0126996068
 30
0.0
 40
0.1250000000000004
100
AcDbArc
 50
180.0
 51
277.5
  0
LINE
  5
9C
330
1F
100
AcDbEntity
  8
0
  6
Continuous
 62
     7
370
    25
100
AcDbLine
 10
4.7509399731
 20
-3.0126996068
 30
0.0
 11
4.7509399731
 21
-2.2010192519
 31
0.0
  0
ARC
  5
9D
330
1F
100
AcDbEntity
  8
0
  6
Continuous
 62
     7
370
    25
100
AcDbCircle
 10
4.8759399731
 20
-2.2010192519
 30
0.0
 40
0.125
100
AcDbArc
 50
82.5
 51
180.0
  0
LINE
  5
9E
330
1F
100
AcDbEntity
  8
0
  6
Continuous
 62
     7
370
    25
100
AcDbLine
 10
4.8922557472
 20
-2.0770886443
 30
0.0
 11
7.0335715212
 21
-2.358998214
 31
0.0
  0
ARC
  5
9F
330
1F
100
AcDbEntity
  8
0
  6
Continuous
 62
     7
370
    25
100
AcDbCircle
 10
7.0009399731
 20
-2.6068594294
 30
0.0
 40
0.2499999999999999
100
AcDbArc
 50
277.5
 51
82.5
  0
SPLINE
  5
A0
330
1F
100
AcDbEntity
  8
0
  6
Continuous
 62
     7
370
    25
100
AcDbSpline
210
0.0
220
0.0
230
1.0
 70
     8
 71
     3
 72
    26
 73
    22
 74
     0
 42
0.000000001
 43
0.00000001
 40
0.0
 40
0.0
 40
0.0
 40
0.0
 40
0.2500000000000001
 40
0.2500000000000001
 40
0.3750000000000001
 40
0.3750000000000001
 40
0.4375000000000001
 40
0.4375000000000001
 40
0.4687500000000001
 40
0.4687500000000001
 40
0.5000000000000001
 40
0.5000000000000001
 40
0.5312500000000001
 40
0.5312500000000001
 40
0.5625000000000001
 40
0.5625000000000001
 40
0.6250000000000001
 40
0.6250000000000001
 40
0.7500000000000002
 40
0.7500000000000002
 40
1.0
 40
1.0
 40
1.0
 40
1.0
 10
10.59619694679482
 20
-2.633330556270537
 30
0.0
 10
8.735888172278774
 20
-2.78803311501599
 30
0.0
 10
6.908702636068463
 20
-3.214912501078168
 30
0.0
 10
4.134957954990862
 20
-3.564305806059449
 30
0.0
 10
3.201633213831284
 20
-3.647162014628004
 30
0.0
 10
1.804211645405556
 20
-3.587139850227683
 30
0.0
 10
1.336891508075543
 20
-3.538178909500044
 30
0.0
 10
0.6609758196482765
 20
-3.351773509683975
 30
0.0
 10
0.4398479370727989
 20
-3.272033561818708
 30
0.0
 10
0.0391279984080734
 20
-3.02463921443862
 30
0.0
 10
-0.159537185650409
 20
-2.837498997513191
 30
0.0
 10
-0.1492258790563412
 20
-2.35854366448291
 30
0.0
 10
0.054971182647651
 20
-2.175765072241707
 30
0.0
 10
0.4599266174144134
 20
-1.933153834419874
 30
0.0
 10
0.6846794029452313
 20
-1.853875664476926
 30
0.0
 10
1.36423582836405
 20
-1.671333175621017
 30
0.0
 10
1.827653004326763
 20
-1.624403536675479
 30
0.0
 10
3.229590414070382
 20
-1.567789591812995
 30
0.0
 10
4.159869354496447
 20
-1.651909304100397
 30
0.0
 10
6.924112139684653
 20
-2.002053833214119
 30
0.0
 10
8.743709491849344
 20
-2.426336161577997
 30
0.0
 10
10.59619694679483
 20
-2.580388302511137
 30
0.0
  0
ARC
  5
A1
330
1F
100
AcDbEntity
  8
0
  6
Continuous
 62
     7
370
    25
100
AcDbCircle
 10
10.5939956181
 20
-2.6068594294
 30
0.0
 40
0.0265625000000004
100
AcDbArc
 50
274.7537567848
 51
85.2462432152
  0
ARC
  5
A2
330
1F
100
AcDbEntity
  8
0
  6
Continuous
 62
     7
370
    25
100
AcDbCircle
 10
3.8759399731
 20
-2.6068594294
 30
0.0
 40
0.3750000000000001
100
AcDbArc
 50
277.000665828
 51
82.999334172
  0
LINE
  5
A3
330
1F
100
AcDbEntity
  8
0
  6
Continuous
 62
     7
370
    25
100
AcDbLine
 10
2.1235447465
 20
-3.1998639029
 30
0.0
 11
3.9216453023
 21
-2.9790637051
 31
0.0
  0
ARC
  5
A4
330
1F
100
AcDbEntity
  8
0
  6
Continuous
 62
     7
370
    25
100
AcDbCircle
 10
2.1113566588
 20
-3.1006094294
 30
0.0
 40
0.1000000000000001
100
AcDbArc
 50
270.0
 51
277.000665828
  0
LINE
  5
A5
330
1F
100
AcDbEntity
  8
0
  6
Continuous
 62
     7
370
    25
100
AcDbLine
 10
1.3205232875
 20
-3.2006094294
 30
0.0
 11
2.1113566588
 21
-3.2006094294
 31
0.0
  0
ARC
  5
A6
330
1F
100
AcDbEntity
  8
0
  6
Continuous
 62
     7
370
    25
100
AcDbCircle
 10
1.3205232875
 20
-3.1006094294
 30
0.0
 40
0.1000000000000001
100
AcDbArc
 50
180.0
 51
270.0
  0
LINE
  5
A7
330
1F
100
AcDbEntity
  8
0
  6
Continuous
 62
     7
370
    25
100
AcDbLine
 10
1.2205232875
 20
-2.1131094294
 30
0.0
 11
1.2205232875
 21
-3.1006094294
 31
0.0
  0
ARC
  5
A8
330
1F
100
AcDbEntity
  8
0
  6
Continuous
 62
     7
370
    25
100
AcDbCircle
 10
1.3205232875
 20
-2.1131094294
 30
0.0
 40
0.1000000000000001
100
AcDbArc
 50
90.0
 51
180.0
  0
LINE
  5
A9
330
1F
100
AcDbEntity
  8
0
  6
Continuous
 62
     7
370
    25
100
AcDbLine
 10
2.1113566588
 20
-2.0131094294
 30
0.0
 11
1.3205232875
 21
-2.0131094294
 31
0.0
  0
ARC
  5
AA
330
1F
100
AcDbEntity
  8
0
  6
Continuous
 62
     7
370
    25
100
AcDbCircle
 10
2.1113566588
 20
-2.1131094294
 30
0.0
 40
0.1000000000000004
100
AcDbArc
 50
82.999334172
 51
90.0
  0
LINE
  5
AB
330
1F
100
AcDbEntity
  8
0
  6
Continuous
 62
     7
370
    25
100
AcDbLine
 10
3.9216453023
 20
-2.2346551536
 30
0.0
 11
2.1235447465
 21
-2.0138549559
 31
0.0
  0
CIRCLE
  5
AC
330
1F
100
AcDbEntity
  8
0
  6
Continuous
 62
     7
370
    25
100
AcDbCircle
 10
11.1157655889
 20
-3.8540805772
 30
0.0
 40
0.2500000000000018
  0
CIRCLE
  5
AD
330
1F
100
AcDbEntity
  8
0
  6
Continuous
 62
     7
370
    25
100
AcDbCircle
 10
6.8603489033
 20
-3.8540805772
 30
0.0
 40
0.25
  0
SPLINE
  5
AE
330
1F
100
AcDbEntity
  8
0
  6
Continuous
 62
     7
370
    25
100
AcDbSpline
210
0.0
220
0.0
230
1.0
 70
     8
 71
     3
 72
    22
 73
    18
 74
     0
 42
0.000000001
 43
0.00000001
 40
0.0
 40
0.0
 40
0.0
 40
0.0
 40
0.2499999999999997
 40
0.2499999999999997
 40
0.3749999999999996
 40
0.3749999999999996
 40
0.4374999999999996
 40
0.4374999999999996
 40
0.4999999999999997
 40
0.4999999999999997
 40
0.5624999999999997
 40
0.5624999999999997
 40
0.6249999999999998
 40
0.6249999999999998
 40
0.7499999999999998
 40
0.7499999999999998
 40
1.0
 40
1.0
 40
1.0
 40
1.0
 10
4.15205477058263
 20
-3.835395075840464
 30
0.0
 10
5.46521390553515
 20
-3.72619326966719
 30
0.0
 10
6.754991931095384
 20
-3.424866644211539
 30
0.0
 10
8.712929353032543
 20
-3.178236075989463
 30
0.0
 10
9.371746817380485
 20
-3.119749340529308
 30
0.0
 10
10.3581620421516
 20
-3.162117927164836
 30
0.0
 10
10.6880350802669
 20
-3.196678591207884
 30
0.0
 10
11.32419102231611
 20
-3.372118967505378
 30
0.0
 10
11.74797697228327
 20
-3.522233117423349
 30
0.0
 10
11.7334198335618
 20
-4.198405352289542
 30
0.0
 10
11.30831572516316
 20
-4.342647355022833
 30
0.0
 10
10.66873320712192
 20
-4.514452050416606
 30
0.0
 10
10.34161520056001
 20
-4.547578854378157
 30
0.0
 10
9.352012323093954
 20
-4.587541638986962
 30
0.0
 10
8.695344835734378
 20
-4.528163018548793
 30
0.0
 10
6.744114634425077
 20
-4.28100217446852
 30
0.0
 10
5.459692974073558
 20
-3.981508766211638
 30
0.0
 10
4.152054770582629
 20
-3.872766078494158
 30
0.0
  0
ARC
  5
AF
330
1F
100
AcDbEntity
  8
0
  6
Continuous
 62
     7
370
    25
100
AcDbCircle
 10
4.1536086497
 20
-3.8540805772
 30
0.0
 40
0.0187500000000001
100
AcDbArc
 50
94.7537567848
 51
265.2462432152
  0
ARC
  5
B0
330
1F
100
AcDbEntity
  8
0
  6
Continuous
 62
     7
370
    25
100
AcDbCircle
 10
7.8353489033
 20
-3.8540805772
 30
0.0
 40
0.3749999999999999
100
AcDbArc
 50
97.000665828
 51
262.999334172
  0
LINE
  5
B1
330
1F
100
AcDbEntity
  8
0
  6
Continuous
 62
     7
370
    25
100
AcDbLine
 10
9.5877441299
 20
-3.2610761036
 30
0.0
 11
7.7896435741
 21
-3.4818763014
 31
0.0
  0
ARC
  5
B2
330
1F
100
AcDbEntity
  8
0
  6
Continuous
 62
     7
370
    25
100
AcDbCircle
 10
9.5999322177
 20
-3.3603305772
 30
0.0
 40
0.0999999999999999
100
AcDbArc
 50
90.0
 51
97.000665828
  0
LINE
  5
B3
330
1F
100
AcDbEntity
  8
0
  6
Continuous
 62
     7
370
    25
100
AcDbLine
 10
10.3907655889
 20
-3.2603305772
 30
0.0
 11
9.5999322177
 21
-3.2603305772
 31
0.0
  0
ARC
  5
B4
330
1F
100
AcDbEntity
  8
0
  6
Continuous
 62
     7
370
    25
100
AcDbCircle
 10
10.3907655889
 20
-3.3603305772
 30
0.0
 40
0.0999999999999996
100
AcDbArc
 50
0.0
 51
90.0
  0
LINE
  5
B5
330
1F
100
AcDbEntity
  8
0
  6
Continuous
 62
     7
370
    25
100
AcDbLine
 10
10.4907655889
 20
-4.3478305772
 30
0.0
 11
10.4907655889
 21
-3.3603305772
 31
0.0
  0
ARC
  5
B6
330
1F
100
AcDbEntity
  8
0
  6
Continuous
 62
     7
370
    25
100
AcDbCircle
 10
10.3907655889
 20
-4.3478305772
 30
0.0
 40
0.0999999999999996
100
AcDbArc
 50
270.0
 51
0.0
  0
LINE
  5
B7
330
1F
100
AcDbEntity
  8
0
  6
Continuous
 62
     7
370
    25
100
AcDbLine
 10
9.5999322177
 20
-4.4478305772
 30
0.0
 11
10.3907655889
 21
-4.4478305772
 31
0.0
  0
ARC
  5
B8
330
1F
100
AcDbEntity
  8
0
  6
Continuous
 62
     7
370
    25
100
AcDbCircle
 10
9.5999322177
 20
-4.3478305772
 30
0.0
 40
0.0999999999999996
100
AcDbArc
 50
262.999334172
 51
270.0
  0
LINE
  5
B9
330
1F
100
AcDbEntity
  8
0
  6
Continuous
 62
     7
370
    25
100
AcDbLine
 10
7.7896435741
 20
-4.2262848529
 30
0.0
 11
9.5877441299
 21
-4.4470850507
 31
0.0
  0
CIRCLE
  5
BA
330
1F
100
AcDbEntity
  8
0
  6
Continuous
 62
     7
370
    25
100
AcDbCircle
 10
0.4230478799
 20
-4.5872906369
 30
0.0
 40
0.2500000000000001
  0
CIRCLE
  5
BB
330
1F
100
AcDbEntity
  8
0
  6
Continuous
 62
     7
370
    25
100
AcDbCircle
 10
4.6784645655
 20
-4.5872906369
 30
0.0
 40
0.2499999999999991
  0
SPLINE
  5
BC
330
1F
100
AcDbEntity
  8
0
  6
Continuous
 62
     7
370
    25
100
AcDbSpline
210
0.0
220
0.0
230
1.0
 70
     8
 71
     3
 72
    22
 73
    18
 74
     0
 42
0.000000001
 43
0.00000001
 40
0.0
 40
0.0
 40
0.0
 40
0.0
 40
0.2499999999999999
 40
0.2499999999999999
 40
0.3749999999999999
 40
0.3749999999999999
 40
0.4374999999999999
 40
0.4374999999999999
 40
0.4999999999999999
 40
0.4999999999999999
 40
0.5624999999999999
 40
0.5624999999999999
 40
0.6249999999999999
 40
0.6249999999999999
 40
0.7499999999999998
 40
0.7499999999999998
 40
1.0
 40
1.0
 40
1.0
 40
1.0
 10
7.386758698159038
 20
-4.605976138249344
 30
0.0
 10
6.073599563206526
 20
-4.715177944422623
 30
0.0
 10
4.78382153764629
 20
-5.016504569878275
 30
0.0
 10
2.825884115709139
 20
-5.263135138100339
 30
0.0
 10
2.167066651361197
 20
-5.321621873560503
 30
0.0
 10
1.18065142659009
 20
-5.279253286924973
 30
0.0
 10
0.8507783884747836
 20
-5.24469262288193
 30
0.0
 10
0.2146224464255909
 20
-5.069252246584438
 30
0.0
 10
-0.2091635035414554
 20
-4.919138096666549
 30
0.0
 10
-0.1946063648202765
 20
-4.242965861800274
 30
0.0
 10
0.2304977435784703
 20
-4.098723859066991
 30
0.0
 10
0.8700802616197127
 20
-3.926919163673206
 30
0.0
 10
1.197198268181622
 20
-3.893792359711654
 30
0.0
 10
2.186801145647685
 20
-3.853829575102848
 30
0.0
 10
2.843468633007271
 20
-3.913208195541013
 30
0.0
 10
4.794698834316576
 20
-4.160369039621289
 30
0.0
 10
6.079120494668115
 20
-4.459862447878143
 30
0.0
 10
7.386758698159042
 20
-4.568605135595651
 30
0.0
  0
ARC
  5
BD
330
1F
100
AcDbEntity
  8
0
  6
Continuous
 62
     7
370
    25
100
AcDbCircle
 10
7.3852048191
 20
-4.5872906369
 30
0.0
 40
0.0187500000000005
100
AcDbArc
 50
274.7537567848
 51
85.2462432152
  0
ARC
  5
BE
330
1F
100
AcDbEntity
  8
0
  6
Continuous
 62
     7
370
    25
100
AcDbCircle
 10
3.7034645655
 20
-4.5872906369
 30
0.0
 40
0.3750000000000004
100
AcDbArc
 50
277.000665828
 51
82.999334172
  0
LINE
  5
BF
330
1F
100
AcDbEntity
  8
0
  6
Continuous
 62
     7
370
    25
100
AcDbLine
 10
1.9510693389
 20
-5.1802951105
 30
0.0
 11
3.7491698946
 21
-4.9594949127
 31
0.0
  0
ARC
  5
C0
330
1F
100
AcDbEntity
  8
0
  6
Continuous
 62
     7
370
    25
100
AcDbCircle
 10
1.9388812511
 20
-5.0810406369
 30
0.0
 40
0.0999999999999996
100
AcDbArc
 50
270.0
 51
277.000665828
  0
LINE
  5
C1
330
1F
100
AcDbEntity
  8
0
  6
Continuous
 62
     7
370
    25
100
AcDbLine
 10
1.1480478799
 20
-5.1810406369
 30
0.0
 11
1.9388812511
 21
-5.1810406369
 31
0.0
  0
ARC
  5
C2
330
1F
100
AcDbEntity
  8
0
  6
Continuous
 62
     7
370
    25
100
AcDbCircle
 10
1.1480478799
 20
-5.0810406369
 30
0.0
 40
0.0999999999999999
100
AcDbArc
 50
180.0
 51
270.0
  0
LINE
  5
C3
330
1F
100
AcDbEntity
  8
0
  6
Continuous
 62
     7
370
    25
100
AcDbLine
 10
1.0480478799
 20
-4.0935406369
 30
0.0
 11
1.0480478799
 21
-5.0810406369
 31
0.0
  0
ARC
  5
C4
330
1F
100
AcDbEntity
  8
0
  6
Continuous
 62
     7
370
    25
100
AcDbCircle
 10
1.1480478799
 20
-4.0935406369
 30
0.0
 40
0.1000000000000001
100
AcDbArc
 50
90.0
 51
180.0
  0
LINE
  5
C5
330
1F
100
AcDbEntity
  8
0
  6
Continuous
 62
     7
370
    25
100
AcDbLine
 10
1.9388812511
 20
-3.9935406369
 30
0.0
 11
1.1480478799
 21
-3.9935406369
 31
0.0
  0
ARC
  5
C6
330
1F
100
AcDbEntity
  8
0
  6
Continuous
 62
     7
370
    25
100
AcDbCircle
 10
1.9388812511
 20
-4.0935406369
 30
0.0
 40
0.1000000000000004
100
AcDbArc
 50
82.999334172
 51
90.0
  0
LINE
  5
C7
330
1F
100
AcDbEntity
  8
0
  6
Continuous
 62
     7
370
    25
100
AcDbLine
 10
3.7491698946
 20
-4.2150863612
 30
0.0
 11
1.9510693389
 21
-3.9942861634
 31
0.0
  0
CIRCLE
  5
C8
330
1F
100
AcDbEntity
  8
0
  6
Continuous
 62
     7
370
    25
100
AcDbCircle
 10
11.1157655889
 20
-5.4540805772
 30
0.0
 40
0.2500000000000018
  0
CIRCLE
  5
C9
330
1F
100
AcDbEntity
  8
0
  6
Continuous
 62
     7
370
    25
100
AcDbCircle
 10
6.8603489033
 20
-5.4540805772
 30
0.0
 40
0.25
  0
SPLINE
  5
CA
330
1F
100
AcDbEntity
  8
0
  6
Continuous
 62
     7
370
    25
100
AcDbSpline
210
0.0
220
0.0
230
1.0
 70
     8
 71
     3
 72
    22
 73
    18
 74
     0
 42
0.000000001
 43
0.00000001
 40
0.0
 40
0.0
 40
0.0
 40
0.0
 40
0.2500000000000002
 40
0.2500000000000002
 40
0.3750000000000003
 40
0.3750000000000003
 40
0.4375000000000002
 40
0.4375000000000002
 40
0.5
 40
0.5
 40
0.5624999999999998
 40
0.5624999999999998
 40
0.6249999999999997
 40
0.6249999999999997
 40
0.7499999999999998
 40
0.7499999999999998
 40
1.0
 40
1.0
 40
1.0
 40
1.0
 10
4.15205477058263
 20
-5.435395075840463
 30
0.0
 10
5.465213905535075
 20
-5.326193269667171
 30
0.0
 10
6.754991931095236
 20
-5.024866644211576
 30
0.0
 10
8.712929353032276
 20
-4.778236075989486
 30
0.0
 10
9.371746817380185
 20
-4.719749340529329
 30
0.0
 10
10.35816204215125
 20
-4.762117927164804
 30
0.0
 10
10.68803508026653
 20
-4.796678591207831
 30
0.0
 10
11.32419102231573
 20
-4.972118967505223
 30
0.0
 10
11.74797697228264
 20
-5.122233117422748
 30
0.0
 10
11.73341983356245
 20
-5.798405352289215
 30
0.0
 10
11.30831572516356
 20
-5.942647355022668
 30
0.0
 10
10.6687332071223
 20
-6.11445205041656
 30
0.0
 10
10.34161520056037
 20
-6.147578854378128
 30
0.0
 10
9.352012323094266
 20
-6.187541638986978
 30
0.0
 10
8.69534483573464
 20
-6.128163018548828
 30
0.0
 10
6.744114634425229
 20
-5.881002174468537
 30
0.0
 10
5.459692974073485
 20
-5.581508766211631
 30
0.0
 10
4.152054770582627
 20
-5.472766078494158
 30
0.0
  0
ARC
  5
CB
330
1F
100
AcDbEntity
  8
0
  6
Continuous
 62
     7
370
    25
100
AcDbCircle
 10
4.1536086497
 20
-5.4540805772
 30
0.0
 40
0.0187500000000005
100
AcDbArc
 50
94.7537567848
 51
265.2462432152
  0
ARC
  5
CC
330
1F
100
AcDbEntity
  8
0
  6
Continuous
 62
     7
370
    25
100
AcDbCircle
 10
7.8353489033
 20
-5.4540805772
 30
0.0
 40
0.3750000000000004
100
AcDbArc
 50
97.000665828
 51
262.999334172
  0
LINE
  5
CD
330
1F
100
AcDbEntity
  8
0
  6
Continuous
 62
     7
370
    25
100
AcDbLine
 10
9.5877441299
 20
-4.8610761036
 30
0.0
 11
7.7896435741
 21
-5.0818763014
 31
0.0
  0
ARC
  5
CE
330
1F
100
AcDbEntity
  8
0
  6
Continuous
 62
     7
370
    25
100
AcDbCircle
 10
9.5999322177
 20
-4.9603305772
 30
0.0
 40
0.0999999999999996
100
AcDbArc
 50
90.0
 51
97.000665828
  0
LINE
  5
CF
330
1F
100
AcDbEntity
  8
0
  6
Continuous
 62
     7
370
    25
100
AcDbLine
 10
10.3907655889
 20
-4.8603305772
 30
0.0
 11
9.5999322177
 21
-4.8603305772
 31
0.0
  0
ARC
  5
D0
330
1F
100
AcDbEntity
  8
0
  6
Continuous
 62
     7
370
    25
100
AcDbCircle
 10
10.3907655889
 20
-4.9603305772
 30
0.0
 40
0.0999999999999996
100
AcDbArc
 50
0.0
 51
90.0
  0
LINE
  5
D1
330
1F
100
AcDbEntity
  8
0
  6
Continuous
 62
     7
370
    25
100
AcDbLine
 10
10.4907655889
 20
-5.9478305772
 30
0.0
 11
10.4907655889
 21
-4.9603305772
 31
0.0
  0
ARC
  5
D2
330
1F
100
AcDbEntity
  8
0
  6
Continuous
 62
     7
370
    25
100
AcDbCircle
 10
10.3907655889
 20
-5.9478305772
 30
0.0
 40
0.0999999999999996
100
AcDbArc
 50
270.0
 51
0.0
  0
LINE
  5
D3
330
1F
100
AcDbEntity
  8
0
  6
Continuous
 62
     7
370
    25
100
AcDbLine
 10
9.5999322177
 20
-6.0478305772
 30
0.0
 11
10.3907655889
 21
-6.0478305772
 31
0.0
  0
ARC
  5
D4
330
1F
100
AcDbEntity
  8
0
  6
Continuous
 62
     7
370
    25
100
AcDbCircle
 10
9.5999322177
 20
-5.9478305772
 30
0.0
 40
0.0999999999999996
100
AcDbArc
 50
262.999334172
 51
270.0
  0
LINE
  5
D5
330
1F
100
AcDbEntity
  8
0
  6
Continuous
 62
     7
370
    25
100
AcDbLine
 10
7.7896435741
 20
-5.8262848529
 30
0.0
 11
9.5877441299
 21
-6.0470850507
 31
0.0
  0
CIRCLE
  5
D6
330
1F
100
AcDbEntity
  8
0
  6
Continuous
 62
     7
370
    25
100
AcDbCircle
 10
0.4230478799
 20
-6.1872906369
 30
0.0
 40
0.2500000000000001
  0
CIRCLE
  5
D7
330
1F
100
AcDbEntity
  8
0
  6
Continuous
 62
     7
370
    25
100
AcDbCircle
 10
4.6784645655
 20
-6.1872906369
 30
0.0
 40
0.2499999999999991
  0
SPLINE
  5
D8
330
1F
100
AcDbEntity
  8
0
  6
Continuous
 62
     7
370
    25
100
AcDbSpline
210
0.0
220
0.0
230
1.0
 70
     8
 71
     3
 72
    22
 73
    18
 74
     0
 42
0.000000001
 43
0.00000001
 40
0.0
 40
0.0
 40
0.0
 40
0.0
 40
0.2500000000000001
 40
0.2500000000000001
 40
0.3750000000000001
 40
0.3750000000000001
 40
0.4375000000000001
 40
0.4375000000000001
 40
0.5000000000000001
 40
0.5000000000000001
 40
0.5625000000000001
 40
0.5625000000000001
 40
0.6250000000000001
 40
0.6250000000000001
 40
0.7500000000000002
 40
0.7500000000000002
 40
1.0
 40
1.0
 40
1.0
 40
1.0
 10
7.386758698159038
 20
-6.205976138249345
 30
0.0
 10
6.073599563206557
 20
-6.315177944422644
 30
0.0
 10
4.783821537646351
 20
-6.616504569878258
 30
0.0
 10
2.825884115709248
 20
-6.863135138100334
 30
0.0
 10
2.167066651361326
 20
-6.921621873560485
 30
0.0
 10
1.180651426590234
 20
-6.879253286924991
 30
0.0
 10
0.8507783884749369
 20
-6.84469262288195
 30
0.0
 10
0.2146224464257411
 20
-6.669252246584504
 30
0.0
 10
-0.2091635035412585
 20
-6.519138096666758
 30
0.0
 10
-0.1946063648204807
 20
-5.84296586180041
 30
0.0
 10
0.2304977435783172
 20
-5.698723859067061
 30
0.0
 10
0.8700802616195642
 20
-5.526919163673222
 30
0.0
 10
1.197198268181479
 20
-5.493792359711669
 30
0.0
 10
2.186801145647556
 20
-5.453829575102836
 30
0.0
 10
2.843468633007159
 20
-5.513208195541011
 30
0.0
 10
4.794698834316516
 20
-5.76036903962126
 30
0.0
 10
6.079120494668152
 20
-6.059862447878127
 30
0.0
 10
7.38675869815904
 20
-6.168605135595651
 30
0.0
  0
ARC
  5
D9
330
1F
100
AcDbEntity
  8
0
  6
Continuous
 62
     7
370
    25
100
AcDbCircle
 10
7.3852048191
 20
-6.1872906369
 30
0.0
 40
0.0187500000000005
100
AcDbArc
 50
274.7537567848
 51
85.2462432152
  0
ARC
  5
DA
330
1F
100
AcDbEntity
  8
0
  6
Continuous
 62
     7
370
    25
100
AcDbCircle
 10
3.7034645655
 20
-6.1872906369
 30
0.0
 40
0.3750000000000004
100
AcDbArc
 50
277.000665828
 51
82.999334172
  0
LINE
  5
DB
330
1F
100
AcDbEntity
  8
0
  6
Continuous
 62
     7
370
    25
100
AcDbLine
 10
1.9510693389
 20
-6.7802951105
 30
0.0
 11
3.7491698946
 21
-6.5594949127
 31
0.0
  0
ARC
  5
DC
330
1F
100
AcDbEntity
  8
0
  6
Continuous
 62
     7
370
    25
100
AcDbCircle
 10
1.9388812511
 20
-6.6810406369
 30
0.0
 40
0.0999999999999996
100
AcDbArc
 50
270.0
 51
277.000665828
  0
LINE
  5
DD
330
1F
100
AcDbEntity
  8
0
  6
Continuous
 62
     7
370
    25
100
AcDbLine
 10
1.1480478799
 20
-6.7810406369
 30
0.0
 11
1.9388812511
 21
-6.7810406369
 31
0.0
  0
ARC
  5
DE
330
1F
100
AcDbEntity
  8
0
  6
Continuous
 62
     7
370
    25
100
AcDbCircle
 10
1.1480478799
 20
-6.6810406369
 30
0.0
 40
0.0999999999999999
100
AcDbArc
 50
180.0
 51
270.0
  0
LINE
  5
DF
330
1F
100
AcDbEntity
  8
0
  6
Continuous
 62
     7
370
    25
100
AcDbLine
 10
1.0480478799
 20
-5.6935406369
 30
0.0
 11
1.0480478799
 21
-6.6810406369
 31
0.0
  0
ARC
  5
E0
330
1F
100
AcDbEntity
  8
0
  6
Continuous
 62
     7
370
    25
100
AcDbCircle
 10
1.1480478799
 20
-5.6935406369
 30
0.0
 40
0.0999999999999999
100
AcDbArc
 50
90.0
 51
180.0
  0
LINE
  5
E1
330
1F
100
AcDbEntity
  8
0
  6
Continuous
 62
     7
370
    25
100
AcDbLine
 10
1.9388812511
 20
-5.5935406369
 30
0.0
 11
1.1480478799
 21
-5.5935406369
 31
0.0
  0
ARC
  5
E2
330
1F
100
AcDbEntity
  8
0
  6
Continuous
 62
     7
370
    25
100
AcDbCircle
 10
1.9388812511
 20
-5.6935406369
 30
0.0
 40
0.0999999999999996
100
AcDbArc
 50
82.999334172
 51
90.0
  0
LINE
  5
E3
330
1F
100
AcDbEntity
  8
0
  6
Continuous
 62
     7
370
    25
100
AcDbLine
 10
3.7491698946
 20
-5.8150863612
 30
0.0
 11
1.9510693389
 21
-5.5942861634
 31
0.0
  0
CIRCLE
  5
E4
330
1F
100
AcDbEntity
  8
0
  6
Continuous
 62
     7
370
    25
100
AcDbCircle
 10
11.1157655889
 20
-7.0540805772
 30
0.0
 40
0.2500000000000018
  0
CIRCLE
  5
E5
330
1F
100
AcDbEntity
  8
0
  6
Continuous
 62
     7
370
    25
100
AcDbCircle
 10
6.8603489033
 20
-7.0540805772
 30
0.0
 40
0.25
  0
SPLINE
  5
E6
330
1F
100
AcDbEntity
  8
0
  6
Continuous
 62
     7
370
    25
100
AcDbSpline
210
0.0
220
0.0
230
1.0
 70
     8
 71
     3
 72
    22
 73
    18
 74
     0
 42
0.000000001
 43
0.00000001
 40
0.0
 40
0.0
 40
0.0
 40
0.0
 40
0.2499999999999997
 40
0.2499999999999997
 40
0.3749999999999996
 40
0.3749999999999996
 40
0.4374999999999996
 40
0.4374999999999996
 40
0.4999999999999997
 40
0.4999999999999997
 40
0.5624999999999997
 40
0.5624999999999997
 40
0.6249999999999997
 40
0.6249999999999997
 40
0.7499999999999999
 40
0.7499999999999999
 40
1.0
 40
1.0
 40
1.0
 40
1.0
 10
4.15205477058263
 20
-7.035395075840464
 30
0.0
 10
5.465213905535129
 20
-6.926193269667166
 30
0.0
 10
6.754991931095347
 20
-6.624866644211559
 30
0.0
 10
8.712929353032477
 20
-6.378236075989466
 30
0.0
 10
9.371746817380416
 20
-6.319749340529305
 30
0.0
 10
10.35816204215152
 20
-6.362117927164834
 30
0.0
 10
10.68803508026682
 20
-6.396678591207872
 30
0.0
 10
11.32419102231601
 20
-6.572118967505339
 30
0.0
 10
11.74797697228302
 20
-6.72223311742317
 30
0.0
 10
11.73341983356205
 20
-7.398405352289498
 30
0.0
 10
11.30831572516324
 20
-7.542647355022817
 30
0.0
 10
10.66873320712199
 20
-7.714452050416581
 30
0.0
 10
10.34161520056009
 20
-7.747578854378153
 30
0.0
 10
9.352012323094025
 20
-7.787541638986966
 30
0.0
 10
8.695344835734433
 20
-7.728163018548796
 30
0.0
 10
6.74411463442511
 20
-7.481002174468538
 30
0.0
 10
5.45969297407354
 20
-7.181508766211687
 30
0.0
 10
4.152054770582629
 20
-7.072766078494158
 30
0.0
  0
ARC
  5
E7
330
1F
100
AcDbEntity
  8
0
  6
Continuous
 62
     7
370
    25
100
AcDbCircle
 10
4.1536086497
 20
-7.0540805772
 30
0.0
 40
0.0187500000000005
100
AcDbArc
 50
94.7537567848
 51
265.2462432152
  0
ARC
  5
E8
330
1F
100
AcDbEntity
  8
0
  6
Continuous
 62
     7
370
    25
100
AcDbCircle
 10
7.8353489033
 20
-7.0540805772
 30
0.0
 40
0.3750000000000004
100
AcDbArc
 50
97.000665828
 51
262.999334172
  0
LINE
  5
E9
330
1F
100
AcDbEntity
  8
0
  6
Continuous
 62
     7
370
    25
100
AcDbLine
 10
9.5877441299
 20
-6.4610761036
 30
0.0
 11
7.7896435741
 21
-6.6818763014
 31
0.0
  0
ARC
  5
EA
330
1F
100
AcDbEntity
  8
0
  6
Continuous
 62
     7
370
    25
100
AcDbCircle
 10
9.5999322177
 20
-6.5603305772
 30
0.0
 40
0.0999999999999995
100
AcDbArc
 50
90.0
 51
97.000665828
  0
LINE
  5
EB
330
1F
100
AcDbEntity
  8
0
  6
Continuous
 62
     7
370
    25
100
AcDbLine
 10
10.3907655889
 20
-6.4603305772
 30
0.0
 11
9.5999322177
 21
-6.4603305772
 31
0.0
  0
ARC
  5
EC
330
1F
100
AcDbEntity
  8
0
  6
Continuous
 62
     7
370
    25
100
AcDbCircle
 10
10.3907655889
 20
-6.5603305772
 30
0.0
 40
0.0999999999999996
100
AcDbArc
 50
0.0
 51
90.0
  0
LINE
  5
ED
330
1F
100
AcDbEntity
  8
0
  6
Continuous
 62
     7
370
    25
100
AcDbLine
 10
10.4907655889
 20
-7.5478305772
 30
0.0
 11
10.4907655889
 21
-6.5603305772
 31
0.0
  0
ARC
  5
EE
330
1F
100
AcDbEntity
  8
0
  6
Continuous
 62
     7
370
    25
100
AcDbCircle
 10
10.3907655889
 20
-7.5478305772
 30
0.0
 40
0.0999999999999996
100
AcDbArc
 50
270.0
 51
0.0
  0
LINE
  5
EF
330
1F
100
AcDbEntity
  8
0
  6
Continuous
 62
     7
370
    25
100
AcDbLine
 10
9.5999322177
 20
-7.6478305772
 30
0.0
 11
10.3907655889
 21
-7.6478305772
 31
0.0
  0
ARC
  5
F0
330
1F
100
AcDbEntity
  8
0
  6
Continuous
 62
     7
370
    25
100
AcDbCircle
 10
9.5999322177
 20
-7.5478305772
 30
0.0
 40
0.0999999999999996
100
AcDbArc
 50
262.999334172
 51
270.0
  0
LINE
  5
F1
330
1F
100
AcDbEntity
  8
0
  6
Continuous
 62
     7
370
    25
100
AcDbLine
 10
7.7896435741
 20
-7.4262848529
 30
0.0
 11
9.5877441299
 21
-7.6470850507
 31
0.0
  0
CIRCLE
  5
F2
330
1F
100
AcDbEntity
  8
0
  6
Continuous
 62
     7
370
    25
100
AcDbCircle
 10
0.4230478799
 20
-7.7872906369
 30
0.0
 40
0.2500000000000001
  0
CIRCLE
  5
F3
330
1F
100
AcDbEntity
  8
0
  6
Continuous
 62
     7
370
    25
100
AcDbCircle
 10
4.6784645655
 20
-7.7872906369
 30
0.0
 40
0.2499999999999991
  0
SPLINE
  5
F4
330
1F
100
AcDbEntity
  8
0
  6
Continuous
 62
     7
370
    25
100
AcDbSpline
210
0.0
220
0.0
230
1.0
 70
     8
 71
     3
 72
    22
 73
    18
 74
     0
 42
0.000000001
 43
0.00000001
 40
0.0
 40
0.0
 40
0.0
 40
0.0
 40
0.2499999999999999
 40
0.2499999999999999
 40
0.3749999999999999
 40
0.3749999999999999
 40
0.4374999999999999
 40
0.4374999999999999
 40
0.4999999999999999
 40
0.4999999999999999
 40
0.5624999999999999
 40
0.5624999999999999
 40
0.6249999999999999
 40
0.6249999999999999
 40
0.7499999999999999
 40
0.7499999999999999
 40
1.0
 40
1.0
 40
1.0
 40
1.0
 10
7.386758698159038
 20
-7.805976138249345
 30
0.0
 10
6.073599563206549
 20
-7.915177944422647
 30
0.0
 10
4.78382153764634
 20
-8.216504569878266
 30
0.0
 10
2.825884115709227
 20
-8.46313513810033
 30
0.0
 10
2.167066651361298
 20
-8.521621873560502
 30
0.0
 10
1.180651426590204
 20
-8.47925328692498
 30
0.0
 10
0.850778388474902
 20
-8.444692622881952
 30
0.0
 10
0.2146224464257126
 20
-8.269252246584479
 30
0.0
 10
-0.2091635035412972
 20
-8.119138096666719
 30
0.0
 10
-0.1946063648204406
 20
-7.44296586180038
 30
0.0
 10
0.2304977435783505
 20
-7.298723859067048
 30
0.0
 10
0.8700802616195998
 20
-7.126919163673214
 30
0.0
 10
1.197198268181515
 20
-7.093792359711664
 30
0.0
 10
2.186801145647595
 20
-7.053829575102844
 30
0.0
 10
2.843468633007192
 20
-7.113208195541012
 30
0.0
 10
4.794698834316539
 20
-7.360369039621258
 30
0.0
 10
6.079120494668143
 20
-7.659862447878131
 30
0.0
 10
7.386758698159042
 20
-7.76860513559565
 30
0.0
  0
ARC
  5
F5
330
1F
100
AcDbEntity
  8
0
  6
Continuous
 62
     7
370
    25
100
AcDbCircle
 10
7.3852048191
 20
-7.7872906369
 30
0.0
 40
0.0187500000000005
100
AcDbArc
 50
274.7537567848
 51
85.2462432152
  0
ARC
  5
F6
330
1F
100
AcDbEntity
  8
0
  6
Continuous
 62
     7
370
    25
100
AcDbCircle
 10
3.7034645655
 20
-7.7872906369
 30
0.0
 40
0.3750000000000013
100
AcDbArc
 50
277.000665828
 51
82.999334172
  0
LINE
  5
F7
330
1F
100
AcDbEntity
  8
0
  6
Continuous
 62
     7
370
    25
100
AcDbLine
 10
1.9510693389
 20
-8.3802951105
 30
0.0
 11
3.7491698946
 21
-8.1594949127
 31
0.0
  0
ARC
  5
F8
330
1F
100
AcDbEntity
  8
0
  6
Continuous
 62
     7
370
    25
100
AcDbCircle
 10
1.9388812511
 20
-8.2810406369
 30
0.0
 40
0.0999999999999996
100
AcDbArc
 50
270.0
 51
277.000665828
  0
LINE
  5
F9
330
1F
100
AcDbEntity
  8
0
  6
Continuous
 62
     7
370
    25
100
AcDbLine
 10
1.1480478799
 20
-8.3810406369
 30
0.0
 11
1.9388812511
 21
-8.3810406369
 31
0.0
  0
ARC
  5
FA
330
1F
100
AcDbEntity
  8
0
  6
Continuous
 62
     7
370
    25
100
AcDbCircle
 10
1.1480478799
 20
-8.2810406369
 30
0.0
 40
0.0999999999999999
100
AcDbArc
 50
180.0
 51
270.0
  0
LINE
  5
FB
330
1F
100
AcDbEntity
  8
0
  6
Continuous
 62
     7
370
    25
100
AcDbLine
 10
1.0480478799
 20
-7.2935406369
 30
0.0
 11
1.0480478799
 21
-8.2810406369
 31
0.0
  0
ARC
  5
FC
330
1F
100
AcDbEntity
  8
0
  6
Continuous
 62
     7
370
    25
100
AcDbCircle
 10
1.1480478799
 20
-7.2935406369
 30
0.0
 40
0.0999999999999999
100
AcDbArc
 50
90.0
 51
180.0
  0
LINE
  5
FD
330
1F
100
AcDbEntity
  8
0
  6
Continuous
 62
     7
370
    25
100
AcDbLine
 10
1.9388812511
 20
-7.1935406369
 30
0.0
 11
1.1480478799
 21
-7.1935406369
 31
0.0
  0
ARC
  5
FE
330
1F
100
AcDbEntity
  8
0
  6
Continuous
 62
     7
370
    25
100
AcDbCircle
 10
1.9388812511
 20
-7.2935406369
 30
0.0
 40
0.0999999999999995
100
AcDbArc
 50
82.999334172
 51
90.0
  0
LINE
  5
FF
330
1F
100
AcDbEntity
  8
0
  6
Continuous
 62
     7
370
    25
100
AcDbLine
 10
3.7491698946
 20
-7.4150863612
 30
0.0
 11
1.9510693389
 21
-7.1942861634
 31
0.0
  0
CIRCLE
  5
100
330
1F
100
AcDbEntity
  8
0
  6
Continuous
 62
     7
370
    25
100
AcDbCircle
 10
11.1157655889
 20
-8.6540805772
 30
0.0
 40
0.2500000000000018
  0
CIRCLE
  5
101
330
1F
100
AcDbEntity
  8
0
  6
Continuous
 62
     7
370
    25
100
AcDbCircle
 10
6.8603489033
 20
-8.6540805772
 30
0.0
 40
0.25
  0
SPLINE
  5
102
330
1F
100
AcDbEntity
  8
0
  6
Continuous
 62
     7
370
    25
100
AcDbSpline
210
0.0
220
0.0
230
1.0
 70
     8
 71
     3
 72
    22
 73
    18
 74
     0
 42
0.000000001
 43
0.00000001
 40
0.0
 40
0.0
 40
0.0
 40
0.0
 40
0.2499999999999994
 40
0.2499999999999994
 40
0.3749999999999992
 40
0.3749999999999992
 40
0.4374999999999993
 40
0.4374999999999993
 40
0.4999999999999996
 40
0.4999999999999996
 40
0.5624999999999998
 40
0.5624999999999998
 40
0.6249999999999999
 40
0.6249999999999999
 40
0.7500000000000001
 40
0.7500000000000001
 40
1.0
 40
1.0
 40
1.0
 40
1.0
 10
4.15205477058263
 20
-8.635395075840465
 30
0.0
 10
5.465213905535162
 20
-8.526193269667266
 30
0.0
 10
6.754991931095391
 20
-8.224866644211552
 30
0.0
 10
8.71292935303255
 20
-7.978236075989457
 30
0.0
 10
9.371746817380501
 20
-7.919749340529301
 30
0.0
 10
10.35816204215162
 20
-7.962117927164843
 30
0.0
 10
10.68803508026692
 20
-7.996678591207887
 30
0.0
 10
11.32419102231612
 20
-8.172118967505387
 30
0.0
 10
11.7479769722832
 20
-8.322233117423357
 30
0.0
 10
11.73341983356186
 20
-8.99840535228958
 30
0.0
 10
11.30831572516314
 20
-9.142647355022843
 30
0.0
 10
10.6687332071219
 20
-9.314452050416607
 30
0.0
 10
10.34161520055999
 20
-9.34757885437816
 30
0.0
 10
9.352012323093934
 20
-9.387541638986958
 30
0.0
 10
8.695344835734359
 20
-9.3281630185488
 30
0.0
 10
6.74411463442507
 20
-9.081002174468503
 30
0.0
 10
5.459692974073556
 20
-8.781508766211685
 30
0.0
 10
4.152054770582625
 20
-8.672766078494158
 30
0.0
  0
ARC
  5
103
330
1F
100
AcDbEntity
  8
0
  6
Continuous
 62
     7
370
    25
100
AcDbCircle
 10
4.1536086497
 20
-8.6540805772
 30
0.0
 40
0.0187499999999996
100
AcDbArc
 50
94.7537567848
 51
265.2462432152
  0
ARC
  5
104
330
1F
100
AcDbEntity
  8
0
  6
Continuous
 62
     7
370
    25
100
AcDbCircle
 10
7.8353489033
 20
-8.6540805772
 30
0.0
 40
0.3750000000000013
100
AcDbArc
 50
97.000665828
 51
262.999334172
  0
LINE
  5
105
330
1F
100
AcDbEntity
  8
0
  6
Continuous
 62
     7
370
    25
100
AcDbLine
 10
9.5877441299
 20
-8.0610761036
 30
0.0
 11
7.7896435741
 21
-8.2818763014
 31
0.0
  0
ARC
  5
106
330
1F
100
AcDbEntity
  8
0
  6
Continuous
 62
     7
370
    25
100
AcDbCircle
 10
9.5999322177
 20
-8.1603305772
 30
0.0
 40
0.0999999999999996
100
AcDbArc
 50
90.0
 51
97.000665828
  0
LINE
  5
107
330
1F
100
AcDbEntity
  8
0
  6
Continuous
 62
     7
370
    25
100
AcDbLine
 10
10.3907655889
 20
-8.0603305772
 30
0.0
 11
9.5999322177
 21
-8.0603305772
 31
0.0
  0
ARC
  5
108
330
1F
100
AcDbEntity
  8
0
  6
Continuous
 62
     7
370
    25
100
AcDbCircle
 10
10.3907655889
 20
-8.1603305772
 30
0.0
 40
0.0999999999999996
100
AcDbArc
 50
0.0
 51
90.0
  0
LINE
  5
109
330
1F
100
AcDbEntity
  8
0
  6
Continuous
 62
     7
370
    25
100
AcDbLine
 10
10.4907655889
 20
-9.1478305772
 30
0.0
 11
10.4907655889
 21
-8.1603305772
 31
0.0
  0
ARC
  5
10A
330
1F
100
AcDbEntity
  8
0
  6
Continuous
 62
     7
370
    25
100
AcDbCircle
 10
10.3907655889
 20
-9.1478305772
 30
0.0
 40
0.0999999999999996
100
AcDbArc
 50
270.0
 51
0.0
  0
LINE
  5
10B
330
1F
100
AcDbEntity
  8
0
  6
Continuous
 62
     7
370
    25
100
AcDbLine
 10
9.5999322177
 20
-9.2478305772
 30
0.0
 11
10.3907655889
 21
-9.2478305772
 31
0.0
  0
ARC
  5
10C
330
1F
100
AcDbEntity
  8
0
  6
Continuous
 62
     7
370
    25
100
AcDbCircle
 10
9.5999322177
 20
-9.1478305772
 30
0.0
 40
0.0999999999999996
100
AcDbArc
 50
262.999334172
 51
270.0
  0
LINE
  5
10D
330
1F
100
AcDbEntity
  8
0
  6
Continuous
 62
     7
370
    25
100
AcDbLine
 10
7.7896435741
 20
-9.0262848529
 30
0.0
 11
9.5877441299
 21
-9.2470850507
 31
0.0
  0
CIRCLE
  5
10E
330
1F
100
AcDbEntity
  8
0
  6
Continuous
 62
     7
370
    25
100
AcDbCircle
 10
0.4230478799
 20
-9.3872906369
 30
0.0
 40
0.2500000000000001
  0
CIRCLE
  5
10F
330
1F
100
AcDbEntity
  8
0
  6
Continuous
 62
     7
370
    25
100
AcDbCircle
 10
4.6784645655
 20
-9.3872906369
 30
0.0
 40
0.2499999999999991
  0
SPLINE
  5
110
330
1F
100
AcDbEntity
  8
0
  6
Continuous
 62
     7
370
    25
100
AcDbSpline
210
0.0
220
0.0
230
1.0
 70
     8
 71
     3
 72
    22
 73
    18
 74
     0
 42
0.000000001
 43
0.00000001
 40
0.0
 40
0.0
 40
0.0
 40
0.0
 40
0.25
 40
0.25
 40
0.375
 40
0.375
 40
0.4375
 40
0.4375
 40
0.5
 40
0.5
 40
0.5625
 40
0.5625
 40
0.625
 40
0.625
 40
0.75
 40
0.75
 40
1.0
 40
1.0
 40
1.0
 40
1.0
 10
7.386758698159038
 20
-9.405976138249345
 30
0.0
 10
6.073599563206528
 20
-9.515177944422648
 30
0.0
 10
4.783821537646297
 20
-9.816504569878228
 30
0.0
 10
2.825884115709161
 20
-10.06313513810036
 30
0.0
 10
2.167066651361218
 20
-10.12162187356049
 30
0.0
 10
1.180651426590109
 20
-10.07925328692498
 30
0.0
 10
0.850778388474805
 20
-10.04469262288192
 30
0.0
 10
0.2146224464256048
 20
-9.869252246584459
 30
0.0
 10
-0.2091635035414401
 20
-9.719138096666573
 30
0.0
 10
-0.1946063648202922
 20
-9.042965861800278
 30
0.0
 10
0.2304977435784663
 20
-8.898723859066997
 30
0.0
 10
0.8700802616197119
 20
-8.726919163673204
 30
0.0
 10
1.197198268181624
 20
-8.69379235971166
 30
0.0
 10
2.186801145647689
 20
-8.653829575102838
 30
0.0
 10
2.843468633007273
 20
-8.713208195541007
 30
0.0
 10
4.794698834316578
 20
-8.960369039621309
 30
0.0
 10
6.079120494668116
 20
-9.259862447878175
 30
0.0
 10
7.38675869815904
 20
-9.36860513559565
 30
0.0
  0
ARC
  5
111
330
1F
100
AcDbEntity
  8
0
  6
Continuous
 62
     7
370
    25
100
AcDbCircle
 10
7.3852048191
 20
-9.3872906369
 30
0.0
 40
0.0187500000000012
100
AcDbArc
 50
274.7537567848
 51
85.2462432152
  0
ARC
  5
112
330
1F
100
AcDbEntity
  8
0
  6
Continuous
 62
     7
370
    25
100
AcDbCircle
 10
3.7034645655
 20
-9.3872906369
 30
0.0
 40
0.3750000000000013
100
AcDbArc
 50
277.000665828
 51
82.999334172
  0
LINE
  5
113
330
1F
100
AcDbEntity
  8
0
  6
Continuous
 62
     7
370
    25
100
AcDbLine
 10
1.9510693389
 20
-9.9802951105
 30
0.0
 11
3.7491698946
 21
-9.7594949127
 31
0.0
  0
ARC
  5
114
330
1F
100
AcDbEntity
  8
0
  6
Continuous
 62
     7
370
    25
100
AcDbCircle
 10
1.9388812511
 20
-9.8810406369
 30
0.0
 40
0.1000000000000004
100
AcDbArc
 50
270.0
 51
277.000665828
  0
LINE
  5
115
330
1F
100
AcDbEntity
  8
0
  6
Continuous
 62
     7
370
    25
100
AcDbLine
 10
1.1480478799
 20
-9.9810406369
 30
0.0
 11
1.9388812511
 21
-9.9810406369
 31
0.0
  0
ARC
  5
116
330
1F
100
AcDbEntity
  8
0
  6
Continuous
 62
     7
370
    25
100
AcDbCircle
 10
1.1480478799
 20
-9.8810406369
 30
0.0
 40
0.0999999999999999
100
AcDbArc
 50
180.0
 51
270.0
  0
LINE
  5
117
330
1F
100
AcDbEntity
  8
0
  6
Continuous
 62
     7
370
    25
100
AcDbLine
 10
1.0480478799
 20
-8.8935406369
 30
0.0
 11
1.0480478799
 21
-9.8810406369
 31
0.0
  0
ARC
  5
118
330
1F
100
AcDbEntity
  8
0
  6
Continuous
 62
     7
370
    25
100
AcDbCircle
 10
1.1480478799
 20
-8.8935406369
 30
0.0
 40
0.0999999999999999
100
AcDbArc
 50
90.0
 51
180.0
  0
LINE
  5
119
330
1F
100
AcDbEntity
  8
0
  6
Continuous
 62
     7
370
    25
100
AcDbLine
 10
1.9388812511
 20
-8.7935406369
 30
0.0
 11
1.1480478799
 21
-8.7935406369
 31
0.0
  0
ARC
  5
11A
330
1F
100
AcDbEntity
  8
0
  6
Continuous
 62
     7
370
    25
100
AcDbCircle
 10
1.9388812511
 20
-8.8935406369
 30
0.0
 40
0.1000000000000004
100
AcDbArc
 50
82.999334172
 51
90.0
  0
LINE
  5
11B
330
1F
100
AcDbEntity
  8
0
  6
Continuous
 62
     7
370
    25
100
AcDbLine
 10
3.7491698946
 20
-9.0150863612
 30
0.0
 11
1.9510693389
 21
-8.7942861634
 31
0.0
  0
CIRCLE
  5
11C
330
1F
100
AcDbEntity
  8
0
  6
Continuous
 62
     7
370
    25
100
AcDbCircle
 10
11.1157655889
 20
-10.2540805772
 30
0.0
 40
0.2500000000000018
  0
CIRCLE
  5
11D
330
1F
100
AcDbEntity
  8
0
  6
Continuous
 62
     7
370
    25
100
AcDbCircle
 10
6.8603489033
 20
-10.2540805772
 30
0.0
 40
0.25
  0
SPLINE
  5
11E
330
1F
100
AcDbEntity
  8
0
  6
Continuous
 62
     7
370
    25
100
AcDbSpline
210
0.0
220
0.0
230
1.0
 70
     8
 71
     3
 72
    22
 73
    18
 74
     0
 42
0.000000001
 43
0.00000001
 40
0.0
 40
0.0
 40
0.0
 40
0.0
 40
0.2500000000000014
 40
0.2500000000000014
 40
0.3750000000000023
 40
0.3750000000000023
 40
0.4375000000000023
 40
0.4375000000000023
 40
0.5000000000000024
 40
0.5000000000000024
 40
0.5625000000000021
 40
0.5625000000000021
 40
0.6250000000000018
 40
0.6250000000000018
 40
0.7500000000000012
 40
0.7500000000000012
 40
1.0
 40
1.0
 40
1.0
 40
1.0
 10
4.15205477058263
 20
-10.23539507584047
 30
0.0
 10
5.465213905535192
 20
-10.12619326966712
 30
0.0
 10
6.754991931095482
 20
-9.824866644211523
 30
0.0
 10
8.71292935303271
 20
-9.578236075989448
 30
0.0
 10
9.371746817380684
 20
-9.519749340529284
 30
0.0
 10
10.35816204215183
 20
-9.562117927164865
 30
0.0
 10
10.68803508026715
 20
-9.596678591207919
 30
0.0
 10
11.32419102231635
 20
-9.772118967505484
 30
0.0
 10
11.74797697228349
 20
-9.922233117423678
 30
0.0
 10
11.73341983356156
 20
-10.5984053522898
 30
0.0
 10
11.3083157251629
 20
-10.74264735502291
 30
0.0
 10
10.66873320712168
 20
-10.91445205041666
 30
0.0
 10
10.34161520055979
 20
-10.94757885437819
 30
0.0
 10
9.352012323093767
 20
-10.98754163898693
 30
0.0
 10
8.695344835734216
 20
-10.92816301854877
 30
0.0
 10
6.744114634424989
 20
-10.68100217446852
 30
0.0
 10
5.459692974073778
 20
-10.38150876621181
 30
0.0
 10
4.152054770582629
 20
-10.27276607849416
 30
0.0
  0
ARC
  5
11F
330
1F
100
AcDbEntity
  8
0
  6
Continuous
 62
     7
370
    25
100
AcDbCircle
 10
4.1536086497
 20
-10.2540805772
 30
0.0
 40
0.0187499999999996
100
AcDbArc
 50
94.7537567848
 51
265.2462432152
  0
ARC
  5
120
330
1F
100
AcDbEntity
  8
0
  6
Continuous
 62
     7
370
    25
100
AcDbCircle
 10
7.8353489033
 20
-10.2540805772
 30
0.0
 40
0.3749999999999995
100
AcDbArc
 50
97.000665828
 51
262.999334172
  0
LINE
  5
121
330
1F
100
AcDbEntity
  8
0
  6
Continuous
 62
     7
370
    25
100
AcDbLine
 10
9.5877441299
 20
-9.6610761036
 30
0.0
 11
7.7896435741
 21
-9.8818763014
 31
0.0
  0
ARC
  5
122
330
1F
100
AcDbEntity
  8
0
  6
Continuous
 62
     7
370
    25
100
AcDbCircle
 10
9.5999322177
 20
-9.7603305772
 30
0.0
 40
0.1000000000000004
100
AcDbArc
 50
90.0
 51
97.000665828
  0
LINE
  5
123
330
1F
100
AcDbEntity
  8
0
  6
Continuous
 62
     7
370
    25
100
AcDbLine
 10
10.3907655889
 20
-9.6603305772
 30
0.0
 11
9.5999322177
 21
-9.6603305772
 31
0.0
  0
ARC
  5
124
330
1F
100
AcDbEntity
  8
0
  6
Continuous
 62
     7
370
    25
100
AcDbCircle
 10
10.3907655889
 20
-9.7603305772
 30
0.0
 40
0.0999999999999996
100
AcDbArc
 50
0.0
 51
90.0
  0
LINE
  5
125
330
1F
100
AcDbEntity
  8
0
  6
Continuous
 62
     7
370
    25
100
AcDbLine
 10
10.4907655889
 20
-10.7478305772
 30
0.0
 11
10.4907655889
 21
-9.7603305772
 31
0.0
  0
ARC
  5
126
330
1F
100
AcDbEntity
  8
0
  6
Continuous
 62
     7
370
    25
100
AcDbCircle
 10
10.3907655889
 20
-10.7478305772
 30
0.0
 40
0.0999999999999996
100
AcDbArc
 50
270.0
 51
0.0
  0
LINE
  5
127
330
1F
100
AcDbEntity
  8
0
  6
Continuous
 62
     7
370
    25
100
AcDbLine
 10
9.5999322177
 20
-10.8478305772
 30
0.0
 11
10.3907655889
 21
-10.8478305772
 31
0.0
  0
ARC
  5
128
330
1F
100
AcDbEntity
  8
0
  6
Continuous
 62
     7
370
    25
100
AcDbCircle
 10
9.5999322177
 20
-10.7478305772
 30
0.0
 40
0.1000000000000004
100
AcDbArc
 50
262.999334172
 51
270.0
  0
LINE
  5
129
330
1F
100
AcDbEntity
  8
0
  6
Continuous
 62
     7
370
    25
100
AcDbLine
 10
7.7896435741
 20
-10.6262848529
 30
0.0
 11
9.5877441299
 21
-10.8470850507
 31
0.0
  0
CIRCLE
  5
12A
330
1F
100
AcDbEntity
  8
0
  6
Continuous
 62
     7
370
    25
100
AcDbCircle
 10
0.4230478799
 20
-10.9872906369
 30
0.0
 40
0.2500000000000001
  0
CIRCLE
  5
12B
330
1F
100
AcDbEntity
  8
0
  6
Continuous
 62
     7
370
    25
100
AcDbCircle
 10
4.6784645655
 20
-10.9872906369
 30
0.0
 40
0.2499999999999991
  0
SPLINE
  5
12C
330
1F
100
AcDbEntity
  8
0
  6
Continuous
 62
     7
370
    25
100
AcDbSpline
210
0.0
220
0.0
230
1.0
 70
     8
 71
     3
 72
    22
 73
    18
 74
     0
 42
0.000000001
 43
0.00000001
 40
0.0
 40
0.0
 40
0.0
 40
0.0
 40
0.2500000000000001
 40
0.2500000000000001
 40
0.3750000000000001
 40
0.3750000000000001
 40
0.4375000000000001
 40
0.4375000000000001
 40
0.5000000000000001
 40
0.5000000000000001
 40
0.5625000000000001
 40
0.5625000000000001
 40
0.6250000000000001
 40
0.6250000000000001
 40
0.7500000000000002
 40
0.7500000000000002
 40
1.0
 40
1.0
 40
1.0
 40
1.0
 10
7.386758698159038
 20
-11.00597613824934
 30
0.0
 10
6.073599563206555
 20
-11.11517794442249
 30
0.0
 10
4.783821537646384
 20
-11.41650456987827
 30
0.0
 10
2.825884115709297
 20
-11.66313513810032
 30
0.0
 10
2.16706665136138
 20
-11.72162187356051
 30
0.0
 10
1.180651426590298
 20
-11.67925328692499
 30
0.0
 10
0.8507783884750041
 20
-11.64469262288196
 30
0.0
 10
0.2146224464258077
 20
-11.46925224658452
 30
0.0
 10
-0.2091635035411797
 20
-11.31913809666685
 30
0.0
 10
-0.1946063648205626
 20
-10.64296586180046
 30
0.0
 10
0.2304977435782624
 20
-10.49872385906708
 30
0.0
 10
0.8700802616195112
 20
-10.32691916367322
 30
0.0
 10
1.197198268181431
 20
-10.29379235971169
 30
0.0
 10
2.186801145647506
 20
-10.25382957510281
 30
0.0
 10
2.843468633007122
 20
-10.31320819554099
 30
0.0
 10
4.794698834316494
 20
-10.56036903962127
 30
0.0
 10
6.079120494667982
 20
-10.85986244787811
 30
0.0
 10
7.38675869815904
 20
-10.96860513559565
 30
0.0
  0
ARC
  5
12D
330
1F
100
AcDbEntity
  8
0
  6
Continuous
 62
     7
370
    25
100
AcDbCircle
 10
7.3852048191
 20
-10.9872906369
 30
0.0
 40
0.0187499999999996
100
AcDbArc
 50
274.7537567848
 51
85.2462432152
  0
ARC
  5
12E
330
1F
100
AcDbEntity
  8
0
  6
Continuous
 62
     7
370
    25
100
AcDbCircle
 10
3.7034645655
 20
-10.9872906369
 30
0.0
 40
0.3749999999999996
100
AcDbArc
 50
277.000665828
 51
82.999334172
  0
LINE
  5
12F
330
1F
100
AcDbEntity
  8
0
  6
Continuous
 62
     7
370
    25
100
AcDbLine
 10
1.9510693389
 20
-11.5802951105
 30
0.0
 11
3.7491698946
 21
-11.3594949127
 31
0.0
  0
ARC
  5
130
330
1F
100
AcDbEntity
  8
0
  6
Continuous
 62
     7
370
    25
100
AcDbCircle
 10
1.9388812511
 20
-11.4810406369
 30
0.0
 40
0.1000000000000004
100
AcDbArc
 50
270.0
 51
277.000665828
  0
LINE
  5
131
330
1F
100
AcDbEntity
  8
0
  6
Continuous
 62
     7
370
    25
100
AcDbLine
 10
1.1480478799
 20
-11.5810406369
 30
0.0
 11
1.9388812511
 21
-11.5810406369
 31
0.0
  0
ARC
  5
132
330
1F
100
AcDbEntity
  8
0
  6
Continuous
 62
     7
370
    25
100
AcDbCircle
 10
1.1480478799
 20
-11.4810406369
 30
0.0
 40
0.0999999999999999
100
AcDbArc
 50
180.0
 51
270.0
  0
LINE
  5
133
330
1F
100
AcDbEntity
  8
0
  6
Continuous
 62
     7
370
    25
100
AcDbLine
 10
1.0480478799
 20
-10.4935406369
 30
0.0
 11
1.0480478799
 21
-11.4810406369
 31
0.0
  0
ARC
  5
134
330
1F
100
AcDbEntity
  8
0
  6
Continuous
 62
     7
370
    25
100
AcDbCircle
 10
1.1480478799
 20
-10.4935406369
 30
0.0
 40
0.0999999999999999
100
AcDbArc
 50
90.0
 51
180.0
  0
LINE
  5
135
330
1F
100
AcDbEntity
  8
0
  6
Continuous
 62
     7
370
    25
100
AcDbLine
 10
1.9388812511
 20
-10.3935406369
 30
0.0
 11
1.1480478799
 21
-10.3935406369
 31
0.0
  0
ARC
  5
136
330
1F
100
AcDbEntity
  8
0
  6
Continuous
 62
     7
370
    25
100
AcDbCircle
 10
1.9388812511
 20
-10.4935406369
 30
0.0
 40
0.1000000000000004
100
AcDbArc
 50
82.999334172
 51
90.0
  0
LINE
  5
137
330
1F
100
AcDbEntity
  8
0
  6
Continuous
 62
     7
370
    25
100
AcDbLine
 10
3.7491698946
 20
-10.6150863612
 30
0.0
 11
1.9510693389
 21
-10.3942861634
 31
0.0
  0
MTEXT
  5
139
330
1F
100
AcDbEntity
  8
0
  6
Continuous
 62
     7
100
AcDbMText
 10
-0.2018849342
 20
-11.7394230311
 30
0.0
 40
0.1903
 41
0.0
 71
     1
 72
     1
  1
SOLIDWORKS Educational Product.
  7
SLDTEXTSTYLE0
 73
     1
 44
1.0
  0
MTEXT
  5
13A
330
1F
100
AcDbEntity
  8
0
  6
Continuous
 62
     7
100
AcDbMText
 10
-0.2018849342
 20
-12.0248730311
 30
0.0
 40
0.1903
 41
0.0
 71
     1
 72
     1
  1
For Instructional Use Only.
  7
SLDTEXTSTYLE0
 73
     1
 44
1.0
  0
ENDSEC
  0
SECTION
  2
OBJECTS
  0
DICTIONARY
  5
C
330
0
100
AcDbDictionary
281
     1
  3
ACAD_GROUP
350
D
  3
ACAD_LAYOUT
350
1A
  3
ACAD_MLINESTYLE
350
17
  3
ACAD_PLOTSETTINGS
350
19
  3
ACAD_PLOTSTYLENAME
350
E
  3
ACAD_SCALELIST
350
47
  0
DICTIONARY
  5
D
102
{ACAD_REACTORS
330
C
102
}
330
C
100
AcDbDictionary
281
     1
  0
DICTIONARY
  5
1A
102
{ACAD_REACTORS
330
C
102
}
330
C
100
AcDbDictionary
281
     1
  3
Layout1
350
1E
  3
Layout2
350
26
  3
Model
350
22
  0
DICTIONARY
  5
17
102
{ACAD_REACTORS
330
C
102
}
330
C
100
AcDbDictionary
281
     1
  3
Standard
350
18
  0
DICTIONARY
  5
19
102
{ACAD_REACTORS
330
C
102
}
330
C
100
AcDbDictionary
281
     1
  0
ACDBDICTIONARYWDFLT
  5
E
102
{ACAD_REACTORS
330
C
102
}
330
C
100
AcDbDictionary
281
     1
  3
Normal
350
F
100
AcDbDictionaryWithDefault
340
F
  0
DICTIONARY
  5
47
102
{ACAD_REACTORS
330
C
102
}
330
C
100
AcDbDictionary
281
     1
  3
A0
350
48
  3
A1
350
49
  3
A2
350
4A
  3
A3
350
4B
  3
A4
350
4C
  3
A5
350
4D
  3
A6
350
4E
  3
A7
350
4F
  3
A8
350
50
  3
A9
350
51
  3
B0
350
52
  3
B1
350
53
  3
B2
350
54
  3
B3
350
55
  3
B4
350
56
  3
B5
350
57
  3
B6
350
58
  3
B7
350
59
  3
B8
350
5A
  3
B9
350
5B
  3
C0
350
5C
  3
C1
350
5D
  3
C2
350
5E
  3
C3
350
5F
  3
C4
350
60
  3
C5
350
61
  3
C6
350
62
  3
C7
350
63
  3
C8
350
64
  3
C9
350
65
  3
D0
350
66
  3
D1
350
67
  3
D2
350
68
  0
LAYOUT
  5
1E
102
{ACAD_REACTORS
330
1A
102
}
330
1A
100
AcDbPlotSettings
  1

  2
none_device
  4

  6

 40
0.0
 41
0.0
 42
0.0
 43
0.0
 44
0.0
 45
0.0
 46
0.0
 47
0.0
 48
0.0
 49
0.0
140
0.0
141
0.0
142
1.0
143
1.0
 70
   688
 72
     0
 73
     0
 74
     5
  7

 75
    16
147
1.0
148
0.0
149
0.0
100
AcDbLayout
  1
Layout1
 70
     1
 71
     1
 10
0.0
 20
0.0
 11
12.0
 21
9.0
 12
0.0
 22
0.0
 32
0.0
 14
1.0000000000E+20
 24
1.0000000000E+20
 34
1.0000000000E+20
 15
-1.0000000000E+20
 25
-1.0000000000E+20
 35
-1.0000000000E+20
146
0.0
 13
0.0
 23
0.0
 33
0.0
 16
1.0
 26
0.0
 36
0.0
 17
0.0
 27
1.0
 37
0.0
 76
     0
330
1B
  0
LAYOUT
  5
26
102
{ACAD_REACTORS
330
1A
102
}
330
1A
100
AcDbPlotSettings
  1

  2
none_device
  4

  6

 40
0.0
 41
0.0
 42
0.0
 43
0.0
 44
0.0
 45
0.0
 46
0.0
 47
0.0
 48
0.0
 49
0.0
140
0.0
141
0.0
142
1.0
143
1.0
 70
   688
 72
     0
 73
     0
 74
     5
  7

 75
    16
147
1.0
148
0.0
149
0.0
100
AcDbLayout
  1
Layout2
 70
     1
 71
     2
 10
0.0
 20
0.0
 11
0.0
 21
0.0
 12
0.0
 22
0.0
 32
0.0
 14
0.0
 24
0.0
 34
0.0
 15
0.0
 25
0.0
 35
0.0
146
0.0
 13
0.0
 23
0.0
 33
0.0
 16
1.0
 26
0.0
 36
0.0
 17
0.0
 27
1.0
 37
0.0
 76
     0
330
23
  0
LAYOUT
  5
22
102
{ACAD_REACTORS
330
1A
102
}
330
1A
100
AcDbPlotSettings
  1

  2
none_device
  4
ANSI_A_(11.00_x_8.50_Inches)
  6

 40
6.35
 41
19.05
 42
6.35000508
 43
19.05000254
 44
279.4
 45
215.9
 46
24.241441433
 47
176.0957231893
 48
0.0
 49
0.0
140
0.0
141
0.0
142
0.6530659002
143
1.0
 70
  1696
 72
     0
 73
     0
 74
     0
  7

 75
     0
147
0.5913241897
148
-39.4088153714
149
0.0
100
AcDbLayout
  1
Model
 70
     1
 71
     0
 10
0.0
 20
0.0
 11
12.0
 21
9.0
 12
0.0
 22
0.0
 32
0.0
 14
-0.2018849342
 24
-11.6992826219
 34
0.0
 15
13.3571038497
 25
1.1860938719
 35
0.0
146
0.0
 13
0.0
 23
0.0
 33
0.0
 16
1.0
 26
0.0
 36
0.0
 17
0.0
 27
1.0
 37
0.0
 76
     0
330
1F
331
29
  0
MLINESTYLE
  5
18
102
{ACAD_REACTORS
330
17
102
}
330
17
100
AcDbMlineStyle
  2
Standard
 70
     0
  3

 62
   256
 51
90.0
 52
90.0
 71
     2
 49
0.5
 62
   256
  6
BYLAYER
 49
-0.5
 62
   256
  6
BYLAYER
  0
ACDBPLACEHOLDER
  5
F
102
{ACAD_REACTORS
330
E
102
}
330
E
  0
SCALE
  5
48
102
{ACAD_REACTORS
330
47
102
}
330
47
100
AcDbScale
 70
     0
300
1:1
140
1.0
141
1.0
290
     1
  0
SCALE
  5
49
102
{ACAD_REACTORS
330
47
102
}
330
47
100
AcDbScale
 70
     0
300
1:2
140
1.0
141
2.0
290
     0
  0
SCALE
  5
4A
102
{ACAD_REACTORS
330
47
102
}
330
47
100
AcDbScale
 70
     0
300
1:4
140
1.0
141
4.0
290
     0
  0
SCALE
  5
4B
102
{ACAD_REACTORS
330
47
102
}
330
47
100
AcDbScale
 70
     0
300
1:5
140
1.0
141
5.0
290
     0
  0
SCALE
  5
4C
102
{ACAD_REACTORS
330
47
102
}
330
47
100
AcDbScale
 70
     0
300
1:8
140
1.0
141
8.0
290
     0
  0
SCALE
  5
4D
102
{ACAD_REACTORS
330
47
102
}
330
47
100
AcDbScale
 70
     0
300
1:10
140
1.0
141
10.0
290
     0
  0
SCALE
  5
4E
102
{ACAD_REACTORS
330
47
102
}
330
47
100
AcDbScale
 70
     0
300
1:16
140
1.0
141
16.0
290
     0
  0
SCALE
  5
4F
102
{ACAD_REACTORS
330
47
102
}
330
47
100
AcDbScale
 70
     0
300
1:20
140
1.0
141
20.0
290
     0
  0
SCALE
  5
50
102
{ACAD_REACTORS
330
47
102
}
330
47
100
AcDbScale
 70
     0
300
1:30
140
1.0
141
30.0
290
     0
  0
SCALE
  5
51
102
{ACAD_REACTORS
330
47
102
}
330
47
100
AcDbScale
 70
     0
300
1:40
140
1.0
141
40.0
290
     0
  0
SCALE
  5
52
102
{ACAD_REACTORS
330
47
102
}
330
47
100
AcDbScale
 70
     0
300
1:50
140
1.0
141
50.0
290
     0
  0
SCALE
  5
53
102
{ACAD_REACTORS
330
47
102
}
330
47
100
AcDbScale
 70
     0
300
1:100
140
1.0
141
100.0
290
     0
  0
SCALE
  5
54
102
{ACAD_REACTORS
330
47
102
}
330
47
100
AcDbScale
 70
     0
300
2:1
140
2.0
141
1.0
290
     0
  0
SCALE
  5
55
102
{ACAD_REACTORS
330
47
102
}
330
47
100
AcDbScale
 70
     0
300
4:1
140
4.0
141
1.0
290
     0
  0
SCALE
  5
56
102
{ACAD_REACTORS
330
47
102
}
330
47
100
AcDbScale
 70
     0
300
8:1
140
8.0
141
1.0
290
     0
  0
SCALE
  5
57
102
{ACAD_REACTORS
330
47
102
}
330
47
100
AcDbScale
 70
     0
300
10:1
140
10.0
141
1.0
290
     0
  0
SCALE
  5
58
102
{ACAD_REACTORS
330
47
102
}
330
47
100
AcDbScale
 70
     0
300
100:1
140
100.0
141
1.0
290
     0
  0
SCALE
  5
59
102
{ACAD_REACTORS
330
47
102
}
330
47
100
AcDbScale
 70
     0
300
1/128" = 1'-0"
140
0.0078125
141
12.0
290
     0
  0
SCALE
  5
5A
102
{ACAD_REACTORS
330
47
102
}
330
47
100
AcDbScale
 70
     0
300
1/64" = 1'-0"
140
0.015625
141
12.0
290
     0
  0
SCALE
  5
5B
102
{ACAD_REACTORS
330
47
102
}
330
47
100
AcDbScale
 70
     0
300
1/32" = 1'-0"
140
0.03125
141
12.0
290
     0
  0
SCALE
  5
5C
102
{ACAD_REACTORS
330
47
102
}
330
47
100
AcDbScale
 70
     0
300
1/16" = 1'-0"
140
0.0625
141
12.0
290
     0
  0
SCALE
  5
5D
102
{ACAD_REACTORS
330
47
102
}
330
47
100
AcDbScale
 70
     0
300
3/32" = 1'-0"
140
0.09375
141
12.0
290
     0
  0
SCALE
  5
5E
102
{ACAD_REACTORS
330
47
102
}
330
47
100
AcDbScale
 70
     0
300
1/8" = 1'-0"
140
0.125
141
12.0
290
     0
  0
SCALE
  5
5F
102
{ACAD_REACTORS
330
47
102
}
330
47
100
AcDbScale
 70
     0
300
3/16" = 1'-0"
140
0.1875
141
12.0
290
     0
  0
SCALE
  5
60
102
{ACAD_REACTORS
330
47
102
}
330
47
100
AcDbScale
 70
     0
300
1/4" = 1'-0"
140
0.25
141
12.0
290
     0
  0
SCALE
  5
61
102
{ACAD_REACTORS
330
47
102
}
330
47
100
AcDbScale
 70
     0
300
3/8" = 1'-0"
140
0.375
141
12.0
290
     0
  0
SCALE
  5
62
102
{ACAD_REACTORS
330
47
102
}
330
47
100
AcDbScale
 70
     0
300
1/2" = 1'-0"
140
0.5
141
12.0
290
     0
  0
SCALE
  5
63
102
{ACAD_REACTORS
330
47
102
}
330
47
100
AcDbScale
 70
     0
300
3/4" = 1'-0"
140
0.75
141
12.0
290
     0
  0
SCALE
  5
64
102
{ACAD_REACTORS
330
47
102
}
330
47
100
AcDbScale
 70
     0
300
1" = 1'-0"
140
1.0
141
12.0
290
     0
  0
SCALE
  5
65
102
{ACAD_REACTORS
330
47
102
}
330
47
100
AcDbScale
 70
     0
300
1-1/2" = 1'-0"
140
1.5
141
12.0
290
     0
  0
SCALE
  5
66
102
{ACAD_REACTORS
330
47
102
}
330
47
100
AcDbScale
 70
     0
300
3" = 1'-0"
140
3.0
141
12.0
290
     0
  0
SCALE
  5
67
102
{ACAD_REACTORS
330
47
102
}
330
47
100
AcDbScale
 70
     0
300
6" = 1'-0"
140
6.0
141
12.0
290
     0
  0
SCALE
  5
68
102
{ACAD_REACTORS
330
47
102
}
330
47
100
AcDbScale
 70
     0
300
1'-0" = 1'-0"
140
12.0
141
12.0
290
     0
  0
ENDSEC
  0
EOF
