**ABCDEFGHIJKLMNOPQRSTUVWXYZabcdefghijklmnopqrstuvwxyz**************************
**PARASOLID !"#$%&'()*+,-./:;<=>?@[\]^_`{|}~0123456789**************************
**PART1;
MC=AMD64;
MC_MODEL=Intel64 Family 6 Model 94 Stepping 3, GenuineIntel;
MC_ID=unknown;
OS=Windows_NT;
OS_RELEASE=unknown;
FRU=Parasolid Version 29.0, build 201,  4-17-2017;
APPL=SOLIDWORKS 2017-2017222;
SITE=;
USER=unknown;
FORMAT=text;
GUISE=transmit;
KEY=makeProjectedPlanarWire;
FILE=makeProjectedPlanarWire.x_t;
DATE=Sun Dec 10 22:58:37 2017;
**PART2;
SCH=SCH_2900201_28101;
USFLD_SIZE=0;
**PART3;
**END_OF_HEADER*****************************************************************
T51 : TRANSMIT FILE created by modeller version 290020123 SCH_2900201_28101_1300
6203 0 12 33 CCCCCCI4 mesh1006 0 I8 polyline1008 0 CCCCCCCDI5 owner1040 0 CCCCCC
I13 boundary_mesh1006 0 I17 boundary_polyline1008 0 CCCA16 index_map_offset0 0 1
 dA9 index_map82 0 A17 node_id_index_map82 0 A20 schema_embedding_map82 0 A5 chi
ld12 0 A14 lowest_node_id0 0 1 dZ1 641 0 0 0 0 0 0 0 0 1e3 1e-8 0 2 0 1 0 3 1 3
 4 5 6 0 0 7 8 9 0 0 0 0 0 0 13 255 3 63 0 1 0 10 0 0 7 10 50 255 4 2 0 10 0 0 1
1 +0 0 0 0 0 1 1 0 0 134 255 5 40 0 8 12 0 0 +13 14 29 255 6 641 0 9 15 0 -.6481
39488037079 .000345406292087472 0 19 8 CCCCCCCA5 owner12 0 Z7 62 0 1 0 0 3 V0 16
 255 8 39 0 ?16 0 17 5 17 17 1 18 255 9 569 0 18 0 19 6 ?1 17 255 18 0 20 21 22
 9 23 24 0 25 -18 19 496 0 26 9 27 15 ?1 17 26 0 0 0 0 19 22 17 0 16 -18 27 59 0
 23 19 28 29 ?1 29 15 568 0 19 29 6 -.01273188434999196 -.02930967644542595 1694
0658945086e-34 29 29 61 0 27 30 15 -.642822387533722 .00532830773035882 0 29 30
 58 0 28 31 29 -.642822387533722 -.0053283077303614 0 18 28 56 0 21 27 32 30 ?1
 29 31 55 0 32 33 30 -.3809999865961145 -.0437656347528609 0 18 32 53 0 34 28 35
 31 1e-6 1 29 33 52 0 35 36 31 -.380999986607189 .0437656347511492 0 18 35 50 0
 37 32 38 33 1e-6 1 29 36 49 0 38 39 33 -.642784497746477 .00487268046600498 0 1
8 38 47 0 40 35 41 36 1e-6 1 29 39 46 0 41 0 36 -.642784497746477 -.004872680466
00757 0 18 41 44 0 42 38 0 39 1e-6 1 17 42 0 43 40 44 41 34 45 46 47 -15 255 43
 6 0 42 10 20 17 40 0 43 37 42 38 47 48 0 49 +17 44 0 43 42 37 32 50 51 0 0 -17
 34 0 0 0 0 32 42 45 0 44 +16 45 12 0 1e-6 34 48 0 0 0 0 1 133 255 46 7 0 42 0 5
2 0 +52 -.3809999865961145 -.0437656347528609 0 -.642784497746477 -.004872680466
00757 0 1 0 17 47 0 0 0 0 41 40 48 0 0 -16 48 16 0 ?40 53 45 54 0 0 1 16 53 22 0
 1e-6 49 51 48 0 0 0 1 133 54 17 0 48 55 56 0 +56 -.642784497746477 -.0048726804
6600757 0 -.642784497746477 .00487268046600498 0 4.62756255564619 1.655622751533
39 137 255 55 10 0 1 57 54 58 -4 59 0 ?31 255 56 18 0 1 54 60 61 --.642370171441
89 -1294103713078698e-30 0 0 0 1 1 0 0 .0048902639203291 133 60 27 0 51 56 62 0
 +62 -.380999999995624 -.04376572152070155 0 -.3809999999956225 .043765721447270
45 0 .2101880978068785 .78981190220109 141 255 61 54 61 61 56 16 51 26 0 ?50 24
 53 60 0 0 1 134 62 28 0 1 60 12 63 +64 65 31 12 35 0 66 62 5 0 --.6428223875337
22 -129323635134071e-29 0 0 0 1 1 0 0 .00532830773036011 141 63 60 63 63 62 136
 255 64 3 41 3 39 6 FFF1 67 68 69 135 255 65 2 0 45 255 123 67 -.380999999995624
 -.04376572152070155 0 -.377063975914554 -.044373548937671 0 -.35875599131028 -.
0471697656676353 0 -.326023069938564 -.0518744840678721 0 -.2826945626701385 -.0
571896373153067 0 -.239200723274965 -.0612666169767148 0 -.202817447190036 -.063
2774518422828 0 -.1736492332842335 -.063764017123253 0 -.1517553150812475 -.0634
695826233453 0 -.1298641113035102 -.0623976496102933 0 -.108009232508404 -.06039
28641668191 0 -.0862474703672289 -.0572458257134312 0 -.064679859152384 -.052650
89453128 0 -.047023131896066 -.0472271832490019 0 -.0333087048412109 -.041505274
36839815 0 -.02334672327476545 -.036340260460099 0 -.01390622430635532 -.0300412
430576552 0 -.00538428455104312 -.0222234643543756 0 .00022859639880117 -.013941
47333540832 0 .00283742537502392 -.00617955459906015 0 .00353428730881633 -84154
211985901e-24 0 .002837425376575845 .00617955443092742 0 .000228596402302661 .01
39414731679304 0 -.00538428454546158 .0222234641883075 0 -.01390622429881058 .03
00412428937274 0 -.02334672326563865 .0363402602985421 0 -.0333087048307869 .041
5052742093432 0 -.0470231318842051 .0472271830933912 0 -.0646798591391607 .05265
08943801038 0 -.0862474703528517 .0572458255676714 0 -.1080092324932366 .0603928
640265247 0 -.1298641112878392 .0623976494754877 0 -.1517553150653075 .063469582
4940377 0 -.1736492332682195 .0637640169994438 0 -.202817447174144 .063277451725
7991 0 -.239200723259578 .0612666168693685 0 -.2826945626557755 .057189637218883
8 0 -.326023069925536 .051874483982331 0 -.358755991302104 .0471697655897873 0 -
.377063975910739 .0443735488638292 0 -.3809999999956225 .04376572144727045 0 127
 255 39 68 4 1 1 1 1 1 1 1 1 1 1 1 1 1 1 1 1 1 1 1 1 1 1 1 1 1 1 1 1 1 1 1 1 1 1
 1 1 1 4 128 255 39 69 .2101880978068785 .21875 .25 .28125 .3125 .34375 .359375
 .375 .390625 .40625 .421875 .4375 .453125 .4609375 .46875 .4765625 .484375 .492
1875 .49609375 .5 .50390625 .5078125 .515625 .5234375 .53125 .5390625 .546875 .5
625 .578125 .59375 .609375 .625 .640625 .65625 .6875 .71875 .75 .78125 .78981190
220109 16 66 34 0 ?25 17 24 12 24 24 1 17 25 0 0 0 0 9 21 66 0 0 +16 17 497 0 ?2
2 8 66 5 8 8 1 16 24 570 0 ?23 66 51 12 66 66 1 17 23 0 0 0 0 27 18 24 0 22 +17
 22 0 20 18 16 27 26 17 0 0 +15 20 11 0 21 10 0 17 16 0 20 22 21 19 70 8 0 0 +17
 21 0 20 16 18 28 25 66 0 70 -17 70 0 0 0 0 28 16 8 0 0 -14 255 10 1 0 ?0 0 43 3
 4 +0 0 0 0 3 17 50 0 0 0 0 35 44 51 0 0 +133 57 9 0 37 52 55 0 +55 -.6427844977
46477 .00487268046600498 0 -.380999986607189 .0437656347511492 0 1 0 141 58 57 5
8 58 55 134 59 0 0 0 0 0 0 +71 72 136 71 2 27 2 14 5 FFF1 73 74 75 135 72 1 0 45
 54 73 -.380999986607189 .0437656347511492 -.3960121823628875 .04144730970966215
 -.4137335212587105 .03857784657786285 -.421383739401828 .0373391129222996 -.430
0837948051585 .03590977907975705 -.4373982622045535 .0347080837675493 -.44642616
04725485 .03321175565134405 -.452278595718578 .03224174434340215 -.4627629413434
91 .03049836851646065 -.474246385205913 .02858885893369635 -.479096460570453 .02
77842106201397 -.48836921471721 .02624582091989605 -.49542913323316 .02508482397
785995 -.504205550309974 .0236415504662473 -.511763647316437 .02241856811715425
 -.52955887987481 .01953910582680725 -.544449153319595 .01726096856588215 -.5619
81715001091 .01457857443832006 -.577174150381815 .01246444864603562 -.5838910235
34916 .01152975223821076 -.590277328066476 .01068834152676806 -.60058899224309 .
00932975540734237 -.609945018281178 .00822392175693209 -.618515278255915 .007210
96157124566 -.626351612985741 .00640577780693182 -.634852955852509 .005532264425
07827 -.642784497746477 .00487268046600498 127 14 74 3 2 2 2 2 2 2 2 2 2 2 2 2 3
 128 14 75 0 .125 .1875 .25 .3125 .375 .4375 .5 .625 .75 .8 .875 .9375 1 17 37 0
 43 44 40 35 49 53 57 50 -137 52 8 0 1 46 57 76 -4 77 0 ?141 76 46 76 76 52 134
 77 0 0 0 0 0 0 +78 79 136 78 2 27 2 14 5 FFF1 80 81 82 135 79 1 0 45 54 80 -.64
2784497746477 -.00487268046600757 -.634853438785247 -.00553222426458111 -.626351
612985048 -.00640577780700572 -.618516313423304 -.00721084648860105 -.6099450182
79792 -.00822392175709838 -.601023670627253 -.00927837111593267 -.59121353726819
3 -.0105652613741081 -.584383664555035 -.0114612019630324 -.577174150379047 -.01
246444864642304 -.561982760164937 -.01457842075000266 -.544449153315449 -.017260
96856651855 -.52955989253542 -.0195389456158426 -.511763647310915 -.022418568118
0499 -.504206570046687 -.0236413839124189 -.495429133226948 -.0250848239788834 -
.488370194670173 -.0262456588500211 -.479096460563551 -.0277842106212866 -.47424
6930441138 -.0285887682109114 -.462762941335899 -.03049836851772505 -.4522793835
70648 -.03224161339035285 -.4464261604642635 -.033211755652719 -.437399265677049
 -.03470791801862265 -.4300837947961795 -.0359097790812339 -.4213847646910475 -.
03733894553355105 -.4137335212490355 -.0385778465794311 -.3960126066683485 -.041
4472441844551 -.3809999865961145 -.0437656347528609 127 14 81 3 2 2 2 2 2 2 2 2
 2 2 2 2 3 128 14 82 0 .0625 .125 .1964285714285715 .25 .375 .5 .5625 .625 .6875
 .75 .8125 .875 1 17 49 0 0 0 0 38 37 53 0 0 +136 13 3 49 3 47 6 FFF1 83 84 85 1
35 14 2 0 45 147 83 -.642822387533722 -.0053283077303614 16940658945086e-34 -.62
8983072242062 -.00647917984236269 16940658945086e-34 -.601385274985897 -.0095304
7913948355 16940658945086e-34 -.546256486714778 -.017177583670021 16940658945086
e-34 -.477539973910843 -.02845425603707945 16940658945086e-34 -.4087885972806585
 -.03999520932456775 16940658945086e-34 -.353617926952824 -.0484465560745522 169
40658945086e-34 -.3121218624387355 -.0541420077118323 16940658945086e-34 -.27048
1610151273 -.0589195185015474 16940658945086e-34 -.2286828966751245 -.0624542654
426131 16940658945086e-34 -.1937229965594435 -.0640282399632188 16940658945086e-
34 -.165702473221168 -.0641871378623869 16940658945086e-34 -.1446744807001138 -.
063661385689016 16940658945086e-34 -.1236545823401074 -.0623771542719921 1694065
8945086e-34 -.1026769572814082 -.0601836813912272 16940658945086e-34 -.081797390
6386082 -.0568781893851804 16940658945086e-34 -.0611161623867842 -.0521616990905
725 16940658945086e-34 -.04420069146150945 -.0466783851296983 16940658945086e-34
 -.0310754078367778 -.0409410700733519 16940658945086e-34 -.0215512968875579 -.0
357854721664697 16940658945086e-34 -.01254105670676042 -.02952289889407025 16940
658945086e-34 -.0044312499885194 -.0217811116476521 16940658945086e-34 .00087568
170150974 -.0136235457351116 16940658945086e-34 .003324629647349905 -.0060279353
2520583 16940658945086e-34 .003976485176325045 167183974997265e-30 1694065894508
6e-34 .003324629647349915 .00602793532520549 16940658945086e-34 .000875681701509
721 .01362354573511172 16940658945086e-34 -.004431249988519595 .0217811116476521
5 16940658945086e-34 -.01254105670676052 .0295228988940702 16940658945086e-34 -.
02155129688755805 .0357854721664696 16940658945086e-34 -.0310754078367781 .04094
107007335185 16940658945086e-34 -.0442006914615098 .0466783851296982 16940658945
086e-34 -.0611161623867847 .0521616990905724 16940658945086e-34 -.08179739063860
86 .0568781893851801 16940658945086e-34 -.1026769572814084 .0601836813912268 169
40658945086e-34 -.1236545823401078 .0623771542719916 16940658945086e-34 -.144674
480700114 .0636613856890154 16940658945086e-34 -.165702473221168 .06418713786238
62 16940658945086e-34 -.1937229965594435 .064028239963218 16940658945086e-34 -.2
28682896675124 .0624542654426122 16940658945086e-34 -.270481610151273 .058919518
5015463 16940658945086e-34 -.312121862438735 .054142007711831 16940658945086e-34
 -.353617926952824 .0484465560745508 16940658945086e-34 -.408788597280658 .03999
52093245661 16940658945086e-34 -.477539973910844 .02845425603707755 169406589450
86e-34 -.546256486714778 .01717758367001875 16940658945086e-34 -.601385274985897
 .00953047913948121 16940658945086e-34 -.628983072242062 .00647917984235996 1694
0658945086e-34 -.642822387533722 .00532830773035882 16940658945086e-34 127 47 84
 4 1 1 1 1 1 1 1 1 1 1 1 1 1 1 1 1 1 1 1 1 1 1 1 1 1 1 1 1 1 1 1 1 1 1 1 1 1 1 1
 1 1 1 1 1 1 4 128 47 85 .0201570420762693 .0501472269465025 .0801374118167356 .
140117781557202 .2000981512976685 .2300883361679015 .2600785210381345 .290068705
908368 .320058890778601 .350049075648834 .365044168083951 .3800392605190675 .395
034352954184 .4100294453893005 .425024537824417 .4400196302595335 .4550147226946
5 .462512268912209 .470009815129767 .477507361347325 .485004907564883 .492502453
782442 .496251226891221 .5 .503748773108779 .507497546217558 .514995092435117 .5
22492638652675 .529990184870233 .537487731087792 .54498527730535 .55998036974046
6 .574975462175583 .5899705546107 .604965647045816 .619960739480933 .63495583191
6049 .649950924351166 .679941109221399 .709931294091632 .739921478961865 .769911
663832099 .799901848702332 .859882218442798 .919862588183264 .949852773053498 .9
79842957923731 141 11 52 86 86 4 141 86 55 11 11 4 1 0 
