  0
SECTION
  2
HEADER
  9
$ACADVER
  1
AC1015
  9
$ACADMAINTVER
 70
     6
  9
$DWGCODEPAGE
  3
ANSI_1252
  9
$INSBASE
 10
0.0
 20
0.0
 30
0.0
  9
$EXTMIN
 10
85.5351102835
 20
-8.5049044194
 30
0.0
  9
$EXTMAX
 10
108.5574284144
 20
8.3483739792
 30
0.0
  9
$LIMMIN
 10
0.0
 20
0.0
  9
$LIMMAX
 10
12.0
 20
9.0
  9
$ORTHOMODE
 70
     0
  9
$REGENMODE
 70
     1
  9
$FILLMODE
 70
     1
  9
$QTEXTMODE
 70
     0
  9
$MIRRTEXT
 70
     1
  9
$LTSCALE
 40
1.0
  9
$ATTMODE
 70
     1
  9
$TEXTSIZE
 40
0.125
  9
$TRACEWID
 40
0.05
  9
$TEXTSTYLE
  7
Standard
  9
$CLAYER
  8
0
  9
$CELTYPE
  6
ByLayer
  9
$CECOLOR
 62
   256
  9
$CELTSCALE
 40
1.0
  9
$DISPSILH
 70
     0
  9
$DIMSCALE
 40
1.0
  9
$DIMASZ
 40
0.13
  9
$DIMEXO
 40
0.05
  9
$DIMDLI
 40
0.38
  9
$DIMRND
 40
0.0
  9
$DIMDLE
 40
0.0
  9
$DIMEXE
 40
0.125
  9
$DIMTP
 40
0.0
  9
$DIMTM
 40
0.0
  9
$DIMTXT
 40
0.125
  9
$DIMCEN
 40
0.09
  9
$DIMTSZ
 40
0.0
  9
$DIMTOL
 70
     0
  9
$DIMLIM
 70
     0
  9
$DIMTIH
 70
     1
  9
$DIMTOH
 70
     1
  9
$DIMSE1
 70
     0
  9
$DIMSE2
 70
     0
  9
$DIMTAD
 70
     0
  9
$DIMZIN
 70
     0
  9
$DIMBLK
  1

  9
$DIMASO
 70
     1
  9
$DIMSHO
 70
     1
  9
$DIMPOST
  1

  9
$DIMAPOST
  1

  9
$DIMALT
 70
     0
  9
$DIMALTD
 70
     2
  9
$DIMALTF
 40
25.4
  9
$DIMLFAC
 40
1.0
  9
$DIMTOFL
 70
     0
  9
$DIMTVP
 40
0.0
  9
$DIMTIX
 70
     0
  9
$DIMSOXD
 70
     0
  9
$DIMSAH
 70
     0
  9
$DIMBLK1
  1

  9
$DIMBLK2
  1

  9
$DIMSTYLE
  2
Standard
  9
$DIMCLRD
 70
     0
  9
$DIMCLRE
 70
     0
  9
$DIMCLRT
 70
     0
  9
$DIMTFAC
 40
1.0
  9
$DIMGAP
 40
0.06
  9
$DIMJUST
 70
     0
  9
$DIMSD1
 70
     0
  9
$DIMSD2
 70
     0
  9
$DIMTOLJ
 70
     1
  9
$DIMTZIN
 70
     0
  9
$DIMALTZ
 70
     0
  9
$DIMALTTZ
 70
     0
  9
$DIMUPT
 70
     0
  9
$DIMDEC
 70
     2
  9
$DIMTDEC
 70
     2
  9
$DIMALTU
 70
     2
  9
$DIMALTTD
 70
     2
  9
$DIMTXSTY
  7
Standard
  9
$DIMAUNIT
 70
     0
  9
$DIMADEC
 70
     2
  9
$DIMALTRND
 40
0.0
  9
$DIMAZIN
 70
     0
  9
$DIMDSEP
 70
    46
  9
$DIMATFIT
 70
     3
  9
$DIMFRAC
 70
     0
  9
$DIMLDRBLK
  1

  9
$DIMLUNIT
 70
     2
  9
$DIMLWD
 70
    -2
  9
$DIMLWE
 70
    -2
  9
$DIMTMOVE
 70
     0
  9
$LUNITS
 70
     2
  9
$LUPREC
 70
     2
  9
$SKETCHINC
 40
0.1
  9
$FILLETRAD
 40
0.5
  9
$AUNITS
 70
     0
  9
$AUPREC
 70
     2
  9
$MENU
  1
.
  9
$ELEVATION
 40
0.0
  9
$PELEVATION
 40
0.0
  9
$THICKNESS
 40
0.0
  9
$LIMCHECK
 70
     0
  9
$CHAMFERA
 40
0.0
  9
$CHAMFERB
 40
0.0
  9
$CHAMFERC
 40
0.0
  9
$CHAMFERD
 40
0.0
  9
$SKPOLY
 70
     0
  9
$TDCREATE
 40
2458037.441118218
  9
$TDUCREATE
 40
2458037.607784884
  9
$TDUPDATE
 40
2458037.441155995
  9
$TDUUPDATE
 40
2458037.607822662
  9
$TDINDWG
 40
0.0000000116
  9
$TDUSRTIMER
 40
0.0000000116
  9
$USRTIMER
 70
     1
  9
$ANGBASE
 50
0.0
  9
$ANGDIR
 70
     0
  9
$PDMODE
 70
     0
  9
$PDSIZE
 40
-1.0
  9
$PLINEWID
 40
0.0
  9
$SPLFRAME
 70
     0
  9
$SPLINETYPE
 70
     6
  9
$SPLINESEGS
 70
     8
  9
$HANDSEED
  5
9D
  9
$SURFTAB1
 70
     6
  9
$SURFTAB2
 70
     6
  9
$SURFTYPE
 70
     6
  9
$SURFU
 70
     6
  9
$SURFV
 70
     6
  9
$UCSBASE
  2

  9
$UCSNAME
  2

  9
$UCSORG
 10
0.0
 20
0.0
 30
0.0
  9
$UCSXDIR
 10
1.0
 20
0.0
 30
0.0
  9
$UCSYDIR
 10
0.0
 20
1.0
 30
0.0
  9
$UCSORTHOREF
  2

  9
$UCSORTHOVIEW
 70
     0
  9
$UCSORGTOP
 10
0.0
 20
0.0
 30
0.0
  9
$UCSORGBOTTOM
 10
0.0
 20
0.0
 30
0.0
  9
$UCSORGLEFT
 10
0.0
 20
0.0
 30
0.0
  9
$UCSORGRIGHT
 10
0.0
 20
0.0
 30
0.0
  9
$UCSORGFRONT
 10
0.0
 20
0.0
 30
0.0
  9
$UCSORGBACK
 10
0.0
 20
0.0
 30
0.0
  9
$PUCSBASE
  2

  9
$PUCSNAME
  2

  9
$PUCSORG
 10
0.0
 20
0.0
 30
0.0
  9
$PUCSXDIR
 10
1.0
 20
0.0
 30
0.0
  9
$PUCSYDIR
 10
0.0
 20
1.0
 30
0.0
  9
$PUCSORTHOREF
  2

  9
$PUCSORTHOVIEW
 70
     0
  9
$PUCSORGTOP
 10
0.0
 20
0.0
 30
0.0
  9
$PUCSORGBOTTOM
 10
0.0
 20
0.0
 30
0.0
  9
$PUCSORGLEFT
 10
0.0
 20
0.0
 30
0.0
  9
$PUCSORGRIGHT
 10
0.0
 20
0.0
 30
0.0
  9
$PUCSORGFRONT
 10
0.0
 20
0.0
 30
0.0
  9
$PUCSORGBACK
 10
0.0
 20
0.0
 30
0.0
  9
$USERI1
 70
     0
  9
$USERI2
 70
     0
  9
$USERI3
 70
     0
  9
$USERI4
 70
     0
  9
$USERI5
 70
     0
  9
$USERR1
 40
0.0
  9
$USERR2
 40
0.0
  9
$USERR3
 40
0.0
  9
$USERR4
 40
0.0
  9
$USERR5
 40
0.0
  9
$WORLDVIEW
 70
     1
  9
$SHADEDGE
 70
     3
  9
$SHADEDIF
 70
    70
  9
$TILEMODE
 70
     1
  9
$MAXACTVP
 70
    64
  9
$PINSBASE
 10
0.0
 20
0.0
 30
0.0
  9
$PLIMCHECK
 70
     0
  9
$PEXTMIN
 10
1.0000000000E+20
 20
1.0000000000E+20
 30
1.0000000000E+20
  9
$PEXTMAX
 10
-1.0000000000E+20
 20
-1.0000000000E+20
 30
-1.0000000000E+20
  9
$PLIMMIN
 10
0.0
 20
0.0
  9
$PLIMMAX
 10
12.0
 20
9.0
  9
$UNITMODE
 70
     0
  9
$VISRETAIN
 70
     1
  9
$PLINEGEN
 70
     0
  9
$PSLTSCALE
 70
     1
  9
$TREEDEPTH
 70
  3020
  9
$CMLSTYLE
  2
Standard
  9
$CMLJUST
 70
     0
  9
$CMLSCALE
 40
1.0
  9
$PROXYGRAPHICS
 70
     1
  9
$MEASUREMENT
 70
     0
  9
$CELWEIGHT
370
    -1
  9
$ENDCAPS
280
     0
  9
$JOINSTYLE
280
     0
  9
$LWDISPLAY
290
     1
  9
$INSUNITS
 70
     1
  9
$HYPERLINKBASE
  1

  9
$STYLESHEET
  1

  9
$XEDIT
290
     1
  9
$CEPSNTYPE
380
     0
  9
$PSTYLEMODE
290
     1
  9
$FINGERPRINTGUID
  2
{30398C05-FCF5-4F93-835C-53F98F1F1782}
  9
$VERSIONGUID
  2
{FAEB1C32-E019-11D5-929B-00C0DF256EC4}
  9
$EXTNAMES
290
     1
  9
$PSVPSCALE
 40
0.0
  9
$OLESTARTUP
290
     0
  0
ENDSEC
  0
SECTION
  2
CLASSES
  0
CLASS
  1
ACDBDICTIONARYWDFLT
  2
AcDbDictionaryWithDefault
  3
ObjectDBX Classes
 90
        0
280
     0
281
     0
  0
CLASS
  1
VISUALSTYLE
  2
AcDbVisualStyle
  3
ObjectDBX Classes
 90
     4095
280
     0
281
     0
  0
CLASS
  1
MATERIAL
  2
AcDbMaterial
  3
ObjectDBX Classes
 90
     1153
280
     0
281
     0
  0
CLASS
  1
SCALE
  2
AcDbScale
  3
ObjectDBX Classes
 90
     1153
280
     0
281
     0
  0
CLASS
  1
TABLESTYLE
  2
AcDbTableStyle
  3
ObjectDBX Classes
 90
     4095
280
     0
281
     0
  0
CLASS
  1
MLEADERSTYLE
  2
AcDbMLeaderStyle
  3
ACDB_MLEADERSTYLE_CLASS
 90
     4095
280
     0
281
     0
  0
CLASS
  1
SUN
  2
AcDbSun
  3
SCENEOE
 90
     1153
280
     0
281
     0
  0
CLASS
  1
ACDBPLACEHOLDER
  2
AcDbPlaceHolder
  3
ObjectDBX Classes
 90
        0
280
     0
281
     0
  0
CLASS
  1
LAYOUT
  2
AcDbLayout
  3
ObjectDBX Classes
 90
        0
280
     0
281
     0
  0
ENDSEC
  0
SECTION
  2
TABLES
  0
TABLE
  2
VPORT
  5
8
330
0
100
AcDbSymbolTable
 70
     1
  0
VPORT
  5
29
330
8
100
AcDbSymbolTableRecord
100
AcDbViewportTableRecord
  2
*Active
 70
     0
 10
0.0
 20
0.0
 11
1.0
 21
1.0
 12
97.046269349
 22
-0.0782652201
 13
0.0
 23
0.0
 14
0.5
 24
0.5
 15
0.5
 25
0.5
 16
0.0
 26
0.0
 36
1.0
 17
0.0
 27
0.0
 37
0.0
 40
17.1903439666
 41
1.3660438988
 42
50.0
 43
0.0
 44
0.0
 50
0.0
 51
0.0
 71
     0
 72
   100
 73
     1
 74
     3
 75
     0
 76
     0
 77
     0
 78
     0
281
     0
 65
     1
110
0.0
120
0.0
130
0.0
111
1.0
121
0.0
131
0.0
112
0.0
122
1.0
132
0.0
 79
     0
146
0.0
  0
ENDTAB
  0
TABLE
  2
LTYPE
  5
5
330
0
100
AcDbSymbolTable
 70
     6
  0
LTYPE
  5
14
330
5
100
AcDbSymbolTableRecord
100
AcDbLinetypeTableRecord
  2
ByBlock
 70
     0
  3

 72
    65
 73
     0
 40
0.0
  0
LTYPE
  5
15
330
5
100
AcDbSymbolTableRecord
100
AcDbLinetypeTableRecord
  2
ByLayer
 70
     0
  3

 72
    65
 73
     0
 40
0.0
  0
LTYPE
  5
16
330
5
100
AcDbSymbolTableRecord
100
AcDbLinetypeTableRecord
  2
Continuous
 70
     0
  3
Solid line
 72
    65
 73
     0
 40
0.0
  0
LTYPE
  5
6E
330
5
100
AcDbSymbolTableRecord
100
AcDbLinetypeTableRecord
  2
HIDDEN
 70
     0
  3
Hidden __ __ __ __ __ __ __ __ __ __ __ __ __ __
 72
    65
 73
     2
 40
0.075
 49
0.05
 74
     0
 49
-0.025
 74
     0
  0
LTYPE
  5
6F
330
5
100
AcDbSymbolTableRecord
100
AcDbLinetypeTableRecord
  2
PHANTOM
 70
     0
  3
Phantom ______  __  __  ______  __  __  ______
 72
    65
 73
     6
 40
0.5
 49
0.25
 74
     0
 49
-0.05
 74
     0
 49
0.05
 74
     0
 49
-0.05
 74
     0
 49
0.05
 74
     0
 49
-0.05
 74
     0
  0
LTYPE
  5
70
330
5
100
AcDbSymbolTableRecord
100
AcDbLinetypeTableRecord
  2
CENTER
 70
     0
  3
Center ____ _ ____ _ ____ _ ____ _ ____ _ ____
 72
    65
 73
     4
 40
0.4
 49
0.25
 74
     0
 49
-0.05
 74
     0
 49
0.05
 74
     0
 49
-0.05
 74
     0
  0
LTYPE
  5
71
330
5
100
AcDbSymbolTableRecord
100
AcDbLinetypeTableRecord
  2
CENTERX2
 70
     0
  3
Center (2x) ________  __  ________  __  _____
 72
    65
 73
     4
 40
0.8
 49
0.5
 74
     0
 49
-0.1
 74
     0
 49
0.1
 74
     0
 49
-0.1
 74
     0
  0
LTYPE
  5
72
330
5
100
AcDbSymbolTableRecord
100
AcDbLinetypeTableRecord
  2
DOT2
 70
     0
  3
Dot (.5x) ........................................
 72
    65
 73
     2
 40
0.025
 49
0.0
 74
     0
 49
-0.025
 74
     0
  0
ENDTAB
  0
TABLE
  2
LAYER
  5
2
330
0
100
AcDbSymbolTable
 70
     1
  0
LAYER
  5
10
330
2
100
AcDbSymbolTableRecord
100
AcDbLayerTableRecord
  2
0
 70
     0
 62
     7
  6
Continuous
370
    -3
390
F
  0
ENDTAB
  0
TABLE
  2
STYLE
  5
3
330
0
100
AcDbSymbolTable
 70
     2
  0
STYLE
  5
11
330
3
100
AcDbSymbolTableRecord
100
AcDbTextStyleTableRecord
  2
Standard
 70
     0
 40
0.0
 41
1.0
 50
0.0
 71
     0
 42
0.125
  3
txt
  4

  0
STYLE
  5
9A
330
3
100
AcDbSymbolTableRecord
100
AcDbTextStyleTableRecord
  2
SLDTEXTSTYLE0
 70
     0
 40
0.0
 41
0.7
 50
0.0
 71
     0
 42
0.125
  3
TXT
  4

  0
ENDTAB
  0
TABLE
  2
VIEW
  5
6
330
0
100
AcDbSymbolTable
 70
     0
  0
ENDTAB
  0
TABLE
  2
UCS
  5
7
330
0
100
AcDbSymbolTable
 70
     0
  0
ENDTAB
  0
TABLE
  2
APPID
  5
9
330
0
100
AcDbSymbolTable
 70
     1
  0
APPID
  5
12
330
9
100
AcDbSymbolTableRecord
100
AcDbRegAppTableRecord
  2
ACAD
 70
     0
  0
ENDTAB
  0
TABLE
  2
DIMSTYLE
  5
A
330
0
100
AcDbSymbolTable
 70
     1
100
AcDbDimStyleTable
  0
DIMSTYLE
105
27
330
A
100
AcDbSymbolTableRecord
100
AcDbDimStyleTableRecord
  2
Standard
 70
     0
178
     0
340
11
  0
ENDTAB
  0
TABLE
  2
BLOCK_RECORD
  5
1
330
0
100
AcDbSymbolTable
 70
     1
  0
BLOCK_RECORD
  5
1F
330
1
100
AcDbSymbolTableRecord
100
AcDbBlockTableRecord
  2
*Model_Space
340
22
  0
BLOCK_RECORD
  5
1B
330
1
100
AcDbSymbolTableRecord
100
AcDbBlockTableRecord
  2
*Paper_Space
340
1E
  0
BLOCK_RECORD
  5
23
330
1
100
AcDbSymbolTableRecord
100
AcDbBlockTableRecord
  2
*Paper_Space0
340
26
  0
ENDTAB
  0
ENDSEC
  0
SECTION
  2
BLOCKS
  0
BLOCK
  5
20
330
1F
100
AcDbEntity
  8
0
100
AcDbBlockBegin
  2
*Model_Space
 70
     0
 10
0.0
 20
0.0
 30
0.0
  3
*Model_Space
  1

  0
ENDBLK
  5
21
330
1F
100
AcDbEntity
  8
0
100
AcDbBlockEnd
  0
BLOCK
  5
1C
330
1B
100
AcDbEntity
 67
     1
  8
0
100
AcDbBlockBegin
  2
*Paper_Space
 70
     0
 10
0.0
 20
0.0
 30
0.0
  3
*Paper_Space
  1

  0
ENDBLK
  5
1D
330
1B
100
AcDbEntity
 67
     1
  8
0
100
AcDbBlockEnd
  0
BLOCK
  5
24
330
23
100
AcDbEntity
  8
0
100
AcDbBlockBegin
  2
*Paper_Space0
 70
     0
 10
0.0
 20
0.0
 30
0.0
  3
*Paper_Space0
  1

  0
ENDBLK
  5
25
330
23
100
AcDbEntity
  8
0
100
AcDbBlockEnd
  0
ENDSEC
  0
SECTION
  2
ENTITIES
  0
CIRCLE
  5
73
330
1F
100
AcDbEntity
  8
0
  6
Continuous
 62
     7
370
    25
100
AcDbCircle
 10
97.7318341462
 20
0.9733739792
 30
0.0
 40
0.1004999999999967
  0
CIRCLE
  5
74
330
1F
100
AcDbEntity
  8
0
  6
Continuous
 62
     7
370
    25
100
AcDbCircle
 10
93.6383864209
 20
0.9733739792
 30
0.0
 40
0.1004999999999825
  0
CIRCLE
  5
75
330
1F
100
AcDbEntity
  8
0
  6
Continuous
 62
     7
370
    25
100
AcDbCircle
 10
100.0601102835
 20
4.2280521647
 30
0.0
 40
0.1004999999999967
  0
CIRCLE
  5
76
330
1F
100
AcDbEntity
  8
0
  6
Continuous
 62
     7
370
    25
100
AcDbCircle
 10
100.0601102835
 20
7.7233739792
 30
0.0
 40
0.1004999999999967
  0
CIRCLE
  5
77
330
1F
100
AcDbEntity
  8
0
  6
Continuous
 62
     7
370
    25
100
AcDbCircle
 10
91.3101102835
 20
7.7233739792
 30
0.0
 40
0.1004999999999967
  0
CIRCLE
  5
78
330
1F
100
AcDbEntity
  8
0
  6
Continuous
 62
     7
370
    25
100
AcDbCircle
 10
91.3101102835
 20
4.2280521647
 30
0.0
 40
0.1004999999999967
  0
CIRCLE
  5
79
330
1F
100
AcDbEntity
  8
0
  6
Continuous
 62
     7
370
    25
100
AcDbCircle
 10
95.6851102835
 20
7.7233739792
 30
0.0
 40
0.1004999999999967
  0
LINE
  5
7A
330
1F
100
AcDbEntity
  8
0
  6
Continuous
 62
     7
370
    25
100
AcDbLine
 10
91.6851102835
 20
7.3483739792
 30
0.0
 11
99.6851102835
 21
7.3483739792
 31
0.0
  0
LINE
  5
7B
330
1F
100
AcDbEntity
  8
0
  6
Continuous
 62
     7
370
    25
100
AcDbLine
 10
99.6851102835
 20
7.3483739792
 30
0.0
 11
99.6851102835
 21
4.3483739792
 31
0.0
  0
LINE
  5
7C
330
1F
100
AcDbEntity
  8
0
  6
Continuous
 62
     7
370
    25
100
AcDbLine
 10
99.6851102835
 20
4.3483739792
 30
0.0
 11
97.5390214803
 21
1.3483739792
 31
0.0
  0
LINE
  5
7D
330
1F
100
AcDbEntity
  8
0
  6
Continuous
 62
     7
370
    25
100
AcDbLine
 10
97.5390214803
 20
1.3483739792
 30
0.0
 11
93.8311990868
 21
1.3483739792
 31
0.0
  0
LINE
  5
7E
330
1F
100
AcDbEntity
  8
0
  6
Continuous
 62
     7
370
    25
100
AcDbLine
 10
93.8311990868
 20
1.3483739792
 30
0.0
 11
91.6851102835
 21
4.3483739792
 31
0.0
  0
LINE
  5
7F
330
1F
100
AcDbEntity
  8
0
  6
Continuous
 62
     7
370
    25
100
AcDbLine
 10
91.6851102835
 20
4.3483739792
 30
0.0
 11
91.6851102835
 21
7.3483739792
 31
0.0
  0
LINE
  5
80
330
1F
100
AcDbEntity
  8
0
  6
Continuous
 62
     7
370
    25
100
AcDbLine
 10
91.9351102835
 20
-0.5981337193
 30
0.0
 11
85.5351102835
 21
8.3483739792
 31
0.0
  0
LINE
  5
81
330
1F
100
AcDbEntity
  8
0
  6
Continuous
 62
     7
370
    25
100
AcDbLine
 10
99.4351102835
 20
-0.5981337193
 30
0.0
 11
91.9351102835
 21
-0.5981337193
 31
0.0
  0
LINE
  5
82
330
1F
100
AcDbEntity
  8
0
  6
Continuous
 62
     7
370
    25
100
AcDbLine
 10
105.8351102835
 20
8.3483739792
 30
0.0
 11
99.4351102835
 21
-0.5981337193
 31
0.0
  0
LINE
  5
83
330
1F
100
AcDbEntity
  8
0
  6
Continuous
 62
     7
370
    25
100
AcDbLine
 10
85.5351102835
 20
8.3483739792
 30
0.0
 11
105.8351102835
 21
8.3483739792
 31
0.0
  0
SPLINE
  5
84
330
1F
100
AcDbEntity
  8
0
  6
Continuous
 62
     7
370
    25
100
AcDbSpline
210
0.0
220
0.0
230
1.0
 70
     8
 71
     3
 72
    57
 73
    53
 74
     0
 42
0.000000001
 43
0.00000001
 40
0.0
 40
0.0
 40
0.0
 40
0.0
 40
0.062500000000001
 40
0.062500000000001
 40
0.125000000000002
 40
0.125000000000002
 40
0.1875000000000031
 40
0.1875000000000031
 40
0.2500000000000041
 40
0.2500000000000041
 40
0.2656250000000043
 40
0.2656250000000043
 40
0.2812500000000046
 40
0.2812500000000046
 40
0.3125000000000049
 40
0.3125000000000049
 40
0.3750000000000057
 40
0.3750000000000057
 40
0.4375000000000065
 40
0.4375000000000065
 40
0.5000000000000072
 40
0.5000000000000072
 40
0.5312500000000077
 40
0.5312500000000077
 40
0.5625000000000079
 40
0.5625000000000079
 40
0.5937500000000082
 40
0.5937500000000082
 40
0.6015625000000082
 40
0.6015625000000082
 40
0.6054687500000081
 40
0.6054687500000081
 40
0.6093750000000081
 40
0.6093750000000081
 40
0.617187500000008
 40
0.617187500000008
 40
0.6250000000000079
 40
0.6250000000000079
 40
0.6406250000000077
 40
0.6406250000000077
 40
0.6562500000000073
 40
0.6562500000000073
 40
0.6640625000000071
 40
0.6640625000000071
 40
0.6718750000000069
 40
0.6718750000000069
 40
0.6796875000000067
 40
0.6796875000000067
 40
0.6875000000000064
 40
0.7500000000000052
 40
0.7500000000000052
 40
1.0
 40
1.0
 40
1.0
 40
1.0
 10
93.02174151851031
 20
-7.521298416773663
 30
0.0
 10
93.20907045093178
 20
-7.521191987004201
 30
0.0
 10
93.3950688390514
 20
-7.513302534232422
 30
0.0
 10
93.76448671484461
 20
-7.482438342566213
 30
0.0
 10
93.94790751237994
 20
-7.459471265712044
 30
0.0
 10
94.31219666456074
 20
-7.398606589437689
 30
0.0
 10
94.49306925671047
 20
-7.36073377731176
 30
0.0
 10
94.85223705226879
 20
-7.269911709659587
 30
0.0
 10
95.03053766051262
 20
-7.216994069733939
 30
0.0
 10
95.25175515353307
 20
-7.141146980226291
 30
0.0
 10
95.29592684297546
 20
-7.125488260483274
 30
0.0
 10
95.38369035116857
 20
-7.093346915608318
 30
0.0
 10
95.42733417305564
 20
-7.076847569302021
 30
0.0
 10
95.5575581671579
 20
-7.026074904426086
 30
0.0
 10
95.64343114841535
 20
-6.990527465448374
 30
0.0
 10
95.89825214474271
 20
-6.878844187652735
 30
0.0
 10
96.06440972483432
 20
-6.797680922912163
 30
0.0
 10
96.3894036428066
 20
-6.622163975749515
 30
0.0
 10
96.54823040632326
 20
-6.527793043541548
 30
0.0
 10
96.85848888182957
 20
-6.325727781865013
 30
0.0
 10
97.00990615612716
 20
-6.218007440527973
 30
0.0
 10
97.23129168600794
 20
-6.046084690372206
 30
0.0
 10
97.30415739967475
 20
-5.987031632210362
 30
0.0
 10
97.44696257245636
 20
-5.866244946281072
 30
0.0
 10
97.51703028885233
 20
-5.804419457959145
 30
0.0
 10
97.65448092841775
 20
-5.677888040396151
 30
0.0
 10
97.72186876379874
 20
-5.613187381331948
 30
0.0
 10
97.80437169681167
 20
-5.530453491168847
 30
0.0
 10
97.8207856973748
 20
-5.513813817352471
 30
0.0
 10
97.84527550212655
 20
-5.488713549942833
 30
0.0
 10
97.85343977034185
 20
-5.48034786697436
 30
0.0
 10
97.86960319933497
 20
-5.463439361802072
 30
0.0
 10
97.87752056008019
 20
-5.454808778589726
 30
0.0
 10
97.9008373698091
 20
-5.428450037034569
 30
0.0
 10
97.91585932712736
 20
-5.410207533577772
 30
0.0
 10
97.94457461241223
 20
-5.372842330401883
 30
0.0
 10
97.95822315413274
 20
-5.35377141211405
 30
0.0
 10
97.99737802712401
 20
-5.295578008443591
 30
0.0
 10
98.02118688758196
 20
-5.255525956840141
 30
0.0
 10
98.06487688725574
 20
-5.173270961279668
 30
0.0
 10
98.08465900982475
 20
-5.131013793986661
 30
0.0
 10
98.11103395410194
 20
-5.065821866425317
 30
0.0
 10
98.11928581040495
 20
-5.043726588584736
 30
0.0
 10
98.13440258155367
 20
-4.99912915674117
 30
0.0
 10
98.14126091529313
 20
-4.976672748492025
 30
0.0
 10
98.15339704799455
 20
-4.931403903775957
 30
0.0
 10
98.15837882674202
 20
-4.908524786365998
 30
0.0
 10
98.16872479367652
 20
-4.862852692359187
 30
0.0
 10
98.21521229156802
 20
-4.65731264693472
 30
0.0
 10
98.26108943589634
 20
-4.451635114442842
 30
0.0
 10
98.46286069832074
 20
-3.537033588568082
 30
0.0
 10
98.61763014405994
 20
-2.803850026796359
 30
0.0
 10
98.76785802569276
 20
-2.069751674652209
 30
0.0
  0
SPLINE
  5
85
330
1F
100
AcDbEntity
  8
0
  6
Continuous
 62
     7
370
    25
100
AcDbSpline
210
0.0
220
0.0
230
1.0
 70
     8
 71
     3
 72
    56
 73
    52
 74
     0
 42
0.000000001
 43
0.00000001
 40
0.0
 40
0.0
 40
0.0
 40
0.0
 40
0.2500000000000002
 40
0.2500000000000002
 40
0.3125000000000001
 40
0.3125000000000001
 40
0.3203125000000001
 40
0.3203125000000001
 40
0.3242187500000001
 40
0.3242187500000001
 40
0.3281250000000001
 40
0.3281250000000001
 40
0.34375
 40
0.34375
 40
0.3593749999999999
 40
0.3593749999999999
 40
0.3671875
 40
0.3671875
 40
0.3750000000000001
 40
0.3750000000000001
 40
0.3828125000000001
 40
0.3828125000000001
 40
0.3906250000000002
 40
0.3906250000000002
 40
0.3945312500000001
 40
0.3945312500000001
 40
0.3984375000000001
 40
0.3984375000000001
 40
0.4062499999999999
 40
0.4062499999999999
 40
0.4218750000000001
 40
0.4218750000000001
 40
0.4375000000000001
 40
0.4375000000000001
 40
0.5000000000000003
 40
0.5000000000000003
 40
0.6250000000000006
 40
0.6250000000000006
 40
0.6562500000000006
 40
0.6562500000000006
 40
0.6718750000000006
 40
0.6718750000000006
 40
0.6875000000000007
 40
0.6875000000000007
 40
0.7500000000000006
 40
0.7500000000000006
 40
0.8750000000000003
 40
0.8750000000000003
 40
0.9375000000000001
 40
0.9375000000000001
 40
1.0
 40
1.0
 40
1.0
 40
1.0
 10
87.27562475808053
 20
-2.069751674652194
 30
0.0
 10
87.42683679768635
 20
-2.808656246901929
 30
0.0
 10
87.58263411465707
 20
-3.546577408141343
 30
0.0
 10
87.78584392879864
 20
-4.467163751931536
 30
0.0
 10
87.82691913463754
 20
-4.651188102439972
 30
0.0
 10
87.87368216110958
 20
-4.858096804001859
 30
0.0
 10
87.87886128540507
 20
-4.881094251151106
 30
0.0
 10
87.88667136919854
 20
-4.915573921689344
 30
0.0
 10
87.8892744393355
 20
-4.927067256757256
 30
0.0
 10
87.89496753816869
 20
-4.949867332700795
 30
0.0
 10
87.8980289578549
 20
-4.961185036059811
 30
0.0
 10
87.91423271958556
 20
-5.01742996681325
 30
0.0
 10
87.93005084949513
 20
-5.06133187805803
 30
0.0
 10
87.96627955655838
 20
-5.147375953302013
 30
0.0
 10
87.98667735036854
 20
-5.189523015659804
 30
0.0
 10
88.0206411651909
 20
-5.251453384822013
 30
0.0
 10
88.03255810826026
 20
-5.271947045268778
 30
0.0
 10
88.05733324490377
 20
-5.31210515631535
 30
0.0
 10
88.0701831966538
 20
-5.331772961357914
 30
0.0
 10
88.09696399817561
 20
-5.370147205174786
 30
0.0
 10
88.11089205034703
 20
-5.388856132175168
 30
0.0
 10
88.13993426595506
 20
-5.425219041733381
 30
0.0
 10
88.1550029423813
 20
-5.442913481093347
 30
0.0
 10
88.17867557856064
 20
-5.468503803330374
 30
0.0
 10
88.18674301821177
 20
-5.476876874913377
 30
0.0
 10
88.20293101067107
 20
-5.4935757784725
 30
0.0
 10
88.21105879014425
 20
-5.501895182948651
 30
0.0
 10
88.23549971640809
 20
-5.526802176919091
 30
0.0
 10
88.25188844004748
 20
-5.543322547275641
 30
0.0
 10
88.30133667804076
 20
-5.592632783825959
 30
0.0
 10
88.33467796221012
 20
-5.625172039887664
 30
0.0
 10
88.40210513321311
 20
-5.689588291677261
 30
0.0
 10
88.436209400935
 20
-5.721481005098206
 30
0.0
 10
88.60795695857463
 20
-5.87875088918056
 30
0.0
 10
88.74971076875418
 20
-5.997982559757222
 30
0.0
 10
89.18753383697101
 20
-6.336689216197557
 30
0.0
 10
89.49614399409249
 20
-6.537207195533737
 30
0.0
 10
89.90273696746397
 20
-6.756367318292284
 30
0.0
 10
89.9851048063804
 20
-6.798613289897218
 30
0.0
 10
90.11024759133741
 20
-6.859577228246274
 30
0.0
 10
90.15222759584778
 20
-6.879496840237304
 30
0.0
 10
90.23672500517166
 20
-6.918523722059005
 30
0.0
 10
90.27928740892968
 20
-6.937650463470296
 30
0.0
 10
90.49289210625682
 20
-7.030985827266766
 30
0.0
 10
90.66570448712194
 20
-7.098072365142687
 30
0.0
 10
91.18973690886423
 20
-7.277335961256617
 30
0.0
 10
91.5465340181902
 20
-7.367588591409115
 30
0.0
 10
92.09288963280812
 20
-7.459095825675409
 30
0.0
 10
92.27688078427207
 20
-7.482236668007214
 30
0.0
 10
92.64872092837781
 20
-7.513352506627448
 30
0.0
 10
92.83510971373897
 20
-7.521192380781362
 30
0.0
 10
93.02174151851031
 20
-7.521298416773663
 30
0.0
  0
LINE
  5
86
330
1F
100
AcDbEntity
  8
0
  6
Continuous
 62
     7
370
    25
100
AcDbLine
 10
98.7678580257
 20
-2.0697516747
 30
0.0
 11
87.2756247581
 21
-2.0697516747
 31
0.0
  0
LINE
  5
87
330
1F
100
AcDbEntity
  8
0
  6
Continuous
 62
     7
370
    25
100
AcDbLine
 10
93.5217415341
 20
-8.2712985574
 30
0.0
 11
92.5217415341
 21
-8.2712985574
 31
0.0
  0
LINE
  5
88
330
1F
100
AcDbEntity
  8
0
  6
Continuous
 62
     7
370
    25
100
AcDbLine
 10
93.5217415341
 20
-8.5049044194
 30
0.0
 11
93.5217415341
 21
-8.2712985574
 31
0.0
  0
SPLINE
  5
89
330
1F
100
AcDbEntity
  8
0
  6
Continuous
 62
     7
370
    25
100
AcDbSpline
210
0.0
220
0.0
230
1.0
 70
     8
 71
     3
 72
    12
 73
     8
 74
     0
 42
0.000000001
 43
0.00000001
 40
0.0
 40
0.0
 40
0.0
 40
0.0
 40
0.4999999999999982
 40
0.4999999999999982
 40
0.7499999999999991
 40
0.7499999999999991
 40
1.0
 40
1.0
 40
1.0
 40
1.0
 10
93.52174153411481
 20
-8.504904139821814
 30
0.0
 10
95.36162209148516
 20
-8.384996336982224
 30
0.0
 10
97.14132369265103
 20
-7.589633627109181
 30
0.0
 10
99.10759050920268
 20
-5.650196921649032
 30
0.0
 10
99.24542573237618
 20
-4.645028411521014
 30
0.0
 10
99.61947054390271
 20
-2.903483848462933
 30
0.0
 10
99.80882655567932
 20
-1.981366068434482
 30
0.0
 10
99.98894160854769
 20
-1.069751674652201
 30
0.0
  0
LINE
  5
8A
330
1F
100
AcDbEntity
  8
0
  6
Continuous
 62
     7
370
    25
100
AcDbLine
 10
99.9889416085
 20
-1.0697516747
 30
0.0
 11
86.0545414597
 21
-1.0697516747
 31
0.0
  0
SPLINE
  5
8B
330
1F
100
AcDbEntity
  8
0
  6
Continuous
 62
     7
370
    25
100
AcDbSpline
210
0.0
220
0.0
230
1.0
 70
     8
 71
     3
 72
    14
 73
    10
 74
     0
 42
0.000000001
 43
0.00000001
 40
0.0
 40
0.0
 40
0.0
 40
0.0
 40
0.2500000000000008
 40
0.2500000000000008
 40
0.3750000000000012
 40
0.3750000000000012
 40
0.5000000000000017
 40
0.5000000000000017
 40
1.0
 40
1.0
 40
1.0
 40
1.0
 10
86.05454145968027
 20
-1.069751674652205
 30
0.0
 10
86.23721898842939
 20
-1.994335500247268
 30
0.0
 10
86.42939217888792
 20
-2.929690723539312
 30
0.0
 10
86.71399763954473
 20
-4.253031722994762
 30
0.0
 10
86.8192004397646
 20
-4.760991646979428
 30
0.0
 10
87.02092486246737
 20
-5.58551291605465
 30
0.0
 10
87.30305954898363
 20
-6.016680873844844
 30
0.0
 10
88.93722084047441
 20
-7.605547777111547
 30
0.0
 10
90.6999148948802
 20
-8.386172930793283
 30
0.0
 10
92.52174153411443
 20
-8.504904347269811
 30
0.0
  0
LINE
  5
8C
330
1F
100
AcDbEntity
  8
0
  6
Continuous
 62
     7
370
    25
100
AcDbLine
 10
92.5217415341
 20
-8.2712985574
 30
0.0
 11
92.5217415341
 21
-8.5049043473
 31
0.0
  0
LINE
  5
8D
330
1F
100
AcDbEntity
  8
0
  6
Continuous
 62
     7
370
    25
100
AcDbLine
 10
104.1234695536
 20
-7.9769165497
 30
0.0
 11
104.1234695536
 21
-8.1811426661
 31
0.0
  0
LINE
  5
8E
330
1F
100
AcDbEntity
  8
0
  6
Continuous
 62
     7
370
    25
100
AcDbLine
 10
104.1234695536
 20
-7.9769165497
 30
0.0
 11
105.1234695536
 21
-7.9769165497
 31
0.0
  0
LINE
  5
8F
330
1F
100
AcDbEntity
  8
0
  6
Continuous
 62
     7
370
    25
100
AcDbLine
 10
105.1234695536
 20
-7.9769165497
 30
0.0
 11
105.1234695536
 21
-8.1811428236
 31
0.0
  0
SPLINE
  5
90
330
1F
100
AcDbEntity
  8
0
  6
Continuous
 62
     7
370
    25
100
AcDbSpline
210
0.0
220
0.0
230
1.0
 70
     8
 71
     3
 72
    12
 73
     8
 74
     0
 42
0.000000001
 43
0.00000001
 40
0.0
 40
0.0
 40
0.0
 40
0.0
 40
0.2500000000000001
 40
0.2500000000000001
 40
0.5000000000000002
 40
0.5000000000000002
 40
1.0
 40
1.0
 40
1.0
 40
1.0
 10
105.1234695102546
 20
-8.18114258102405
 30
0.0
 10
105.784528428772
 20
-8.062273556810585
 30
0.0
 10
106.4134240475477
 20
-7.705838212298223
 30
0.0
 10
107.23856670265
 20
-6.679273843320205
 30
0.0
 10
107.5238953458984
 20
-6.048286406570353
 30
0.0
 10
108.2027128254294
 20
-4.184381285869495
 30
0.0
 10
108.4718791985469
 20
-2.848199595123321
 30
0.0
 10
108.5574284144171
 20
-1.518352454679567
 30
0.0
  0
LINE
  5
91
330
1F
100
AcDbEntity
  8
0
  6
Continuous
 62
     7
370
    25
100
AcDbLine
 10
108.5574284144
 20
0.1416475453
 30
0.0
 11
108.5574284144
 21
-1.5183524547
 31
0.0
  0
LINE
  5
92
330
1F
100
AcDbEntity
  8
0
  6
Continuous
 62
     7
370
    25
100
AcDbLine
 10
100.6895106927
 20
0.1416475453
 30
0.0
 11
108.5574284144
 21
0.1416475453
 31
0.0
  0
LINE
  5
93
330
1F
100
AcDbEntity
  8
0
  6
Continuous
 62
     7
370
    25
100
AcDbLine
 10
100.6895106927
 20
-1.5183524547
 30
0.0
 11
100.6895106927
 21
0.1416475453
 31
0.0
  0
SPLINE
  5
94
330
1F
100
AcDbEntity
  8
0
  6
Continuous
 62
     7
370
    25
100
AcDbSpline
210
0.0
220
0.0
230
1.0
 70
     8
 71
     3
 72
    12
 73
     8
 74
     0
 42
0.000000001
 43
0.00000001
 40
0.0
 40
0.0
 40
0.0
 40
0.0
 40
0.4999999999999989
 40
0.4999999999999989
 40
0.7499999999999994
 40
0.7499999999999994
 40
1.0
 40
1.0
 40
1.0
 40
1.0
 10
100.6895106927179
 20
-1.518352454679571
 30
0.0
 10
100.7752398215242
 20
-2.850996309285064
 30
0.0
 10
101.0417258309478
 20
-4.178798494287345
 30
0.0
 10
101.7264617649645
 20
-6.057026615994674
 30
0.0
 10
102.0128868592194
 20
-6.689455125321414
 30
0.0
 10
102.8415210887239
 20
-7.711167664930114
 30
0.0
 10
103.4646103965281
 20
-8.06266404214788
 30
0.0
 10
104.1234695216893
 20
-8.181142841501222
 30
0.0
  0
SPLINE
  5
95
330
1F
100
AcDbEntity
  8
0
  6
Continuous
 62
     7
370
    25
100
AcDbSpline
210
0.0
220
0.0
230
1.0
 70
     8
 71
     3
 72
    56
 73
    52
 74
     0
 42
0.000000001
 43
0.00000001
 40
0.0
 40
0.0
 40
0.0
 40
0.0
 40
0.0625000000000012
 40
0.0625000000000012
 40
0.0781250000000016
 40
0.0781250000000016
 40
0.0937500000000019
 40
0.0937500000000019
 40
0.1250000000000026
 40
0.1250000000000026
 40
0.1562500000000032
 40
0.1562500000000032
 40
0.1718750000000036
 40
0.1718750000000036
 40
0.1875000000000039
 40
0.1875000000000039
 40
0.2187500000000047
 40
0.2187500000000047
 40
0.2343750000000051
 40
0.2343750000000051
 40
0.2421875000000052
 40
0.2421875000000052
 40
0.2500000000000054
 40
0.2500000000000054
 40
0.2656250000000051
 40
0.2656250000000051
 40
0.2812500000000049
 40
0.2812500000000049
 40
0.3125000000000046
 40
0.3125000000000046
 40
0.3750000000000039
 40
0.3750000000000039
 40
0.4062500000000036
 40
0.4062500000000036
 40
0.4218750000000034
 40
0.4218750000000034
 40
0.4296875000000034
 40
0.4296875000000034
 40
0.4375000000000033
 40
0.4375000000000033
 40
0.5000000000000029
 40
0.5000000000000029
 40
0.5625000000000026
 40
0.5625000000000026
 40
0.6250000000000022
 40
0.6250000000000022
 40
0.7500000000000014
 40
0.7500000000000014
 40
0.8750000000000007
 40
0.8750000000000007
 40
1.0
 40
1.0
 40
1.0
 40
1.0
 10
104.6188359518964
 20
-7.22692728493593
 30
0.0
 10
104.7664589963785
 20
-7.226243251207086
 30
0.0
 10
104.9111012238907
 20
-7.208570983329137
 30
0.0
 10
105.0883430938485
 20
-7.166186330254671
 30
0.0
 10
105.1236108322708
 20
-7.156679923701688
 30
0.0
 10
105.1937812246782
 20
-7.135586426016918
 30
0.0
 10
105.2287539609652
 20
-7.12397051430957
 30
0.0
 10
105.3326369834958
 20
-7.086101493600539
 30
0.0
 10
105.3998101363353
 20
-7.057142588476546
 30
0.0
 10
105.5300621129268
 20
-6.991923927363178
 30
0.0
 10
105.5931413333818
 20
-6.955664878759251
 30
0.0
 10
105.684685912211
 20
-6.89579441765549
 30
0.0
 10
105.7146801229411
 20
-6.874909196140097
 30
0.0
 10
105.7735837808239
 20
-6.831204444231266
 30
0.0
 10
105.8025932284508
 20
-6.808296500803491
 30
0.0
 10
105.8871071963899
 20
-6.737195673190354
 30
0.0
 10
105.9399264063328
 20
-6.686855703257719
 30
0.0
 10
106.0133080672609
 20
-6.606467773006961
 30
0.0
 10
106.0368019109751
 20
-6.578865320625172
 30
0.0
 10
106.0702135934439
 20
-6.535935733497436
 30
0.0
 10
106.0810016233494
 20
-6.521334553805164
 30
0.0
 10
106.1019303140504
 20
-6.491592128164337
 30
0.0
 10
106.1121943798606
 20
-6.476553832578031
 30
0.0
 10
106.1426578482641
 20
-6.431164704351103
 30
0.0
 10
106.1624620581661
 20
-6.400484183077142
 30
0.0
 10
106.2014551528109
 20
-6.338609806868554
 30
0.0
 10
106.2206755447451
 20
-6.307405176901471
 30
0.0
 10
106.277519596676
 20
-6.213508068727349
 30
0.0
 10
106.3142967929279
 20
-6.150438207163096
 30
0.0
 10
106.4217140975788
 20
-5.959999733179181
 30
0.0
 10
106.4893485631605
 20
-5.831363707515596
 30
0.0
 10
106.5845218368186
 20
-5.635762195877932
 30
0.0
 10
106.6152017663194
 20
-5.570121251486492
 30
0.0
 10
106.6593693931688
 20
-5.470878774614024
 30
0.0
 10
106.6737800952288
 20
-5.437666452849804
 30
0.0
 10
106.694798690458
 20
-5.38759603540905
 30
0.0
 10
106.7017077445637
 20
-5.370864932653041
 30
0.0
 10
106.7152613198332
 20
-5.337291179437411
 30
0.0
 10
106.7218615319328
 20
-5.320429844823331
 30
0.0
 10
106.7806995752134
 20
-5.168440063610182
 30
0.0
 10
106.8304636427442
 20
-5.032268485473798
 30
0.0
 10
106.9251664334478
 20
-4.757890587976809
 30
0.0
 10
106.9700836730643
 20
-4.619675209474618
 30
0.0
 10
107.0551687824885
 20
-4.341241748036595
 30
0.0
 10
107.0953583867286
 20
-4.200924087667396
 30
0.0
 10
107.2083816500798
 20
-3.779180731310402
 30
0.0
 10
107.2739174067252
 20
-3.49630766054234
 30
0.0
 10
107.3864710268394
 20
-2.927333072041787
 30
0.0
 10
107.4334526361626
 20
-2.641225233688215
 30
0.0
 10
107.5092488231628
 20
-2.065842279925803
 30
0.0
 10
107.5380290256809
 20
-1.776561171482209
 30
0.0
 10
107.5574284144171
 20
-1.485644592983293
 30
0.0
  0
SPLINE
  5
96
330
1F
100
AcDbEntity
  8
0
  6
Continuous
 62
     7
370
    25
100
AcDbSpline
210
0.0
220
0.0
230
1.0
 70
     8
 71
     3
 72
    56
 73
    52
 74
     0
 42
0.000000001
 43
0.00000001
 40
0.0
 40
0.0
 40
0.0
 40
0.0
 40
0.1249999999999998
 40
0.1249999999999998
 40
0.2499999999999997
 40
0.2499999999999997
 40
0.3749999999999995
 40
0.3749999999999995
 40
0.4374999999999994
 40
0.4374999999999994
 40
0.4999999999999992
 40
0.4999999999999992
 40
0.562499999999999
 40
0.562499999999999
 40
0.578124999999999
 40
0.578124999999999
 40
0.593749999999999
 40
0.593749999999999
 40
0.6249999999999988
 40
0.6249999999999988
 40
0.6874999999999983
 40
0.6874999999999983
 40
0.718749999999998
 40
0.718749999999998
 40
0.7343749999999979
 40
0.7343749999999979
 40
0.7499999999999978
 40
0.7499999999999978
 40
0.7578124999999978
 40
0.7578124999999978
 40
0.7656249999999978
 40
0.7656249999999978
 40
0.781249999999998
 40
0.781249999999998
 40
0.812499999999998
 40
0.812499999999998
 40
0.8437499999999981
 40
0.8437499999999981
 40
0.8593749999999982
 40
0.8593749999999982
 40
0.8749999999999983
 40
0.8749999999999983
 40
0.9062499999999988
 40
0.9062499999999988
 40
0.9374999999999993
 40
0.9374999999999993
 40
0.9531249999999996
 40
0.9531249999999996
 40
0.9687499999999997
 40
0.9687499999999997
 40
1.0
 40
1.0
 40
1.0
 40
1.0
 10
101.6895106927179
 20
-1.485644659815182
 30
0.0
 10
101.7088655786592
 20
-1.775915546885997
 30
0.0
 10
101.7375561320386
 20
-2.064511878103767
 30
0.0
 10
101.8130713800537
 20
-2.638451786241729
 30
0.0
 10
101.8598601064335
 20
-2.923801814854172
 30
0.0
 10
101.9719016678024
 20
-3.491189930929959
 30
0.0
 10
102.0370993880214
 20
-3.77323790443108
 30
0.0
 10
102.1495377857001
 20
-4.19368353495269
 30
0.0
 10
102.1894843603302
 20
-4.333484947547023
 30
0.0
 10
102.2743278962248
 20
-4.611772607126342
 30
0.0
 10
102.3191549541783
 20
-4.750025360504456
 30
0.0
 10
102.4137508643108
 20
-5.024700104128666
 30
0.0
 10
102.4635127885868
 20
-5.161124660922235
 30
0.0
 10
102.5289113602701
 20
-5.330471288288721
 30
0.0
 10
102.5423710921708
 20
-5.364199830452558
 30
0.0
 10
102.5703753054574
 20
-5.431255052769312
 30
0.0
 10
102.584806837222
 20
-5.464623576834227
 30
0.0
 10
102.6290637267801
 20
-5.564372652424419
 30
0.0
 10
102.6598613781834
 20
-5.630439365711983
 30
0.0
 10
102.7553912391872
 20
-5.827164833112525
 30
0.0
 10
102.8230272931754
 20
-5.955995137480151
 30
0.0
 10
102.9300356839509
 20
-6.145977876169932
 30
0.0
 10
102.9665986785579
 20
-6.208780576907308
 30
0.0
 10
103.0229668967543
 20
-6.302089559291141
 30
0.0
 10
103.0420056021105
 20
-6.333046109796162
 30
0.0
 10
103.080673946955
 20
-6.394612083724881
 30
0.0
 10
103.1003265278783
 20
-6.425208030869284
 30
0.0
 10
103.1306459158592
 20
-6.47060821453974
 30
0.0
 10
103.1408935756508
 20
-6.485658666945443
 30
0.0
 10
103.1617487167684
 20
-6.515548205054037
 30
0.0
 10
103.1724651731094
 20
-6.530323276551575
 30
0.0
 10
103.2059513165741
 20
-6.57386324174936
 30
0.0
 10
103.2297976057605
 20
-6.602126925266832
 30
0.0
 10
103.3035834383446
 20
-6.683530676358497
 30
0.0
 10
103.3560849733684
 20
-6.733770309510817
 30
0.0
 10
103.4666603292412
 20
-6.827467983429608
 30
0.0
 10
103.5247564326081
 20
-6.870898905889686
 30
0.0
 10
103.6159323340336
 20
-6.931138567028727
 30
0.0
 10
103.6469994502433
 20
-6.950396783054988
 30
0.0
 10
103.7104896837136
 20
-6.98726293249631
 30
0.0
 10
103.7427345643377
 20
-7.004754512010106
 30
0.0
 10
103.8404284593328
 20
-7.054157365100392
 30
0.0
 10
103.9070493093895
 20
-7.083135024215824
 30
0.0
 10
104.0431583470015
 20
-7.133482533485337
 30
0.0
 10
104.1126613903324
 20
-7.154812967315889
 30
0.0
 10
104.2191401367208
 20
-7.180907273300548
 30
0.0
 10
104.2550951293376
 20
-7.188630658825267
 30
0.0
 10
104.3272415021644
 20
-7.201969152213182
 30
0.0
 10
104.3634253301862
 20
-7.207594263010475
 30
0.0
 10
104.4723117402101
 20
-7.221308865721269
 30
0.0
 10
104.5453498772391
 20
-7.226231691370206
 30
0.0
 10
104.6188359518964
 20
-7.22692728493593
 30
0.0
  0
LINE
  5
97
330
1F
100
AcDbEntity
  8
0
  6
Continuous
 62
     7
370
    25
100
AcDbLine
 10
101.6895106927
 20
-0.8583524547
 30
0.0
 11
101.6895106927
 21
-1.4856446598
 31
0.0
  0
LINE
  5
98
330
1F
100
AcDbEntity
  8
0
  6
Continuous
 62
     7
370
    25
100
AcDbLine
 10
107.5574284144
 20
-0.8583524547
 30
0.0
 11
101.6895106927
 21
-0.8583524547
 31
0.0
  0
LINE
  5
99
330
1F
100
AcDbEntity
  8
0
  6
Continuous
 62
     7
370
    25
100
AcDbLine
 10
107.5574284144
 20
-1.485644593
 30
0.0
 11
107.5574284144
 21
-0.8583524547
 31
0.0
  0
MTEXT
  5
9B
330
1F
100
AcDbEntity
  8
0
  6
Continuous
 62
     7
100
AcDbMText
 10
85.5351102835
 20
-8.5450448285
 30
0.0
 40
0.1903
 41
0.0
 71
     1
 72
     1
  1
SOLIDWORKS Educational Product.
  7
SLDTEXTSTYLE0
 73
     1
 44
1.0
  0
MTEXT
  5
9C
330
1F
100
AcDbEntity
  8
0
  6
Continuous
 62
     7
100
AcDbMText
 10
85.5351102835
 20
-8.8304948285
 30
0.0
 40
0.1903
 41
0.0
 71
     1
 72
     1
  1
For Instructional Use Only.
  7
SLDTEXTSTYLE0
 73
     1
 44
1.0
  0
ENDSEC
  0
SECTION
  2
OBJECTS
  0
DICTIONARY
  5
C
330
0
100
AcDbDictionary
281
     1
  3
ACAD_GROUP
350
D
  3
ACAD_LAYOUT
350
1A
  3
ACAD_MLINESTYLE
350
17
  3
ACAD_PLOTSETTINGS
350
19
  3
ACAD_PLOTSTYLENAME
350
E
  3
ACAD_SCALELIST
350
47
  0
DICTIONARY
  5
D
102
{ACAD_REACTORS
330
C
102
}
330
C
100
AcDbDictionary
281
     1
  0
DICTIONARY
  5
1A
102
{ACAD_REACTORS
330
C
102
}
330
C
100
AcDbDictionary
281
     1
  3
Layout1
350
1E
  3
Layout2
350
26
  3
Model
350
22
  0
DICTIONARY
  5
17
102
{ACAD_REACTORS
330
C
102
}
330
C
100
AcDbDictionary
281
     1
  3
Standard
350
18
  0
DICTIONARY
  5
19
102
{ACAD_REACTORS
330
C
102
}
330
C
100
AcDbDictionary
281
     1
  0
ACDBDICTIONARYWDFLT
  5
E
102
{ACAD_REACTORS
330
C
102
}
330
C
100
AcDbDictionary
281
     1
  3
Normal
350
F
100
AcDbDictionaryWithDefault
340
F
  0
DICTIONARY
  5
47
102
{ACAD_REACTORS
330
C
102
}
330
C
100
AcDbDictionary
281
     1
  3
A0
350
48
  3
A1
350
49
  3
A2
350
4A
  3
A3
350
4B
  3
A4
350
4C
  3
A5
350
4D
  3
A6
350
4E
  3
A7
350
4F
  3
A8
350
50
  3
A9
350
51
  3
B0
350
52
  3
B1
350
53
  3
B2
350
54
  3
B3
350
55
  3
B4
350
56
  3
B5
350
57
  3
B6
350
58
  3
B7
350
59
  3
B8
350
5A
  3
B9
350
5B
  3
C0
350
5C
  3
C1
350
5D
  3
C2
350
5E
  3
C3
350
5F
  3
C4
350
60
  3
C5
350
61
  3
C6
350
62
  3
C7
350
63
  3
C8
350
64
  3
C9
350
65
  3
D0
350
66
  3
D1
350
67
  3
D2
350
68
  0
LAYOUT
  5
1E
102
{ACAD_REACTORS
330
1A
102
}
330
1A
100
AcDbPlotSettings
  1

  2
none_device
  4

  6

 40
0.0
 41
0.0
 42
0.0
 43
0.0
 44
0.0
 45
0.0
 46
0.0
 47
0.0
 48
0.0
 49
0.0
140
0.0
141
0.0
142
1.0
143
1.0
 70
   688
 72
     0
 73
     0
 74
     5
  7

 75
    16
147
1.0
148
0.0
149
0.0
100
AcDbLayout
  1
Layout1
 70
     1
 71
     1
 10
0.0
 20
0.0
 11
12.0
 21
9.0
 12
0.0
 22
0.0
 32
0.0
 14
1.0000000000E+20
 24
1.0000000000E+20
 34
1.0000000000E+20
 15
-1.0000000000E+20
 25
-1.0000000000E+20
 35
-1.0000000000E+20
146
0.0
 13
0.0
 23
0.0
 33
0.0
 16
1.0
 26
0.0
 36
0.0
 17
0.0
 27
1.0
 37
0.0
 76
     0
330
1B
  0
LAYOUT
  5
26
102
{ACAD_REACTORS
330
1A
102
}
330
1A
100
AcDbPlotSettings
  1

  2
none_device
  4

  6

 40
0.0
 41
0.0
 42
0.0
 43
0.0
 44
0.0
 45
0.0
 46
0.0
 47
0.0
 48
0.0
 49
0.0
140
0.0
141
0.0
142
1.0
143
1.0
 70
   688
 72
     0
 73
     0
 74
     5
  7

 75
    16
147
1.0
148
0.0
149
0.0
100
AcDbLayout
  1
Layout2
 70
     1
 71
     2
 10
0.0
 20
0.0
 11
0.0
 21
0.0
 12
0.0
 22
0.0
 32
0.0
 14
0.0
 24
0.0
 34
0.0
 15
0.0
 25
0.0
 35
0.0
146
0.0
 13
0.0
 23
0.0
 33
0.0
 16
1.0
 26
0.0
 36
0.0
 17
0.0
 27
1.0
 37
0.0
 76
     0
330
23
  0
LAYOUT
  5
22
102
{ACAD_REACTORS
330
1A
102
}
330
1A
100
AcDbPlotSettings
  1

  2
none_device
  4
ANSI_A_(11.00_x_8.50_Inches)
  6

 40
6.35
 41
19.05
 42
6.35000508
 43
19.05000254
 44
279.4
 45
215.9
 46
-1032.6307794072
 47
89.8403310348
 48
0.0
 49
0.0
140
0.0
141
0.0
142
0.473019265
143
1.0
 70
  1696
 72
     0
 73
     0
 74
     0
  7

 75
     0
147
0.5913241897
148
-39.4088153714
149
0.0
100
AcDbLayout
  1
Model
 70
     1
 71
     0
 10
0.0
 20
0.0
 11
12.0
 21
9.0
 12
0.0
 22
0.0
 32
0.0
 14
85.5351102835
 24
-8.5049044194
 34
0.0
 15
108.5574284144
 25
8.3483739792
 35
0.0
146
0.0
 13
0.0
 23
0.0
 33
0.0
 16
1.0
 26
0.0
 36
0.0
 17
0.0
 27
1.0
 37
0.0
 76
     0
330
1F
331
29
  0
MLINESTYLE
  5
18
102
{ACAD_REACTORS
330
17
102
}
330
17
100
AcDbMlineStyle
  2
Standard
 70
     0
  3

 62
   256
 51
90.0
 52
90.0
 71
     2
 49
0.5
 62
   256
  6
BYLAYER
 49
-0.5
 62
   256
  6
BYLAYER
  0
ACDBPLACEHOLDER
  5
F
102
{ACAD_REACTORS
330
E
102
}
330
E
  0
SCALE
  5
48
102
{ACAD_REACTORS
330
47
102
}
330
47
100
AcDbScale
 70
     0
300
1:1
140
1.0
141
1.0
290
     1
  0
SCALE
  5
49
102
{ACAD_REACTORS
330
47
102
}
330
47
100
AcDbScale
 70
     0
300
1:2
140
1.0
141
2.0
290
     0
  0
SCALE
  5
4A
102
{ACAD_REACTORS
330
47
102
}
330
47
100
AcDbScale
 70
     0
300
1:4
140
1.0
141
4.0
290
     0
  0
SCALE
  5
4B
102
{ACAD_REACTORS
330
47
102
}
330
47
100
AcDbScale
 70
     0
300
1:5
140
1.0
141
5.0
290
     0
  0
SCALE
  5
4C
102
{ACAD_REACTORS
330
47
102
}
330
47
100
AcDbScale
 70
     0
300
1:8
140
1.0
141
8.0
290
     0
  0
SCALE
  5
4D
102
{ACAD_REACTORS
330
47
102
}
330
47
100
AcDbScale
 70
     0
300
1:10
140
1.0
141
10.0
290
     0
  0
SCALE
  5
4E
102
{ACAD_REACTORS
330
47
102
}
330
47
100
AcDbScale
 70
     0
300
1:16
140
1.0
141
16.0
290
     0
  0
SCALE
  5
4F
102
{ACAD_REACTORS
330
47
102
}
330
47
100
AcDbScale
 70
     0
300
1:20
140
1.0
141
20.0
290
     0
  0
SCALE
  5
50
102
{ACAD_REACTORS
330
47
102
}
330
47
100
AcDbScale
 70
     0
300
1:30
140
1.0
141
30.0
290
     0
  0
SCALE
  5
51
102
{ACAD_REACTORS
330
47
102
}
330
47
100
AcDbScale
 70
     0
300
1:40
140
1.0
141
40.0
290
     0
  0
SCALE
  5
52
102
{ACAD_REACTORS
330
47
102
}
330
47
100
AcDbScale
 70
     0
300
1:50
140
1.0
141
50.0
290
     0
  0
SCALE
  5
53
102
{ACAD_REACTORS
330
47
102
}
330
47
100
AcDbScale
 70
     0
300
1:100
140
1.0
141
100.0
290
     0
  0
SCALE
  5
54
102
{ACAD_REACTORS
330
47
102
}
330
47
100
AcDbScale
 70
     0
300
2:1
140
2.0
141
1.0
290
     0
  0
SCALE
  5
55
102
{ACAD_REACTORS
330
47
102
}
330
47
100
AcDbScale
 70
     0
300
4:1
140
4.0
141
1.0
290
     0
  0
SCALE
  5
56
102
{ACAD_REACTORS
330
47
102
}
330
47
100
AcDbScale
 70
     0
300
8:1
140
8.0
141
1.0
290
     0
  0
SCALE
  5
57
102
{ACAD_REACTORS
330
47
102
}
330
47
100
AcDbScale
 70
     0
300
10:1
140
10.0
141
1.0
290
     0
  0
SCALE
  5
58
102
{ACAD_REACTORS
330
47
102
}
330
47
100
AcDbScale
 70
     0
300
100:1
140
100.0
141
1.0
290
     0
  0
SCALE
  5
59
102
{ACAD_REACTORS
330
47
102
}
330
47
100
AcDbScale
 70
     0
300
1/128" = 1'-0"
140
0.0078125
141
12.0
290
     0
  0
SCALE
  5
5A
102
{ACAD_REACTORS
330
47
102
}
330
47
100
AcDbScale
 70
     0
300
1/64" = 1'-0"
140
0.015625
141
12.0
290
     0
  0
SCALE
  5
5B
102
{ACAD_REACTORS
330
47
102
}
330
47
100
AcDbScale
 70
     0
300
1/32" = 1'-0"
140
0.03125
141
12.0
290
     0
  0
SCALE
  5
5C
102
{ACAD_REACTORS
330
47
102
}
330
47
100
AcDbScale
 70
     0
300
1/16" = 1'-0"
140
0.0625
141
12.0
290
     0
  0
SCALE
  5
5D
102
{ACAD_REACTORS
330
47
102
}
330
47
100
AcDbScale
 70
     0
300
3/32" = 1'-0"
140
0.09375
141
12.0
290
     0
  0
SCALE
  5
5E
102
{ACAD_REACTORS
330
47
102
}
330
47
100
AcDbScale
 70
     0
300
1/8" = 1'-0"
140
0.125
141
12.0
290
     0
  0
SCALE
  5
5F
102
{ACAD_REACTORS
330
47
102
}
330
47
100
AcDbScale
 70
     0
300
3/16" = 1'-0"
140
0.1875
141
12.0
290
     0
  0
SCALE
  5
60
102
{ACAD_REACTORS
330
47
102
}
330
47
100
AcDbScale
 70
     0
300
1/4" = 1'-0"
140
0.25
141
12.0
290
     0
  0
SCALE
  5
61
102
{ACAD_REACTORS
330
47
102
}
330
47
100
AcDbScale
 70
     0
300
3/8" = 1'-0"
140
0.375
141
12.0
290
     0
  0
SCALE
  5
62
102
{ACAD_REACTORS
330
47
102
}
330
47
100
AcDbScale
 70
     0
300
1/2" = 1'-0"
140
0.5
141
12.0
290
     0
  0
SCALE
  5
63
102
{ACAD_REACTORS
330
47
102
}
330
47
100
AcDbScale
 70
     0
300
3/4" = 1'-0"
140
0.75
141
12.0
290
     0
  0
SCALE
  5
64
102
{ACAD_REACTORS
330
47
102
}
330
47
100
AcDbScale
 70
     0
300
1" = 1'-0"
140
1.0
141
12.0
290
     0
  0
SCALE
  5
65
102
{ACAD_REACTORS
330
47
102
}
330
47
100
AcDbScale
 70
     0
300
1-1/2" = 1'-0"
140
1.5
141
12.0
290
     0
  0
SCALE
  5
66
102
{ACAD_REACTORS
330
47
102
}
330
47
100
AcDbScale
 70
     0
300
3" = 1'-0"
140
3.0
141
12.0
290
     0
  0
SCALE
  5
67
102
{ACAD_REACTORS
330
47
102
}
330
47
100
AcDbScale
 70
     0
300
6" = 1'-0"
140
6.0
141
12.0
290
     0
  0
SCALE
  5
68
102
{ACAD_REACTORS
330
47
102
}
330
47
100
AcDbScale
 70
     0
300
1'-0" = 1'-0"
140
12.0
141
12.0
290
     0
  0
ENDSEC
  0
EOF
