  0
SECTION
  2
HEADER
  9
$ACADVER
  1
AC1015
  9
$ACADMAINTVER
 70
     6
  9
$DWGCODEPAGE
  3
ANSI_1252
  9
$INSBASE
 10
0.0
 20
0.0
 30
0.0
  9
$EXTMIN
 10
52.3576546016
 20
-8.2636067898
 30
0.0
  9
$EXTMAX
 10
74.1371912224
 20
8.2561187913
 30
0.0
  9
$LIMMIN
 10
0.0
 20
0.0
  9
$LIMMAX
 10
12.0
 20
9.0
  9
$ORTHOMODE
 70
     0
  9
$REGENMODE
 70
     1
  9
$FILLMODE
 70
     1
  9
$QTEXTMODE
 70
     0
  9
$MIRRTEXT
 70
     1
  9
$LTSCALE
 40
1.0
  9
$ATTMODE
 70
     1
  9
$TEXTSIZE
 40
0.125
  9
$TRACEWID
 40
0.05
  9
$TEXTSTYLE
  7
Standard
  9
$CLAYER
  8
0
  9
$CELTYPE
  6
ByLayer
  9
$CECOLOR
 62
   256
  9
$CELTSCALE
 40
1.0
  9
$DISPSILH
 70
     0
  9
$DIMSCALE
 40
1.0
  9
$DIMASZ
 40
0.13
  9
$DIMEXO
 40
0.05
  9
$DIMDLI
 40
0.38
  9
$DIMRND
 40
0.0
  9
$DIMDLE
 40
0.0
  9
$DIMEXE
 40
0.125
  9
$DIMTP
 40
0.0
  9
$DIMTM
 40
0.0
  9
$DIMTXT
 40
0.125
  9
$DIMCEN
 40
0.09
  9
$DIMTSZ
 40
0.0
  9
$DIMTOL
 70
     0
  9
$DIMLIM
 70
     0
  9
$DIMTIH
 70
     1
  9
$DIMTOH
 70
     1
  9
$DIMSE1
 70
     0
  9
$DIMSE2
 70
     0
  9
$DIMTAD
 70
     0
  9
$DIMZIN
 70
     0
  9
$DIMBLK
  1

  9
$DIMASO
 70
     1
  9
$DIMSHO
 70
     1
  9
$DIMPOST
  1

  9
$DIMAPOST
  1

  9
$DIMALT
 70
     0
  9
$DIMALTD
 70
     2
  9
$DIMALTF
 40
25.4
  9
$DIMLFAC
 40
1.0
  9
$DIMTOFL
 70
     0
  9
$DIMTVP
 40
0.0
  9
$DIMTIX
 70
     0
  9
$DIMSOXD
 70
     0
  9
$DIMSAH
 70
     0
  9
$DIMBLK1
  1

  9
$DIMBLK2
  1

  9
$DIMSTYLE
  2
Standard
  9
$DIMCLRD
 70
     0
  9
$DIMCLRE
 70
     0
  9
$DIMCLRT
 70
     0
  9
$DIMTFAC
 40
1.0
  9
$DIMGAP
 40
0.06
  9
$DIMJUST
 70
     0
  9
$DIMSD1
 70
     0
  9
$DIMSD2
 70
     0
  9
$DIMTOLJ
 70
     1
  9
$DIMTZIN
 70
     0
  9
$DIMALTZ
 70
     0
  9
$DIMALTTZ
 70
     0
  9
$DIMUPT
 70
     0
  9
$DIMDEC
 70
     2
  9
$DIMTDEC
 70
     2
  9
$DIMALTU
 70
     2
  9
$DIMALTTD
 70
     2
  9
$DIMTXSTY
  7
Standard
  9
$DIMAUNIT
 70
     0
  9
$DIMADEC
 70
     2
  9
$DIMALTRND
 40
0.0
  9
$DIMAZIN
 70
     0
  9
$DIMDSEP
 70
    46
  9
$DIMATFIT
 70
     3
  9
$DIMFRAC
 70
     0
  9
$DIMLDRBLK
  1

  9
$DIMLUNIT
 70
     2
  9
$DIMLWD
 70
    -2
  9
$DIMLWE
 70
    -2
  9
$DIMTMOVE
 70
     0
  9
$LUNITS
 70
     2
  9
$LUPREC
 70
     2
  9
$SKETCHINC
 40
0.1
  9
$FILLETRAD
 40
0.5
  9
$AUNITS
 70
     0
  9
$AUPREC
 70
     2
  9
$MENU
  1
.
  9
$ELEVATION
 40
0.0
  9
$PELEVATION
 40
0.0
  9
$THICKNESS
 40
0.0
  9
$LIMCHECK
 70
     0
  9
$CHAMFERA
 40
0.0
  9
$CHAMFERB
 40
0.0
  9
$CHAMFERC
 40
0.0
  9
$CHAMFERD
 40
0.0
  9
$SKPOLY
 70
     0
  9
$TDCREATE
 40
2458037.450555625
  9
$TDUCREATE
 40
2458037.617222292
  9
$TDUPDATE
 40
2458037.450582963
  9
$TDUUPDATE
 40
2458037.617249629
  9
$TDINDWG
 40
0.0000000116
  9
$TDUSRTIMER
 40
0.0000000116
  9
$USRTIMER
 70
     1
  9
$ANGBASE
 50
0.0
  9
$ANGDIR
 70
     0
  9
$PDMODE
 70
     0
  9
$PDSIZE
 40
-1.0
  9
$PLINEWID
 40
0.0
  9
$SPLFRAME
 70
     0
  9
$SPLINETYPE
 70
     6
  9
$SPLINESEGS
 70
     8
  9
$HANDSEED
  5
C5
  9
$SURFTAB1
 70
     6
  9
$SURFTAB2
 70
     6
  9
$SURFTYPE
 70
     6
  9
$SURFU
 70
     6
  9
$SURFV
 70
     6
  9
$UCSBASE
  2

  9
$UCSNAME
  2

  9
$UCSORG
 10
0.0
 20
0.0
 30
0.0
  9
$UCSXDIR
 10
1.0
 20
0.0
 30
0.0
  9
$UCSYDIR
 10
0.0
 20
1.0
 30
0.0
  9
$UCSORTHOREF
  2

  9
$UCSORTHOVIEW
 70
     0
  9
$UCSORGTOP
 10
0.0
 20
0.0
 30
0.0
  9
$UCSORGBOTTOM
 10
0.0
 20
0.0
 30
0.0
  9
$UCSORGLEFT
 10
0.0
 20
0.0
 30
0.0
  9
$UCSORGRIGHT
 10
0.0
 20
0.0
 30
0.0
  9
$UCSORGFRONT
 10
0.0
 20
0.0
 30
0.0
  9
$UCSORGBACK
 10
0.0
 20
0.0
 30
0.0
  9
$PUCSBASE
  2

  9
$PUCSNAME
  2

  9
$PUCSORG
 10
0.0
 20
0.0
 30
0.0
  9
$PUCSXDIR
 10
1.0
 20
0.0
 30
0.0
  9
$PUCSYDIR
 10
0.0
 20
1.0
 30
0.0
  9
$PUCSORTHOREF
  2

  9
$PUCSORTHOVIEW
 70
     0
  9
$PUCSORGTOP
 10
0.0
 20
0.0
 30
0.0
  9
$PUCSORGBOTTOM
 10
0.0
 20
0.0
 30
0.0
  9
$PUCSORGLEFT
 10
0.0
 20
0.0
 30
0.0
  9
$PUCSORGRIGHT
 10
0.0
 20
0.0
 30
0.0
  9
$PUCSORGFRONT
 10
0.0
 20
0.0
 30
0.0
  9
$PUCSORGBACK
 10
0.0
 20
0.0
 30
0.0
  9
$USERI1
 70
     0
  9
$USERI2
 70
     0
  9
$USERI3
 70
     0
  9
$USERI4
 70
     0
  9
$USERI5
 70
     0
  9
$USERR1
 40
0.0
  9
$USERR2
 40
0.0
  9
$USERR3
 40
0.0
  9
$USERR4
 40
0.0
  9
$USERR5
 40
0.0
  9
$WORLDVIEW
 70
     1
  9
$SHADEDGE
 70
     3
  9
$SHADEDIF
 70
    70
  9
$TILEMODE
 70
     1
  9
$MAXACTVP
 70
    64
  9
$PINSBASE
 10
0.0
 20
0.0
 30
0.0
  9
$PLIMCHECK
 70
     0
  9
$PEXTMIN
 10
1.0000000000E+20
 20
1.0000000000E+20
 30
1.0000000000E+20
  9
$PEXTMAX
 10
-1.0000000000E+20
 20
-1.0000000000E+20
 30
-1.0000000000E+20
  9
$PLIMMIN
 10
0.0
 20
0.0
  9
$PLIMMAX
 10
12.0
 20
9.0
  9
$UNITMODE
 70
     0
  9
$VISRETAIN
 70
     1
  9
$PLINEGEN
 70
     0
  9
$PSLTSCALE
 70
     1
  9
$TREEDEPTH
 70
  3020
  9
$CMLSTYLE
  2
Standard
  9
$CMLJUST
 70
     0
  9
$CMLSCALE
 40
1.0
  9
$PROXYGRAPHICS
 70
     1
  9
$MEASUREMENT
 70
     0
  9
$CELWEIGHT
370
    -1
  9
$ENDCAPS
280
     0
  9
$JOINSTYLE
280
     0
  9
$LWDISPLAY
290
     1
  9
$INSUNITS
 70
     1
  9
$HYPERLINKBASE
  1

  9
$STYLESHEET
  1

  9
$XEDIT
290
     1
  9
$CEPSNTYPE
380
     0
  9
$PSTYLEMODE
290
     1
  9
$FINGERPRINTGUID
  2
{315939C6-1A17-486F-8DB8-B183F1DB2F26}
  9
$VERSIONGUID
  2
{FAEB1C32-E019-11D5-929B-00C0DF256EC4}
  9
$EXTNAMES
290
     1
  9
$PSVPSCALE
 40
0.0
  9
$OLESTARTUP
290
     0
  0
ENDSEC
  0
SECTION
  2
CLASSES
  0
CLASS
  1
ACDBDICTIONARYWDFLT
  2
AcDbDictionaryWithDefault
  3
ObjectDBX Classes
 90
        0
280
     0
281
     0
  0
CLASS
  1
VISUALSTYLE
  2
AcDbVisualStyle
  3
ObjectDBX Classes
 90
     4095
280
     0
281
     0
  0
CLASS
  1
MATERIAL
  2
AcDbMaterial
  3
ObjectDBX Classes
 90
     1153
280
     0
281
     0
  0
CLASS
  1
SCALE
  2
AcDbScale
  3
ObjectDBX Classes
 90
     1153
280
     0
281
     0
  0
CLASS
  1
TABLESTYLE
  2
AcDbTableStyle
  3
ObjectDBX Classes
 90
     4095
280
     0
281
     0
  0
CLASS
  1
MLEADERSTYLE
  2
AcDbMLeaderStyle
  3
ACDB_MLEADERSTYLE_CLASS
 90
     4095
280
     0
281
     0
  0
CLASS
  1
SUN
  2
AcDbSun
  3
SCENEOE
 90
     1153
280
     0
281
     0
  0
CLASS
  1
ACDBPLACEHOLDER
  2
AcDbPlaceHolder
  3
ObjectDBX Classes
 90
        0
280
     0
281
     0
  0
CLASS
  1
LAYOUT
  2
AcDbLayout
  3
ObjectDBX Classes
 90
        0
280
     0
281
     0
  0
ENDSEC
  0
SECTION
  2
TABLES
  0
TABLE
  2
VPORT
  5
8
330
0
100
AcDbSymbolTable
 70
     1
  0
VPORT
  5
29
330
8
100
AcDbSymbolTableRecord
100
AcDbViewportTableRecord
  2
*Active
 70
     0
 10
0.0
 20
0.0
 11
1.0
 21
1.0
 12
63.247422912
 22
-0.0037439993
 13
0.0
 23
0.0
 14
0.5
 24
0.5
 15
0.5
 25
0.5
 16
0.0
 26
0.0
 36
1.0
 17
0.0
 27
0.0
 37
0.0
 40
16.8501200927
 41
1.3183957877
 42
50.0
 43
0.0
 44
0.0
 50
0.0
 51
0.0
 71
     0
 72
   100
 73
     1
 74
     3
 75
     0
 76
     0
 77
     0
 78
     0
281
     0
 65
     1
110
0.0
120
0.0
130
0.0
111
1.0
121
0.0
131
0.0
112
0.0
122
1.0
132
0.0
 79
     0
146
0.0
  0
ENDTAB
  0
TABLE
  2
LTYPE
  5
5
330
0
100
AcDbSymbolTable
 70
     6
  0
LTYPE
  5
14
330
5
100
AcDbSymbolTableRecord
100
AcDbLinetypeTableRecord
  2
ByBlock
 70
     0
  3

 72
    65
 73
     0
 40
0.0
  0
LTYPE
  5
15
330
5
100
AcDbSymbolTableRecord
100
AcDbLinetypeTableRecord
  2
ByLayer
 70
     0
  3

 72
    65
 73
     0
 40
0.0
  0
LTYPE
  5
16
330
5
100
AcDbSymbolTableRecord
100
AcDbLinetypeTableRecord
  2
Continuous
 70
     0
  3
Solid line
 72
    65
 73
     0
 40
0.0
  0
LTYPE
  5
6E
330
5
100
AcDbSymbolTableRecord
100
AcDbLinetypeTableRecord
  2
HIDDEN
 70
     0
  3
Hidden __ __ __ __ __ __ __ __ __ __ __ __ __ __
 72
    65
 73
     2
 40
0.075
 49
0.05
 74
     0
 49
-0.025
 74
     0
  0
LTYPE
  5
6F
330
5
100
AcDbSymbolTableRecord
100
AcDbLinetypeTableRecord
  2
PHANTOM
 70
     0
  3
Phantom ______  __  __  ______  __  __  ______
 72
    65
 73
     6
 40
0.5
 49
0.25
 74
     0
 49
-0.05
 74
     0
 49
0.05
 74
     0
 49
-0.05
 74
     0
 49
0.05
 74
     0
 49
-0.05
 74
     0
  0
LTYPE
  5
70
330
5
100
AcDbSymbolTableRecord
100
AcDbLinetypeTableRecord
  2
CENTER
 70
     0
  3
Center ____ _ ____ _ ____ _ ____ _ ____ _ ____
 72
    65
 73
     4
 40
0.4
 49
0.25
 74
     0
 49
-0.05
 74
     0
 49
0.05
 74
     0
 49
-0.05
 74
     0
  0
LTYPE
  5
71
330
5
100
AcDbSymbolTableRecord
100
AcDbLinetypeTableRecord
  2
CENTERX2
 70
     0
  3
Center (2x) ________  __  ________  __  _____
 72
    65
 73
     4
 40
0.8
 49
0.5
 74
     0
 49
-0.1
 74
     0
 49
0.1
 74
     0
 49
-0.1
 74
     0
  0
LTYPE
  5
72
330
5
100
AcDbSymbolTableRecord
100
AcDbLinetypeTableRecord
  2
DOT2
 70
     0
  3
Dot (.5x) ........................................
 72
    65
 73
     2
 40
0.025
 49
0.0
 74
     0
 49
-0.025
 74
     0
  0
ENDTAB
  0
TABLE
  2
LAYER
  5
2
330
0
100
AcDbSymbolTable
 70
     1
  0
LAYER
  5
10
330
2
100
AcDbSymbolTableRecord
100
AcDbLayerTableRecord
  2
0
 70
     0
 62
     7
  6
Continuous
370
    -3
390
F
  0
ENDTAB
  0
TABLE
  2
STYLE
  5
3
330
0
100
AcDbSymbolTable
 70
     2
  0
STYLE
  5
11
330
3
100
AcDbSymbolTableRecord
100
AcDbTextStyleTableRecord
  2
Standard
 70
     0
 40
0.0
 41
1.0
 50
0.0
 71
     0
 42
0.125
  3
txt
  4

  0
STYLE
  5
C2
330
3
100
AcDbSymbolTableRecord
100
AcDbTextStyleTableRecord
  2
SLDTEXTSTYLE0
 70
     0
 40
0.0
 41
0.7
 50
0.0
 71
     0
 42
0.125
  3
TXT
  4

  0
ENDTAB
  0
TABLE
  2
VIEW
  5
6
330
0
100
AcDbSymbolTable
 70
     0
  0
ENDTAB
  0
TABLE
  2
UCS
  5
7
330
0
100
AcDbSymbolTable
 70
     0
  0
ENDTAB
  0
TABLE
  2
APPID
  5
9
330
0
100
AcDbSymbolTable
 70
     1
  0
APPID
  5
12
330
9
100
AcDbSymbolTableRecord
100
AcDbRegAppTableRecord
  2
ACAD
 70
     0
  0
ENDTAB
  0
TABLE
  2
DIMSTYLE
  5
A
330
0
100
AcDbSymbolTable
 70
     1
100
AcDbDimStyleTable
  0
DIMSTYLE
105
27
330
A
100
AcDbSymbolTableRecord
100
AcDbDimStyleTableRecord
  2
Standard
 70
     0
178
     0
340
11
  0
ENDTAB
  0
TABLE
  2
BLOCK_RECORD
  5
1
330
0
100
AcDbSymbolTable
 70
     1
  0
BLOCK_RECORD
  5
1F
330
1
100
AcDbSymbolTableRecord
100
AcDbBlockTableRecord
  2
*Model_Space
340
22
  0
BLOCK_RECORD
  5
1B
330
1
100
AcDbSymbolTableRecord
100
AcDbBlockTableRecord
  2
*Paper_Space
340
1E
  0
BLOCK_RECORD
  5
23
330
1
100
AcDbSymbolTableRecord
100
AcDbBlockTableRecord
  2
*Paper_Space0
340
26
  0
ENDTAB
  0
ENDSEC
  0
SECTION
  2
BLOCKS
  0
BLOCK
  5
20
330
1F
100
AcDbEntity
  8
0
100
AcDbBlockBegin
  2
*Model_Space
 70
     0
 10
0.0
 20
0.0
 30
0.0
  3
*Model_Space
  1

  0
ENDBLK
  5
21
330
1F
100
AcDbEntity
  8
0
100
AcDbBlockEnd
  0
BLOCK
  5
1C
330
1B
100
AcDbEntity
 67
     1
  8
0
100
AcDbBlockBegin
  2
*Paper_Space
 70
     0
 10
0.0
 20
0.0
 30
0.0
  3
*Paper_Space
  1

  0
ENDBLK
  5
1D
330
1B
100
AcDbEntity
 67
     1
  8
0
100
AcDbBlockEnd
  0
BLOCK
  5
24
330
23
100
AcDbEntity
  8
0
100
AcDbBlockBegin
  2
*Paper_Space0
 70
     0
 10
0.0
 20
0.0
 30
0.0
  3
*Paper_Space0
  1

  0
ENDBLK
  5
25
330
23
100
AcDbEntity
  8
0
100
AcDbBlockEnd
  0
ENDSEC
  0
SECTION
  2
ENTITIES
  0
LINE
  5
73
330
1F
100
AcDbEntity
  8
0
  6
Continuous
 62
     7
370
    25
100
AcDbLine
 10
66.5613622309
 20
7.8561187913
 30
0.0
 11
66.1863622309
 21
7.8561187913
 31
0.0
  0
LINE
  5
74
330
1F
100
AcDbEntity
  8
0
  6
Continuous
 62
     7
370
    25
100
AcDbLine
 10
66.1863622309
 20
7.8561187913
 30
0.0
 11
66.1863622309
 21
8.0561187913
 31
0.0
  0
LINE
  5
75
330
1F
100
AcDbEntity
  8
0
  6
Continuous
 62
     7
370
    25
100
AcDbLine
 10
66.0613622309
 20
8.0561187913
 30
0.0
 11
66.1863622309
 21
8.0561187913
 31
0.0
  0
LINE
  5
76
330
1F
100
AcDbEntity
  8
0
  6
Continuous
 62
     7
370
    25
100
AcDbLine
 10
66.0613622309
 20
8.0561187913
 30
0.0
 11
66.0613622309
 21
8.2561187913
 31
0.0
  0
LINE
  5
77
330
1F
100
AcDbEntity
  8
0
  6
Continuous
 62
     7
370
    25
100
AcDbLine
 10
66.0613622309
 20
8.2561187913
 30
0.0
 11
65.0613622309
 21
8.2561187913
 31
0.0
  0
LINE
  5
78
330
1F
100
AcDbEntity
  8
0
  6
Continuous
 62
     7
370
    25
100
AcDbLine
 10
65.0613622309
 20
8.2561187913
 30
0.0
 11
65.0613622309
 21
8.0561187913
 31
0.0
  0
LINE
  5
79
330
1F
100
AcDbEntity
  8
0
  6
Continuous
 62
     7
370
    25
100
AcDbLine
 10
64.0613622309
 20
8.0561187913
 30
0.0
 11
65.0613622309
 21
8.0561187913
 31
0.0
  0
LINE
  5
7A
330
1F
100
AcDbEntity
  8
0
  6
Continuous
 62
     7
370
    25
100
AcDbLine
 10
64.0613622309
 20
8.0561187913
 30
0.0
 11
64.0613622309
 21
8.2561187913
 31
0.0
  0
LINE
  5
7B
330
1F
100
AcDbEntity
  8
0
  6
Continuous
 62
     7
370
    25
100
AcDbLine
 10
64.0613622309
 20
8.2561187913
 30
0.0
 11
63.0613622309
 21
8.2561187913
 31
0.0
  0
LINE
  5
7C
330
1F
100
AcDbEntity
  8
0
  6
Continuous
 62
     7
370
    25
100
AcDbLine
 10
63.0613622309
 20
8.2561187913
 30
0.0
 11
63.0613622309
 21
8.0561187913
 31
0.0
  0
LINE
  5
7D
330
1F
100
AcDbEntity
  8
0
  6
Continuous
 62
     7
370
    25
100
AcDbLine
 10
62.0613622309
 20
8.0561187913
 30
0.0
 11
63.0613622309
 21
8.0561187913
 31
0.0
  0
LINE
  5
7E
330
1F
100
AcDbEntity
  8
0
  6
Continuous
 62
     7
370
    25
100
AcDbLine
 10
62.0613622309
 20
8.0561187913
 30
0.0
 11
62.0613622309
 21
8.2561187913
 31
0.0
  0
LINE
  5
7F
330
1F
100
AcDbEntity
  8
0
  6
Continuous
 62
     7
370
    25
100
AcDbLine
 10
62.0613622309
 20
8.2561187913
 30
0.0
 11
61.0613622309
 21
8.2561187913
 31
0.0
  0
LINE
  5
80
330
1F
100
AcDbEntity
  8
0
  6
Continuous
 62
     7
370
    25
100
AcDbLine
 10
61.0613622309
 20
8.2561187913
 30
0.0
 11
61.0613622309
 21
8.0561187913
 31
0.0
  0
LINE
  5
81
330
1F
100
AcDbEntity
  8
0
  6
Continuous
 62
     7
370
    25
100
AcDbLine
 10
60.0613622309
 20
8.0561187913
 30
0.0
 11
61.0613622309
 21
8.0561187913
 31
0.0
  0
LINE
  5
82
330
1F
100
AcDbEntity
  8
0
  6
Continuous
 62
     7
370
    25
100
AcDbLine
 10
60.0613622309
 20
8.0561187913
 30
0.0
 11
60.0613622309
 21
8.2561187913
 31
0.0
  0
LINE
  5
83
330
1F
100
AcDbEntity
  8
0
  6
Continuous
 62
     7
370
    25
100
AcDbLine
 10
60.0613622309
 20
8.2561187913
 30
0.0
 11
59.0613622309
 21
8.2561187913
 31
0.0
  0
LINE
  5
84
330
1F
100
AcDbEntity
  8
0
  6
Continuous
 62
     7
370
    25
100
AcDbLine
 10
59.0613622309
 20
8.2561187913
 30
0.0
 11
59.0613622309
 21
8.0561187913
 31
0.0
  0
LINE
  5
85
330
1F
100
AcDbEntity
  8
0
  6
Continuous
 62
     7
370
    25
100
AcDbLine
 10
58.0613622309
 20
8.0561187913
 30
0.0
 11
59.0613622309
 21
8.0561187913
 31
0.0
  0
LINE
  5
86
330
1F
100
AcDbEntity
  8
0
  6
Continuous
 62
     7
370
    25
100
AcDbLine
 10
58.0613622309
 20
8.0561187913
 30
0.0
 11
58.0613622309
 21
8.2561187913
 31
0.0
  0
LINE
  5
87
330
1F
100
AcDbEntity
  8
0
  6
Continuous
 62
     7
370
    25
100
AcDbLine
 10
58.0613622309
 20
8.2561187913
 30
0.0
 11
57.0613622309
 21
8.2561187913
 31
0.0
  0
LINE
  5
88
330
1F
100
AcDbEntity
  8
0
  6
Continuous
 62
     7
370
    25
100
AcDbLine
 10
57.0613622309
 20
8.2561187913
 30
0.0
 11
57.0613622309
 21
8.0561187913
 31
0.0
  0
LINE
  5
89
330
1F
100
AcDbEntity
  8
0
  6
Continuous
 62
     7
370
    25
100
AcDbLine
 10
56.0613622309
 20
8.0561187913
 30
0.0
 11
57.0613622309
 21
8.0561187913
 31
0.0
  0
LINE
  5
8A
330
1F
100
AcDbEntity
  8
0
  6
Continuous
 62
     7
370
    25
100
AcDbLine
 10
56.0613622309
 20
8.0561187913
 30
0.0
 11
56.0613622309
 21
8.2561187913
 31
0.0
  0
LINE
  5
8B
330
1F
100
AcDbEntity
  8
0
  6
Continuous
 62
     7
370
    25
100
AcDbLine
 10
56.0613622309
 20
8.2561187913
 30
0.0
 11
55.0613622309
 21
8.2561187913
 31
0.0
  0
LINE
  5
8C
330
1F
100
AcDbEntity
  8
0
  6
Continuous
 62
     7
370
    25
100
AcDbLine
 10
55.0613622309
 20
8.2561187913
 30
0.0
 11
55.0613622309
 21
8.0561187913
 31
0.0
  0
LINE
  5
8D
330
1F
100
AcDbEntity
  8
0
  6
Continuous
 62
     7
370
    25
100
AcDbLine
 10
54.5613622309
 20
8.0561187913
 30
0.0
 11
55.0613622309
 21
8.0561187913
 31
0.0
  0
LINE
  5
8E
330
1F
100
AcDbEntity
  8
0
  6
Continuous
 62
     7
370
    25
100
AcDbLine
 10
54.5613622309
 20
8.0561187913
 30
0.0
 11
54.5613622309
 21
3.7561187913
 31
0.0
  0
LINE
  5
8F
330
1F
100
AcDbEntity
  8
0
  6
Continuous
 62
     7
370
    25
100
AcDbLine
 10
54.5613622309
 20
3.7561187913
 30
0.0
 11
55.0613622309
 21
3.7561187913
 31
0.0
  0
LINE
  5
90
330
1F
100
AcDbEntity
  8
0
  6
Continuous
 62
     7
370
    25
100
AcDbLine
 10
55.0613622309
 20
3.7561187913
 30
0.0
 11
55.0613622309
 21
3.5561187913
 31
0.0
  0
LINE
  5
91
330
1F
100
AcDbEntity
  8
0
  6
Continuous
 62
     7
370
    25
100
AcDbLine
 10
55.0613622309
 20
3.5561187913
 30
0.0
 11
56.0613622309
 21
3.5561187913
 31
0.0
  0
LINE
  5
92
330
1F
100
AcDbEntity
  8
0
  6
Continuous
 62
     7
370
    25
100
AcDbLine
 10
56.0613622309
 20
3.5561187913
 30
0.0
 11
56.0613622309
 21
3.7561187913
 31
0.0
  0
LINE
  5
93
330
1F
100
AcDbEntity
  8
0
  6
Continuous
 62
     7
370
    25
100
AcDbLine
 10
56.0613622309
 20
3.7561187913
 30
0.0
 11
57.0613622309
 21
3.7561187913
 31
0.0
  0
LINE
  5
94
330
1F
100
AcDbEntity
  8
0
  6
Continuous
 62
     7
370
    25
100
AcDbLine
 10
57.0613622309
 20
3.7561187913
 30
0.0
 11
57.0613622309
 21
3.5561187913
 31
0.0
  0
LINE
  5
95
330
1F
100
AcDbEntity
  8
0
  6
Continuous
 62
     7
370
    25
100
AcDbLine
 10
57.0613622309
 20
3.5561187913
 30
0.0
 11
58.0613622309
 21
3.5561187913
 31
0.0
  0
LINE
  5
96
330
1F
100
AcDbEntity
  8
0
  6
Continuous
 62
     7
370
    25
100
AcDbLine
 10
58.0613622309
 20
3.5561187913
 30
0.0
 11
58.0613622309
 21
3.7561187913
 31
0.0
  0
LINE
  5
97
330
1F
100
AcDbEntity
  8
0
  6
Continuous
 62
     7
370
    25
100
AcDbLine
 10
58.0613622309
 20
3.7561187913
 30
0.0
 11
59.0613622309
 21
3.7561187913
 31
0.0
  0
LINE
  5
98
330
1F
100
AcDbEntity
  8
0
  6
Continuous
 62
     7
370
    25
100
AcDbLine
 10
59.0613622309
 20
3.7561187913
 30
0.0
 11
59.0613622309
 21
3.5561187913
 31
0.0
  0
LINE
  5
99
330
1F
100
AcDbEntity
  8
0
  6
Continuous
 62
     7
370
    25
100
AcDbLine
 10
59.0613622309
 20
3.5561187913
 30
0.0
 11
60.0613622309
 21
3.5561187913
 31
0.0
  0
LINE
  5
9A
330
1F
100
AcDbEntity
  8
0
  6
Continuous
 62
     7
370
    25
100
AcDbLine
 10
60.0613622309
 20
3.5561187913
 30
0.0
 11
60.0613622309
 21
3.7561187913
 31
0.0
  0
LINE
  5
9B
330
1F
100
AcDbEntity
  8
0
  6
Continuous
 62
     7
370
    25
100
AcDbLine
 10
60.0613622309
 20
3.7561187913
 30
0.0
 11
61.0613622309
 21
3.7561187913
 31
0.0
  0
LINE
  5
9C
330
1F
100
AcDbEntity
  8
0
  6
Continuous
 62
     7
370
    25
100
AcDbLine
 10
61.0613622309
 20
3.7561187913
 30
0.0
 11
61.0613622309
 21
3.5561187913
 31
0.0
  0
LINE
  5
9D
330
1F
100
AcDbEntity
  8
0
  6
Continuous
 62
     7
370
    25
100
AcDbLine
 10
61.0613622309
 20
3.5561187913
 30
0.0
 11
62.0613622309
 21
3.5561187913
 31
0.0
  0
LINE
  5
9E
330
1F
100
AcDbEntity
  8
0
  6
Continuous
 62
     7
370
    25
100
AcDbLine
 10
62.0613622309
 20
3.5561187913
 30
0.0
 11
62.0613622309
 21
3.7561187913
 31
0.0
  0
LINE
  5
9F
330
1F
100
AcDbEntity
  8
0
  6
Continuous
 62
     7
370
    25
100
AcDbLine
 10
62.0613622309
 20
3.7561187913
 30
0.0
 11
63.0613622309
 21
3.7561187913
 31
0.0
  0
LINE
  5
A0
330
1F
100
AcDbEntity
  8
0
  6
Continuous
 62
     7
370
    25
100
AcDbLine
 10
63.0613622309
 20
3.7561187913
 30
0.0
 11
63.0613622309
 21
3.5561187913
 31
0.0
  0
LINE
  5
A1
330
1F
100
AcDbEntity
  8
0
  6
Continuous
 62
     7
370
    25
100
AcDbLine
 10
63.0613622309
 20
3.5561187913
 30
0.0
 11
64.0613622309
 21
3.5561187913
 31
0.0
  0
LINE
  5
A2
330
1F
100
AcDbEntity
  8
0
  6
Continuous
 62
     7
370
    25
100
AcDbLine
 10
64.0613622309
 20
3.5561187913
 30
0.0
 11
64.0613622309
 21
3.7561187913
 31
0.0
  0
LINE
  5
A3
330
1F
100
AcDbEntity
  8
0
  6
Continuous
 62
     7
370
    25
100
AcDbLine
 10
64.0613622309
 20
3.7561187913
 30
0.0
 11
65.0613622309
 21
3.7561187913
 31
0.0
  0
LINE
  5
A4
330
1F
100
AcDbEntity
  8
0
  6
Continuous
 62
     7
370
    25
100
AcDbLine
 10
65.0613622309
 20
3.7561187913
 30
0.0
 11
65.0613622309
 21
3.5561187913
 31
0.0
  0
LINE
  5
A5
330
1F
100
AcDbEntity
  8
0
  6
Continuous
 62
     7
370
    25
100
AcDbLine
 10
65.0613622309
 20
3.5561187913
 30
0.0
 11
66.0613622309
 21
3.5561187913
 31
0.0
  0
LINE
  5
A6
330
1F
100
AcDbEntity
  8
0
  6
Continuous
 62
     7
370
    25
100
AcDbLine
 10
66.0613622309
 20
3.5561187913
 30
0.0
 11
66.0613622309
 21
3.7561187913
 31
0.0
  0
LINE
  5
A7
330
1F
100
AcDbEntity
  8
0
  6
Continuous
 62
     7
370
    25
100
AcDbLine
 10
66.0613622309
 20
3.7561187913
 30
0.0
 11
66.5613622309
 21
3.7561187913
 31
0.0
  0
LINE
  5
A8
330
1F
100
AcDbEntity
  8
0
  6
Continuous
 62
     7
370
    25
100
AcDbLine
 10
66.5613622309
 20
7.8561187913
 30
0.0
 11
66.5613622309
 21
3.7561187913
 31
0.0
  0
LINE
  5
A9
330
1F
100
AcDbEntity
  8
0
  6
Continuous
 62
     7
370
    25
100
AcDbLine
 10
66.547422912
 20
0.9896542179
 30
0.0
 11
66.547422912
 21
1.9896542179
 31
0.0
  0
LINE
  5
AA
330
1F
100
AcDbEntity
  8
0
  6
Continuous
 62
     7
370
    25
100
AcDbLine
 10
66.547422912
 20
0.9896542179
 30
0.0
 11
69.7761478694
 21
0.9896542179
 31
0.0
  0
LINE
  5
AB
330
1F
100
AcDbEntity
  8
0
  6
Continuous
 62
     7
370
    25
100
AcDbLine
 10
69.7761478694
 20
0.9896542179
 30
0.0
 11
73.0963593545
 21
-1.125146568
 31
0.0
  0
SPLINE
  5
AC
330
1F
100
AcDbEntity
  8
0
  6
Continuous
 62
     7
370
    25
100
AcDbSpline
210
0.0
220
0.0
230
1.0
 70
     8
 71
     3
 72
   120
 73
   116
 74
     0
 42
0.000000001
 43
0.00000001
 40
0.0
 40
0.0
 40
0.0
 40
0.0
 40
0.0624999999998712
 40
0.0624999999998712
 40
0.1249999999997425
 40
0.1249999999997425
 40
0.249999999999485
 40
0.249999999999485
 40
0.2812499999994206
 40
0.2812499999994206
 40
0.2968749999993885
 40
0.2968749999993885
 40
0.3124999999993563
 40
0.3124999999993563
 40
0.3749999999992273
 40
0.3749999999992273
 40
0.4374999999990983
 40
0.4374999999990983
 40
0.4999999999989693
 40
0.4999999999989693
 40
0.5624999999988402
 40
0.5624999999988402
 40
0.6249999999987113
 40
0.6249999999987113
 40
0.6406249999986788
 40
0.6484374999986626
 40
0.6523437499986544
 40
0.6542968749986504
 40
0.6552734374986485
 40
0.6557617187486476
 40
0.6560058593736473
 40
0.6561279296861473
 40
0.6561279296861473
 40
0.6562499999986473
 40
0.6562499999986473
 40
0.6582031249986462
 40
0.6582031249986462
 40
0.6591796874986459
 40
0.6596679687486457
 40
0.6599121093736456
 40
0.6600341796861454
 40
0.6600952148423955
 40
0.6600952148423955
 40
0.6601562499986456
 40
0.6601562499986456
 40
0.6640624999986775
 40
0.6640624999986775
 40
0.6679687499987093
 40
0.6679687499987093
 40
0.6699218749987252
 40
0.6699218749987252
 40
0.6718749999987412
 40
0.6718749999987412
 40
0.6796874999988051
 40
0.6796874999988051
 40
0.6835937499988369
 40
0.6835937499988369
 40
0.6855468749988528
 40
0.6865234374988608
 40
0.6865234374988608
 40
0.6874999999988688
 40
0.6874999999988688
 40
0.6914062499989008
 40
0.6914062499989008
 40
0.6933593749989169
 40
0.6933593749989169
 40
0.6943359374989249
 40
0.6943359374989249
 40
0.6953124999989329
 40
0.6953124999989329
 40
0.7031249999989971
 40
0.7031249999989971
 40
0.7109374999990614
 40
0.7109374999990614
 40
0.7148437499990935
 40
0.7148437499990935
 40
0.7187499999991257
 40
0.7187499999991257
 40
0.7265624999991899
 40
0.7265624999991899
 40
0.7304687499992218
 40
0.7304687499992218
 40
0.7343749999992539
 40
0.7343749999992539
 40
0.7421874999993182
 40
0.7421874999993182
 40
0.7460937499993503
 40
0.7460937499993503
 40
0.7499999999993825
 40
0.7499999999993825
 40
0.757812499999447
 40
0.757812499999447
 40
0.7656249999995115
 40
0.7656249999995115
 40
0.7695312499995438
 40
0.7695312499995438
 40
0.773437499999576
 40
0.773437499999576
 40
0.7773437499996083
 40
0.7773437499996083
 40
0.7792968749996244
 40
0.7802734374996324
 40
0.7807617187496363
 40
0.7810058593746383
 40
0.7811279296871391
 40
0.7811889648433895
 40
0.7812194824215147
 40
0.7812194824215147
 40
0.7812499999996398
 40
0.7812499999996398
 40
0.8124999999996912
 40
0.8124999999996912
 40
0.8749999999997942
 40
0.8749999999997942
 40
0.9543768927616134
 40
0.9543768927616134
 40
0.9543768927616134
 40
0.9543768927616134
 10
63.24735498584133
 20
-7.270266328970879
 30
0.0
 10
63.55433520147641
 20
-7.270245476987906
 30
0.0
 10
63.86026071054769
 20
-7.262323871876768
 30
0.0
 10
64.47016741516066
 20
-7.230872486837597
 30
0.0
 10
64.77421255208104
 20
-7.207336091522778
 30
0.0
 10
65.68328983679895
 20
-7.113612142501066
 30
0.0
 10
66.28532527362805
 20
-7.02019518968455
 30
0.0
 10
67.03322169811216
 20
-6.864496252283255
 30
0.0
 10
67.18255376808405
 20
-6.831408277466455
 30
0.0
 10
67.40618217188434
 20
-6.778832092560735
 30
0.0
 10
67.4806664272335
 20
-6.760815070163232
 30
0.0
 10
67.62948649313803
 20
-6.723800369023631
 30
0.0
 10
67.70386928336217
 20
-6.704790239004898
 30
0.0
 10
68.07473153679611
 20
-6.60745487939672
 30
0.0
 10
68.36879744687005
 20
-6.522082603848227
 30
0.0
 10
68.95204481066875
 20
-6.33636009868773
 30
0.0
 10
69.24111629875213
 20
-6.236058995895495
 30
0.0
 10
69.81422177742536
 20
-6.020568957920548
 30
0.0
 10
70.09825305537441
 20
-5.905380578778905
 30
0.0
 10
70.66086784202221
 20
-5.660066163036421
 30
0.0
 10
70.9382704080477
 20
-5.530482564352301
 30
0.0
 10
71.48546750359442
 20
-5.257539043751104
 30
0.0
 10
71.75532193031871
 20
-5.114145276890154
 30
0.0
 10
72.08785354777643
 20
-4.926414135826601
 30
0.0
 10
72.18725301444132
 20
-4.86945542563686
 30
0.0
 10
72.30259059722825
 20
-4.801881820630571
 30
0.0
 10
72.36010246521882
 20
-4.767814202332602
 30
0.0
 10
72.3888191922069
 20
-4.750710142474103
 30
0.0
 10
72.40316775691339
 20
-4.742140543984539
 30
0.0
 10
72.41033958993924
 20
-4.737851351861965
 30
0.0
 10
72.41392489416641
 20
-4.735705657488874
 30
0.0
 10
72.41546132192177
 20
-4.734785838823683
 30
0.0
 10
72.4164855779372
 20
-4.734172574076359
 30
0.0
 10
72.41695012580739
 20
-4.733894401512802
 30
0.0
 10
72.426464420833
 20
-4.728196500630955
 30
0.0
 10
72.43480791702531
 20
-4.723205301067698
 30
0.0
 10
72.4463926755514
 20
-4.716250309918582
 30
0.0
 10
72.45195255546994
 20
-4.712905944715605
 30
0.0
 10
72.45803051440608
 20
-4.709233449227963
 30
0.0
 10
72.4609672427254
 20
-4.707454189214397
 30
0.0
 10
72.46241003357363
 20
-4.706578768684182
 30
0.0
 10
72.4630228916941
 20
-4.706206629718171
 30
0.0
 10
72.46343024574308
 20
-4.705959212529225
 30
0.0
 10
72.46369999876947
 20
-4.705795317499862
 30
0.0
 10
72.47252530499121
 20
-4.700432221846826
 30
0.0
 10
72.48108321938777
 20
-4.695052873450912
 30
0.0
 10
72.49792493481596
 20
-4.684107312156622
 30
0.0
 10
72.50625030723214
 20
-4.678514095777992
 30
0.0
 10
72.51861361904996
 20
-4.669930031596984
 30
0.0
 10
72.52271392682087
 20
-4.667036281125112
 30
0.0
 10
72.53087595130636
 20
-4.66118146009787
 30
0.0
 10
72.53489033965718
 20
-4.658255454850796
 30
0.0
 10
72.55534642167254
 20
-4.643099726044826
 30
0.0
 10
72.57128682843828
 20
-4.630520484671042
 30
0.0
 10
72.5947141755377
 20
-4.610822380309846
 30
0.0
 10
72.60244266909571
 20
-4.604117705965644
 30
0.0
 10
72.61393240164512
 20
-4.593830618876478
 30
0.0
 10
72.61965149847562
 20
-4.588629519354603
 30
0.0
 10
72.62533511950927
 20
-4.583337617694483
 30
0.0
 10
72.6291166552758
 20
-4.579788987526073
 30
0.0
 10
72.63105420301825
 20
-4.577956139041846
 30
0.0
 10
72.64021839827836
 20
-4.569220717486541
 30
0.0
 10
72.64766410051206
 20
-4.561896375295589
 30
0.0
 10
72.65870117639261
 20
-4.550686870738509
 30
0.0
 10
72.66235864648613
 20
-4.546913312863147
 30
0.0
 10
72.66777717003097
 20
-4.541234076683733
 30
0.0
 10
72.6695720781429
 20
-4.539337862030762
 30
0.0
 10
72.67313361274346
 20
-4.535545471293565
 30
0.0
 10
72.67486685212808
 20
-4.533685416079903
 30
0.0
 10
72.69091418173811
 20
-4.516324011781017
 30
0.0
 10
72.70444180604527
 20
-4.500732169600312
 30
0.0
 10
72.73053056451273
 20
-4.468691066954755
 30
0.0
 10
72.7429683355554
 20
-4.452393288773406
 30
0.0
 10
72.76083880534978
 20
-4.427391269108642
 30
0.0
 10
72.76666433151293
 20
-4.418964449448924
 30
0.0
 10
72.77806985522123
 20
-4.401899380628052
 30
0.0
 10
72.78367814305439
 20
-4.3932157885611
 30
0.0
 10
72.79998661945426
 20
-4.367079312123507
 30
0.0
 10
72.81037685700582
 20
-4.349207481543234
 30
0.0
 10
72.82521597696882
 20
-4.321730630073504
 30
0.0
 10
72.83002991439605
 20
-4.312473676486706
 30
0.0
 10
72.83935802167117
 20
-4.293823621939515
 30
0.0
 10
72.84385109224468
 20
-4.284476277733688
 30
0.0
 10
72.85696210212507
 20
-4.256046428276624
 30
0.0
 10
72.86500832237225
 20
-4.23702425569167
 30
0.0
 10
72.8761440459399
 20
-4.20820953928837
 30
0.0
 10
72.87969996590134
 20
-4.198557593610934
 30
0.0
 10
72.88651306905312
 20
-4.179129074710963
 30
0.0
 10
72.88975309453146
 20
-4.169406798533166
 30
0.0
 10
72.89914300460133
 20
-4.139681404113089
 30
0.0
 10
72.90474292455372
 20
-4.119820090834921
 30
0.0
 10
72.91469859810583
 20
-4.079779884133436
 30
0.0
 10
72.91906736367295
 20
-4.059530361745365
 30
0.0
 10
72.92467349738982
 20
-4.028945456903985
 30
0.0
 10
72.9263854147565
 20
-4.018707760824075
 30
0.0
 10
72.92949743286529
 20
-3.998114637959367
 30
0.0
 10
72.93090517798616
 20
-3.98769510260493
 30
0.0
 10
72.93337710755094
 20
-3.966961820928073
 30
0.0
 10
72.93446475137814
 20
-3.956444951424221
 30
0.0
 10
72.93585246758293
 20
-3.940597323608821
 30
0.0
 10
72.93648556691588
 20
-3.93265541204758
 30
0.0
 10
72.93711504686262
 20
-3.923391620219207
 30
0.0
 10
72.93740228688682
 20
-3.918764358341456
 30
0.0
 10
72.93753900865856
 20
-3.916452410733029
 30
0.0
 10
72.93760564253742
 20
-3.915296923426282
 30
0.0
 10
72.93763852744797
 20
-3.914719309609682
 30
0.0
 10
72.93765252837528
 20
-3.914471789533664
 30
0.0
 10
72.93766184174471
 20
-3.914306782625769
 30
0.0
 10
72.93766192224257
 20
-3.914305530073014
 30
0.0
 10
72.94709396908164
 20
-3.746467323377309
 30
0.0
 10
72.95651368432107
 20
-3.57862118840189
 30
0.0
 10
72.9848899772936
 20
-3.075165548101518
 30
0.0
 10
73.00390319055116
 20
-2.739538384765296
 30
0.0
 10
73.04730764895037
 20
-1.977584781412496
 30
0.0
 10
73.07177017231494
 20
-1.551341135305657
 30
0.0
 10
73.09635799552035
 20
-1.125146514717949
 30
0.0
  0
SPLINE
  5
AD
330
1F
100
AcDbEntity
  8
0
  6
Continuous
 62
     7
370
    25
100
AcDbSpline
210
0.0
220
0.0
230
1.0
 70
     8
 71
     3
 72
   107
 73
   103
 74
     0
 42
0.000000001
 43
0.00000001
 40
0.0467456521784686
 40
0.0467456521784686
 40
0.0467456521784686
 40
0.0467456521784686
 40
0.125000000000209
 40
0.125000000000209
 40
0.1875000000003135
 40
0.1875000000003135
 40
0.2187500000003657
 40
0.2187500000003657
 40
0.2226562500003722
 40
0.2226562500003722
 40
0.2229003906253726
 40
0.2229003906253726
 40
0.223144531250373
 40
0.223632812500374
 40
0.223632812500374
 40
0.2246093750003759
 40
0.2246093750003759
 40
0.2265625000003796
 40
0.2265625000003796
 40
0.2266235351566296
 40
0.2266235351566296
 40
0.2266845703128797
 40
0.2268066406253795
 40
0.2270507812503795
 40
0.2275390625003795
 40
0.2285156250003794
 40
0.2304687500003793
 40
0.234375000000379
 40
0.234375000000379
 40
0.2500000000003785
 40
0.2500000000003785
 40
0.2578125000003782
 40
0.2578125000003782
 40
0.2597656250003781
 40
0.2597656250003781
 40
0.2617187500003781
 40
0.2617187500003781
 40
0.2656250000003784
 40
0.2656250000003784
 40
0.2675781250003785
 40
0.2675781250003785
 40
0.2695312500003788
 40
0.2734375000003792
 40
0.2734375000003792
 40
0.2812500000003804
 40
0.2812500000003804
 40
0.2890625000003815
 40
0.2890625000003815
 40
0.2968750000003827
 40
0.2968750000003827
 40
0.3125000000003851
 40
0.3125000000003851
 40
0.3134765625003852
 40
0.3134765625003852
 40
0.3144531250003854
 40
0.3164062500003853
 40
0.3203125000003854
 40
0.3203125000003854
 40
0.3281250000003854
 40
0.3281250000003854
 40
0.3437500000003855
 40
0.3437500000003855
 40
0.3439941406253856
 40
0.3439941406253856
 40
0.3442382812503856
 40
0.3447265625003856
 40
0.3457031250003856
 40
0.3457031250003856
 40
0.3476562500003854
 40
0.3476562500003854
 40
0.3477172851566352
 40
0.3477172851566352
 40
0.3477783203128851
 40
0.347900390625385
 40
0.3481445312503848
 40
0.3486328125003844
 40
0.3496093750003838
 40
0.3515625000003825
 40
0.3515625000003825
 40
0.3593750000003778
 40
0.3593750000003778
 40
0.3750000000003686
 40
0.3750000000003686
 40
0.4375000000003319
 40
0.4375000000003319
 40
0.5000000000002951
 40
0.5000000000002951
 40
0.5312500000002769
 40
0.5312500000002769
 40
0.5468750000002677
 40
0.5468750000002677
 40
0.5625000000002585
 40
0.5625000000002585
 40
0.6250000000002216
 40
0.6250000000002216
 40
0.7500000000001478
 40
0.7500000000001478
 40
0.8750000000000739
 40
0.8750000000000739
 40
0.937500000000037
 40
0.937500000000037
 40
1.0
 40
1.0
 40
1.0
 40
1.0
 10
53.39848819403628
 20
-1.125145909982127
 30
0.0
 10
53.42214652281785
 20
-1.535223599970961
 30
0.0
 10
53.44568883305227
 20
-1.945347511367145
 30
0.0
 10
53.48773762072098
 20
-2.683116372642017
 30
0.0
 10
53.50630667508223
 20
-3.010684890432351
 30
0.0
 10
53.53402173782128
 20
-3.502053122125493
 30
0.0
 10
53.54323687010902
 20
-3.665835320656932
 30
0.0
 10
53.55358071979464
 20
-3.850090076886667
 30
0.0
 10
53.55472971298776
 20
-3.870562791679245
 30
0.0
 10
53.55595018101813
 20
-3.892315041013906
 30
0.0
 10
53.55602570388454
 20
-3.89366275267018
 30
0.0
 10
53.55616835878693
 20
-3.896208154785883
 30
0.0
 10
53.55637771772123
 20
-3.899943185824353
 30
0.0
 10
53.55657412951627
 20
-3.903428827602884
 30
0.0
 10
53.55695152125556
 20
-3.910067020313108
 30
0.0
 10
53.55718276542424
 20
-3.914048393378692
 30
0.0
 10
53.55782196388853
 20
-3.924654365520003
 30
0.0
 10
53.55817905725958
 20
-3.929940865615542
 30
0.0
 10
53.55844903280677
 20
-3.933532564823606
 30
0.0
 10
53.55846466836809
 20
-3.933740044876573
 30
0.0
 10
53.55848899228215
 20
-3.934061579298478
 30
0.0
 10
53.55852558998321
 20
-3.934543836448787
 30
0.0
 10
53.55861176732144
 20
-3.935668792894019
 30
0.0
 10
53.5587872519701
 20
-3.937917473937659
 30
0.0
 10
53.55915073477998
 20
-3.942409981563952
 30
0.0
 10
53.55992770862005
 20
-3.951376162960413
 30
0.0
 10
53.56168140542122
 20
-3.96923786787503
 30
0.0
 10
53.56352632095125
 20
-3.984442885700631
 30
0.0
 10
53.57043831807289
 20
-4.034964386603165
 30
0.0
 10
53.57833164543599
 20
-4.074506240217094
 30
0.0
 10
53.5940082795064
 20
-4.133799589383666
 30
0.0
 10
53.59983002995
 20
-4.153378922232908
 30
0.0
 10
53.60787260562149
 20
-4.177639415774712
 30
0.0
 10
53.60949537805318
 20
-4.182408257051626
 30
0.0
 10
53.61287165300357
 20
-4.19208357167967
 30
0.0
 10
53.61460565351504
 20
-4.196931226729856
 30
0.0
 10
53.61992037954791
 20
-4.211431938537451
 30
0.0
 10
53.62361481962774
 20
-4.221042667964697
 30
0.0
 10
53.62926766717854
 20
-4.235089968960626
 30
0.0
 10
53.63123282569576
 20
-4.239866695802288
 30
0.0
 10
53.63518142643889
 20
-4.249254100023976
 30
0.0
 10
53.64120391214734
 20
-4.263265312292477
 30
0.0
 10
53.64752994104349
 20
-4.277085649158652
 30
0.0
 10
53.66060292724379
 20
-4.304519130297398
 30
0.0
 10
53.66987862696179
 20
-4.322533200598279
 30
0.0
 10
53.68966209068296
 20
-4.358234981913964
 30
0.0
 10
53.70001733366481
 20
-4.375647118005243
 30
0.0
 10
53.72161303115602
 20
-4.409555399921316
 30
0.0
 10
53.73287617506757
 20
-4.426092760871542
 30
0.0
 10
53.76826826239582
 20
-4.474749081259124
 30
0.0
 10
53.79398538677219
 20
-4.505930403805736
 30
0.0
 10
53.82438286699382
 20
-4.538394417606122
 30
0.0
 10
53.82611167272392
 20
-4.540226071298259
 30
0.0
 10
53.82964598252037
 20
-4.543942026822139
 30
0.0
 10
53.83496523424355
 20
-4.549491061394908
 30
0.0
 10
53.84750313435222
 20
-4.562267476956315
 30
0.0
 10
53.85847279381605
 20
-4.572934903301105
 30
0.0
 10
53.88072745357969
 20
-4.593915135508032
 30
0.0
 10
53.89598416855096
 20
-4.607430204570217
 30
0.0
 10
53.94317140970393
 20
-4.646712351295096
 30
0.0
 10
53.97570167744327
 20
-4.670567269034517
 30
0.0
 10
54.01048791410405
 20
-4.692902304925298
 30
0.0
 10
54.01090588920098
 20
-4.693169955826187
 30
0.0
 10
54.01187762989013
 20
-4.693790951094944
 30
0.0
 10
54.01335626430003
 20
-4.694733709230111
 30
0.0
 10
54.0169536834394
 20
-4.697011919548954
 30
0.0
 10
54.02028995722809
 20
-4.699097760842367
 30
0.0
 10
54.02729974381401
 20
-4.70344376002329
 30
0.0
 10
54.03242275877925
 20
-4.706573284272602
 30
0.0
 10
54.03816789876507
 20
-4.710034150382864
 30
0.0
 10
54.03850144416595
 20
-4.710235058180692
 30
0.0
 10
54.03902250509962
 20
-4.710548897307715
 30
0.0
 10
54.03980411086738
 20
-4.711019637426287
 30
0.0
 10
54.04162795823171
 20
-4.712117901031339
 30
0.0
 10
54.04527605527296
 20
-4.714313908214691
 30
0.0
 10
54.05257385876692
 20
-4.718703842414019
 30
0.0
 10
54.06717590469498
 20
-4.727475389663451
 30
0.0
 10
54.07970298668324
 20
-4.734979592259444
 30
0.0
 10
54.1214844855542
 20
-4.759961890269195
 30
0.0
 10
54.15499414943469
 20
-4.779849662157984
 30
0.0
 10
54.25566638764274
 20
-4.83915357423778
 30
0.0
 10
54.3230106755545
 20
-4.878233400283153
 30
0.0
 10
54.66084000945484
 20
-5.071339016729742
 30
0.0
 10
54.93469750989651
 20
-5.218551338205968
 30
0.0
 10
55.48933542986064
 20
-5.498289003150226
 30
0.0
 10
55.77018004529886
 20
-5.630851039024448
 30
0.0
 10
56.19683314272159
 20
-5.818777183935993
 30
0.0
 10
56.33987656335943
 20
-5.87955794093817
 30
0.0
 10
56.5558632357432
 20
-5.968015564249494
 30
0.0
 10
56.62808156527174
 20
-5.997042982481829
 30
0.0
 10
56.77297156862588
 20
-6.054182159381141
 30
0.0
 10
56.84568613087502
 20
-6.082309763042977
 30
0.0
 10
57.20955785657891
 20
-6.220338052002581
 30
0.0
 10
57.5022090525826
 20
-6.322660743525589
 30
0.0
 10
58.38453738263512
 20
-6.60579910239218
 30
0.0
 10
58.97837827446914
 20
-6.762686997705888
 30
0.0
 10
60.17841221368558
 20
-7.014860738541933
 30
0.0
 10
60.78381756214318
 20
-7.109961027684294
 30
0.0
 10
61.70100239728754
 20
-7.205686573339174
 30
0.0
 10
62.00823872608314
 20
-7.229801139827168
 30
0.0
 10
62.62552653588448
 20
-7.262075613120197
 30
0.0
 10
62.93564721363153
 20
-7.270242779610617
 30
0.0
 10
63.24735498584207
 20
-7.270266319218306
 30
0.0
  0
LINE
  5
AE
330
1F
100
AcDbEntity
  8
0
  6
Continuous
 62
     7
370
    25
100
AcDbLine
 10
53.3984874304
 20
-1.125145956
 30
0.0
 11
56.7186979546
 21
0.9896542179
 31
0.0
  0
LINE
  5
AF
330
1F
100
AcDbEntity
  8
0
  6
Continuous
 62
     7
370
    25
100
AcDbLine
 10
56.7186979546
 20
0.9896542179
 30
0.0
 11
59.947422912
 21
0.9896542179
 31
0.0
  0
LINE
  5
B0
330
1F
100
AcDbEntity
  8
0
  6
Continuous
 62
     7
370
    25
100
AcDbLine
 10
59.947422912
 20
0.9896542179
 30
0.0
 11
59.947422912
 21
1.9896542179
 31
0.0
  0
LINE
  5
B1
330
1F
100
AcDbEntity
  8
0
  6
Continuous
 62
     7
370
    25
100
AcDbLine
 10
59.947422912
 20
1.9896542179
 30
0.0
 11
56.4272718625
 21
1.9896542179
 31
0.0
  0
LINE
  5
B2
330
1F
100
AcDbEntity
  8
0
  6
Continuous
 62
     7
370
    25
100
AcDbLine
 10
56.4272718625
 20
1.9896542179
 30
0.0
 11
52.5998596761
 21
-0.4482068449
 31
0.0
  0
LINE
  5
B3
330
1F
100
AcDbEntity
  8
0
  6
Continuous
 62
     7
370
    25
100
AcDbLine
 10
52.5998596761
 20
-0.4482068449
 30
0.0
 11
52.3576546016
 21
-0.4482068449
 31
0.0
  0
SPLINE
  5
B4
330
1F
100
AcDbEntity
  8
0
  6
Continuous
 62
     7
370
    25
100
AcDbSpline
210
0.0
220
0.0
230
1.0
 70
     8
 71
     3
 72
    16
 73
    12
 74
     0
 42
0.000000001
 43
0.00000001
 40
0.0
 40
0.0
 40
0.0
 40
0.0
 40
0.125
 40
0.125
 40
0.25
 40
0.25
 40
0.375
 40
0.375
 40
0.5
 40
0.5
 40
1.0
 40
1.0
 40
1.0
 40
1.0
 10
52.3576546015674
 20
-0.4482068449034606
 30
0.0
 10
52.39812991137146
 20
-1.146109665072885
 30
0.0
 10
52.43473333832728
 20
-1.782011928299124
 30
0.0
 10
52.50019642654236
 20
-2.929815340865229
 30
0.0
 10
52.47111777654338
 20
-3.629578140016642
 30
0.0
 10
52.71669994629747
 20
-4.866724537513268
 30
0.0
 10
53.18134921800403
 20
-5.36906857430496
 30
0.0
 10
54.28043885479906
 20
-6.01198660834148
 30
0.0
 10
54.84451553566047
 20
-6.3047641664903
 30
0.0
 10
57.7338075834547
 20
-7.623618107811086
 30
0.0
 10
60.21983566766936
 20
-8.196406853757505
 30
0.0
 10
62.74742291198817
 20
-8.263606789825342
 30
0.0
  0
LINE
  5
B5
330
1F
100
AcDbEntity
  8
0
  6
Continuous
 62
     7
370
    25
100
AcDbLine
 10
62.747422912
 20
-8.2636067898
 30
0.0
 11
62.747422912
 21
-8.0202663267
 31
0.0
  0
LINE
  5
B6
330
1F
100
AcDbEntity
  8
0
  6
Continuous
 62
     7
370
    25
100
AcDbLine
 10
62.747422912
 20
-8.0202663267
 30
0.0
 11
63.747422912
 21
-8.0202663267
 31
0.0
  0
LINE
  5
B7
330
1F
100
AcDbEntity
  8
0
  6
Continuous
 62
     7
370
    25
100
AcDbLine
 10
63.747422912
 20
-8.0202663267
 30
0.0
 11
63.747422912
 21
-8.2636061601
 31
0.0
  0
SPLINE
  5
B8
330
1F
100
AcDbEntity
  8
0
  6
Continuous
 62
     7
370
    25
100
AcDbSpline
210
0.0
220
0.0
230
1.0
 70
     8
 71
     3
 72
    20
 73
    16
 74
     0
 42
0.000000001
 43
0.00000001
 40
0.0
 40
0.0
 40
0.0
 40
0.0
 40
0.4999999999999981
 40
0.4999999999999981
 40
0.6249999999999988
 40
0.6249999999999988
 40
0.7499999999999993
 40
0.7499999999999993
 40
0.7812499999999993
 40
0.7812499999999993
 40
0.8124999999999993
 40
0.8124999999999993
 40
0.8749999999999994
 40
0.8749999999999994
 40
1.0
 40
1.0
 40
1.0
 40
1.0
 10
63.74742291198703
 20
-8.263606160121457
 30
0.0
 10
66.24353576529369
 20
-8.197237812420461
 30
0.0
 10
68.72998854860121
 20
-7.627303975114542
 30
0.0
 10
71.57747212616012
 20
-6.340463562859775
 30
0.0
 10
72.13511320141225
 20
-6.054142241501807
 30
0.0
 10
73.21649705661731
 20
-5.429398620274039
 30
0.0
 10
73.72769938804338
 20
-4.959954848595098
 30
0.0
 10
73.91955955113839
 20
-4.181254191315295
 30
0.0
 10
73.93332514861596
 20
-4.019526920170541
 30
0.0
 10
73.9591037752912
 20
-3.560947671827842
 30
0.0
 10
73.96068988799162
 20
-3.532570069856681
 30
0.0
 10
73.98850525313256
 20
-3.039561953504301
 30
0.0
 10
74.00798681343151
 20
-2.696122943150853
 30
0.0
 10
74.05826851909478
 20
-1.814067224102267
 30
0.0
 10
74.09574979924018
 20
-1.162768049025201
 30
0.0
 10
74.13719122242208
 20
-0.4482068449034601
 30
0.0
  0
LINE
  5
B9
330
1F
100
AcDbEntity
  8
0
  6
Continuous
 62
     7
370
    25
100
AcDbLine
 10
74.1371912224
 20
-0.4482068449
 30
0.0
 11
73.8949861479
 21
-0.4482068449
 31
0.0
  0
LINE
  5
BA
330
1F
100
AcDbEntity
  8
0
  6
Continuous
 62
     7
370
    25
100
AcDbLine
 10
73.8949861479
 20
-0.4482068449
 30
0.0
 11
70.0675739615
 21
1.9896542179
 31
0.0
  0
LINE
  5
BB
330
1F
100
AcDbEntity
  8
0
  6
Continuous
 62
     7
370
    25
100
AcDbLine
 10
70.0675739615
 20
1.9896542179
 30
0.0
 11
66.547422912
 21
1.9896542179
 31
0.0
  0
SPLINE
  5
BC
330
1F
100
AcDbEntity
  8
0
  6
Continuous
 62
     7
370
    25
100
AcDbSpline
210
0.0
220
0.0
230
1.0
 70
     8
 71
     3
 72
     8
 73
     4
 74
     0
 42
0.000000001
 43
0.00000001
 40
0.0
 40
0.0
 40
0.0
 40
0.0
 40
1.0
 40
1.0
 40
1.0
 40
1.0
 10
56.42344531864272
 20
-0.5316548713362205
 30
0.0
 10
56.15990456197368
 20
-1.710753814752783
 30
0.0
 10
55.91008781028474
 20
-2.896151705115722
 30
0.0
 10
55.67731882017908
 20
-4.069486986241662
 30
0.0
  0
LINE
  5
BD
330
1F
100
AcDbEntity
  8
0
  6
Continuous
 62
     7
370
    25
100
AcDbLine
 10
55.6773188202
 20
-4.0694869862
 30
0.0
 11
60.5163558194
 21
-4.0694869862
 31
0.0
  0
ARC
  5
BE
330
1F
100
AcDbEntity
  8
0
  6
Continuous
 62
     7
370
    25
100
AcDbCircle
 10
63.4382291482
 20
-6.2569869862
 30
0.0
 40
3.65
100
AcDbArc
 50
36.8208587736
 51
143.1791412264
  0
LINE
  5
BF
330
1F
100
AcDbEntity
  8
0
  6
Continuous
 62
     7
370
    25
100
AcDbLine
 10
66.3601024771
 20
-4.0694869862
 30
0.0
 11
71.1991394131
 21
-4.0694869862
 31
0.0
  0
SPLINE
  5
C0
330
1F
100
AcDbEntity
  8
0
  6
Continuous
 62
     7
370
    25
100
AcDbSpline
210
0.0
220
0.0
230
1.0
 70
     8
 71
     3
 72
     8
 73
     4
 74
     0
 42
0.000000001
 43
0.00000001
 40
0.0
 40
0.0
 40
0.0
 40
0.0
 40
1.0
 40
1.0
 40
1.0
 40
1.0
 10
71.19913941314151
 20
-4.069486986241586
 30
0.0
 10
70.96635997038126
 20
-2.896098961390195
 30
0.0
 10
70.71653446003823
 20
-1.710664664203127
 30
0.0
 10
70.45301285198893
 20
-0.5316548713361838
 30
0.0
  0
LINE
  5
C1
330
1F
100
AcDbEntity
  8
0
  6
Continuous
 62
     7
370
    25
100
AcDbLine
 10
56.4234453186
 20
-0.5316548713
 30
0.0
 11
70.453012852
 21
-0.5316548713
 31
0.0
  0
MTEXT
  5
C3
330
1F
100
AcDbEntity
  8
0
  6
Continuous
 62
     7
100
AcDbMText
 10
52.3576546016
 20
-8.3037471989
 30
0.0
 40
0.1903
 41
0.0
 71
     1
 72
     1
  1
SOLIDWORKS Educational Product.
  7
SLDTEXTSTYLE0
 73
     1
 44
1.0
  0
MTEXT
  5
C4
330
1F
100
AcDbEntity
  8
0
  6
Continuous
 62
     7
100
AcDbMText
 10
52.3576546016
 20
-8.5891971989
 30
0.0
 40
0.1903
 41
0.0
 71
     1
 72
     1
  1
For Instructional Use Only.
  7
SLDTEXTSTYLE0
 73
     1
 44
1.0
  0
ENDSEC
  0
SECTION
  2
OBJECTS
  0
DICTIONARY
  5
C
330
0
100
AcDbDictionary
281
     1
  3
ACAD_GROUP
350
D
  3
ACAD_LAYOUT
350
1A
  3
ACAD_MLINESTYLE
350
17
  3
ACAD_PLOTSETTINGS
350
19
  3
ACAD_PLOTSTYLENAME
350
E
  3
ACAD_SCALELIST
350
47
  0
DICTIONARY
  5
D
102
{ACAD_REACTORS
330
C
102
}
330
C
100
AcDbDictionary
281
     1
  0
DICTIONARY
  5
1A
102
{ACAD_REACTORS
330
C
102
}
330
C
100
AcDbDictionary
281
     1
  3
Layout1
350
1E
  3
Layout2
350
26
  3
Model
350
22
  0
DICTIONARY
  5
17
102
{ACAD_REACTORS
330
C
102
}
330
C
100
AcDbDictionary
281
     1
  3
Standard
350
18
  0
DICTIONARY
  5
19
102
{ACAD_REACTORS
330
C
102
}
330
C
100
AcDbDictionary
281
     1
  0
ACDBDICTIONARYWDFLT
  5
E
102
{ACAD_REACTORS
330
C
102
}
330
C
100
AcDbDictionary
281
     1
  3
Normal
350
F
100
AcDbDictionaryWithDefault
340
F
  0
DICTIONARY
  5
47
102
{ACAD_REACTORS
330
C
102
}
330
C
100
AcDbDictionary
281
     1
  3
A0
350
48
  3
A1
350
49
  3
A2
350
4A
  3
A3
350
4B
  3
A4
350
4C
  3
A5
350
4D
  3
A6
350
4E
  3
A7
350
4F
  3
A8
350
50
  3
A9
350
51
  3
B0
350
52
  3
B1
350
53
  3
B2
350
54
  3
B3
350
55
  3
B4
350
56
  3
B5
350
57
  3
B6
350
58
  3
B7
350
59
  3
B8
350
5A
  3
B9
350
5B
  3
C0
350
5C
  3
C1
350
5D
  3
C2
350
5E
  3
C3
350
5F
  3
C4
350
60
  3
C5
350
61
  3
C6
350
62
  3
C7
350
63
  3
C8
350
64
  3
C9
350
65
  3
D0
350
66
  3
D1
350
67
  3
D2
350
68
  0
LAYOUT
  5
1E
102
{ACAD_REACTORS
330
1A
102
}
330
1A
100
AcDbPlotSettings
  1

  2
none_device
  4

  6

 40
0.0
 41
0.0
 42
0.0
 43
0.0
 44
0.0
 45
0.0
 46
0.0
 47
0.0
 48
0.0
 49
0.0
140
0.0
141
0.0
142
1.0
143
1.0
 70
   688
 72
     0
 73
     0
 74
     5
  7

 75
    16
147
1.0
148
0.0
149
0.0
100
AcDbLayout
  1
Layout1
 70
     1
 71
     1
 10
0.0
 20
0.0
 11
12.0
 21
9.0
 12
0.0
 22
0.0
 32
0.0
 14
1.0000000000E+20
 24
1.0000000000E+20
 34
1.0000000000E+20
 15
-1.0000000000E+20
 25
-1.0000000000E+20
 35
-1.0000000000E+20
146
0.0
 13
0.0
 23
0.0
 33
0.0
 16
1.0
 26
0.0
 36
0.0
 17
0.0
 27
1.0
 37
0.0
 76
     0
330
1B
  0
LAYOUT
  5
26
102
{ACAD_REACTORS
330
1A
102
}
330
1A
100
AcDbPlotSettings
  1

  2
none_device
  4

  6

 40
0.0
 41
0.0
 42
0.0
 43
0.0
 44
0.0
 45
0.0
 46
0.0
 47
0.0
 48
0.0
 49
0.0
140
0.0
141
0.0
142
1.0
143
1.0
 70
   688
 72
     0
 73
     0
 74
     5
  7

 75
    16
147
1.0
148
0.0
149
0.0
100
AcDbLayout
  1
Layout2
 70
     1
 71
     2
 10
0.0
 20
0.0
 11
0.0
 21
0.0
 12
0.0
 22
0.0
 32
0.0
 14
0.0
 24
0.0
 34
0.0
 15
0.0
 25
0.0
 35
0.0
146
0.0
 13
0.0
 23
0.0
 33
0.0
 16
1.0
 26
0.0
 36
0.0
 17
0.0
 27
1.0
 37
0.0
 76
     0
330
23
  0
LAYOUT
  5
22
102
{ACAD_REACTORS
330
1A
102
}
330
1A
100
AcDbPlotSettings
  1

  2
none_device
  4
ANSI_A_(11.00_x_8.50_Inches)
  6

 40
6.35
 41
19.05
 42
6.35000508
 43
19.05000254
 44
279.4
 45
215.9
 46
-669.909363221
 47
88.9475485323
 48
0.0
 49
0.0
140
0.0
141
0.0
142
0.5000106379
143
1.0
 70
  1696
 72
     0
 73
     0
 74
     0
  7

 75
     0
147
0.5913241897
148
-39.4088153714
149
0.0
100
AcDbLayout
  1
Model
 70
     1
 71
     0
 10
0.0
 20
0.0
 11
12.0
 21
9.0
 12
0.0
 22
0.0
 32
0.0
 14
52.3576546016
 24
-8.2636067898
 34
0.0
 15
74.1371912224
 25
8.2561187913
 35
0.0
146
0.0
 13
0.0
 23
0.0
 33
0.0
 16
1.0
 26
0.0
 36
0.0
 17
0.0
 27
1.0
 37
0.0
 76
     0
330
1F
331
29
  0
MLINESTYLE
  5
18
102
{ACAD_REACTORS
330
17
102
}
330
17
100
AcDbMlineStyle
  2
Standard
 70
     0
  3

 62
   256
 51
90.0
 52
90.0
 71
     2
 49
0.5
 62
   256
  6
BYLAYER
 49
-0.5
 62
   256
  6
BYLAYER
  0
ACDBPLACEHOLDER
  5
F
102
{ACAD_REACTORS
330
E
102
}
330
E
  0
SCALE
  5
48
102
{ACAD_REACTORS
330
47
102
}
330
47
100
AcDbScale
 70
     0
300
1:1
140
1.0
141
1.0
290
     1
  0
SCALE
  5
49
102
{ACAD_REACTORS
330
47
102
}
330
47
100
AcDbScale
 70
     0
300
1:2
140
1.0
141
2.0
290
     0
  0
SCALE
  5
4A
102
{ACAD_REACTORS
330
47
102
}
330
47
100
AcDbScale
 70
     0
300
1:4
140
1.0
141
4.0
290
     0
  0
SCALE
  5
4B
102
{ACAD_REACTORS
330
47
102
}
330
47
100
AcDbScale
 70
     0
300
1:5
140
1.0
141
5.0
290
     0
  0
SCALE
  5
4C
102
{ACAD_REACTORS
330
47
102
}
330
47
100
AcDbScale
 70
     0
300
1:8
140
1.0
141
8.0
290
     0
  0
SCALE
  5
4D
102
{ACAD_REACTORS
330
47
102
}
330
47
100
AcDbScale
 70
     0
300
1:10
140
1.0
141
10.0
290
     0
  0
SCALE
  5
4E
102
{ACAD_REACTORS
330
47
102
}
330
47
100
AcDbScale
 70
     0
300
1:16
140
1.0
141
16.0
290
     0
  0
SCALE
  5
4F
102
{ACAD_REACTORS
330
47
102
}
330
47
100
AcDbScale
 70
     0
300
1:20
140
1.0
141
20.0
290
     0
  0
SCALE
  5
50
102
{ACAD_REACTORS
330
47
102
}
330
47
100
AcDbScale
 70
     0
300
1:30
140
1.0
141
30.0
290
     0
  0
SCALE
  5
51
102
{ACAD_REACTORS
330
47
102
}
330
47
100
AcDbScale
 70
     0
300
1:40
140
1.0
141
40.0
290
     0
  0
SCALE
  5
52
102
{ACAD_REACTORS
330
47
102
}
330
47
100
AcDbScale
 70
     0
300
1:50
140
1.0
141
50.0
290
     0
  0
SCALE
  5
53
102
{ACAD_REACTORS
330
47
102
}
330
47
100
AcDbScale
 70
     0
300
1:100
140
1.0
141
100.0
290
     0
  0
SCALE
  5
54
102
{ACAD_REACTORS
330
47
102
}
330
47
100
AcDbScale
 70
     0
300
2:1
140
2.0
141
1.0
290
     0
  0
SCALE
  5
55
102
{ACAD_REACTORS
330
47
102
}
330
47
100
AcDbScale
 70
     0
300
4:1
140
4.0
141
1.0
290
     0
  0
SCALE
  5
56
102
{ACAD_REACTORS
330
47
102
}
330
47
100
AcDbScale
 70
     0
300
8:1
140
8.0
141
1.0
290
     0
  0
SCALE
  5
57
102
{ACAD_REACTORS
330
47
102
}
330
47
100
AcDbScale
 70
     0
300
10:1
140
10.0
141
1.0
290
     0
  0
SCALE
  5
58
102
{ACAD_REACTORS
330
47
102
}
330
47
100
AcDbScale
 70
     0
300
100:1
140
100.0
141
1.0
290
     0
  0
SCALE
  5
59
102
{ACAD_REACTORS
330
47
102
}
330
47
100
AcDbScale
 70
     0
300
1/128" = 1'-0"
140
0.0078125
141
12.0
290
     0
  0
SCALE
  5
5A
102
{ACAD_REACTORS
330
47
102
}
330
47
100
AcDbScale
 70
     0
300
1/64" = 1'-0"
140
0.015625
141
12.0
290
     0
  0
SCALE
  5
5B
102
{ACAD_REACTORS
330
47
102
}
330
47
100
AcDbScale
 70
     0
300
1/32" = 1'-0"
140
0.03125
141
12.0
290
     0
  0
SCALE
  5
5C
102
{ACAD_REACTORS
330
47
102
}
330
47
100
AcDbScale
 70
     0
300
1/16" = 1'-0"
140
0.0625
141
12.0
290
     0
  0
SCALE
  5
5D
102
{ACAD_REACTORS
330
47
102
}
330
47
100
AcDbScale
 70
     0
300
3/32" = 1'-0"
140
0.09375
141
12.0
290
     0
  0
SCALE
  5
5E
102
{ACAD_REACTORS
330
47
102
}
330
47
100
AcDbScale
 70
     0
300
1/8" = 1'-0"
140
0.125
141
12.0
290
     0
  0
SCALE
  5
5F
102
{ACAD_REACTORS
330
47
102
}
330
47
100
AcDbScale
 70
     0
300
3/16" = 1'-0"
140
0.1875
141
12.0
290
     0
  0
SCALE
  5
60
102
{ACAD_REACTORS
330
47
102
}
330
47
100
AcDbScale
 70
     0
300
1/4" = 1'-0"
140
0.25
141
12.0
290
     0
  0
SCALE
  5
61
102
{ACAD_REACTORS
330
47
102
}
330
47
100
AcDbScale
 70
     0
300
3/8" = 1'-0"
140
0.375
141
12.0
290
     0
  0
SCALE
  5
62
102
{ACAD_REACTORS
330
47
102
}
330
47
100
AcDbScale
 70
     0
300
1/2" = 1'-0"
140
0.5
141
12.0
290
     0
  0
SCALE
  5
63
102
{ACAD_REACTORS
330
47
102
}
330
47
100
AcDbScale
 70
     0
300
3/4" = 1'-0"
140
0.75
141
12.0
290
     0
  0
SCALE
  5
64
102
{ACAD_REACTORS
330
47
102
}
330
47
100
AcDbScale
 70
     0
300
1" = 1'-0"
140
1.0
141
12.0
290
     0
  0
SCALE
  5
65
102
{ACAD_REACTORS
330
47
102
}
330
47
100
AcDbScale
 70
     0
300
1-1/2" = 1'-0"
140
1.5
141
12.0
290
     0
  0
SCALE
  5
66
102
{ACAD_REACTORS
330
47
102
}
330
47
100
AcDbScale
 70
     0
300
3" = 1'-0"
140
3.0
141
12.0
290
     0
  0
SCALE
  5
67
102
{ACAD_REACTORS
330
47
102
}
330
47
100
AcDbScale
 70
     0
300
6" = 1'-0"
140
6.0
141
12.0
290
     0
  0
SCALE
  5
68
102
{ACAD_REACTORS
330
47
102
}
330
47
100
AcDbScale
 70
     0
300
1'-0" = 1'-0"
140
12.0
141
12.0
290
     0
  0
ENDSEC
  0
EOF
