  0
SECTION
  2
HEADER
  9
$ACADVER
  1
AC1015
  9
$ACADMAINTVER
 70
     6
  9
$DWGCODEPAGE
  3
ANSI_1252
  9
$INSBASE
 10
0.0
 20
0.0
 30
0.0
  9
$EXTMIN
 10
19.1794504752
 20
-7.1961853928
 30
0.0
  9
$EXTMAX
 10
41.5201674634
 20
8.9127835824
 30
0.0
  9
$LIMMIN
 10
0.0
 20
0.0
  9
$LIMMAX
 10
12.0
 20
9.0
  9
$ORTHOMODE
 70
     0
  9
$REGENMODE
 70
     1
  9
$FILLMODE
 70
     1
  9
$QTEXTMODE
 70
     0
  9
$MIRRTEXT
 70
     1
  9
$LTSCALE
 40
1.0
  9
$ATTMODE
 70
     1
  9
$TEXTSIZE
 40
0.125
  9
$TRACEWID
 40
0.05
  9
$TEXTSTYLE
  7
Standard
  9
$CLAYER
  8
0
  9
$CELTYPE
  6
ByLayer
  9
$CECOLOR
 62
   256
  9
$CELTSCALE
 40
1.0
  9
$DISPSILH
 70
     0
  9
$DIMSCALE
 40
1.0
  9
$DIMASZ
 40
0.13
  9
$DIMEXO
 40
0.05
  9
$DIMDLI
 40
0.38
  9
$DIMRND
 40
0.0
  9
$DIMDLE
 40
0.0
  9
$DIMEXE
 40
0.125
  9
$DIMTP
 40
0.0
  9
$DIMTM
 40
0.0
  9
$DIMTXT
 40
0.125
  9
$DIMCEN
 40
0.09
  9
$DIMTSZ
 40
0.0
  9
$DIMTOL
 70
     0
  9
$DIMLIM
 70
     0
  9
$DIMTIH
 70
     1
  9
$DIMTOH
 70
     1
  9
$DIMSE1
 70
     0
  9
$DIMSE2
 70
     0
  9
$DIMTAD
 70
     0
  9
$DIMZIN
 70
     0
  9
$DIMBLK
  1

  9
$DIMASO
 70
     1
  9
$DIMSHO
 70
     1
  9
$DIMPOST
  1

  9
$DIMAPOST
  1

  9
$DIMALT
 70
     0
  9
$DIMALTD
 70
     2
  9
$DIMALTF
 40
25.4
  9
$DIMLFAC
 40
1.0
  9
$DIMTOFL
 70
     0
  9
$DIMTVP
 40
0.0
  9
$DIMTIX
 70
     0
  9
$DIMSOXD
 70
     0
  9
$DIMSAH
 70
     0
  9
$DIMBLK1
  1

  9
$DIMBLK2
  1

  9
$DIMSTYLE
  2
Standard
  9
$DIMCLRD
 70
     0
  9
$DIMCLRE
 70
     0
  9
$DIMCLRT
 70
     0
  9
$DIMTFAC
 40
1.0
  9
$DIMGAP
 40
0.06
  9
$DIMJUST
 70
     0
  9
$DIMSD1
 70
     0
  9
$DIMSD2
 70
     0
  9
$DIMTOLJ
 70
     1
  9
$DIMTZIN
 70
     0
  9
$DIMALTZ
 70
     0
  9
$DIMALTTZ
 70
     0
  9
$DIMUPT
 70
     0
  9
$DIMDEC
 70
     2
  9
$DIMTDEC
 70
     2
  9
$DIMALTU
 70
     2
  9
$DIMALTTD
 70
     2
  9
$DIMTXSTY
  7
Standard
  9
$DIMAUNIT
 70
     0
  9
$DIMADEC
 70
     2
  9
$DIMALTRND
 40
0.0
  9
$DIMAZIN
 70
     0
  9
$DIMDSEP
 70
    46
  9
$DIMATFIT
 70
     3
  9
$DIMFRAC
 70
     0
  9
$DIMLDRBLK
  1

  9
$DIMLUNIT
 70
     2
  9
$DIMLWD
 70
    -2
  9
$DIMLWE
 70
    -2
  9
$DIMTMOVE
 70
     0
  9
$LUNITS
 70
     2
  9
$LUPREC
 70
     2
  9
$SKETCHINC
 40
0.1
  9
$FILLETRAD
 40
0.5
  9
$AUNITS
 70
     0
  9
$AUPREC
 70
     2
  9
$MENU
  1
.
  9
$ELEVATION
 40
0.0
  9
$PELEVATION
 40
0.0
  9
$THICKNESS
 40
0.0
  9
$LIMCHECK
 70
     0
  9
$CHAMFERA
 40
0.0
  9
$CHAMFERB
 40
0.0
  9
$CHAMFERC
 40
0.0
  9
$CHAMFERD
 40
0.0
  9
$SKPOLY
 70
     0
  9
$TDCREATE
 40
2458037.440557396
  9
$TDUCREATE
 40
2458037.607224063
  9
$TDUPDATE
 40
2458037.440583414
  9
$TDUUPDATE
 40
2458037.607250081
  9
$TDINDWG
 40
0.0000000116
  9
$TDUSRTIMER
 40
0.0000000116
  9
$USRTIMER
 70
     1
  9
$ANGBASE
 50
0.0
  9
$ANGDIR
 70
     0
  9
$PDMODE
 70
     0
  9
$PDSIZE
 40
-1.0
  9
$PLINEWID
 40
0.0
  9
$SPLFRAME
 70
     0
  9
$SPLINETYPE
 70
     6
  9
$SPLINESEGS
 70
     8
  9
$HANDSEED
  5
A2
  9
$SURFTAB1
 70
     6
  9
$SURFTAB2
 70
     6
  9
$SURFTYPE
 70
     6
  9
$SURFU
 70
     6
  9
$SURFV
 70
     6
  9
$UCSBASE
  2

  9
$UCSNAME
  2

  9
$UCSORG
 10
0.0
 20
0.0
 30
0.0
  9
$UCSXDIR
 10
1.0
 20
0.0
 30
0.0
  9
$UCSYDIR
 10
0.0
 20
1.0
 30
0.0
  9
$UCSORTHOREF
  2

  9
$UCSORTHOVIEW
 70
     0
  9
$UCSORGTOP
 10
0.0
 20
0.0
 30
0.0
  9
$UCSORGBOTTOM
 10
0.0
 20
0.0
 30
0.0
  9
$UCSORGLEFT
 10
0.0
 20
0.0
 30
0.0
  9
$UCSORGRIGHT
 10
0.0
 20
0.0
 30
0.0
  9
$UCSORGFRONT
 10
0.0
 20
0.0
 30
0.0
  9
$UCSORGBACK
 10
0.0
 20
0.0
 30
0.0
  9
$PUCSBASE
  2

  9
$PUCSNAME
  2

  9
$PUCSORG
 10
0.0
 20
0.0
 30
0.0
  9
$PUCSXDIR
 10
1.0
 20
0.0
 30
0.0
  9
$PUCSYDIR
 10
0.0
 20
1.0
 30
0.0
  9
$PUCSORTHOREF
  2

  9
$PUCSORTHOVIEW
 70
     0
  9
$PUCSORGTOP
 10
0.0
 20
0.0
 30
0.0
  9
$PUCSORGBOTTOM
 10
0.0
 20
0.0
 30
0.0
  9
$PUCSORGLEFT
 10
0.0
 20
0.0
 30
0.0
  9
$PUCSORGRIGHT
 10
0.0
 20
0.0
 30
0.0
  9
$PUCSORGFRONT
 10
0.0
 20
0.0
 30
0.0
  9
$PUCSORGBACK
 10
0.0
 20
0.0
 30
0.0
  9
$USERI1
 70
     0
  9
$USERI2
 70
     0
  9
$USERI3
 70
     0
  9
$USERI4
 70
     0
  9
$USERI5
 70
     0
  9
$USERR1
 40
0.0
  9
$USERR2
 40
0.0
  9
$USERR3
 40
0.0
  9
$USERR4
 40
0.0
  9
$USERR5
 40
0.0
  9
$WORLDVIEW
 70
     1
  9
$SHADEDGE
 70
     3
  9
$SHADEDIF
 70
    70
  9
$TILEMODE
 70
     1
  9
$MAXACTVP
 70
    64
  9
$PINSBASE
 10
0.0
 20
0.0
 30
0.0
  9
$PLIMCHECK
 70
     0
  9
$PEXTMIN
 10
1.0000000000E+20
 20
1.0000000000E+20
 30
1.0000000000E+20
  9
$PEXTMAX
 10
-1.0000000000E+20
 20
-1.0000000000E+20
 30
-1.0000000000E+20
  9
$PLIMMIN
 10
0.0
 20
0.0
  9
$PLIMMAX
 10
12.0
 20
9.0
  9
$UNITMODE
 70
     0
  9
$VISRETAIN
 70
     1
  9
$PLINEGEN
 70
     0
  9
$PSLTSCALE
 70
     1
  9
$TREEDEPTH
 70
  3020
  9
$CMLSTYLE
  2
Standard
  9
$CMLJUST
 70
     0
  9
$CMLSCALE
 40
1.0
  9
$PROXYGRAPHICS
 70
     1
  9
$MEASUREMENT
 70
     0
  9
$CELWEIGHT
370
    -1
  9
$ENDCAPS
280
     0
  9
$JOINSTYLE
280
     0
  9
$LWDISPLAY
290
     1
  9
$INSUNITS
 70
     1
  9
$HYPERLINKBASE
  1

  9
$STYLESHEET
  1

  9
$XEDIT
290
     1
  9
$CEPSNTYPE
380
     0
  9
$PSTYLEMODE
290
     1
  9
$FINGERPRINTGUID
  2
{6E88693B-D8CD-4025-B5E0-388850A8C723}
  9
$VERSIONGUID
  2
{FAEB1C32-E019-11D5-929B-00C0DF256EC4}
  9
$EXTNAMES
290
     1
  9
$PSVPSCALE
 40
0.0
  9
$OLESTARTUP
290
     0
  0
ENDSEC
  0
SECTION
  2
CLASSES
  0
CLASS
  1
ACDBDICTIONARYWDFLT
  2
AcDbDictionaryWithDefault
  3
ObjectDBX Classes
 90
        0
280
     0
281
     0
  0
CLASS
  1
VISUALSTYLE
  2
AcDbVisualStyle
  3
ObjectDBX Classes
 90
     4095
280
     0
281
     0
  0
CLASS
  1
MATERIAL
  2
AcDbMaterial
  3
ObjectDBX Classes
 90
     1153
280
     0
281
     0
  0
CLASS
  1
SCALE
  2
AcDbScale
  3
ObjectDBX Classes
 90
     1153
280
     0
281
     0
  0
CLASS
  1
TABLESTYLE
  2
AcDbTableStyle
  3
ObjectDBX Classes
 90
     4095
280
     0
281
     0
  0
CLASS
  1
MLEADERSTYLE
  2
AcDbMLeaderStyle
  3
ACDB_MLEADERSTYLE_CLASS
 90
     4095
280
     0
281
     0
  0
CLASS
  1
SUN
  2
AcDbSun
  3
SCENEOE
 90
     1153
280
     0
281
     0
  0
CLASS
  1
ACDBPLACEHOLDER
  2
AcDbPlaceHolder
  3
ObjectDBX Classes
 90
        0
280
     0
281
     0
  0
CLASS
  1
LAYOUT
  2
AcDbLayout
  3
ObjectDBX Classes
 90
        0
280
     0
281
     0
  0
ENDSEC
  0
SECTION
  2
TABLES
  0
TABLE
  2
VPORT
  5
8
330
0
100
AcDbSymbolTable
 70
     1
  0
VPORT
  5
29
330
8
100
AcDbSymbolTableRecord
100
AcDbViewportTableRecord
  2
*Active
 70
     0
 10
0.0
 20
0.0
 11
1.0
 21
1.0
 12
30.3498089693
 22
0.8582990948
 13
0.0
 23
0.0
 14
0.5
 24
0.5
 15
0.5
 25
0.5
 16
0.0
 26
0.0
 36
1.0
 17
0.0
 27
0.0
 37
0.0
 40
16.4311483547
 41
1.3868495881
 42
50.0
 43
0.0
 44
0.0
 50
0.0
 51
0.0
 71
     0
 72
   100
 73
     1
 74
     3
 75
     0
 76
     0
 77
     0
 78
     0
281
     0
 65
     1
110
0.0
120
0.0
130
0.0
111
1.0
121
0.0
131
0.0
112
0.0
122
1.0
132
0.0
 79
     0
146
0.0
  0
ENDTAB
  0
TABLE
  2
LTYPE
  5
5
330
0
100
AcDbSymbolTable
 70
     6
  0
LTYPE
  5
14
330
5
100
AcDbSymbolTableRecord
100
AcDbLinetypeTableRecord
  2
ByBlock
 70
     0
  3

 72
    65
 73
     0
 40
0.0
  0
LTYPE
  5
15
330
5
100
AcDbSymbolTableRecord
100
AcDbLinetypeTableRecord
  2
ByLayer
 70
     0
  3

 72
    65
 73
     0
 40
0.0
  0
LTYPE
  5
16
330
5
100
AcDbSymbolTableRecord
100
AcDbLinetypeTableRecord
  2
Continuous
 70
     0
  3
Solid line
 72
    65
 73
     0
 40
0.0
  0
LTYPE
  5
6E
330
5
100
AcDbSymbolTableRecord
100
AcDbLinetypeTableRecord
  2
HIDDEN
 70
     0
  3
Hidden __ __ __ __ __ __ __ __ __ __ __ __ __ __
 72
    65
 73
     2
 40
0.075
 49
0.05
 74
     0
 49
-0.025
 74
     0
  0
LTYPE
  5
6F
330
5
100
AcDbSymbolTableRecord
100
AcDbLinetypeTableRecord
  2
PHANTOM
 70
     0
  3
Phantom ______  __  __  ______  __  __  ______
 72
    65
 73
     6
 40
0.5
 49
0.25
 74
     0
 49
-0.05
 74
     0
 49
0.05
 74
     0
 49
-0.05
 74
     0
 49
0.05
 74
     0
 49
-0.05
 74
     0
  0
LTYPE
  5
70
330
5
100
AcDbSymbolTableRecord
100
AcDbLinetypeTableRecord
  2
CENTER
 70
     0
  3
Center ____ _ ____ _ ____ _ ____ _ ____ _ ____
 72
    65
 73
     4
 40
0.4
 49
0.25
 74
     0
 49
-0.05
 74
     0
 49
0.05
 74
     0
 49
-0.05
 74
     0
  0
LTYPE
  5
71
330
5
100
AcDbSymbolTableRecord
100
AcDbLinetypeTableRecord
  2
CENTERX2
 70
     0
  3
Center (2x) ________  __  ________  __  _____
 72
    65
 73
     4
 40
0.8
 49
0.5
 74
     0
 49
-0.1
 74
     0
 49
0.1
 74
     0
 49
-0.1
 74
     0
  0
LTYPE
  5
72
330
5
100
AcDbSymbolTableRecord
100
AcDbLinetypeTableRecord
  2
DOT2
 70
     0
  3
Dot (.5x) ........................................
 72
    65
 73
     2
 40
0.025
 49
0.0
 74
     0
 49
-0.025
 74
     0
  0
ENDTAB
  0
TABLE
  2
LAYER
  5
2
330
0
100
AcDbSymbolTable
 70
     1
  0
LAYER
  5
10
330
2
100
AcDbSymbolTableRecord
100
AcDbLayerTableRecord
  2
0
 70
     0
 62
     7
  6
Continuous
370
    -3
390
F
  0
ENDTAB
  0
TABLE
  2
STYLE
  5
3
330
0
100
AcDbSymbolTable
 70
     2
  0
STYLE
  5
11
330
3
100
AcDbSymbolTableRecord
100
AcDbTextStyleTableRecord
  2
Standard
 70
     0
 40
0.0
 41
1.0
 50
0.0
 71
     0
 42
0.125
  3
txt
  4

  0
STYLE
  5
9F
330
3
100
AcDbSymbolTableRecord
100
AcDbTextStyleTableRecord
  2
SLDTEXTSTYLE0
 70
     0
 40
0.0
 41
0.7
 50
0.0
 71
     0
 42
0.125
  3
TXT
  4

  0
ENDTAB
  0
TABLE
  2
VIEW
  5
6
330
0
100
AcDbSymbolTable
 70
     0
  0
ENDTAB
  0
TABLE
  2
UCS
  5
7
330
0
100
AcDbSymbolTable
 70
     0
  0
ENDTAB
  0
TABLE
  2
APPID
  5
9
330
0
100
AcDbSymbolTable
 70
     1
  0
APPID
  5
12
330
9
100
AcDbSymbolTableRecord
100
AcDbRegAppTableRecord
  2
ACAD
 70
     0
  0
ENDTAB
  0
TABLE
  2
DIMSTYLE
  5
A
330
0
100
AcDbSymbolTable
 70
     1
100
AcDbDimStyleTable
  0
DIMSTYLE
105
27
330
A
100
AcDbSymbolTableRecord
100
AcDbDimStyleTableRecord
  2
Standard
 70
     0
178
     0
340
11
  0
ENDTAB
  0
TABLE
  2
BLOCK_RECORD
  5
1
330
0
100
AcDbSymbolTable
 70
     1
  0
BLOCK_RECORD
  5
1F
330
1
100
AcDbSymbolTableRecord
100
AcDbBlockTableRecord
  2
*Model_Space
340
22
  0
BLOCK_RECORD
  5
1B
330
1
100
AcDbSymbolTableRecord
100
AcDbBlockTableRecord
  2
*Paper_Space
340
1E
  0
BLOCK_RECORD
  5
23
330
1
100
AcDbSymbolTableRecord
100
AcDbBlockTableRecord
  2
*Paper_Space0
340
26
  0
ENDTAB
  0
ENDSEC
  0
SECTION
  2
BLOCKS
  0
BLOCK
  5
20
330
1F
100
AcDbEntity
  8
0
100
AcDbBlockBegin
  2
*Model_Space
 70
     0
 10
0.0
 20
0.0
 30
0.0
  3
*Model_Space
  1

  0
ENDBLK
  5
21
330
1F
100
AcDbEntity
  8
0
100
AcDbBlockEnd
  0
BLOCK
  5
1C
330
1B
100
AcDbEntity
 67
     1
  8
0
100
AcDbBlockBegin
  2
*Paper_Space
 70
     0
 10
0.0
 20
0.0
 30
0.0
  3
*Paper_Space
  1

  0
ENDBLK
  5
1D
330
1B
100
AcDbEntity
 67
     1
  8
0
100
AcDbBlockEnd
  0
BLOCK
  5
24
330
23
100
AcDbEntity
  8
0
100
AcDbBlockBegin
  2
*Paper_Space0
 70
     0
 10
0.0
 20
0.0
 30
0.0
  3
*Paper_Space0
  1

  0
ENDBLK
  5
25
330
23
100
AcDbEntity
  8
0
100
AcDbBlockEnd
  0
ENDSEC
  0
SECTION
  2
ENTITIES
  0
SPLINE
  5
73
330
1F
100
AcDbEntity
  8
0
  6
Continuous
 62
     7
370
    25
100
AcDbSpline
210
0.0
220
0.0
230
1.0
 70
     8
 71
     3
 72
    61
 73
    57
 74
     0
 42
0.000000001
 43
0.00000001
 40
0.0
 40
0.0
 40
0.0
 40
0.0
 40
0.1249999999999973
 40
0.1249999999999973
 40
0.2499999999999947
 40
0.2499999999999947
 40
0.374999999999992
 40
0.374999999999992
 40
0.4062499999999913
 40
0.4062499999999913
 40
0.4374999999999906
 40
0.4374999999999906
 40
0.4999999999999893
 40
0.5624999999999881
 40
0.5624999999999881
 40
0.5937499999999875
 40
0.5937499999999875
 40
0.6249999999999868
 40
0.6249999999999868
 40
0.6874999999999852
 40
0.6874999999999852
 40
0.7187499999999845
 40
0.7187499999999845
 40
0.7343749999999842
 40
0.7343749999999842
 40
0.7421874999999841
 40
0.7421874999999841
 40
0.746093749999984
 40
0.746093749999984
 40
0.7499999999999839
 40
0.7499999999999839
 40
0.7656249999999843
 40
0.7656249999999843
 40
0.7695312499999845
 40
0.7695312499999845
 40
0.7734374999999846
 40
0.7734374999999846
 40
0.781249999999985
 40
0.781249999999985
 40
0.7890624999999853
 40
0.7890624999999853
 40
0.7929687499999858
 40
0.7929687499999858
 40
0.7968749999999861
 40
0.7968749999999861
 40
0.8124999999999873
 40
0.8124999999999873
 40
0.820312499999988
 40
0.820312499999988
 40
0.8242187499999885
 40
0.8242187499999885
 40
0.8281249999999888
 40
0.8437499999999898
 40
0.8749999999999918
 40
0.8749999999999918
 40
1.0
 40
1.0
 40
1.0
 40
1.0
 10
30.31478913089723
 20
2.345586076451837
 30
0.0
 10
30.86581484424867
 20
2.345610824565119
 30
0.0
 10
31.4138924107497
 20
2.36850865569249
 30
0.0
 10
32.50428504092487
 20
2.459012472667661
 30
0.0
 10
33.04659755113891
 20
2.526638269436819
 30
0.0
 10
34.12544890993583
 20
2.706684592845924
 30
0.0
 10
34.66200646958095
 20
2.818959950435266
 30
0.0
 10
35.32902599066612
 20
2.98783533361042
 30
0.0
 10
35.4622780554717
 20
3.023055135844373
 30
0.0
 10
35.72768001825212
 20
3.096169241402742
 30
0.0
 10
35.85991899775347
 20
3.13408585540577
 30
0.0
 10
36.25526576087515
 20
3.251867796340704
 30
0.0
 10
36.77873703735003
 20
3.419674242538018
 30
0.0
 10
37.29487685599398
 20
3.609055418236828
 30
0.0
 10
37.679227134851
 20
3.759197386187993
 30
0.0
 10
37.80688450055904
 20
3.810596595406171
 30
0.0
 10
38.06127513744397
 20
3.916114403355879
 30
0.0
 10
38.18799114015212
 20
3.970225441760597
 30
0.0
 10
38.56624703739727
 20
4.136412903987358
 30
0.0
 10
38.81610509496561
 20
4.252424183046186
 30
0.0
 10
39.18722213087161
 20
4.434192279460961
 30
0.0
 10
39.31028158085265
 20
4.496056194733801
 30
0.0
 10
39.49390042285079
 20
4.590765844895491
 30
0.0
 10
39.55494484104477
 20
4.622654967889727
 30
0.0
 10
39.64626820490981
 20
4.670968438210852
 30
0.0
 10
39.67666484247042
 20
4.687150839753437
 30
0.0
 10
39.72218137561754
 20
4.711535021597584
 30
0.0
 10
39.73738960929388
 20
4.719608951958576
 30
0.0
 10
39.76751303987857
 20
4.736196744228272
 30
0.0
 10
39.78230615444752
 20
4.744893886456193
 30
0.0
 10
39.85511403215204
 20
4.790117627325706
 30
0.0
 10
39.90952231268694
 20
4.832058582268055
 30
0.0
 10
39.97256807995788
 20
4.891938027874798
 30
0.0
 10
39.98488272863055
 20
4.90425381657097
 30
0.0
 10
40.00873047995599
 20
4.929355079844375
 30
0.0
 10
40.02029407883826
 20
4.942170043449153
 30
0.0
 10
40.05391416131815
 20
4.981400508017471
 30
0.0
 10
40.07490579452337
 20
5.008597280534358
 30
0.0
 10
40.11405773609319
 20
5.06506814419614
 30
0.0
 10
40.1322325730051
 20
5.094331575871039
 30
0.0
 10
40.15733593872574
 20
5.139810682106849
 30
0.0
 10
40.16536124648338
 20
5.155277189731757
 30
0.0
 10
40.18057704620249
 20
5.186543617606353
 30
0.0
 10
40.18774927534079
 20
5.202309316528908
 30
0.0
 10
40.22146602522216
 20
5.281789909694514
 30
0.0
 10
40.24165754062688
 20
5.347436716680049
 30
0.0
 10
40.26187880740478
 20
5.448967942356515
 30
0.0
 10
40.26691727810299
 20
5.483480330621576
 30
0.0
 10
40.27171942853798
 20
5.535426380596701
 30
0.0
 10
40.27272642295497
 20
5.552774168964079
 30
0.0
 10
40.27455706318196
 20
5.587479763059273
 30
0.0
 10
40.2791334066365
 20
5.674243762344929
 30
0.0
 10
40.29102841378735
 20
5.89983035093761
 30
0.0
 10
40.3019991381337
 20
6.108064632164729
 30
0.0
 10
40.33854006348519
 20
6.802180441230722
 30
0.0
 10
40.36767189678265
 20
7.357478603673512
 30
0.0
 10
40.39667217762388
 20
7.912783582383973
 30
0.0
  0
SPLINE
  5
74
330
1F
100
AcDbEntity
  8
0
  6
Continuous
 62
     7
370
    25
100
AcDbSpline
210
0.0
220
0.0
230
1.0
 70
     8
 71
     3
 72
    63
 73
    59
 74
     0
 42
0.000000001
 43
0.00000001
 40
0.0
 40
0.0
 40
0.0
 40
0.0
 40
0.1250000000000072
 40
0.1250000000000072
 40
0.156250000000009
 40
0.17187500000001
 40
0.17187500000001
 40
0.1757812500000101
 40
0.1757812500000101
 40
0.1796875000000103
 40
0.1796875000000103
 40
0.1835937500000105
 40
0.1835937500000105
 40
0.1875000000000106
 40
0.1875000000000106
 40
0.2031250000000115
 40
0.2031250000000115
 40
0.2109375000000118
 40
0.2109375000000118
 40
0.2148437500000119
 40
0.2148437500000119
 40
0.218750000000012
 40
0.218750000000012
 40
0.2343750000000123
 40
0.2343750000000123
 40
0.2421875000000123
 40
0.2421875000000123
 40
0.2460937500000123
 40
0.2460937500000123
 40
0.2500000000000123
 40
0.2500000000000123
 40
0.2539062500000123
 40
0.2539062500000123
 40
0.2578125000000123
 40
0.2578125000000123
 40
0.265625000000012
 40
0.265625000000012
 40
0.2812500000000118
 40
0.2812500000000118
 40
0.3125000000000113
 40
0.3125000000000113
 40
0.3437500000000107
 40
0.3437500000000107
 40
0.3750000000000102
 40
0.3750000000000102
 40
0.500000000000008
 40
0.500000000000008
 40
0.6250000000000059
 40
0.6250000000000059
 40
0.7500000000000038
 40
0.7500000000000038
 40
0.7812500000000034
 40
0.7812500000000034
 40
0.812500000000003
 40
0.812500000000003
 40
0.875000000000002
 40
0.875000000000002
 40
1.0
 40
1.0
 40
1.0
 40
1.0
 10
20.23290610482704
 20
7.912783582383943
 30
0.0
 10
20.26174704064658
 20
7.36053000509613
 30
0.0
 10
20.29071788330585
 20
6.808283627770409
 30
0.0
 10
20.32705676642559
 20
6.11798260239704
 30
0.0
 10
20.33796681624542
 20
5.910892759509205
 30
0.0
 10
20.34888615542445
 20
5.703803431475136
 30
0.0
 10
20.35343694930835
 20
5.617516270721784
 30
0.0
 10
20.35434111825235
 20
5.600258506590269
 30
0.0
 10
20.35615395157895
 20
5.565743227482821
 30
0.0
 10
20.35696819465813
 20
5.548480479296663
 30
0.0
 10
20.35969647510809
 20
5.514015937968598
 30
0.0
 10
20.36151173425129
 20
5.496808670138233
 30
0.0
 10
20.36604050881254
 20
5.462443919470556
 30
0.0
 10
20.36876669803959
 20
5.445245992221405
 30
0.0
 10
20.38459047703956
 20
5.359881852876323
 30
0.0
 10
20.40397291049806
 20
5.294219298820109
 30
0.0
 10
20.44262111034019
 20
5.199468979953521
 30
0.0
 10
20.45712866963337
 20
5.168520824104309
 30
0.0
 10
20.48132974277931
 20
5.123052491572662
 30
0.0
 10
20.48980613693836
 20
5.108056438466988
 30
0.0
 10
20.50759443054389
 20
5.078391002894378
 30
0.0
 10
20.5169395966618
 20
5.063672436111752
 30
0.0
 10
20.56525947947902
 20
4.991712120404817
 30
0.0
 10
20.60908324723924
 20
4.939174326056444
 30
0.0
 10
20.68213926429794
 20
4.867493365810919
 30
0.0
 10
20.70771945689774
 20
4.844795244231075
 30
0.0
 10
20.74798343492192
 20
4.812591401510656
 30
0.0
 10
20.76172032193103
 20
4.802163958124252
 30
0.0
 10
20.78983304829291
 20
4.781931035206949
 30
0.0
 10
20.80424107563771
 20
4.772113634340796
 30
0.0
 10
20.83339928192194
 20
4.753335306506147
 30
0.0
 10
20.84818240137814
 20
4.744348583019705
 30
0.0
 10
20.87814838701253
 20
4.72716367221749
 30
0.0
 10
20.89336800750437
 20
4.719037986073398
 30
0.0
 10
20.93900265201358
 20
4.6946131575087
 30
0.0
 10
20.96943437678857
 20
4.678346958826632
 30
0.0
 10
21.06089251549864
 20
4.62986982460856
 30
0.0
 10
21.12202740493243
 20
4.597872866698117
 30
0.0
 10
21.30591948320183
 20
4.502843452732693
 30
0.0
 10
21.42916311132343
 20
4.440770541686372
 30
0.0
 10
21.67694413293445
 20
4.319176787522462
 30
0.0
 10
21.80148273367067
 20
4.259658325807205
 30
0.0
 10
22.05186082164816
 20
4.143187517385687
 30
0.0
 10
22.17762707096605
 20
4.086271078287503
 30
0.0
 10
22.80823636015147
 20
3.808744199457176
 30
0.0
 10
23.31942593145389
 20
3.608795081409027
 30
0.0
 10
24.35491422526268
 20
3.252069657965043
 30
0.0
 10
24.87919757137477
 20
3.095242712967918
 30
0.0
 10
25.94095005884723
 20
2.825014050058999
 30
0.0
 10
26.47841140083561
 20
2.711586646210587
 30
0.0
 10
27.15859497426352
 20
2.59732444048358
 30
0.0
 10
27.29508207179744
 20
2.57585349258585
 30
0.0
 10
27.56808505871179
 20
2.535820057346186
 30
0.0
 10
27.70470055877473
 20
2.517239859970506
 30
0.0
 10
28.1148882414287
 20
2.465798277667073
 30
0.0
 10
28.38880190877148
 20
2.437239711472263
 30
0.0
 10
29.21189811229582
 20
2.368639991694804
 30
0.0
 10
29.76243077651706
 20
2.345610889722644
 30
0.0
 10
30.31478913089725
 20
2.345586076451838
 30
0.0
  0
LINE
  5
75
330
1F
100
AcDbEntity
  8
0
  6
Continuous
 62
     7
370
    25
100
AcDbLine
 10
40.3966721776
 20
7.9127835824
 30
0.0
 11
20.2329061048
 21
7.9127835824
 31
0.0
  0
LINE
  5
76
330
1F
100
AcDbEntity
  8
0
  6
Continuous
 62
     7
370
    25
100
AcDbLine
 10
30.8147891286
 20
1.5955860755
 30
0.0
 11
29.8147891286
 21
1.5955860755
 31
0.0
  0
LINE
  5
77
330
1F
100
AcDbEntity
  8
0
  6
Continuous
 62
     7
370
    25
100
AcDbLine
 10
30.8147891286
 20
1.351590271
 30
0.0
 11
30.8147891286
 21
1.5955860755
 31
0.0
  0
SPLINE
  5
78
330
1F
100
AcDbEntity
  8
0
  6
Continuous
 62
     7
370
    25
100
AcDbSpline
210
0.0
220
0.0
230
1.0
 70
     8
 71
     3
 72
    16
 73
    12
 74
     0
 42
0.000000001
 43
0.00000001
 40
0.0
 40
0.0
 40
0.0
 40
0.0
 40
0.4999999999999993
 40
0.4999999999999993
 40
0.6249999999999996
 40
0.6249999999999996
 40
0.7499999999999999
 40
0.7499999999999999
 40
0.8749999999999999
 40
0.8749999999999999
 40
1.0
 40
1.0
 40
1.0
 40
1.0
 10
30.81478912857694
 20
1.351590270967913
 30
0.0
 10
33.35645409709723
 20
1.412550304295288
 30
0.0
 10
35.88345678206852
 20
1.941213333316902
 30
0.0
 10
38.83072645122185
 20
3.150119141065819
 30
0.0
 10
39.4103270762439
 20
3.419422858299385
 30
0.0
 10
40.54201364028962
 20
4.009735968708506
 30
0.0
 10
41.03838139981269
 20
4.475413645657687
 30
0.0
 10
41.3699050747297
 20
5.694405402068573
 30
0.0
 10
41.31797435156541
 20
6.384399906974113
 30
0.0
 10
41.38158042297167
 20
7.596896676751148
 30
0.0
 10
41.41503055455095
 20
8.237608440258251
 30
0.0
 10
41.45012778200638
 20
8.912783582383947
 30
0.0
  0
LINE
  5
79
330
1F
100
AcDbEntity
  8
0
  6
Continuous
 62
     7
370
    25
100
AcDbLine
 10
41.450127782
 20
8.9127835824
 30
0.0
 11
19.1794504752
 21
8.9127835824
 31
0.0
  0
SPLINE
  5
7A
330
1F
100
AcDbEntity
  8
0
  6
Continuous
 62
     7
370
    25
100
AcDbSpline
210
0.0
220
0.0
230
1.0
 70
     8
 71
     3
 72
    16
 73
    12
 74
     0
 42
0.000000001
 43
0.00000001
 40
0.0
 40
0.0
 40
0.0
 40
0.0
 40
0.1250000000000003
 40
0.1250000000000003
 40
0.2500000000000006
 40
0.2500000000000006
 40
0.3750000000000009
 40
0.3750000000000009
 40
0.5000000000000012
 40
0.5000000000000012
 40
1.0
 40
1.0
 40
1.0
 40
1.0
 10
19.17945047515112
 20
8.912783582383945
 30
0.0
 10
19.21459674675202
 20
8.23666496436789
 30
0.0
 10
19.2480980005978
 20
7.594978726997169
 30
0.0
 10
19.31181047277919
 20
6.380471013546398
 30
0.0
 10
19.25884110724175
 20
5.688235865751444
 30
0.0
 10
19.59611135586861
 20
4.466684436931202
 30
0.0
 10
20.09979866483434
 20
4.002874344729158
 30
0.0
 10
21.23195903172299
 20
3.413284813427184
 30
0.0
 10
21.81034202976464
 20
3.144965595327383
 30
0.0
 10
24.75929436596907
 20
1.937573814461253
 30
0.0
 10
27.26072468318385
 20
1.412957799411401
 30
0.0
 10
29.81478912857759
 20
1.351603127897843
 30
0.0
  0
LINE
  5
7B
330
1F
100
AcDbEntity
  8
0
  6
Continuous
 62
     7
370
    25
100
AcDbLine
 10
29.8147891286
 20
1.5955860755
 30
0.0
 11
29.8147891286
 21
1.3516041216
 31
0.0
  0
LINE
  5
7C
330
1F
100
AcDbEntity
  8
0
  6
Continuous
 62
     7
370
    25
100
AcDbLine
 10
39.5151409102
 20
-1.1574573603
 30
0.0
 11
39.5996645626
 21
-1.3387189177
 31
0.0
  0
LINE
  5
7D
330
1F
100
AcDbEntity
  8
0
  6
Continuous
 62
     7
370
    25
100
AcDbLine
 10
39.5996645626
 20
-1.3387189177
 30
0.0
 11
39.3730876158
 21
-1.4443734831
 31
0.0
  0
LINE
  5
7E
330
1F
100
AcDbEntity
  8
0
  6
Continuous
 62
     7
370
    25
100
AcDbLine
 10
39.3730876158
 20
-1.4443734831
 30
0.0
 11
39.2885639635
 21
-1.2631119257
 31
0.0
  0
LINE
  5
7F
330
1F
100
AcDbEntity
  8
0
  6
Continuous
 62
     7
370
    25
100
AcDbLine
 10
39.2885639635
 20
-1.2631119257
 30
0.0
 11
39.5151409102
 21
-1.1574573603
 31
0.0
  0
LINE
  5
80
330
1F
100
AcDbEntity
  8
0
  6
Continuous
 62
     7
370
    25
100
AcDbLine
 10
37.9291022829
 20
-1.8970393183
 30
0.0
 11
38.1556792297
 21
-1.7913847529
 31
0.0
  0
LINE
  5
81
330
1F
100
AcDbEntity
  8
0
  6
Continuous
 62
     7
370
    25
100
AcDbLine
 10
38.1556792297
 20
-1.7913847529
 30
0.0
 11
38.240202882
 21
-1.9726463103
 31
0.0
  0
LINE
  5
82
330
1F
100
AcDbEntity
  8
0
  6
Continuous
 62
     7
370
    25
100
AcDbLine
 10
38.240202882
 20
-1.9726463103
 30
0.0
 11
38.0136259352
 21
-2.0783008757
 31
0.0
  0
LINE
  5
83
330
1F
100
AcDbEntity
  8
0
  6
Continuous
 62
     7
370
    25
100
AcDbLine
 10
38.0136259352
 20
-2.0783008757
 30
0.0
 11
37.9291022829
 21
-1.8970393183
 31
0.0
  0
LINE
  5
84
330
1F
100
AcDbEntity
  8
0
  6
Continuous
 62
     7
370
    25
100
AcDbLine
 10
21.5204985465
 20
-4.6915696714
 30
0.0
 11
21.7470754933
 21
-4.7972242368
 31
0.0
  0
LINE
  5
85
330
1F
100
AcDbEntity
  8
0
  6
Continuous
 62
     7
370
    25
100
AcDbLine
 10
21.6050221989
 20
-4.510308114
 30
0.0
 11
21.5204985465
 21
-4.6915696714
 31
0.0
  0
LINE
  5
86
330
1F
100
AcDbEntity
  8
0
  6
Continuous
 62
     7
370
    25
100
AcDbLine
 10
21.8315991456
 20
-4.6159626794
 30
0.0
 11
21.6050221989
 21
-4.510308114
 31
0.0
  0
LINE
  5
87
330
1F
100
AcDbEntity
  8
0
  6
Continuous
 62
     7
370
    25
100
AcDbLine
 10
21.7470754933
 20
-4.7972242368
 30
0.0
 11
21.8315991456
 21
-4.6159626794
 31
0.0
  0
LINE
  5
88
330
1F
100
AcDbEntity
  8
0
  6
Continuous
 62
     7
370
    25
100
AcDbLine
 10
21.4288916512
 20
-1.3387189177
 30
0.0
 11
21.655468598
 21
-1.4443734831
 31
0.0
  0
LINE
  5
89
330
1F
100
AcDbEntity
  8
0
  6
Continuous
 62
     7
370
    25
100
AcDbLine
 10
21.5134153035
 20
-1.1574573603
 30
0.0
 11
21.4288916512
 21
-1.3387189177
 31
0.0
  0
LINE
  5
8A
330
1F
100
AcDbEntity
  8
0
  6
Continuous
 62
     7
370
    25
100
AcDbLine
 10
21.7399922503
 20
-1.2631119257
 30
0.0
 11
21.5134153035
 21
-1.1574573603
 31
0.0
  0
LINE
  5
8B
330
1F
100
AcDbEntity
  8
0
  6
Continuous
 62
     7
370
    25
100
AcDbLine
 10
21.655468598
 20
-1.4443734831
 30
0.0
 11
21.7399922503
 21
-1.2631119257
 31
0.0
  0
LINE
  5
8C
330
1F
100
AcDbEntity
  8
0
  6
Continuous
 62
     7
370
    25
100
AcDbLine
 10
20.3876138127
 20
-4.1632968442
 30
0.0
 11
20.4721374651
 21
-3.9820352868
 31
0.0
  0
LINE
  5
8D
330
1F
100
AcDbEntity
  8
0
  6
Continuous
 62
     7
370
    25
100
AcDbLine
 10
20.161036866
 20
-4.0576422788
 30
0.0
 11
20.3876138127
 21
-4.1632968442
 31
0.0
  0
LINE
  5
8E
330
1F
100
AcDbEntity
  8
0
  6
Continuous
 62
     7
370
    25
100
AcDbLine
 10
20.2455605183
 20
-3.8763807214
 30
0.0
 11
20.161036866
 21
-4.0576422788
 31
0.0
  0
LINE
  5
8F
330
1F
100
AcDbEntity
  8
0
  6
Continuous
 62
     7
370
    25
100
AcDbLine
 10
20.4721374651
 20
-3.9820352868
 30
0.0
 11
20.2455605183
 21
-3.8763807214
 31
0.0
  0
LINE
  5
90
330
1F
100
AcDbEntity
  8
0
  6
Continuous
 62
     7
370
    25
100
AcDbLine
 10
22.8728769841
 20
-1.7913847529
 30
0.0
 11
22.7883533318
 21
-1.9726463103
 31
0.0
  0
LINE
  5
91
330
1F
100
AcDbEntity
  8
0
  6
Continuous
 62
     7
370
    25
100
AcDbLine
 10
23.0994539309
 20
-1.8970393183
 30
0.0
 11
22.8728769841
 21
-1.7913847529
 31
0.0
  0
LINE
  5
92
330
1F
100
AcDbEntity
  8
0
  6
Continuous
 62
     7
370
    25
100
AcDbLine
 10
23.0149302785
 20
-2.0783008757
 30
0.0
 11
23.0994539309
 21
-1.8970393183
 31
0.0
  0
LINE
  5
93
330
1F
100
AcDbEntity
  8
0
  6
Continuous
 62
     7
370
    25
100
AcDbLine
 10
22.7883533318
 20
-1.9726463103
 30
0.0
 11
23.0149302785
 21
-2.0783008757
 31
0.0
  0
SPLINE
  5
94
330
1F
100
AcDbEntity
  8
0
  6
Continuous
 62
     7
370
    25
100
AcDbSpline
210
0.0
220
0.0
230
1.0
 70
     8
 71
     3
 72
    28
 73
    24
 74
     0
 42
0.000000001
 43
0.00000001
 40
0.0
 40
0.0
 40
0.0
 40
0.0
 40
0.499999999999998
 40
0.499999999999998
 40
0.6249999999999979
 40
0.6249999999999979
 40
0.7499999999999987
 40
0.7499999999999987
 40
0.7656249999999989
 40
0.7656249999999989
 40
0.7812499999999991
 40
0.7812499999999991
 40
0.7968749999999992
 40
0.8046874999999993
 40
0.8046874999999993
 40
0.8124999999999994
 40
0.8124999999999994
 40
0.8437499999999994
 40
0.8593749999999994
 40
0.8593749999999994
 40
0.8749999999999994
 40
0.8749999999999994
 40
1.0
 40
1.0
 40
1.0
 40
1.0
 10
30.51427810688125
 20
-7.196185392826595
 30
0.0
 10
33.10645814446695
 20
-7.196181558530666
 30
0.0
 10
35.69384334541829
 20
-6.752804356233971
 30
0.0
 10
38.75405300122116
 20
-5.670047650956288
 30
0.0
 10
39.35748203139026
 20
-5.42718639416617
 30
0.0
 10
40.54202793430979
 20
-4.890697481457776
 30
0.0
 10
41.06643137306075
 20
-4.439139705186686
 30
0.0
 10
41.27942485374856
 20
-3.746609992534742
 30
0.0
 10
41.29822784125855
 20
-3.669358784856867
 30
0.0
 10
41.3268800409294
 20
-3.509953715981484
 30
0.0
 10
41.34083977515181
 20
-3.349380186372856
 30
0.0
 10
41.34096055411095
 20
-3.34723491839515
 30
0.0
 10
41.34420796026977
 20
-3.28558945894757
 30
0.0
 10
41.35219059933784
 20
-3.133889236803542
 30
0.0
 10
41.35856463269637
 20
-3.01274358588609
 30
0.0
 10
41.36478312554836
 20
-2.894540494748271
 30
0.0
 10
41.3734528829299
 20
-2.729736424689367
 30
0.0
 10
41.38505659187975
 20
-2.50917188742148
 30
0.0
 10
41.39846030096751
 20
-2.254407870357783
 30
0.0
 10
41.40779610705665
 20
-2.076965307916251
 30
0.0
 10
41.40987828320063
 20
-2.037389939942948
 30
0.0
 10
41.48056095312104
 20
-0.6939867503414551
 30
0.0
 10
41.51470613651666
 20
-0.0450156813794068
 30
0.0
 10
41.52016746337861
 20
0.0587902880100257
 30
0.0
  0
LINE
  5
95
330
1F
100
AcDbEntity
  8
0
  6
Continuous
 62
     7
370
    25
100
AcDbLine
 10
41.5201674634
 20
0.058790288
 30
0.0
 11
19.5083887504
 21
0.058790288
 31
0.0
  0
SPLINE
  5
96
330
1F
100
AcDbEntity
  8
0
  6
Continuous
 62
     7
370
    25
100
AcDbSpline
210
0.0
220
0.0
230
1.0
 70
     8
 71
     3
 72
    22
 73
    18
 74
     0
 42
0.000000001
 43
0.00000001
 40
0.0
 40
0.0
 40
0.0
 40
0.0
 40
0.0624999999999998
 40
0.0937499999999998
 40
0.1093749999999998
 40
0.1093749999999998
 40
0.1249999999999997
 40
0.1249999999999997
 40
0.1874999999999996
 40
0.1874999999999996
 40
0.2499999999999996
 40
0.2499999999999996
 40
0.3749999999999997
 40
0.3749999999999997
 40
0.4999999999999999
 40
0.4999999999999999
 40
1.0
 40
1.0
 40
1.0
 40
1.0
 10
19.50838875038389
 20
0.0587902880100289
 30
0.0
 10
19.51057861923168
 20
0.0171664364577804
 30
0.0
 10
19.52512412208802
 20
-0.2592906992976531
 30
0.0
 10
19.56180009969357
 20
-0.956361401593011
 30
0.0
 10
19.58174113815447
 20
-1.335363997701169
 30
0.0
 10
19.59597355542714
 20
-1.605867508308864
 30
0.0
 10
19.60651050638394
 20
-1.806134329284462
 30
0.0
 10
19.63202577520362
 20
-2.291081126461851
 30
0.0
 10
19.64560832754701
 20
-2.549243297149011
 30
0.0
 10
19.68083736671755
 20
-3.218918491529387
 30
0.0
 10
19.68175509081982
 20
-3.546370615042625
 30
0.0
 10
19.98749298439009
 20
-4.480687664049912
 30
0.0
 10
20.54476482194707
 20
-4.918957012876252
 30
0.0
 10
21.72875252122519
 20
-5.451231445024598
 30
0.0
 10
22.33735671165419
 20
-5.694057474250482
 30
0.0
 10
25.3766965463949
 20
-6.760125080217574
 30
0.0
 10
27.9300008001008
 20
-7.196181570226917
 30
0.0
 10
30.51427810688124
 20
-7.196185392833326
 30
0.0
  0
LINE
  5
97
330
1F
100
AcDbEntity
  8
0
  6
Continuous
 62
     7
370
    25
100
AcDbLine
 10
40.8675193478
 20
-4.0576422788
 30
0.0
 11
40.640942401
 21
-4.1632968442
 31
0.0
  0
LINE
  5
98
330
1F
100
AcDbEntity
  8
0
  6
Continuous
 62
     7
370
    25
100
AcDbLine
 10
40.640942401
 20
-4.1632968442
 30
0.0
 11
40.5564187487
 21
-3.9820352868
 31
0.0
  0
LINE
  5
99
330
1F
100
AcDbEntity
  8
0
  6
Continuous
 62
     7
370
    25
100
AcDbLine
 10
40.5564187487
 20
-3.9820352868
 30
0.0
 11
40.7829956954
 21
-3.8763807214
 31
0.0
  0
LINE
  5
9A
330
1F
100
AcDbEntity
  8
0
  6
Continuous
 62
     7
370
    25
100
AcDbLine
 10
40.7829956954
 20
-3.8763807214
 30
0.0
 11
40.8675193478
 21
-4.0576422788
 31
0.0
  0
LINE
  5
9B
330
1F
100
AcDbEntity
  8
0
  6
Continuous
 62
     7
370
    25
100
AcDbLine
 10
39.4235340149
 20
-4.510308114
 30
0.0
 11
39.5080576672
 21
-4.6915696714
 31
0.0
  0
LINE
  5
9C
330
1F
100
AcDbEntity
  8
0
  6
Continuous
 62
     7
370
    25
100
AcDbLine
 10
39.5080576672
 20
-4.6915696714
 30
0.0
 11
39.2814807205
 21
-4.7972242368
 31
0.0
  0
LINE
  5
9D
330
1F
100
AcDbEntity
  8
0
  6
Continuous
 62
     7
370
    25
100
AcDbLine
 10
39.2814807205
 20
-4.7972242368
 30
0.0
 11
39.1969570681
 21
-4.6159626794
 31
0.0
  0
LINE
  5
9E
330
1F
100
AcDbEntity
  8
0
  6
Continuous
 62
     7
370
    25
100
AcDbLine
 10
39.1969570681
 20
-4.6159626794
 30
0.0
 11
39.4235340149
 21
-4.510308114
 31
0.0
  0
MTEXT
  5
A0
330
1F
100
AcDbEntity
  8
0
  6
Continuous
 62
     7
100
AcDbMText
 10
19.1794504752
 20
-7.236325802
 30
0.0
 40
0.1903
 41
0.0
 71
     1
 72
     1
  1
SOLIDWORKS Educational Product.
  7
SLDTEXTSTYLE0
 73
     1
 44
1.0
  0
MTEXT
  5
A1
330
1F
100
AcDbEntity
  8
0
  6
Continuous
 62
     7
100
AcDbMText
 10
19.1794504752
 20
-7.521775802
 30
0.0
 40
0.1903
 41
0.0
 71
     1
 72
     1
  1
For Instructional Use Only.
  7
SLDTEXTSTYLE0
 73
     1
 44
1.0
  0
ENDSEC
  0
SECTION
  2
OBJECTS
  0
DICTIONARY
  5
C
330
0
100
AcDbDictionary
281
     1
  3
ACAD_GROUP
350
D
  3
ACAD_LAYOUT
350
1A
  3
ACAD_MLINESTYLE
350
17
  3
ACAD_PLOTSETTINGS
350
19
  3
ACAD_PLOTSTYLENAME
350
E
  3
ACAD_SCALELIST
350
47
  0
DICTIONARY
  5
D
102
{ACAD_REACTORS
330
C
102
}
330
C
100
AcDbDictionary
281
     1
  0
DICTIONARY
  5
1A
102
{ACAD_REACTORS
330
C
102
}
330
C
100
AcDbDictionary
281
     1
  3
Layout1
350
1E
  3
Layout2
350
26
  3
Model
350
22
  0
DICTIONARY
  5
17
102
{ACAD_REACTORS
330
C
102
}
330
C
100
AcDbDictionary
281
     1
  3
Standard
350
18
  0
DICTIONARY
  5
19
102
{ACAD_REACTORS
330
C
102
}
330
C
100
AcDbDictionary
281
     1
  0
ACDBDICTIONARYWDFLT
  5
E
102
{ACAD_REACTORS
330
C
102
}
330
C
100
AcDbDictionary
281
     1
  3
Normal
350
F
100
AcDbDictionaryWithDefault
340
F
  0
DICTIONARY
  5
47
102
{ACAD_REACTORS
330
C
102
}
330
C
100
AcDbDictionary
281
     1
  3
A0
350
48
  3
A1
350
49
  3
A2
350
4A
  3
A3
350
4B
  3
A4
350
4C
  3
A5
350
4D
  3
A6
350
4E
  3
A7
350
4F
  3
A8
350
50
  3
A9
350
51
  3
B0
350
52
  3
B1
350
53
  3
B2
350
54
  3
B3
350
55
  3
B4
350
56
  3
B5
350
57
  3
B6
350
58
  3
B7
350
59
  3
B8
350
5A
  3
B9
350
5B
  3
C0
350
5C
  3
C1
350
5D
  3
C2
350
5E
  3
C3
350
5F
  3
C4
350
60
  3
C5
350
61
  3
C6
350
62
  3
C7
350
63
  3
C8
350
64
  3
C9
350
65
  3
D0
350
66
  3
D1
350
67
  3
D2
350
68
  0
LAYOUT
  5
1E
102
{ACAD_REACTORS
330
1A
102
}
330
1A
100
AcDbPlotSettings
  1

  2
none_device
  4

  6

 40
0.0
 41
0.0
 42
0.0
 43
0.0
 44
0.0
 45
0.0
 46
0.0
 47
0.0
 48
0.0
 49
0.0
140
0.0
141
0.0
142
1.0
143
1.0
 70
   688
 72
     0
 73
     0
 74
     5
  7

 75
    16
147
1.0
148
0.0
149
0.0
100
AcDbLayout
  1
Layout1
 70
     1
 71
     1
 10
0.0
 20
0.0
 11
12.0
 21
9.0
 12
0.0
 22
0.0
 32
0.0
 14
1.0000000000E+20
 24
1.0000000000E+20
 34
1.0000000000E+20
 15
-1.0000000000E+20
 25
-1.0000000000E+20
 35
-1.0000000000E+20
146
0.0
 13
0.0
 23
0.0
 33
0.0
 16
1.0
 26
0.0
 36
0.0
 17
0.0
 27
1.0
 37
0.0
 76
     0
330
1B
  0
LAYOUT
  5
26
102
{ACAD_REACTORS
330
1A
102
}
330
1A
100
AcDbPlotSettings
  1

  2
none_device
  4

  6

 40
0.0
 41
0.0
 42
0.0
 43
0.0
 44
0.0
 45
0.0
 46
0.0
 47
0.0
 48
0.0
 49
0.0
140
0.0
141
0.0
142
1.0
143
1.0
 70
   688
 72
     0
 73
     0
 74
     5
  7

 75
    16
147
1.0
148
0.0
149
0.0
100
AcDbLayout
  1
Layout2
 70
     1
 71
     2
 10
0.0
 20
0.0
 11
0.0
 21
0.0
 12
0.0
 22
0.0
 32
0.0
 14
0.0
 24
0.0
 34
0.0
 15
0.0
 25
0.0
 35
0.0
146
0.0
 13
0.0
 23
0.0
 33
0.0
 16
1.0
 26
0.0
 36
0.0
 17
0.0
 27
1.0
 37
0.0
 76
     0
330
23
  0
LAYOUT
  5
22
102
{ACAD_REACTORS
330
1A
102
}
330
1A
100
AcDbPlotSettings
  1

  2
none_device
  4
ANSI_A_(11.00_x_8.50_Inches)
  6

 40
6.35
 41
19.05
 42
6.35000508
 43
19.05000254
 44
279.4
 45
215.9
 46
-242.4185718378
 47
78.2731831477
 48
0.0
 49
0.0
140
0.0
141
0.0
142
0.4874507835
143
1.0
 70
  1696
 72
     0
 73
     0
 74
     0
  7

 75
     0
147
0.5913241897
148
-39.4088153714
149
0.0
100
AcDbLayout
  1
Model
 70
     1
 71
     0
 10
0.0
 20
0.0
 11
12.0
 21
9.0
 12
0.0
 22
0.0
 32
0.0
 14
19.1794504752
 24
-7.1961853928
 34
0.0
 15
41.5201674634
 25
8.9127835824
 35
0.0
146
0.0
 13
0.0
 23
0.0
 33
0.0
 16
1.0
 26
0.0
 36
0.0
 17
0.0
 27
1.0
 37
0.0
 76
     0
330
1F
331
29
  0
MLINESTYLE
  5
18
102
{ACAD_REACTORS
330
17
102
}
330
17
100
AcDbMlineStyle
  2
Standard
 70
     0
  3

 62
   256
 51
90.0
 52
90.0
 71
     2
 49
0.5
 62
   256
  6
BYLAYER
 49
-0.5
 62
   256
  6
BYLAYER
  0
ACDBPLACEHOLDER
  5
F
102
{ACAD_REACTORS
330
E
102
}
330
E
  0
SCALE
  5
48
102
{ACAD_REACTORS
330
47
102
}
330
47
100
AcDbScale
 70
     0
300
1:1
140
1.0
141
1.0
290
     1
  0
SCALE
  5
49
102
{ACAD_REACTORS
330
47
102
}
330
47
100
AcDbScale
 70
     0
300
1:2
140
1.0
141
2.0
290
     0
  0
SCALE
  5
4A
102
{ACAD_REACTORS
330
47
102
}
330
47
100
AcDbScale
 70
     0
300
1:4
140
1.0
141
4.0
290
     0
  0
SCALE
  5
4B
102
{ACAD_REACTORS
330
47
102
}
330
47
100
AcDbScale
 70
     0
300
1:5
140
1.0
141
5.0
290
     0
  0
SCALE
  5
4C
102
{ACAD_REACTORS
330
47
102
}
330
47
100
AcDbScale
 70
     0
300
1:8
140
1.0
141
8.0
290
     0
  0
SCALE
  5
4D
102
{ACAD_REACTORS
330
47
102
}
330
47
100
AcDbScale
 70
     0
300
1:10
140
1.0
141
10.0
290
     0
  0
SCALE
  5
4E
102
{ACAD_REACTORS
330
47
102
}
330
47
100
AcDbScale
 70
     0
300
1:16
140
1.0
141
16.0
290
     0
  0
SCALE
  5
4F
102
{ACAD_REACTORS
330
47
102
}
330
47
100
AcDbScale
 70
     0
300
1:20
140
1.0
141
20.0
290
     0
  0
SCALE
  5
50
102
{ACAD_REACTORS
330
47
102
}
330
47
100
AcDbScale
 70
     0
300
1:30
140
1.0
141
30.0
290
     0
  0
SCALE
  5
51
102
{ACAD_REACTORS
330
47
102
}
330
47
100
AcDbScale
 70
     0
300
1:40
140
1.0
141
40.0
290
     0
  0
SCALE
  5
52
102
{ACAD_REACTORS
330
47
102
}
330
47
100
AcDbScale
 70
     0
300
1:50
140
1.0
141
50.0
290
     0
  0
SCALE
  5
53
102
{ACAD_REACTORS
330
47
102
}
330
47
100
AcDbScale
 70
     0
300
1:100
140
1.0
141
100.0
290
     0
  0
SCALE
  5
54
102
{ACAD_REACTORS
330
47
102
}
330
47
100
AcDbScale
 70
     0
300
2:1
140
2.0
141
1.0
290
     0
  0
SCALE
  5
55
102
{ACAD_REACTORS
330
47
102
}
330
47
100
AcDbScale
 70
     0
300
4:1
140
4.0
141
1.0
290
     0
  0
SCALE
  5
56
102
{ACAD_REACTORS
330
47
102
}
330
47
100
AcDbScale
 70
     0
300
8:1
140
8.0
141
1.0
290
     0
  0
SCALE
  5
57
102
{ACAD_REACTORS
330
47
102
}
330
47
100
AcDbScale
 70
     0
300
10:1
140
10.0
141
1.0
290
     0
  0
SCALE
  5
58
102
{ACAD_REACTORS
330
47
102
}
330
47
100
AcDbScale
 70
     0
300
100:1
140
100.0
141
1.0
290
     0
  0
SCALE
  5
59
102
{ACAD_REACTORS
330
47
102
}
330
47
100
AcDbScale
 70
     0
300
1/128" = 1'-0"
140
0.0078125
141
12.0
290
     0
  0
SCALE
  5
5A
102
{ACAD_REACTORS
330
47
102
}
330
47
100
AcDbScale
 70
     0
300
1/64" = 1'-0"
140
0.015625
141
12.0
290
     0
  0
SCALE
  5
5B
102
{ACAD_REACTORS
330
47
102
}
330
47
100
AcDbScale
 70
     0
300
1/32" = 1'-0"
140
0.03125
141
12.0
290
     0
  0
SCALE
  5
5C
102
{ACAD_REACTORS
330
47
102
}
330
47
100
AcDbScale
 70
     0
300
1/16" = 1'-0"
140
0.0625
141
12.0
290
     0
  0
SCALE
  5
5D
102
{ACAD_REACTORS
330
47
102
}
330
47
100
AcDbScale
 70
     0
300
3/32" = 1'-0"
140
0.09375
141
12.0
290
     0
  0
SCALE
  5
5E
102
{ACAD_REACTORS
330
47
102
}
330
47
100
AcDbScale
 70
     0
300
1/8" = 1'-0"
140
0.125
141
12.0
290
     0
  0
SCALE
  5
5F
102
{ACAD_REACTORS
330
47
102
}
330
47
100
AcDbScale
 70
     0
300
3/16" = 1'-0"
140
0.1875
141
12.0
290
     0
  0
SCALE
  5
60
102
{ACAD_REACTORS
330
47
102
}
330
47
100
AcDbScale
 70
     0
300
1/4" = 1'-0"
140
0.25
141
12.0
290
     0
  0
SCALE
  5
61
102
{ACAD_REACTORS
330
47
102
}
330
47
100
AcDbScale
 70
     0
300
3/8" = 1'-0"
140
0.375
141
12.0
290
     0
  0
SCALE
  5
62
102
{ACAD_REACTORS
330
47
102
}
330
47
100
AcDbScale
 70
     0
300
1/2" = 1'-0"
140
0.5
141
12.0
290
     0
  0
SCALE
  5
63
102
{ACAD_REACTORS
330
47
102
}
330
47
100
AcDbScale
 70
     0
300
3/4" = 1'-0"
140
0.75
141
12.0
290
     0
  0
SCALE
  5
64
102
{ACAD_REACTORS
330
47
102
}
330
47
100
AcDbScale
 70
     0
300
1" = 1'-0"
140
1.0
141
12.0
290
     0
  0
SCALE
  5
65
102
{ACAD_REACTORS
330
47
102
}
330
47
100
AcDbScale
 70
     0
300
1-1/2" = 1'-0"
140
1.5
141
12.0
290
     0
  0
SCALE
  5
66
102
{ACAD_REACTORS
330
47
102
}
330
47
100
AcDbScale
 70
     0
300
3" = 1'-0"
140
3.0
141
12.0
290
     0
  0
SCALE
  5
67
102
{ACAD_REACTORS
330
47
102
}
330
47
100
AcDbScale
 70
     0
300
6" = 1'-0"
140
6.0
141
12.0
290
     0
  0
SCALE
  5
68
102
{ACAD_REACTORS
330
47
102
}
330
47
100
AcDbScale
 70
     0
300
1'-0" = 1'-0"
140
12.0
141
12.0
290
     0
  0
ENDSEC
  0
EOF
