  0
SECTION
  2
HEADER
  9
$ACADVER
  1
AC1027
  9
$ACADMAINTVER
 70
   105
  9
$DWGCODEPAGE
  3
ANSI_1252
  9
$LASTSAVEDBY
  1
Danny
  9
$REQUIREDVERSIONS
160
                 0
  9
$INSBASE
 10
0.0
 20
0.0
 30
0.0
  9
$EXTMIN
 10
0.125
 20
0.125
 30
0.0
  9
$EXTMAX
 10
10.9216612345
 20
8.388786238999998
 30
0.0
  9
$LIMMIN
 10
0.0
 20
0.0
  9
$LIMMAX
 10
11.0
 20
8.5
  9
$ORTHOMODE
 70
     0
  9
$REGENMODE
 70
     1
  9
$FILLMODE
 70
     1
  9
$QTEXTMODE
 70
     0
  9
$MIRRTEXT
 70
     1
  9
$LTSCALE
 40
1.0
  9
$ATTMODE
 70
     1
  9
$TEXTSIZE
 40
0.1377952756
  9
$TRACEWID
 40
0.05
  9
$TEXTSTYLE
  7
Standard
  9
$CLAYER
  8
0
  9
$CELTYPE
  6
ByLayer
  9
$CECOLOR
 62
   256
  9
$CELTSCALE
 40
1.0
  9
$DISPSILH
 70
     0
  9
$DIMSCALE
 40
1.0
  9
$DIMASZ
 40
0.13
  9
$DIMEXO
 40
0.05
  9
$DIMDLI
 40
0.38
  9
$DIMRND
 40
0.0
  9
$DIMDLE
 40
0.0
  9
$DIMEXE
 40
0.125
  9
$DIMTP
 40
0.0
  9
$DIMTM
 40
0.0
  9
$DIMTXT
 40
0.1377952756
  9
$DIMCEN
 40
0.09
  9
$DIMTSZ
 40
0.0
  9
$DIMTOL
 70
     0
  9
$DIMLIM
 70
     0
  9
$DIMTIH
 70
     1
  9
$DIMTOH
 70
     1
  9
$DIMSE1
 70
     0
  9
$DIMSE2
 70
     0
  9
$DIMTAD
 70
     1
  9
$DIMZIN
 70
     0
  9
$DIMBLK
  1

  9
$DIMASO
 70
     1
  9
$DIMSHO
 70
     1
  9
$DIMPOST
  1

  9
$DIMAPOST
  1

  9
$DIMALT
 70
     0
  9
$DIMALTD
 70
     2
  9
$DIMALTF
 40
25.4
  9
$DIMLFAC
 40
8.0
  9
$DIMTOFL
 70
     0
  9
$DIMTVP
 40
0.0
  9
$DIMTIX
 70
     0
  9
$DIMSOXD
 70
     0
  9
$DIMSAH
 70
     0
  9
$DIMBLK1
  1

  9
$DIMBLK2
  1

  9
$DIMSTYLE
  2
Standard
  9
$DIMCLRD
 70
     0
  9
$DIMCLRE
 70
     0
  9
$DIMCLRT
 70
     0
  9
$DIMTFAC
 40
1.0
  9
$DIMGAP
 40
0.06
  9
$DIMJUST
 70
     0
  9
$DIMSD1
 70
     0
  9
$DIMSD2
 70
     0
  9
$DIMTOLJ
 70
     1
  9
$DIMTZIN
 70
     0
  9
$DIMALTZ
 70
     0
  9
$DIMALTTZ
 70
     0
  9
$DIMUPT
 70
     0
  9
$DIMDEC
 70
     2
  9
$DIMTDEC
 70
     2
  9
$DIMALTU
 70
     2
  9
$DIMALTTD
 70
     2
  9
$DIMTXSTY
  7
Standard
  9
$DIMAUNIT
 70
     0
  9
$DIMADEC
 70
     2
  9
$DIMALTRND
 40
0.0
  9
$DIMAZIN
 70
     0
  9
$DIMDSEP
 70
    46
  9
$DIMATFIT
 70
     3
  9
$DIMFRAC
 70
     0
  9
$DIMLDRBLK
  1

  9
$DIMLUNIT
 70
     2
  9
$DIMLWD
 70
    -2
  9
$DIMLWE
 70
    -2
  9
$DIMTMOVE
 70
     0
  9
$DIMFXL
 40
1.0
  9
$DIMFXLON
 70
     0
  9
$DIMJOGANG
 40
0.7853981633974483
  9
$DIMTFILL
 70
     0
  9
$DIMTFILLCLR
 70
     0
  9
$DIMARCSYM
 70
     0
  9
$DIMLTYPE
  6

  9
$DIMLTEX1
  6

  9
$DIMLTEX2
  6

  9
$DIMTXTDIRECTION
 70
     0
  9
$LUNITS
 70
     2
  9
$LUPREC
 70
     3
  9
$SKETCHINC
 40
0.1
  9
$FILLETRAD
 40
0.5
  9
$AUNITS
 70
     0
  9
$AUPREC
 70
     2
  9
$MENU
  1
.
  9
$ELEVATION
 40
0.0
  9
$PELEVATION
 40
0.0
  9
$THICKNESS
 40
0.0
  9
$LIMCHECK
 70
     0
  9
$CHAMFERA
 40
0.0
  9
$CHAMFERB
 40
0.0
  9
$CHAMFERC
 40
0.0
  9
$CHAMFERD
 40
0.0
  9
$SKPOLY
 70
     0
  9
$TDCREATE
 40
2457737.361241007
  9
$TDUCREATE
 40
2457737.569574340
  9
$TDUPDATE
 40
2457737.362485081
  9
$TDUUPDATE
 40
2457737.570818415
  9
$TDINDWG
 40
0.0011600810
  9
$TDUSRTIMER
 40
0.0011600810
  9
$USRTIMER
 70
     1
  9
$ANGBASE
 50
0.0
  9
$ANGDIR
 70
     0
  9
$PDMODE
 70
     0
  9
$PDSIZE
 40
-1.0
  9
$PLINEWID
 40
0.0
  9
$SPLFRAME
 70
     0
  9
$SPLINETYPE
 70
     6
  9
$SPLINESEGS
 70
     8
  9
$HANDSEED
  5
1AC
  9
$SURFTAB1
 70
     6
  9
$SURFTAB2
 70
     6
  9
$SURFTYPE
 70
     6
  9
$SURFU
 70
     6
  9
$SURFV
 70
     6
  9
$UCSBASE
  2

  9
$UCSNAME
  2

  9
$UCSORG
 10
0.0
 20
0.0
 30
0.0
  9
$UCSXDIR
 10
1.0
 20
0.0
 30
0.0
  9
$UCSYDIR
 10
0.0
 20
1.0
 30
0.0
  9
$UCSORTHOREF
  2

  9
$UCSORTHOVIEW
 70
     0
  9
$UCSORGTOP
 10
0.0
 20
0.0
 30
0.0
  9
$UCSORGBOTTOM
 10
0.0
 20
0.0
 30
0.0
  9
$UCSORGLEFT
 10
0.0
 20
0.0
 30
0.0
  9
$UCSORGRIGHT
 10
0.0
 20
0.0
 30
0.0
  9
$UCSORGFRONT
 10
0.0
 20
0.0
 30
0.0
  9
$UCSORGBACK
 10
0.0
 20
0.0
 30
0.0
  9
$PUCSBASE
  2

  9
$PUCSNAME
  2

  9
$PUCSORG
 10
0.0
 20
0.0
 30
0.0
  9
$PUCSXDIR
 10
1.0
 20
0.0
 30
0.0
  9
$PUCSYDIR
 10
0.0
 20
1.0
 30
0.0
  9
$PUCSORTHOREF
  2

  9
$PUCSORTHOVIEW
 70
     0
  9
$PUCSORGTOP
 10
0.0
 20
0.0
 30
0.0
  9
$PUCSORGBOTTOM
 10
0.0
 20
0.0
 30
0.0
  9
$PUCSORGLEFT
 10
0.0
 20
0.0
 30
0.0
  9
$PUCSORGRIGHT
 10
0.0
 20
0.0
 30
0.0
  9
$PUCSORGFRONT
 10
0.0
 20
0.0
 30
0.0
  9
$PUCSORGBACK
 10
0.0
 20
0.0
 30
0.0
  9
$USERI1
 70
     0
  9
$USERI2
 70
     0
  9
$USERI3
 70
     0
  9
$USERI4
 70
     0
  9
$USERI5
 70
     0
  9
$USERR1
 40
0.0
  9
$USERR2
 40
0.0
  9
$USERR3
 40
0.0
  9
$USERR4
 40
0.0
  9
$USERR5
 40
0.0
  9
$WORLDVIEW
 70
     1
  9
$SHADEDGE
 70
     3
  9
$SHADEDIF
 70
    70
  9
$TILEMODE
 70
     1
  9
$MAXACTVP
 70
    64
  9
$PINSBASE
 10
0.0
 20
0.0
 30
0.0
  9
$PLIMCHECK
 70
     0
  9
$PEXTMIN
 10
1.000000000000000E+20
 20
1.000000000000000E+20
 30
1.000000000000000E+20
  9
$PEXTMAX
 10
-1.000000000000000E+20
 20
-1.000000000000000E+20
 30
-1.000000000000000E+20
  9
$PLIMMIN
 10
0.0
 20
0.0
  9
$PLIMMAX
 10
12.0
 20
9.0
  9
$UNITMODE
 70
     0
  9
$VISRETAIN
 70
     1
  9
$PLINEGEN
 70
     0
  9
$PSLTSCALE
 70
     1
  9
$TREEDEPTH
 70
  3020
  9
$CMLSTYLE
  2
Standard
  9
$CMLJUST
 70
     0
  9
$CMLSCALE
 40
1.0
  9
$PROXYGRAPHICS
 70
     1
  9
$MEASUREMENT
 70
     0
  9
$CELWEIGHT
370
    -1
  9
$ENDCAPS
280
     0
  9
$JOINSTYLE
280
     0
  9
$LWDISPLAY
290
     1
  9
$INSUNITS
 70
     1
  9
$HYPERLINKBASE
  1

  9
$STYLESHEET
  1

  9
$XEDIT
290
     1
  9
$CEPSNTYPE
380
     0
  9
$PSTYLEMODE
290
     1
  9
$FINGERPRINTGUID
  2
{8F378E32-7C1A-47D0-BADD-7E0902A5FFC0}
  9
$VERSIONGUID
  2
{E884A093-C114-4547-B194-E026F85EC972}
  9
$EXTNAMES
290
     1
  9
$PSVPSCALE
 40
0.0
  9
$OLESTARTUP
290
     0
  9
$SORTENTS
280
   127
  9
$INDEXCTL
280
     0
  9
$HIDETEXT
280
     0
  9
$XCLIPFRAME
280
     2
  9
$HALOGAP
280
     0
  9
$OBSCOLOR
 70
   257
  9
$OBSLTYPE
280
     0
  9
$INTERSECTIONDISPLAY
280
     0
  9
$INTERSECTIONCOLOR
 70
   257
  9
$DIMASSOC
280
     1
  9
$PROJECTNAME
  1

  9
$CAMERADISPLAY
290
     0
  9
$LENSLENGTH
 40
50.0
  9
$CAMERAHEIGHT
 40
0.0
  9
$STEPSPERSEC
 40
2.0
  9
$STEPSIZE
 40
6.0
  9
$3DDWFPREC
 40
2.0
  9
$PSOLWIDTH
 40
0.25
  9
$PSOLHEIGHT
 40
4.0
  9
$LOFTANG1
 40
1.570796326794896
  9
$LOFTANG2
 40
1.570796326794896
  9
$LOFTMAG1
 40
0.0
  9
$LOFTMAG2
 40
0.0
  9
$LOFTPARAM
 70
     7
  9
$LOFTNORMALS
280
     1
  9
$LATITUDE
 40
37.795
  9
$LONGITUDE
 40
-122.394
  9
$NORTHDIRECTION
 40
0.0
  9
$TIMEZONE
 70
 -8000
  9
$LIGHTGLYPHDISPLAY
280
     1
  9
$TILEMODELIGHTSYNCH
280
     1
  9
$CMATERIAL
347
152
  9
$SOLIDHIST
280
     0
  9
$SHOWHIST
280
     1
  9
$DWFFRAME
280
     2
  9
$DGNFRAME
280
     0
  9
$REALWORLDSCALE
290
     1
  9
$INTERFERECOLOR
 62
     1
  9
$INTERFEREOBJVS
345
174
  9
$INTERFEREVPVS
346
171
  9
$CSHADOW
280
     0
  9
$SHADOWPLANELOCATION
 40
0.0
  0
ENDSEC
  0
SECTION
  2
CLASSES
  0
CLASS
  1
ACDBDICTIONARYWDFLT
  2
AcDbDictionaryWithDefault
  3
ObjectDBX Classes
 90
        0
 91
        1
280
     0
281
     0
  0
CLASS
  1
VISUALSTYLE
  2
AcDbVisualStyle
  3
ObjectDBX Classes
 90
     4095
 91
       24
280
     0
281
     0
  0
CLASS
  1
MATERIAL
  2
AcDbMaterial
  3
ObjectDBX Classes
 90
     1153
 91
        3
280
     0
281
     0
  0
CLASS
  1
SCALE
  2
AcDbScale
  3
ObjectDBX Classes
 90
     1153
 91
       33
280
     0
281
     0
  0
CLASS
  1
TABLESTYLE
  2
AcDbTableStyle
  3
ObjectDBX Classes
 90
     4095
 91
        1
280
     0
281
     0
  0
CLASS
  1
MLEADERSTYLE
  2
AcDbMLeaderStyle
  3
ACDB_MLEADERSTYLE_CLASS
 90
     4095
 91
        1
280
     0
281
     0
  0
CLASS
  1
SUN
  2
AcDbSun
  3
SCENEOE
 90
     1153
 91
        0
280
     0
281
     0
  0
CLASS
  1
ACDBSECTIONVIEWSTYLE
  2
AcDbSectionViewStyle
  3
ObjectDBX Classes
 90
     1025
 91
        1
280
     0
281
     0
  0
CLASS
  1
ACDBDETAILVIEWSTYLE
  2
AcDbDetailViewStyle
  3
ObjectDBX Classes
 90
     1025
 91
        1
280
     0
281
     0
  0
CLASS
  1
DICTIONARYVAR
  2
AcDbDictionaryVar
  3
ObjectDBX Classes
 90
        0
 91
        9
280
     0
281
     0
  0
CLASS
  1
CELLSTYLEMAP
  2
AcDbCellStyleMap
  3
ObjectDBX Classes
 90
     1152
 91
        1
280
     0
281
     0
  0
ENDSEC
  0
SECTION
  2
TABLES
  0
TABLE
  2
VPORT
  5
8
330
0
100
AcDbSymbolTable
 70
     1
  0
VPORT
  5
29
330
8
100
AcDbSymbolTableRecord
100
AcDbViewportTableRecord
  2
*Active
 70
     0
 10
0.0
 20
0.0
 11
1.0
 21
1.0
 12
3.66532275724085
 22
5.993326189489707
 13
0.0
 23
0.0
 14
0.5
 24
0.5
 15
0.5
 25
0.5
 16
0.0
 26
0.0
 36
1.0
 17
0.0
 27
0.0
 37
0.0
 40
2.101544858924427
 41
2.195266272189348
 42
50.0
 43
0.0
 44
0.0
 50
0.0
 51
0.0
 71
     0
 72
  2000
 73
     1
 74
     3
 75
     0
 76
     0
 77
     0
 78
     0
281
     0
 65
     1
110
0.0
120
0.0
130
0.0
111
1.0
121
0.0
131
0.0
112
0.0
122
1.0
132
0.0
 79
     0
146
0.0
348
170
 60
     3
 61
     5
292
     1
282
     1
141
0.0
142
0.0
 63
   250
421
  3355443
1001
ACAD_NAV_VCDISPLAY
1070
     3
  0
ENDTAB
  0
TABLE
  2
LTYPE
  5
5
330
0
100
AcDbSymbolTable
 70
     7
  0
LTYPE
  5
14
330
5
100
AcDbSymbolTableRecord
100
AcDbLinetypeTableRecord
  2
ByBlock
 70
     0
  3

 72
    65
 73
     0
 40
0.0
  0
LTYPE
  5
15
330
5
100
AcDbSymbolTableRecord
100
AcDbLinetypeTableRecord
  2
ByLayer
 70
     0
  3

 72
    65
 73
     0
 40
0.0
  0
LTYPE
  5
16
330
5
100
AcDbSymbolTableRecord
100
AcDbLinetypeTableRecord
  2
Continuous
 70
     0
  3
Solid line
 72
    65
 73
     0
 40
0.0
  0
LTYPE
  5
6E
330
5
100
AcDbSymbolTableRecord
100
AcDbLinetypeTableRecord
  2
HIDDEN
 70
     0
  3
Hidden __ __ __ __ __ __ __ __ __ __ __ __ __ __
 72
    65
 73
     2
 40
0.075
 49
0.05
 74
     0
 49
-0.025
 74
     0
  0
LTYPE
  5
6F
330
5
100
AcDbSymbolTableRecord
100
AcDbLinetypeTableRecord
  2
PHANTOM
 70
     0
  3
Phantom ______  __  __  ______  __  __  ______
 72
    65
 73
     6
 40
0.5
 49
0.25
 74
     0
 49
-0.05
 74
     0
 49
0.05
 74
     0
 49
-0.05
 74
     0
 49
0.05
 74
     0
 49
-0.05
 74
     0
  0
LTYPE
  5
70
330
5
100
AcDbSymbolTableRecord
100
AcDbLinetypeTableRecord
  2
CENTER
 70
     0
  3
Center ____ _ ____ _ ____ _ ____ _ ____ _ ____
 72
    65
 73
     4
 40
0.4
 49
0.25
 74
     0
 49
-0.05
 74
     0
 49
0.05
 74
     0
 49
-0.05
 74
     0
  0
LTYPE
  5
71
330
5
100
AcDbSymbolTableRecord
100
AcDbLinetypeTableRecord
  2
CENTERX2
 70
     0
  3
Center (2x) ________  __  ________  __  _____
 72
    65
 73
     4
 40
0.8
 49
0.5
 74
     0
 49
-0.1
 74
     0
 49
0.1
 74
     0
 49
-0.1
 74
     0
  0
LTYPE
  5
72
330
5
100
AcDbSymbolTableRecord
100
AcDbLinetypeTableRecord
  2
DOT2
 70
     0
  3
Dot (.5x) ........................................
 72
    65
 73
     2
 40
0.025
 49
0.0
 74
     0
 49
-0.025
 74
     0
  0
ENDTAB
  0
TABLE
  2
LAYER
  5
2
330
0
100
AcDbSymbolTable
 70
     2
  0
LAYER
  5
10
102
{ACAD_XDICTIONARY
360
196
102
}
330
2
100
AcDbSymbolTableRecord
100
AcDbLayerTableRecord
  2
0
 70
     0
 62
     7
  6
Continuous
370
    -3
390
F
347
162
348
0
  0
LAYER
  5
73
102
{ACAD_XDICTIONARY
360
198
102
}
330
2
100
AcDbSymbolTableRecord
100
AcDbLayerTableRecord
  2
FORMAT
 70
     0
 62
     7
  6
Continuous
370
    -3
390
F
347
162
348
0
  0
ENDTAB
  0
TABLE
  2
STYLE
  5
3
330
0
100
AcDbSymbolTable
 70
     4
  0
STYLE
  5
11
330
3
100
AcDbSymbolTableRecord
100
AcDbTextStyleTableRecord
  2
Standard
 70
     0
 40
0.0
 41
1.0
 50
0.0
 71
     0
 42
0.1377952756
  3
txt
  4

  0
STYLE
  5
A2
330
3
100
AcDbSymbolTableRecord
100
AcDbTextStyleTableRecord
  2
SLDTEXTSTYLE0
 70
     0
 40
0.0
 41
0.75
 50
0.0
 71
     0
 42
0.1377952756
  3
TXT
  4

  0
STYLE
  5
AD
330
3
100
AcDbSymbolTableRecord
100
AcDbTextStyleTableRecord
  2
SLDTEXTSTYLE1
 70
     0
 40
0.0
 41
0.6875
 50
0.0
 71
     0
 42
0.1377952756
  3
TXT
  4

  0
STYLE
  5
B3
330
3
100
AcDbSymbolTableRecord
100
AcDbTextStyleTableRecord
  2
SLDTEXTSTYLE2
 70
     0
 40
0.0
 41
0.6944444444000001
 50
0.0
 71
     0
 42
0.1377952756
  3
TXT
  4

  0
ENDTAB
  0
TABLE
  2
VIEW
  5
6
330
0
100
AcDbSymbolTable
 70
     0
  0
ENDTAB
  0
TABLE
  2
UCS
  5
7
330
0
100
AcDbSymbolTable
 70
     0
  0
ENDTAB
  0
TABLE
  2
APPID
  5
9
330
0
100
AcDbSymbolTable
 70
     3
  0
APPID
  5
12
330
9
100
AcDbSymbolTableRecord
100
AcDbRegAppTableRecord
  2
ACAD
 70
     0
  0
APPID
  5
18F
330
9
100
AcDbSymbolTableRecord
100
AcDbRegAppTableRecord
  2
ACAD_EXEMPT_FROM_CAD_STANDARDS
 70
     0
  0
APPID
  5
1A4
330
9
100
AcDbSymbolTableRecord
100
AcDbRegAppTableRecord
  2
ACAD_NAV_VCDISPLAY
 70
     0
  0
ENDTAB
  0
TABLE
  2
DIMSTYLE
  5
A
330
0
100
AcDbSymbolTable
 70
     2
100
AcDbDimStyleTable
 71
     1
340
27
  0
DIMSTYLE
105
27
330
A
100
AcDbSymbolTableRecord
100
AcDbDimStyleTableRecord
  2
Standard
 70
     0
340
11
  0
ENDTAB
  0
TABLE
  2
BLOCK_RECORD
  5
1
330
0
100
AcDbSymbolTable
 70
     5
  0
BLOCK_RECORD
  5
1F
330
1
100
AcDbSymbolTableRecord
100
AcDbBlockTableRecord
  2
*Model_Space
340
22
 70
     0
280
     1
281
     0
  0
BLOCK_RECORD
  5
1B
330
1
100
AcDbSymbolTableRecord
100
AcDbBlockTableRecord
  2
*Paper_Space
340
1E
 70
     0
280
     1
281
     0
  0
BLOCK_RECORD
  5
23
330
1
100
AcDbSymbolTableRecord
100
AcDbBlockTableRecord
  2
*Paper_Space0
340
26
 70
     0
280
     1
281
     0
  0
BLOCK_RECORD
  5
C2
330
1
100
AcDbSymbolTableRecord
100
AcDbBlockTableRecord
  2
SW_NOTE_0
340
0
 70
     0
280
     1
281
     0
  0
BLOCK_RECORD
  5
C8
330
1
100
AcDbSymbolTableRecord
100
AcDbBlockTableRecord
  2
SW_NOTE_1
340
0
 70
     0
280
     1
281
     0
  0
BLOCK_RECORD
  5
DC
330
1
100
AcDbSymbolTableRecord
100
AcDbBlockTableRecord
  2
SW_NOTE_2
340
0
 70
     0
280
     1
281
     0
  0
ENDTAB
  0
ENDSEC
  0
SECTION
  2
BLOCKS
  0
BLOCK
  5
20
330
1F
100
AcDbEntity
  8
0
100
AcDbBlockBegin
  2
*Model_Space
 70
     0
 10
0.0
 20
0.0
 30
0.0
  3
*Model_Space
  1

  0
ENDBLK
  5
21
330
1F
100
AcDbEntity
  8
0
100
AcDbBlockEnd
  0
BLOCK
  5
1C
330
1B
100
AcDbEntity
 67
     1
  8
0
100
AcDbBlockBegin
  2
*Paper_Space
 70
     0
 10
0.0
 20
0.0
 30
0.0
  3
*Paper_Space
  1

  0
ENDBLK
  5
1D
330
1B
100
AcDbEntity
 67
     1
  8
0
100
AcDbBlockEnd
  0
BLOCK
  5
24
330
23
100
AcDbEntity
 67
     1
  8
0
100
AcDbBlockBegin
  2
*Paper_Space0
 70
     0
 10
0.0
 20
0.0
 30
0.0
  3
*Paper_Space0
  1

  0
ENDBLK
  5
25
330
23
100
AcDbEntity
 67
     1
  8
0
100
AcDbBlockEnd
  0
BLOCK
  5
C3
330
C2
100
AcDbEntity
  8
0
100
AcDbBlockBegin
  2
SW_NOTE_0
 70
     0
 10
0.0
 20
0.0
 30
0.0
  3
SW_NOTE_0
  1

  0
MTEXT
  5
C5
330
C2
100
AcDbEntity
  8
0
  6
Continuous
 62
     0
370
     0
100
AcDbMText
 10
0.0
 20
0.0773440644
 30
0.0
 40
0.06
 41
0.0
 46
0.0
 71
     1
 72
     1
  1
INTERPRET GEOMETRIC
  7
SLDTEXTSTYLE0
 73
     1
 44
1.0
  0
MTEXT
  5
C6
330
C2
100
AcDbEntity
  8
0
  6
Continuous
 62
     0
370
     0
100
AcDbMText
 10
0.0
 20
-0.0220260102
 30
0.0
 40
0.06
 41
0.0
 46
0.0
 71
     1
 72
     1
  1
TOLERANCING PER:
  7
SLDTEXTSTYLE0
 73
     1
 44
1.0
  0
ENDBLK
  5
C4
330
C2
100
AcDbEntity
  8
0
100
AcDbBlockEnd
  0
BLOCK
  5
C9
330
C8
100
AcDbEntity
  8
0
100
AcDbBlockBegin
  2
SW_NOTE_1
 70
     0
 10
0.0
 20
0.0
 30
0.0
  3
SW_NOTE_1
  1

  0
MTEXT
  5
CB
330
C8
100
AcDbEntity
  8
0
  6
Continuous
 62
     0
370
     0
100
AcDbMText
 10
0.0
 20
0.0837894031
 30
0.0
 40
0.065
 41
0.0
 46
0.0
 71
     1
 72
     1
  1
DIMENSIONS ARE IN INCHES
  7
SLDTEXTSTYLE0
 73
     1
 44
1.0
  0
MTEXT
  5
CC
330
C8
100
AcDbEntity
  8
0
  6
Continuous
 62
     0
370
     0
100
AcDbMText
 10
0.0
 20
-0.0205806729
 30
0.0
 40
0.065
 41
0.0
 46
0.0
 71
     1
 72
     1
  1
TOLERANCES:
  7
SLDTEXTSTYLE0
 73
     1
 44
1.0
  0
MTEXT
  5
CD
330
C8
100
AcDbEntity
  8
0
  6
Continuous
 62
     0
370
     0
100
AcDbMText
 10
0.0
 20
-0.1249507489
 30
0.0
 40
0.065
 41
0.0
 46
0.0
 71
     1
 72
     1
  1
FRACTIONAL
  7
SLDTEXTSTYLE0
 73
     1
 44
1.0
  0
MTEXT
  5
CE
330
C8
100
AcDbEntity
  8
0
  6
Continuous
 62
     0
370
     0
100
AcDbMText
 10
0.5175850508
 20
-0.1249507489
 30
0.0
 40
0.065
 41
0.0
 46
0.0
 71
     1
 72
     1
  1
%%p
  7
SLDTEXTSTYLE0
 73
     1
 44
1.0
  0
MTEXT
  5
CF
330
C8
100
AcDbEntity
  8
0
  6
Continuous
 62
     0
370
     0
100
AcDbMText
 10
0.0
 20
-0.2293208248
 30
0.0
 40
0.065
 41
0.0
 46
0.0
 71
     1
 72
     1
  1
ANGULAR: MACH
  7
SLDTEXTSTYLE0
 73
     1
 44
1.0
  0
MTEXT
  5
D0
330
C8
100
AcDbEntity
  8
0
  6
Continuous
 62
     0
370
     0
100
AcDbMText
 10
0.7233732769
 20
-0.2293208248
 30
0.0
 40
0.065
 41
0.0
 46
0.0
 71
     1
 72
     1
  1
%%p
  7
SLDTEXTSTYLE0
 73
     1
 44
1.0
  0
MTEXT
  5
D1
330
C8
100
AcDbEntity
  8
0
  6
Continuous
 62
     0
370
     0
100
AcDbMText
 10
0.9071607682999999
 20
-0.2293208248
 30
0.0
 40
0.065
 41
0.0
 46
0.0
 71
     1
 72
     1
  1
BEND
  7
SLDTEXTSTYLE0
 73
     1
 44
1.0
  0
MTEXT
  5
D2
330
C8
100
AcDbEntity
  8
0
  6
Continuous
 62
     0
370
     0
100
AcDbMText
 10
1.1478412867
 20
-0.2293208248
 30
0.0
 40
0.065
 41
0.0
 46
0.0
 71
     1
 72
     1
  1
%%p
  7
SLDTEXTSTYLE0
 73
     1
 44
1.0
  0
MTEXT
  5
D3
330
C8
100
AcDbEntity
  8
0
  6
Continuous
 62
     0
370
     0
100
AcDbMText
 10
0.0
 20
-0.3336909008
 30
0.0
 40
0.065
 41
0.0
 46
0.0
 71
     1
 72
     1
  1
TWO PLACE DECIMAL
  7
SLDTEXTSTYLE0
 73
     1
 44
1.0
  0
MTEXT
  5
D4
330
C8
100
AcDbEntity
  8
0
  6
Continuous
 62
     0
370
     0
100
AcDbMText
 10
0.9794349187999999
 20
-0.3336909008
 30
0.0
 40
0.065
 41
0.0
 46
0.0
 71
     1
 72
     1
  1
%%p
  7
SLDTEXTSTYLE0
 73
     1
 44
1.0
  0
MTEXT
  5
D5
330
C8
100
AcDbEntity
  8
0
  6
Continuous
 62
     0
370
     0
100
AcDbMText
 10
0.0
 20
-0.4380609768000001
 30
0.0
 40
0.065
 41
0.0
 46
0.0
 71
     1
 72
     1
  1
THREE PLACE DECIMAL
  7
SLDTEXTSTYLE0
 73
     1
 44
1.0
  0
MTEXT
  5
D6
330
C8
100
AcDbEntity
  8
0
  6
Continuous
 62
     0
370
     0
100
AcDbMText
 10
0.9738037905
 20
-0.4380609768000001
 30
0.0
 40
0.065
 41
0.0
 46
0.0
 71
     1
 72
     1
  1
%%p
  7
SLDTEXTSTYLE0
 73
     1
 44
1.0
  0
ENDBLK
  5
CA
330
C8
100
AcDbEntity
  8
0
100
AcDbBlockEnd
  0
BLOCK
  5
DD
330
DC
100
AcDbEntity
  8
0
100
AcDbBlockBegin
  2
SW_NOTE_2
 70
     0
 10
0.0
 20
0.0
 30
0.0
  3
SW_NOTE_2
  1

  0
MTEXT
  5
DF
330
DC
100
AcDbEntity
  8
0
  6
Continuous
 62
     0
370
     0
100
AcDbMText
 10
0.0
 20
0.0773440644
 30
0.0
 40
0.06
 41
0.0
 46
0.0
 71
     1
 72
     1
  1
THE INFORMATION CONTAINED IN THIS
  7
SLDTEXTSTYLE0
 73
     1
 44
1.0
  0
MTEXT
  5
E0
330
DC
100
AcDbEntity
  8
0
  6
Continuous
 62
     0
370
     0
100
AcDbMText
 10
0.0
 20
-0.0220260102
 30
0.0
 40
0.06
 41
0.0
 46
0.0
 71
     1
 72
     1
  1
DRAWING IS THE SOLE PROPERTY OF
  7
SLDTEXTSTYLE0
 73
     1
 44
1.0
  0
MTEXT
  5
E1
330
DC
100
AcDbEntity
  8
0
  6
Continuous
 62
     0
370
     0
100
AcDbMText
 10
0.0
 20
-0.1213960848
 30
0.0
 40
0.06
 41
0.0
 46
0.0
 71
     1
 72
     1
  1
<INSERT COMPANY NAME HERE>.  ANY
  7
SLDTEXTSTYLE0
 73
     1
 44
1.0
  0
MTEXT
  5
E2
330
DC
100
AcDbEntity
  8
0
  6
Continuous
 62
     0
370
     0
100
AcDbMText
 10
0.0
 20
-0.2207661593
 30
0.0
 40
0.06
 41
0.0
 46
0.0
 71
     1
 72
     1
  1
REPRODUCTION IN PART OR AS A WHOLE
  7
SLDTEXTSTYLE0
 73
     1
 44
1.0
  0
MTEXT
  5
E3
330
DC
100
AcDbEntity
  8
0
  6
Continuous
 62
     0
370
     0
100
AcDbMText
 10
0.0
 20
-0.3201362339
 30
0.0
 40
0.06
 41
0.0
 46
0.0
 71
     1
 72
     1
  1
WITHOUT THE WRITTEN PERMISSION OF
  7
SLDTEXTSTYLE0
 73
     1
 44
1.0
  0
MTEXT
  5
E4
330
DC
100
AcDbEntity
  8
0
  6
Continuous
 62
     0
370
     0
100
AcDbMText
 10
0.0
 20
-0.4195063085000001
 30
0.0
 40
0.06
 41
0.0
 46
0.0
 71
     1
 72
     1
  1
<INSERT COMPANY NAME HERE> IS
  7
SLDTEXTSTYLE0
 73
     1
 44
1.0
  0
MTEXT
  5
E5
330
DC
100
AcDbEntity
  8
0
  6
Continuous
 62
     0
370
     0
100
AcDbMText
 10
0.0
 20
-0.518876383
 30
0.0
 40
0.06
 41
0.0
 46
0.0
 71
     1
 72
     1
  1
PROHIBITED.
  7
SLDTEXTSTYLE0
 73
     1
 44
1.0
  0
ENDBLK
  5
DE
330
DC
100
AcDbEntity
  8
0
100
AcDbBlockEnd
  0
ENDSEC
  0
SECTION
  2
ENTITIES
  0
LWPOLYLINE
  5
E7
330
1F
100
AcDbEntity
  8
0
  6
Continuous
 62
     5
370
     0
100
AcDbPolyline
 90
      171
 70
   128
 43
0.0
 10
3.2143190835
 20
5.5323588285
 10
3.2164319072
 20
5.5336258557
 10
3.2164319072
 20
5.5336258557
 10
3.2170378768
 20
5.5326492932
 10
3.217663878399999
 20
5.531802939099999
 10
3.2183149201
 20
5.5310867932
 10
3.2189910018
 20
5.5305008557
 10
3.2196871156
 20
5.530045126599999
 10
3.2204082694
 20
5.5297196057
 10
3.221154463299999
 20
5.5295242932
 10
3.2219206893
 20
5.529459189099999
 10
3.2219206893
 20
5.529459189099999
 10
3.222576738999999
 20
5.529494245099999
 10
3.2232127566
 20
5.5296044214
 10
3.2238287422
 20
5.5297847099
 10
3.224424695699999
 20
5.5300401185
 10
3.224975577099999
 20
5.5303556233
 10
3.2254563463
 20
5.530726216299999
 10
3.225867003399999
 20
5.531141881399999
 10
3.226207548299999
 20
5.531607626599999
 10
3.2264729729
 20
5.532108427799999
 10
3.2266682854
 20
5.5326242532
 10
3.2267784617
 20
5.5331500945
 10
3.226818525799999
 20
5.533695967899999
 10
3.226818525799999
 20
5.533695967899999
 10
3.226763437699999
 20
5.5343169615
 10
3.226593165199999
 20
5.5349379551
 10
3.226312716499999
 20
5.5355439246
 10
3.225922091499999
 20
5.536149894199999
 10
3.225922091499999
 20
5.536149894199999
 10
3.225581546699999
 20
5.536575575299999
 10
3.225180905599999
 20
5.5370212884
 10
3.2247101524
 20
5.537487033599999
 10
3.2241793031
 20
5.537977818899999
 10
3.223583349499999
 20
5.5384836282
 10
3.2229272999
 20
5.5390144775
 10
3.222201137999999
 20
5.5395653589
 10
3.22141488
 20
5.540136272399999
 10
3.22141488
 20
5.540136272399999
 10
3.220628621999999
 20
5.5407021778
 10
3.2199224922
 20
5.5412330272
 10
3.2192964906
 20
5.5417188044
 10
3.218745609199999
 20
5.542164517599999
 10
3.2182698479
 20
5.5425701666
 10
3.2178742149
 20
5.5429307435
 10
3.2175587101
 20
5.5432562644
 10
3.217318325499999
 20
5.543536713099999
 10
3.217318325499999
 20
5.543536713099999
 10
3.2169928047
 20
5.5439824262
 10
3.2167073479
 20
5.5444331474
 10
3.216466963299999
 20
5.5448938846
 10
3.216271650799999
 20
5.5453696458
 10
3.216116402399999
 20
5.545845407
 10
3.2160062261
 20
5.5463361923
 10
3.215941121999999
 20
5.5468369935
 10
3.2159210899
 20
5.547342802799999
 10
3.2159210899
 20
5.547342802799999
 10
3.215971170099999
 20
5.548134068899999
 10
3.2161214104
 20
5.548895286799999
 10
3.2163668031
 20
5.5496164407
 10
3.216712355899999
 20
5.5503025384
 10
3.2171530611
 20
5.550933547999999
 10
3.217668886399999
 20
5.551499453499999
 10
3.2182698479
 20
5.5519852307
 10
3.2189459297
 20
5.552405903799999
 10
3.219682107599999
 20
5.5527414407
 10
3.220453341499999
 20
5.5529868333
 10
3.2212496156
 20
5.5531270576
 10
3.2220809457
 20
5.553177137799999
 10
3.2220809457
 20
5.553177137799999
 10
3.222962355899999
 20
5.5531220496
 10
3.2238187261
 20
5.5529517772
 10
3.224640040199999
 20
5.552666320499999
 10
3.225436314299999
 20
5.5522706874
 10
3.2258319473
 20
5.552020286799999
 10
3.226227580299999
 20
5.551724814099999
 10
3.226633229299999
 20
5.5513792612
 10
3.227043886399999
 20
5.550988636199999
 10
3.227459551499999
 20
5.550547931
 10
3.227880224499999
 20
5.550062153799999
 10
3.2283109136
 20
5.549526296399999
 10
3.228741602699999
 20
5.5489453669
 10
3.228741602699999
 20
5.5489453669
 10
3.226713357599999
 20
5.547407907
 10
3.226713357599999
 20
5.547407907
 10
3.226342764599999
 20
5.547878660199999
 10
3.2259871957
 20
5.548304341299999
 10
3.225646650799999
 20
5.5486899583
 10
3.225316121999999
 20
5.5490305032
 10
3.225005625199999
 20
5.5493309839
 10
3.2247051444
 20
5.549591400599999
 10
3.2244146797
 20
5.5498117532
 10
3.224144246999999
 20
5.549987033599999
 10
3.2236033816
 20
5.550262474299999
 10
3.2230374761
 20
5.550457786799999
 10
3.2224465306
 20
5.5505729711
 10
3.221830545099999
 20
5.550613035199999
 10
3.221830545099999
 20
5.550613035199999
 10
3.2210593111
 20
5.5505579471
 10
3.2203631973
 20
5.5503826666
 10
3.2197422037
 20
5.550097209899999
 10
3.2191913223
 20
5.549696568899999
 10
3.218740601099999
 20
5.5492157996
 10
3.218420088299999
 20
5.5486799423
 10
3.2182297838
 20
5.548088996699999
 10
3.2181646797
 20
5.5474479711
 10
3.2181646797
 20
5.5474479711
 10
3.2181847117
 20
5.547047330099999
 10
3.218254823899999
 20
5.5466516971
 10
3.2183599922
 20
5.5462610721
 10
3.218515240599999
 20
5.5458754551
 10
3.218730585099999
 20
5.545484830099999
 10
3.2190160418
 20
5.545079181
 10
3.2193766188
 20
5.544658507999999
 10
3.219812315899999
 20
5.544217802799999
 10
3.219812315899999
 20
5.544217802799999
 10
3.219977580299999
 20
5.544072570499999
 10
3.220212956899999
 20
5.543882266
 10
3.2205234537
 20
5.5436468894
 10
3.220909070699999
 20
5.5433564246
 10
3.221364799899999
 20
5.5430208878
 10
3.2218956492
 20
5.542640278799999
 10
3.222496610799999
 20
5.5422095897
 10
3.223172692499999
 20
5.541728820499999
 10
3.223172692499999
 20
5.541728820499999
 10
3.223983990599999
 20
5.5411328669
 10
3.224730184499999
 20
5.540556945499999
 10
3.2254062662
 20
5.539996047999999
 10
3.226017243799999
 20
5.5394501746
 10
3.2265631172
 20
5.5389243333
 10
3.227043886399999
 20
5.538413516
 10
3.227459551499999
 20
5.537917722699999
 10
3.2278051043
 20
5.5374369535
 10
3.228355985799999
 20
5.5364954471
 10
3.2287466108
 20
5.5355539407
 10
3.2289819874
 20
5.5346074262
 10
3.2290621156
 20
5.533660911799999
 10
3.2290621156
 20
5.533660911799999
 10
3.229032067499999
 20
5.532989838099999
 10
3.2289319072
 20
5.532338796399999
 10
3.228771650799999
 20
5.531712794799999
 10
3.2285412822
 20
5.531106825299999
 10
3.2282508175
 20
5.530520887799999
 10
3.227890240599999
 20
5.5299599903
 10
3.2274695675
 20
5.529424132999999
 10
3.2269787822
 20
5.5289083076
 10
3.2264429249
 20
5.5284375544
 10
3.225882027399999
 20
5.5280268974
 10
3.2252910819
 20
5.5276813445
 10
3.224675096299999
 20
5.5274008958
 10
3.224029062699999
 20
5.5271805432
 10
3.223352980899999
 20
5.527020286799999
 10
3.222651859199999
 20
5.5269251346
 10
3.2219206893
 20
5.526895086499999
 10
3.2219206893
 20
5.526895086499999
 10
3.221354783799999
 20
5.526915118499999
 10
3.2207988944
 20
5.5269752147
 10
3.220258028999999
 20
5.5270703669
 10
3.2197321877
 20
5.5272105913
 10
3.2192213704
 20
5.527385871699999
 10
3.2187205691
 20
5.527601216299999
 10
3.2182347918
 20
5.5278566249
 10
3.217759030599999
 20
5.528152097699999
 10
3.217298293399999
 20
5.528492642599999
 10
3.2168475723
 20
5.528888275599999
 10
3.2164018592
 20
5.5293339887
 10
3.215966161999999
 20
5.529834789999999
 10
3.215540480899999
 20
5.530385671399999
 10
3.215124815899999
 20
5.530991640999999
 10
3.2147191668
 20
5.5316476907
 10
3.214318525799999
 20
5.5323588285
  0
LWPOLYLINE
  5
E8
330
1F
100
AcDbEntity
  8
0
  6
Continuous
 62
     5
370
     0
100
AcDbPolyline
 90
      100
 70
   128
 43
0.0
 10
3.2485436481
 20
5.533305342899999
 10
3.2505364745
 20
5.5322586682
 10
3.2505364745
 20
5.5322586682
 10
3.2500456893
 20
5.531422330099999
 10
3.2495198479
 20
5.5306711282
 10
3.2489589505
 20
5.5300000544
 10
3.248357988999999
 20
5.5294191249
 10
3.247721971299999
 20
5.5289133157
 10
3.247050897599999
 20
5.528472610499999
 10
3.2463347518
 20
5.528092001599999
 10
3.2455835499
 20
5.527776496699999
 10
3.244787275799999
 20
5.527531104099999
 10
3.2439409217
 20
5.527355823699999
 10
3.2430444874
 20
5.527250655399999
 10
3.2420979729
 20
5.527215599299999
 10
3.2420979729
 20
5.527215599299999
 10
3.241046290199999
 20
5.527260671399999
 10
3.2400547037
 20
5.5273958878
 10
3.239123213299999
 20
5.5276212483
 10
3.2382468111
 20
5.5279367532
 10
3.237435513
 20
5.5283424022
 10
3.236679303099999
 20
5.528838195499999
 10
3.2359781813
 20
5.529424132999999
 10
3.235342163599999
 20
5.5301002147
 10
3.234771250199999
 20
5.5308313846
 10
3.234275456899999
 20
5.5315875945
 10
3.2338597918
 20
5.5323688445
 10
3.233519246999999
 20
5.5331751346
 10
3.233248814299999
 20
5.534001456699999
 10
3.2330585098
 20
5.5348478108
 10
3.2329483335
 20
5.535724213099999
 10
3.232908269399999
 20
5.5366206474
 10
3.232908269399999
 20
5.5366206474
 10
3.232943325499999
 20
5.5374619935
 10
3.233038477699999
 20
5.538283307599999
 10
3.2332037422
 20
5.539079581699999
 10
3.233434110799999
 20
5.539855823699999
 10
3.2337295835
 20
5.540607025599999
 10
3.2340901604
 20
5.5413331874
 10
3.234520849499999
 20
5.5420393173
 10
3.2350116348
 20
5.542720407
 10
3.2350116348
 20
5.542720407
 10
3.2357077486
 20
5.543516680999999
 10
3.2364589505
 20
5.544212794799999
 10
3.2372652406
 20
5.544793724299999
 10
3.238131626799999
 20
5.5452744935
 10
3.2390531011
 20
5.545645086499999
 10
3.2400296636
 20
5.545915519199999
 10
3.241061314299999
 20
5.546070767599999
 10
3.2421530611
 20
5.5461258557
 10
3.2421530611
 20
5.5461258557
 10
3.243274855899999
 20
5.546070767599999
 10
3.244341562699999
 20
5.545900495099999
 10
3.2453481733
 20
5.545620046399999
 10
3.246294687699999
 20
5.5452294214
 10
3.247186113999999
 20
5.5447236121
 10
3.2480174441
 20
5.5441026185
 10
3.248793686099999
 20
5.5433714487
 10
3.249509831899999
 20
5.542530102499999
 10
3.249509831899999
 20
5.542530102499999
 10
3.2499705691
 20
5.541874052799999
 10
3.250366202099999
 20
5.5411829471
 10
3.250706746999999
 20
5.540446769199999
 10
3.2509821877
 20
5.539675535199999
 10
3.251202540199999
 20
5.5388642371
 10
3.2513627967
 20
5.538012874899999
 10
3.251457948899999
 20
5.537121448699999
 10
3.251498012999999
 20
5.5361899583
 10
3.251498012999999
 20
5.5361899583
 10
3.2351518592
 20
5.5361899583
 10
3.2351518592
 20
5.5361899583
 10
3.235196931299999
 20
5.5354688044
 10
3.235297091499999
 20
5.5347776987
 10
3.2354573479
 20
5.534121648999999
 10
3.2356777005
 20
5.533500655399999
 10
3.235948133199999
 20
5.532914717899999
 10
3.236278661999999
 20
5.5323588285
 10
3.236669286999999
 20
5.5318379951
 10
3.237115000199999
 20
5.531347209899999
 10
3.2376057854
 20
5.530906504799999
 10
3.238121610799999
 20
5.530520887799999
 10
3.2386674842
 20
5.5301953669
 10
3.239243405599999
 20
5.529929942299999
 10
3.2398443672
 20
5.5297246137
 10
3.2404753768
 20
5.529579381399999
 10
3.241131426499999
 20
5.529489237099999
 10
3.2418175242
 20
5.529459189099999
 10
3.2418175242
 20
5.529459189099999
 10
3.2424885979
 20
5.529484229099999
 10
3.243144647599999
 20
5.529564357299999
 10
3.2437956893
 20
5.5296995737
 10
3.244436714899999
 20
5.5298848701
 10
3.2450527005
 20
5.530115238699999
 10
3.245618605899999
 20
5.530385671399999
 10
3.246134431299999
 20
5.5306861522
 10
3.246605184499999
 20
5.531021689099999
 10
3.247060913599999
 20
5.531427338099999
 10
3.2475366749
 20
5.531948171399999
 10
3.248032468099999
 20
5.532569164999999
 10
3.2485432854
 20
5.533305342899999
  0
LWPOLYLINE
  5
E9
330
1F
100
AcDbEntity
  8
0
  6
Continuous
 62
     5
370
     0
100
AcDbPolyline
 90
       33
 70
   128
 43
0.0
 10
3.249254679899999
 20
5.538433547999999
 10
3.2489889986
 20
5.539319966299999
 10
3.248663477699999
 20
5.5401112323
 10
3.2482878768
 20
5.5408073461
 10
3.247857187699999
 20
5.5414083076
 10
3.247366402399999
 20
5.541939157
 10
3.246795488999999
 20
5.5424149182
 10
3.246154463299999
 20
5.5428355913
 10
3.2454383175
 20
5.5432011762
 10
3.2446770995
 20
5.543501657
 10
3.243890841499999
 20
5.5437119935
 10
3.243089559499999
 20
5.5438422019
 10
3.2422682454
 20
5.543882266
 10
3.2422682454
 20
5.543882266
 10
3.2415971717
 20
5.5438572259
 10
3.24094613
 20
5.543777097699999
 10
3.240320128399999
 20
5.5436418814
 10
3.2397241749
 20
5.5434565849
 10
3.2391432454
 20
5.5432111923
 10
3.238592363999999
 20
5.5429207275
 10
3.2380665226
 20
5.5425701666
 10
3.237560713299999
 20
5.542169525599999
 10
3.237560713299999
 20
5.542169525599999
 10
3.237210152399999
 20
5.541838996699999
 10
3.2368846316
 20
5.541468403799999
 10
3.236579142799999
 20
5.5410627548
 10
3.2362986941
 20
5.5406170416
 10
3.2360382774
 20
5.540126256399999
 10
3.235797892799999
 20
5.539600414999999
 10
3.2355825483
 20
5.5390395176
 10
3.235387235799999
 20
5.538433547999999
 10
3.235387235799999
 20
5.538433547999999
 10
3.2492544233
 20
5.538433547999999
  0
LWPOLYLINE
  5
EA
330
1F
100
AcDbEntity
  8
0
  6
Continuous
 62
     5
370
     0
100
AcDbPolyline
 90
       53
 70
   128
 43
0.0
 10
3.255344209599999
 20
5.545805342899999
 10
3.2575877566
 20
5.545805342899999
 10
3.2575877566
 20
5.545805342899999
 10
3.2575877566
 20
5.54311604
 10
3.2575877566
 20
5.54311604
 10
3.258098573899999
 20
5.5438572259
 10
3.258624415199999
 20
5.544488235499999
 10
3.259160272599999
 20
5.5450040608
 10
3.259711153999999
 20
5.545414717899999
 10
3.260277059499999
 20
5.5457252147
 10
3.260857988999999
 20
5.5459505753
 10
3.261443926499999
 20
5.546080783599999
 10
3.262044888
 20
5.5461258557
 10
3.262044888
 20
5.5461258557
 10
3.262510633199999
 20
5.546085791599999
 10
3.262991402399999
 20
5.5459706073
 10
3.263487195699999
 20
5.5457752948
 10
3.263998013
 20
5.5454998541
 10
3.263998013
 20
5.5454998541
 10
3.262766041799999
 20
5.5435567451
 10
3.262766041799999
 20
5.5435567451
 10
3.262440521
 20
5.5436969695
 10
3.262140040199999
 20
5.543802137799999
 10
3.261864599499999
 20
5.543862233899999
 10
3.261619206899999
 20
5.543882266
 10
3.261619206899999
 20
5.543882266
 10
3.261083349499999
 20
5.5438221698
 10
3.260552500199999
 20
5.5436418814
 10
3.2600366749
 20
5.543341400599999
 10
3.259525857599999
 20
5.5429207275
 10
3.2592804649
 20
5.5426653189
 10
3.259050096299999
 20
5.542374854099999
 10
3.2588397598
 20
5.5420543413
 10
3.258639439299999
 20
5.5416987724
 10
3.258454142799999
 20
5.541308147399999
 10
3.2582838704
 20
5.540887474299999
 10
3.258128622
 20
5.5404317451
 10
3.257988397599999
 20
5.539945967899999
 10
3.257988397599999
 20
5.539945967899999
 10
3.2578932454
 20
5.5395102708
 10
3.2578131172
 20
5.5389744134
 10
3.257743005
 20
5.5383383958
 10
3.2576879168
 20
5.537602217899999
 10
3.2576428447
 20
5.536770887799999
 10
3.2576127967
 20
5.5358393974
 10
3.257592764599999
 20
5.534807746699999
 10
3.2575877566
 20
5.5336759358
 10
3.2575877566
 20
5.5336759358
 10
3.2575877566
 20
5.527536112099999
 10
3.2575877566
 20
5.527536112099999
 10
3.2553441668
 20
5.527536112099999
 10
3.2553441668
 20
5.527536112099999
 10
3.2553441668
 20
5.545805342899999
  0
LWPOLYLINE
  5
EB
330
1F
100
AcDbEntity
  8
0
  6
Continuous
 62
     5
370
     0
100
AcDbPolyline
 90
       14
 70
   128
 43
0.0
 10
3.264318932599999
 20
5.545805342899999
 10
3.266747411999999
 20
5.545805342899999
 10
3.266747411999999
 20
5.545805342899999
 10
3.272812115599999
 20
5.5325040608
 10
3.272812115599999
 20
5.5325040608
 10
3.2788768191
 20
5.545805342899999
 10
3.2788768191
 20
5.545805342899999
 10
3.281305705299999
 20
5.545805342899999
 10
3.281305705299999
 20
5.545805342899999
 10
3.272972371999999
 20
5.527536112099999
 10
3.272972371999999
 20
5.527536112099999
 10
3.2726518592
 20
5.527536112099999
 10
3.2726518592
 20
5.527536112099999
 10
3.264318525799999
 20
5.545805342899999
  0
ARC
  5
EC
330
1F
100
AcDbEntity
  8
0
  6
Continuous
 62
     5
370
     0
100
AcDbCircle
 10
3.2939764572
 20
5.5366706357
 30
0.0
 40
0.0094552200260958
100
AcDbArc
 50
90.0029052752
 51
89.9970947249
  0
ARC
  5
ED
330
1F
100
AcDbEntity
  8
0
  6
Continuous
 62
     5
370
     0
100
AcDbCircle
 10
3.293966169199999
 20
5.5366721586
 30
0.0
 40
0.0072101073664277
100
AcDbArc
 50
90.00164904520001
 51
89.99835095479999
  0
LWPOLYLINE
  5
EE
330
1F
100
AcDbEntity
  8
0
  6
Continuous
 62
     5
370
     0
100
AcDbPolyline
 90
       16
 70
   128
 43
0.0
 10
3.3284220854
 20
5.5525361121
 10
3.339959551499999
 20
5.527536112099999
 10
3.339959551499999
 20
5.527536112099999
 10
3.3375206492
 20
5.527536112099999
 10
3.3375206492
 20
5.527536112099999
 10
3.333824735799999
 20
5.5355489326
 10
3.333824735799999
 20
5.5355489326
 10
3.322491602699999
 20
5.5355489326
 10
3.322491602699999
 20
5.5355489326
 10
3.318690521
 20
5.527536112099999
 10
3.318690521
 20
5.527536112099999
 10
3.316241602699999
 20
5.527536112099999
 10
3.316241602699999
 20
5.527536112099999
 10
3.328100577099999
 20
5.5525361121
 10
3.328100577099999
 20
5.5525361121
 10
3.328421089899999
 20
5.5525361121
  0
LWPOLYLINE
  5
EF
330
1F
100
AcDbEntity
  8
0
  6
Continuous
 62
     5
370
     0
100
AcDbPolyline
 90
        6
 70
   128
 43
0.0
 10
3.328236700899999
 20
5.5476633157
 10
3.3237085499
 20
5.538113035199999
 10
3.3237085499
 20
5.538113035199999
 10
3.3326428447
 20
5.538113035199999
 10
3.3326428447
 20
5.538113035199999
 10
3.328235793399999
 20
5.5476633157
  0
LWPOLYLINE
  5
F0
330
1F
100
AcDbEntity
  8
0
  6
Continuous
 62
     5
370
     0
100
AcDbPolyline
 90
      124
 70
   128
 43
0.0
 10
3.361754926999999
 20
5.5418440048
 10
3.359876418399999
 20
5.540677137799999
 10
3.359876418399999
 20
5.540677137799999
 10
3.359240400799999
 20
5.5414283397
 10
3.358544286999999
 20
5.542079381399999
 10
3.357798093099999
 20
5.542630262799999
 10
3.3569968111
 20
5.543080983899999
 10
3.3561354329
 20
5.543431544799999
 10
3.355218966499999
 20
5.543681945499999
 10
3.354252420099999
 20
5.5438321858
 10
3.3532257774
 20
5.543882266
 10
3.3532257774
 20
5.543882266
 10
3.352404463299999
 20
5.5438472099
 10
3.3516131973
 20
5.543752057599999
 10
3.3508619954
 20
5.5435867932
 10
3.3501458495
 20
5.5433614326
 10
3.3494647598
 20
5.543065959899999
 10
3.3488187261
 20
5.542705382999999
 10
3.3482077486
 20
5.542284709899999
 10
3.347631827099999
 20
5.5417939246
 10
3.347110993799999
 20
5.5412580673
 10
3.346660272599999
 20
5.540692161799999
 10
3.346274655599999
 20
5.5401012163
 10
3.345964158799999
 20
5.539480222699999
 10
3.3457187662
 20
5.538834189099999
 10
3.345548493799999
 20
5.5381581073
 10
3.3454433255
 20
5.537451977499999
 10
3.3454082694
 20
5.5367208076
 10
3.3454082694
 20
5.5367208076
 10
3.345473373599999
 20
5.5357642772
 10
3.3456636781
 20
5.5348377948
 10
3.345984190899999
 20
5.533936352499999
 10
3.346429903999999
 20
5.5330649583
 10
3.346990801499999
 20
5.5322586682
 10
3.347646851099999
 20
5.531542522399999
 10
3.348393045099999
 20
5.530926536799999
 10
3.3492393992
 20
5.5304057035
 10
3.3501608736
 20
5.5299900384
 10
3.3511324281
 20
5.5296945657
 10
3.352159070699999
 20
5.5295192852
 10
3.353240801499999
 20
5.529459189099999
 10
3.353240801499999
 20
5.529459189099999
 10
3.354232388
 20
5.529509269199999
 10
3.3551789024
 20
5.5296595096
 10
3.3560753367
 20
5.529909910199999
 10
3.356931706899999
 20
5.5302604711
 10
3.357737997
 20
5.5307111923
 10
3.3584942069
 20
5.531262073699999
 10
3.359210352699999
 20
5.5319131153
 10
3.359876418399999
 20
5.5326643173
 10
3.359876418399999
 20
5.5326643173
 10
3.361754423299999
 20
5.531432346099999
 10
3.361754423299999
 20
5.531432346099999
 10
3.361413878399999
 20
5.5309465689
 10
3.3610432854
 20
5.530485831699999
 10
3.360642644399999
 20
5.5300551426
 10
3.360216963299999
 20
5.529654501599999
 10
3.3597662422
 20
5.529278900599999
 10
3.359280464899999
 20
5.528933347699999
 10
3.358769647599999
 20
5.528612834899999
 10
3.358233790199999
 20
5.528322370099999
 10
3.357672892799999
 20
5.528061953499999
 10
3.357091963299999
 20
5.527836592899999
 10
3.3564960098
 20
5.5276462884
 10
3.3558750162
 20
5.52749104
 10
3.355238998599999
 20
5.527370847699999
 10
3.354577940899999
 20
5.527285711499999
 10
3.3539018592
 20
5.5272306233
 10
3.3532057454
 20
5.527215599299999
 10
3.3532057454
 20
5.527215599299999
 10
3.3521440467
 20
5.5272556634
 10
3.3511324281
 20
5.527385871699999
 10
3.3501658816
 20
5.5275962083
 10
3.3492444072
 20
5.527891680999999
 10
3.348368005
 20
5.52827229
 10
3.3475366749
 20
5.528738035199999
 10
3.346755424899999
 20
5.529288916599999
 10
3.346019247
 20
5.529924934199999
 10
3.345348173299999
 20
5.530621047999999
 10
3.3447722518
 20
5.531357225899999
 10
3.344281466499999
 20
5.5321234519
 10
3.3438808255
 20
5.5329297419
 10
3.343565320699999
 20
5.5337760961
 10
3.343344968099999
 20
5.5346524983
 10
3.343209751799999
 20
5.5355689647
 10
3.3431646797
 20
5.5365204871
 10
3.3431646797
 20
5.5365204871
 10
3.3431847117
 20
5.5371665208
 10
3.343249815899999
 20
5.5378025384
 10
3.3433499761
 20
5.538428539999999
 10
3.343500216499999
 20
5.5390395176
 10
3.343685513
 20
5.5396404791
 10
3.3439158816
 20
5.540231424599999
 10
3.344186314299999
 20
5.5408073461
 10
3.344496811099999
 20
5.541373251599999
 10
3.344847371999999
 20
5.541919124899999
 10
3.345227980899999
 20
5.5424299423
 10
3.345638638
 20
5.5429157195
 10
3.3460843511
 20
5.5433664407
 10
3.3465551043
 20
5.543787113699999
 10
3.3470609136
 20
5.5441777387
 10
3.347601778999999
 20
5.5445383157
 10
3.348167684499999
 20
5.5448688445
 10
3.348758629999999
 20
5.5451643173
 10
3.349369607599999
 20
5.5454197259
 10
3.3499956092
 20
5.545635070499999
 10
3.350641642799999
 20
5.5458103509
 10
3.3513027005
 20
5.5459505753
 10
3.3519787822
 20
5.5460457275
 10
3.352674896
 20
5.546105823699999
 10
3.3533910418
 20
5.5461258557
 10
3.3533910418
 20
5.5461258557
 10
3.3542874761
 20
5.546090799599999
 10
3.3551738944
 20
5.545985631399999
 10
3.356040280599999
 20
5.545815358899999
 10
3.356891642799999
 20
5.545569966299999
 10
3.357702940899999
 20
5.545269485499999
 10
3.358454142799999
 20
5.5449289407
 10
3.359135232599999
 20
5.5445433237
 10
3.3597562261
 20
5.544117642599999
 10
3.3603221316
 20
5.5436418814
 10
3.3608429649
 20
5.543106024
 10
3.361323734199999
 20
5.5425050624
 10
3.361754423299999
 20
5.5418440048
  0
LWPOLYLINE
  5
F1
330
1F
100
AcDbEntity
  8
0
  6
Continuous
 62
     5
370
     0
100
AcDbPolyline
 90
      124
 70
   128
 43
0.0
 10
3.3841905611
 20
5.5418440048
 10
3.382312315899999
 20
5.540677137799999
 10
3.382312315899999
 20
5.540677137799999
 10
3.381676298299999
 20
5.5414283397
 10
3.380980184499999
 20
5.542079381399999
 10
3.380233990599999
 20
5.542630262799999
 10
3.3794327085
 20
5.543080983899999
 10
3.378571330299999
 20
5.543431544799999
 10
3.377654863999999
 20
5.543681945499999
 10
3.3766883175
 20
5.5438321858
 10
3.375661674899999
 20
5.543882266
 10
3.375661674899999
 20
5.543882266
 10
3.374840360799999
 20
5.5438472099
 10
3.3740490947
 20
5.543752057599999
 10
3.373297892799999
 20
5.5435867932
 10
3.372581746999999
 20
5.5433614326
 10
3.3719006572
 20
5.543065959899999
 10
3.3712546236
 20
5.542705382999999
 10
3.370643646
 20
5.542284709899999
 10
3.370067724499999
 20
5.5417939246
 10
3.3695468912
 20
5.5412580673
 10
3.369096170099999
 20
5.540692161799999
 10
3.3687105531
 20
5.5401012163
 10
3.3684000563
 20
5.539480222699999
 10
3.368154663599999
 20
5.538834189099999
 10
3.3679843912
 20
5.5381581073
 10
3.3678792229
 20
5.537451977499999
 10
3.367844166799999
 20
5.5367208076
 10
3.367844166799999
 20
5.5367208076
 10
3.367909271
 20
5.5357642772
 10
3.3680995755
 20
5.5348377948
 10
3.368420088299999
 20
5.533936352499999
 10
3.368865801499999
 20
5.5330649583
 10
3.369426698899999
 20
5.5322586682
 10
3.3700827486
 20
5.531542522399999
 10
3.3708289425
 20
5.530926536799999
 10
3.3716752967
 20
5.5304057035
 10
3.372596771
 20
5.5299900384
 10
3.373568325499999
 20
5.5296945657
 10
3.374594968099999
 20
5.5295192852
 10
3.375676698899999
 20
5.529459189099999
 10
3.375676698899999
 20
5.529459189099999
 10
3.3766682854
 20
5.529509269199999
 10
3.377614799899999
 20
5.5296595096
 10
3.3785112342
 20
5.529909910199999
 10
3.3793676043
 20
5.5302604711
 10
3.380173894399999
 20
5.5307111923
 10
3.380930104299999
 20
5.531262073699999
 10
3.381646250199999
 20
5.5319131153
 10
3.382312315899999
 20
5.5326643173
 10
3.382312315899999
 20
5.5326643173
 10
3.3841903207
 20
5.531432346099999
 10
3.3841903207
 20
5.531432346099999
 10
3.383849775799999
 20
5.5309465689
 10
3.3834791829
 20
5.530485831699999
 10
3.3830785418
 20
5.5300551426
 10
3.382652860799999
 20
5.529654501599999
 10
3.382202139599999
 20
5.529278900599999
 10
3.3817163624
 20
5.528933347699999
 10
3.381205545099999
 20
5.528612834899999
 10
3.380669687699999
 20
5.528322370099999
 10
3.380108790199999
 20
5.528061953499999
 10
3.379527860799999
 20
5.527836592899999
 10
3.3789319072
 20
5.5276462884
 10
3.3783109136
 20
5.52749104
 10
3.377674896
 20
5.527370847699999
 10
3.377013838299999
 20
5.527285711499999
 10
3.3763377566
 20
5.5272306233
 10
3.375641642799999
 20
5.527215599299999
 10
3.375641642799999
 20
5.527215599299999
 10
3.3745799441
 20
5.5272556634
 10
3.373568325499999
 20
5.527385871699999
 10
3.372601778999999
 20
5.5275962083
 10
3.3716803047
 20
5.527891680999999
 10
3.3708039024
 20
5.52827229
 10
3.3699725723
 20
5.528738035199999
 10
3.3691913223
 20
5.529288916599999
 10
3.368455144399999
 20
5.529924934199999
 10
3.367784070699999
 20
5.530621047999999
 10
3.3672081492
 20
5.531357225899999
 10
3.366717363999999
 20
5.5321234519
 10
3.3663167229
 20
5.5329297419
 10
3.3660012181
 20
5.5337760961
 10
3.3657808656
 20
5.5346524983
 10
3.3656456492
 20
5.5355689647
 10
3.365600577099999
 20
5.5365204871
 10
3.365600577099999
 20
5.5365204871
 10
3.3656206092
 20
5.5371665208
 10
3.365685713299999
 20
5.5378025384
 10
3.3657858736
 20
5.538428539999999
 10
3.365936113999999
 20
5.5390395176
 10
3.3661214104
 20
5.5396404791
 10
3.366351778999999
 20
5.540231424599999
 10
3.3666222117
 20
5.5408073461
 10
3.3669327085
 20
5.541373251599999
 10
3.3672832694
 20
5.541919124899999
 10
3.367663878399999
 20
5.5424299423
 10
3.3680745354
 20
5.5429157195
 10
3.3685202486
 20
5.5433664407
 10
3.368991001799999
 20
5.543787113699999
 10
3.3694968111
 20
5.5441777387
 10
3.370037676499999
 20
5.5445383157
 10
3.370603581899999
 20
5.5448688445
 10
3.3711945274
 20
5.5451643173
 10
3.371805505
 20
5.5454197259
 10
3.3724315066
 20
5.545635070499999
 10
3.373077540199999
 20
5.5458103509
 10
3.3737385979
 20
5.5459505753
 10
3.3744146797
 20
5.5460457275
 10
3.375110793399999
 20
5.546105823699999
 10
3.375826939299999
 20
5.5461258557
 10
3.375826939299999
 20
5.5461258557
 10
3.376723373599999
 20
5.546090799599999
 10
3.377609791799999
 20
5.545985631399999
 10
3.3784761781
 20
5.545815358899999
 10
3.379327540199999
 20
5.545569966299999
 10
3.380138838299999
 20
5.545269485499999
 10
3.380890040199999
 20
5.5449289407
 10
3.38157113
 20
5.5445433237
 10
3.3821921236
 20
5.544117642599999
 10
3.382758028999999
 20
5.5436418814
 10
3.3832788624
 20
5.543106024
 10
3.3837596316
 20
5.5425050624
 10
3.3841903207
 20
5.5418440048
  0
LWPOLYLINE
  5
F2
330
1F
100
AcDbEntity
  8
0
  6
Continuous
 62
     5
370
     0
100
AcDbPolyline
 90
      100
 70
   128
 43
0.0
 10
3.403671776099999
 20
5.533305342899999
 10
3.4056646797
 20
5.5322586682
 10
3.4056646797
 20
5.5322586682
 10
3.405173894399999
 20
5.531422330099999
 10
3.404648053099999
 20
5.5306711282
 10
3.4040871556
 20
5.5300000544
 10
3.4034861941
 20
5.5294191249
 10
3.402850176499999
 20
5.5289133157
 10
3.402179102699999
 20
5.528472610499999
 10
3.4014629569
 20
5.528092001599999
 10
3.400711755
 20
5.527776496699999
 10
3.399915480899999
 20
5.527531104099999
 10
3.3990691268
 20
5.527355823699999
 10
3.3981726925
 20
5.527250655399999
 10
3.397226178099999
 20
5.527215599299999
 10
3.397226178099999
 20
5.527215599299999
 10
3.3961744954
 20
5.527260671399999
 10
3.395182908799999
 20
5.5273958878
 10
3.394251418399999
 20
5.5276212483
 10
3.3933750162
 20
5.5279367532
 10
3.392563718099999
 20
5.5283424022
 10
3.391807508199999
 20
5.528838195499999
 10
3.391106386399999
 20
5.529424132999999
 10
3.390470368799999
 20
5.5301002147
 10
3.389899455299999
 20
5.5308313846
 10
3.389403661999999
 20
5.5315875945
 10
3.388987997
 20
5.5323688445
 10
3.388647452099999
 20
5.5331751346
 10
3.3883770194
 20
5.534001456699999
 10
3.3881867149
 20
5.5348478108
 10
3.3880765386
 20
5.535724213099999
 10
3.388036474499999
 20
5.5366206474
 10
3.388036474499999
 20
5.5366206474
 10
3.388071530599999
 20
5.5374619935
 10
3.3881666829
 20
5.538283307599999
 10
3.3883319473
 20
5.539079581699999
 10
3.388562315899999
 20
5.539855823699999
 10
3.3888577886
 20
5.540607025599999
 10
3.3892183656
 20
5.5413331874
 10
3.3896490547
 20
5.5420393173
 10
3.3901398399
 20
5.542720407
 10
3.3901398399
 20
5.542720407
 10
3.390835953699999
 20
5.543516680999999
 10
3.391587155599999
 20
5.544212794799999
 10
3.392393445699999
 20
5.544793724299999
 10
3.3932598319
 20
5.5452744935
 10
3.3941813063
 20
5.545645086499999
 10
3.3951578688
 20
5.545915519199999
 10
3.3961895194
 20
5.546070767599999
 10
3.3972812662
 20
5.5461258557
 10
3.3972812662
 20
5.5461258557
 10
3.3984030611
 20
5.546070767599999
 10
3.399469767799999
 20
5.545900495099999
 10
3.400476378399999
 20
5.545620046399999
 10
3.401422892799999
 20
5.5452294214
 10
3.4023143191
 20
5.5447236121
 10
3.4031456492
 20
5.5441026185
 10
3.403921891199999
 20
5.5433714487
 10
3.404638036999999
 20
5.542530102499999
 10
3.404638036999999
 20
5.542530102499999
 10
3.4050987742
 20
5.541874052799999
 10
3.4054944072
 20
5.5411829471
 10
3.405834952099999
 20
5.540446769199999
 10
3.406110392799999
 20
5.539675535199999
 10
3.4063307454
 20
5.5388642371
 10
3.4064910018
 20
5.538012874899999
 10
3.406586153999999
 20
5.537121448699999
 10
3.406626218099999
 20
5.5361899583
 10
3.406626218099999
 20
5.5361899583
 10
3.3902800643
 20
5.5361899583
 10
3.3902800643
 20
5.5361899583
 10
3.390325136399999
 20
5.5354688044
 10
3.3904252967
 20
5.5347776987
 10
3.3905855531
 20
5.534121648999999
 10
3.3908059056
 20
5.533500655399999
 10
3.391076338299999
 20
5.532914717899999
 10
3.3914068672
 20
5.5323588285
 10
3.3917974922
 20
5.5318379951
 10
3.392243205299999
 20
5.531347209899999
 10
3.3927339906
 20
5.530906504799999
 10
3.393249815899999
 20
5.530520887799999
 10
3.3937956893
 20
5.5301953669
 10
3.394371610799999
 20
5.529929942299999
 10
3.3949725723
 20
5.5297246137
 10
3.3956035819
 20
5.529579381399999
 10
3.3962596316
 20
5.529489237099999
 10
3.3969457293
 20
5.529459189099999
 10
3.3969457293
 20
5.529459189099999
 10
3.3976168031
 20
5.529484229099999
 10
3.398272852699999
 20
5.529564357299999
 10
3.398923894399999
 20
5.5296995737
 10
3.399564920099999
 20
5.5298848701
 10
3.4001809056
 20
5.530115238699999
 10
3.4007468111
 20
5.530385671399999
 10
3.401262636399999
 20
5.5306861522
 10
3.401733389599999
 20
5.531021689099999
 10
3.402189118799999
 20
5.531427338099999
 10
3.40266488
 20
5.531948171399999
 10
3.403160673299999
 20
5.532569164999999
 10
3.403671490599999
 20
5.533305342899999
  0
LWPOLYLINE
  5
F3
330
1F
100
AcDbEntity
  8
0
  6
Continuous
 62
     5
370
     0
100
AcDbPolyline
 90
       33
 70
   128
 43
0.0
 10
3.4043828079
 20
5.538433547999999
 10
3.4041172037
 20
5.539319966299999
 10
3.4037916829
 20
5.5401112323
 10
3.4034160819
 20
5.5408073461
 10
3.402985392799999
 20
5.5414083076
 10
3.402494607599999
 20
5.541939157
 10
3.4019236941
 20
5.5424149182
 10
3.401282668399999
 20
5.5428355913
 10
3.400566522599999
 20
5.5432011762
 10
3.3998053047
 20
5.543501657
 10
3.3990190467
 20
5.5437119935
 10
3.398217764599999
 20
5.5438422019
 10
3.3973964505
 20
5.543882266
 10
3.3973964505
 20
5.543882266
 10
3.3967253768
 20
5.5438572259
 10
3.396074335099999
 20
5.543777097699999
 10
3.3954483335
 20
5.5436418814
 10
3.39485238
 20
5.5434565849
 10
3.3942714505
 20
5.5432111923
 10
3.3937205691
 20
5.5429207275
 10
3.393194727699999
 20
5.5425701666
 10
3.392688918399999
 20
5.542169525599999
 10
3.392688918399999
 20
5.542169525599999
 10
3.392338357599999
 20
5.541838996699999
 10
3.3920128367
 20
5.541468403799999
 10
3.3917073479
 20
5.5410627548
 10
3.3914268992
 20
5.5406170416
 10
3.3911664826
 20
5.540126256399999
 10
3.3909260979
 20
5.539600414999999
 10
3.390710753399999
 20
5.5390395176
 10
3.390515440899999
 20
5.538433547999999
 10
3.390515440899999
 20
5.538433547999999
 10
3.404382628399999
 20
5.538433547999999
  0
LWPOLYLINE
  5
F4
330
1F
100
AcDbEntity
  8
0
  6
Continuous
 62
     5
370
     0
100
AcDbPolyline
 90
      148
 70
   128
 43
0.0
 10
3.419767376799999
 20
5.5435266971
 10
3.4182448079
 20
5.541959189099999
 10
3.4182448079
 20
5.541959189099999
 10
3.4178441668
 20
5.542409910199999
 10
3.417443525799999
 20
5.542800535199999
 10
3.4170428848
 20
5.543131064099999
 10
3.4166522598
 20
5.543401496699999
 10
3.4162566268
 20
5.5436118333
 10
3.415866001799999
 20
5.543762073699999
 10
3.415475376799999
 20
5.543852217899999
 10
3.4150897598
 20
5.543882266
 10
3.4150897598
 20
5.543882266
 10
3.4146190066
 20
5.543837193899999
 10
3.414183309499999
 20
5.5436969695
 10
3.4137776604
 20
5.5434666009
 10
3.4134120755
 20
5.543141080099999
 10
3.4131065867
 20
5.542755463099999
 10
3.4128912422
 20
5.542344806
 10
3.412761033799999
 20
5.541899092899999
 10
3.4127159617
 20
5.541423331699999
 10
3.4127159617
 20
5.541423331699999
 10
3.412756025799999
 20
5.5409926426
 10
3.4128712101
 20
5.540576977499999
 10
3.413066522599999
 20
5.540166320499999
 10
3.413336955299999
 20
5.5397656794
 10
3.413336955299999
 20
5.5397656794
 10
3.413512235799999
 20
5.5395603509
 10
3.413732588299999
 20
5.5393500144
 10
3.413993005
 20
5.5391246538
 10
3.4142984938
 20
5.538894285199999
 10
3.4146490547
 20
5.538653900599999
 10
3.4150396797
 20
5.538408507999999
 10
3.415470368799999
 20
5.5381480913
 10
3.41594613
 20
5.537882666599999
 10
3.41594613
 20
5.537882666599999
 10
3.416527059499999
 20
5.537552137799999
 10
3.417057908799999
 20
5.5372266169
 10
3.4175436861
 20
5.5369010961
 10
3.4179793832
 20
5.5365805833
 10
3.418365000199999
 20
5.536260070499999
 10
3.418705545099999
 20
5.5359445657
 10
3.4189960098
 20
5.5356290608
 10
3.419236394399999
 20
5.535318564099999
 10
3.419236394399999
 20
5.535318564099999
 10
3.419606987399999
 20
5.534672530399999
 10
3.419877420099999
 20
5.533986432599999
 10
3.420032668399999
 20
5.5332602708
 10
3.4200877566
 20
5.532494044799999
 10
3.4200877566
 20
5.532494044799999
 10
3.420062716499999
 20
5.5319531794
 10
3.419992604299999
 20
5.531432346099999
 10
3.419872411999999
 20
5.5309315448
 10
3.4197071476
 20
5.530455783599999
 10
3.4194867951
 20
5.529995046399999
 10
3.419226378399999
 20
5.529559349299999
 10
3.4189158816
 20
5.529143684199999
 10
3.4185553047
 20
5.5287480512
 10
3.4181596717
 20
5.528387474299999
 10
3.4177440066
 20
5.528076977499999
 10
3.417303301499999
 20
5.5278165608
 10
3.416837556299999
 20
5.527601216299999
 10
3.416346771
 20
5.527430943899999
 10
3.415830945699999
 20
5.527310751599999
 10
3.415295088299999
 20
5.5272406394
 10
3.414734190899999
 20
5.527215599299999
 10
3.414734190899999
 20
5.527215599299999
 10
3.413977980899999
 20
5.5272556634
 10
3.4132418031
 20
5.5273808637
 10
3.4125206492
 20
5.5275861923
 10
3.4118145194
 20
5.527871648999999
 10
3.4111484537
 20
5.5282322259
 10
3.4105424842
 20
5.528657907
 10
3.409996610799999
 20
5.529143684199999
 10
3.4095108335
 20
5.5296895576
 10
3.4095108335
 20
5.5296895576
 10
3.410998213299999
 20
5.531382266
 10
3.410998213299999
 20
5.531382266
 10
3.411428902399999
 20
5.5309315448
 10
3.411864599499999
 20
5.530540919799999
 10
3.412310312699999
 20
5.530210391
 10
3.412756025799999
 20
5.5299399583
 10
3.413211754999999
 20
5.529729621699999
 10
3.413677500199999
 20
5.529579381399999
 10
3.4141432454
 20
5.529489237099999
 10
3.4146190066
 20
5.529459189099999
 10
3.4146190066
 20
5.529459189099999
 10
3.415265040199999
 20
5.5295142772
 10
3.415860993799999
 20
5.529679541599999
 10
3.4164068672
 20
5.529949974299999
 10
3.4169026604
 20
5.5303355913
 10
3.4173133175
 20
5.530791320499999
 10
3.417608790199999
 20
5.531292121699999
 10
3.417784070699999
 20
5.5318229711
 10
3.4178441668
 20
5.532398892599999
 10
3.4178441668
 20
5.532398892599999
 10
3.417804102699999
 20
5.532874653799999
 10
3.417688918399999
 20
5.5333253749
 10
3.417498613999999
 20
5.533746047999999
 10
3.4172281813
 20
5.534141681
 10
3.4172281813
 20
5.534141681
 10
3.417052900799999
 20
5.534331985499999
 10
3.416827540199999
 20
5.534537314099999
 10
3.4165520995
 20
5.5347576666
 10
3.4162315867
 20
5.534988035199999
 10
3.415860993799999
 20
5.5352284198
 10
3.4154403207
 20
5.535478820499999
 10
3.4149745755
 20
5.5357442451
 10
3.414458750199999
 20
5.536024693899999
 10
3.414458750199999
 20
5.536024693899999
 10
3.413902860799999
 20
5.536340198699999
 10
3.413392043399999
 20
5.5366557035
 10
3.412931306299999
 20
5.5369712083
 10
3.4125106332
 20
5.537281705099999
 10
3.412140040199999
 20
5.5375922019
 10
3.4118195274
 20
5.537902698699999
 10
3.4115390787
 20
5.538213195499999
 10
3.411308710099999
 20
5.538518684199999
 10
3.411308710099999
 20
5.538518684199999
 10
3.410943125199999
 20
5.5391547019
 10
3.4106827085
 20
5.5398407996
 10
3.410522452099999
 20
5.5405619535
 10
3.410472372
 20
5.5413331874
 10
3.410472372
 20
5.5413331874
 10
3.410492403999999
 20
5.541838996699999
 10
3.410552500199999
 20
5.542319766
 10
3.410657668399999
 20
5.5427805032
 10
3.410797892799999
 20
5.5432212083
 10
3.410983189299999
 20
5.5436368733
 10
3.411208549899999
 20
5.544032506399999
 10
3.411473974499999
 20
5.544408107299999
 10
3.411779463299999
 20
5.5447586682
 10
3.4121200082
 20
5.545079181
 10
3.412480585099999
 20
5.545354621699999
 10
3.4128611941
 20
5.5455899983
 10
3.413261835099999
 20
5.5457853108
 10
3.413687516199999
 20
5.5459355512
 10
3.414133229299999
 20
5.5460407195
 10
3.4145989745
 20
5.546105823699999
 10
3.4150897598
 20
5.5461258557
 10
3.4150897598
 20
5.5461258557
 10
3.4156706893
 20
5.546085791599999
 10
3.4162516188
 20
5.545965599299999
 10
3.416837556299999
 20
5.5457602708
 10
3.417423493799999
 20
5.545474814099999
 10
3.418004423299999
 20
5.545109229099999
 10
3.418590360799999
 20
5.544663515999999
 10
3.4191813063
 20
5.544137674599999
 10
3.419767243799999
 20
5.5435266971
  0
LWPOLYLINE
  5
F5
330
1F
100
AcDbEntity
  8
0
  6
Continuous
 62
     5
370
     0
100
AcDbPolyline
 90
      148
 70
   128
 43
0.0
 10
3.433228874599999
 20
5.5435266971
 10
3.431706346299999
 20
5.541959189099999
 10
3.431706346299999
 20
5.541959189099999
 10
3.431305705299999
 20
5.542409910199999
 10
3.4309050643
 20
5.542800535199999
 10
3.430504423299999
 20
5.543131064099999
 10
3.430113798299999
 20
5.543401496699999
 10
3.429718165199999
 20
5.5436118333
 10
3.429327540199999
 20
5.543762073699999
 10
3.428936915199999
 20
5.543852217899999
 10
3.428551298299999
 20
5.543882266
 10
3.428551298299999
 20
5.543882266
 10
3.428080545099999
 20
5.543837193899999
 10
3.4276448479
 20
5.5436969695
 10
3.427239198899999
 20
5.5434666009
 10
3.426873613999999
 20
5.543141080099999
 10
3.426568125199999
 20
5.542755463099999
 10
3.426352780599999
 20
5.542344806
 10
3.4262225723
 20
5.541899092899999
 10
3.426177500199999
 20
5.541423331699999
 10
3.426177500199999
 20
5.541423331699999
 10
3.426217564299999
 20
5.5409926426
 10
3.4263327486
 20
5.540576977499999
 10
3.426528061099999
 20
5.540166320499999
 10
3.426798493799999
 20
5.5397656794
 10
3.426798493799999
 20
5.5397656794
 10
3.4269737742
 20
5.5395603509
 10
3.427194126799999
 20
5.5393500144
 10
3.427454543399999
 20
5.5391246538
 10
3.4277600322
 20
5.538894285199999
 10
3.428110593099999
 20
5.538653900599999
 10
3.4285012181
 20
5.538408507999999
 10
3.4289319072
 20
5.5381480913
 10
3.429407668399999
 20
5.537882666599999
 10
3.429407668399999
 20
5.537882666599999
 10
3.4299885979
 20
5.537552137799999
 10
3.4305194473
 20
5.5372266169
 10
3.431005224499999
 20
5.5369010961
 10
3.4314409217
 20
5.5365805833
 10
3.4318265386
 20
5.536260070499999
 10
3.4321670835
 20
5.5359445657
 10
3.432457548299999
 20
5.5356290608
 10
3.4326979329
 20
5.535318564099999
 10
3.4326979329
 20
5.535318564099999
 10
3.433068525799999
 20
5.534672530399999
 10
3.4333389585
 20
5.533986432599999
 10
3.433494206899999
 20
5.5332602708
 10
3.433549295099999
 20
5.532494044799999
 10
3.433549295099999
 20
5.532494044799999
 10
3.433524255
 20
5.5319531794
 10
3.433454142799999
 20
5.531432346099999
 10
3.4333339505
 20
5.5309315448
 10
3.4331686861
 20
5.530455783599999
 10
3.4329483335
 20
5.529995046399999
 10
3.432687916799999
 20
5.529559349299999
 10
3.432377420099999
 20
5.529143684199999
 10
3.432016843099999
 20
5.5287480512
 10
3.431621210099999
 20
5.528387474299999
 10
3.4312055451
 20
5.528076977499999
 10
3.4307648399
 20
5.5278165608
 10
3.4302990947
 20
5.527601216299999
 10
3.429808309499999
 20
5.527430943899999
 10
3.4292924842
 20
5.527310751599999
 10
3.4287566268
 20
5.5272406394
 10
3.4281957293
 20
5.527215599299999
 10
3.4281957293
 20
5.527215599299999
 10
3.4274395194
 20
5.5272556634
 10
3.426703341499999
 20
5.5273808637
 10
3.425982187699999
 20
5.5275861923
 10
3.4252760579
 20
5.527871648999999
 10
3.4246099922
 20
5.5282322259
 10
3.424004022599999
 20
5.528657907
 10
3.4234581492
 20
5.529143684199999
 10
3.422972371999999
 20
5.5296895576
 10
3.422972371999999
 20
5.5296895576
 10
3.4244597518
 20
5.531382266
 10
3.4244597518
 20
5.531382266
 10
3.424890440899999
 20
5.5309315448
 10
3.425326137999999
 20
5.530540919799999
 10
3.425771851099999
 20
5.530210391
 10
3.426217564299999
 20
5.5299399583
 10
3.426673293399999
 20
5.529729621699999
 10
3.4271390386
 20
5.529579381399999
 10
3.4276047838
 20
5.529489237099999
 10
3.428080545099999
 20
5.529459189099999
 10
3.428080545099999
 20
5.529459189099999
 10
3.4287265787
 20
5.5295142772
 10
3.4293225322
 20
5.529679541599999
 10
3.4298684056
 20
5.529949974299999
 10
3.430364198899999
 20
5.5303355913
 10
3.430774855899999
 20
5.530791320499999
 10
3.4310703287
 20
5.531292121699999
 10
3.4312456092
 20
5.5318229711
 10
3.431305705299999
 20
5.532398892599999
 10
3.431305705299999
 20
5.532398892599999
 10
3.431265641199999
 20
5.532874653799999
 10
3.431150456899999
 20
5.5333253749
 10
3.430960152399999
 20
5.533746047999999
 10
3.4306897197
 20
5.534141681
 10
3.4306897197
 20
5.534141681
 10
3.430514439299999
 20
5.534331985499999
 10
3.430289078699999
 20
5.534537314099999
 10
3.430013638
 20
5.5347576666
 10
3.4296931252
 20
5.534988035199999
 10
3.4293225322
 20
5.5352284198
 10
3.4289018592
 20
5.535478820499999
 10
3.428436113999999
 20
5.5357442451
 10
3.4279202886
 20
5.536024693899999
 10
3.4279202886
 20
5.536024693899999
 10
3.4273643992
 20
5.536340198699999
 10
3.4268535819
 20
5.5366557035
 10
3.4263928447
 20
5.5369712083
 10
3.4259721717
 20
5.537281705099999
 10
3.4256015787
 20
5.5375922019
 10
3.425281065899999
 20
5.537902698699999
 10
3.4250006172
 20
5.538213195499999
 10
3.4247702486
 20
5.538518684199999
 10
3.4247702486
 20
5.538518684199999
 10
3.4244046636
 20
5.5391547019
 10
3.424144247
 20
5.5398407996
 10
3.4239839906
 20
5.5405619535
 10
3.4239339104
 20
5.5413331874
 10
3.4239339104
 20
5.5413331874
 10
3.423953942499999
 20
5.541838996699999
 10
3.4240140386
 20
5.542319766
 10
3.424119206899999
 20
5.5427805032
 10
3.424259431299999
 20
5.5432212083
 10
3.424444727699999
 20
5.5436368733
 10
3.424670088299999
 20
5.544032506399999
 10
3.424935513
 20
5.544408107299999
 10
3.425241001799999
 20
5.5447586682
 10
3.4255815467
 20
5.545079181
 10
3.4259421236
 20
5.545354621699999
 10
3.4263227326
 20
5.5455899983
 10
3.4267233736
 20
5.5457853108
 10
3.4271490547
 20
5.5459355512
 10
3.427594767799999
 20
5.5460407195
 10
3.428060513
 20
5.546105823699999
 10
3.428551298299999
 20
5.5461258557
 10
3.428551298299999
 20
5.5461258557
 10
3.429132227699999
 20
5.546085791599999
 10
3.4297131572
 20
5.545965599299999
 10
3.4302990947
 20
5.5457602708
 10
3.4308850322
 20
5.545474814099999
 10
3.4314659617
 20
5.545109229099999
 10
3.4320518992
 20
5.544663515999999
 10
3.4326428447
 20
5.544137674599999
 10
3.4332287822
 20
5.5435266971
  0
LWPOLYLINE
  5
F6
330
1F
100
AcDbEntity
  8
0
  6
Continuous
 62
     5
370
     0
100
AcDbPolyline
 90
       16
 70
   128
 43
0.0
 10
3.458549702099999
 20
5.5525361121
 10
3.4700877566
 20
5.527536112099999
 10
3.4700877566
 20
5.527536112099999
 10
3.4676488543
 20
5.527536112099999
 10
3.4676488543
 20
5.527536112099999
 10
3.463952940899999
 20
5.5355489326
 10
3.463952940899999
 20
5.5355489326
 10
3.4526198079
 20
5.5355489326
 10
3.4526198079
 20
5.5355489326
 10
3.4488187261
 20
5.527536112099999
 10
3.4488187261
 20
5.527536112099999
 10
3.4463698079
 20
5.527536112099999
 10
3.4463698079
 20
5.527536112099999
 10
3.4582287822
 20
5.5525361121
 10
3.4582287822
 20
5.5525361121
 10
3.4585492951
 20
5.5525361121
  0
LWPOLYLINE
  5
F7
330
1F
100
AcDbEntity
  8
0
  6
Continuous
 62
     5
370
     0
100
AcDbPolyline
 90
        6
 70
   128
 43
0.0
 10
3.4583643176
 20
5.5476633157
 10
3.453836755
 20
5.538113035199999
 10
3.453836755
 20
5.538113035199999
 10
3.4627710499
 20
5.538113035199999
 10
3.4627710499
 20
5.538113035199999
 10
3.4583639986
 20
5.5476633157
  0
LWPOLYLINE
  5
F8
330
1F
100
AcDbEntity
  8
0
  6
Continuous
 62
     5
370
     0
100
AcDbPolyline
 90
       36
 70
   128
 43
0.0
 10
3.474725675299999
 20
5.553497650599999
 10
3.475140841499999
 20
5.5534625945
 10
3.4755264585
 20
5.553357426199999
 10
3.475882027399999
 20
5.553177137799999
 10
3.476202540199999
 20
5.552931745099999
 10
3.4764729729
 20
5.5526362724
 10
3.4766632774
 20
5.552305743499999
 10
3.4767784617
 20
5.551950174599999
 10
3.476818525799999
 20
5.551564557599999
 10
3.476818525799999
 20
5.551564557599999
 10
3.4767784617
 20
5.551188956699999
 10
3.4766632774
 20
5.5508383958
 10
3.4764729729
 20
5.550512874899999
 10
3.476202540199999
 20
5.5502174022
 10
3.475882027399999
 20
5.5499720096
 10
3.4755264585
 20
5.5497917211
 10
3.475140841499999
 20
5.549686552799999
 10
3.474725176499999
 20
5.549651496699999
 10
3.474725176499999
 20
5.549651496699999
 10
3.4743145194
 20
5.549686552799999
 10
3.473938918399999
 20
5.5497917211
 10
3.473583349499999
 20
5.5499720096
 10
3.4732628367
 20
5.5502174022
 10
3.472997411999999
 20
5.550512874899999
 10
3.472807107599999
 20
5.5508383958
 10
3.472691923299999
 20
5.551188956699999
 10
3.472651859199999
 20
5.551564557599999
 10
3.472651859199999
 20
5.551564557599999
 10
3.472691923299999
 20
5.551950174599999
 10
3.472807107599999
 20
5.552305743499999
 10
3.472997411999999
 20
5.5526362724
 10
3.4732628367
 20
5.552931745099999
 10
3.473583349499999
 20
5.553177137799999
 10
3.473938918399999
 20
5.553357426199999
 10
3.4743145194
 20
5.5534625945
 10
3.474725176499999
 20
5.553497650599999
  0
LWPOLYLINE
  5
F9
330
1F
100
AcDbEntity
  8
0
  6
Continuous
 62
     5
370
     0
100
AcDbPolyline
 90
        8
 70
   128
 43
0.0
 10
3.4736139548
 20
5.545805342899999
 10
3.4758569874
 20
5.545805342899999
 10
3.4758569874
 20
5.545805342899999
 10
3.4758569874
 20
5.527536112099999
 10
3.4758569874
 20
5.527536112099999
 10
3.473613397599999
 20
5.527536112099999
 10
3.473613397599999
 20
5.527536112099999
 10
3.473613397599999
 20
5.545805342899999
  0
LWPOLYLINE
  5
FA
330
1F
100
AcDbEntity
  8
0
  6
Continuous
 62
     5
370
     0
100
AcDbPolyline
 90
       53
 70
   128
 43
0.0
 10
3.480665019999999
 20
5.545805342899999
 10
3.482908269399999
 20
5.545805342899999
 10
3.482908269399999
 20
5.545805342899999
 10
3.482908269399999
 20
5.54311604
 10
3.482908269399999
 20
5.54311604
 10
3.4834190867
 20
5.5438572259
 10
3.4839449281
 20
5.544488235499999
 10
3.4844807854
 20
5.5450040608
 10
3.485031666799999
 20
5.545414717899999
 10
3.4855975723
 20
5.5457252147
 10
3.486178501799999
 20
5.5459505753
 10
3.486764439299999
 20
5.546080783599999
 10
3.487365400799999
 20
5.5461258557
 10
3.487365400799999
 20
5.5461258557
 10
3.487831146
 20
5.546085791599999
 10
3.488311915199999
 20
5.5459706073
 10
3.4888077085
 20
5.5457752948
 10
3.489318525799999
 20
5.5454998541
 10
3.489318525799999
 20
5.5454998541
 10
3.4880865547
 20
5.5435567451
 10
3.4880865547
 20
5.5435567451
 10
3.4877610338
 20
5.5436969695
 10
3.4874605531
 20
5.543802137799999
 10
3.4871851124
 20
5.543862233899999
 10
3.4869397197
 20
5.543882266
 10
3.4869397197
 20
5.543882266
 10
3.486403862399999
 20
5.5438221698
 10
3.485873012999999
 20
5.5436418814
 10
3.4853571877
 20
5.543341400599999
 10
3.4848463704
 20
5.5429207275
 10
3.484600977699999
 20
5.5426653189
 10
3.484370609199999
 20
5.542374854099999
 10
3.4841602726
 20
5.5420543413
 10
3.483959952099999
 20
5.5416987724
 10
3.483774655599999
 20
5.541308147399999
 10
3.483604383199999
 20
5.540887474299999
 10
3.4834491348
 20
5.5404317451
 10
3.4833089104
 20
5.539945967899999
 10
3.4833089104
 20
5.539945967899999
 10
3.483213758199999
 20
5.5395102708
 10
3.48313363
 20
5.5389744134
 10
3.483063517799999
 20
5.5383383958
 10
3.4830084297
 20
5.537602217899999
 10
3.4829633576
 20
5.536770887799999
 10
3.482933309499999
 20
5.5358393974
 10
3.4829132774
 20
5.534807746699999
 10
3.482908269399999
 20
5.5336759358
 10
3.482908269399999
 20
5.5336759358
 10
3.482908269399999
 20
5.527536112099999
 10
3.482908269399999
 20
5.527536112099999
 10
3.4806646797
 20
5.527536112099999
 10
3.4806646797
 20
5.527536112099999
 10
3.4806646797
 20
5.545805342899999
  0
LWPOLYLINE
  5
FB
330
1F
100
AcDbEntity
  8
0
  6
Continuous
 62
     5
370
     0
100
AcDbPolyline
 90
       68
 70
   128
 43
0.0
 10
3.499254511899999
 20
5.553026897399999
 10
3.4992544233
 20
5.5506931634
 10
3.4992544233
 20
5.5506931634
 10
3.498613397599999
 20
5.550938556
 10
3.498022452099999
 20
5.551113836499999
 10
3.4974765787
 20
5.5512190048
 10
3.4969807854
 20
5.5512540608
 10
3.4969807854
 20
5.5512540608
 10
3.4966452486
 20
5.551234028799999
 10
3.4963347518
 20
5.5511839487
 10
3.4960593111
 20
5.5510938044
 10
3.4958089104
 20
5.550968604099999
 10
3.495598573899999
 20
5.5508183637
 10
3.495428301499999
 20
5.550663115299999
 10
3.4953031011
 20
5.550492842899999
 10
3.4952229729
 20
5.5503125544
 10
3.495192924899999
 20
5.5502023782
 10
3.495172892799999
 20
5.550052137799999
 10
3.495147852699999
 20
5.5498618333
 10
3.4951328287
 20
5.549636472699999
 10
3.4951178047
 20
5.549366039999999
 10
3.495112796699999
 20
5.549065559199999
 10
3.495102780599999
 20
5.548720006399999
 10
3.495102780599999
 20
5.5483393974
 10
3.495102780599999
 20
5.5483393974
 10
3.495102780599999
 20
5.545805342899999
 10
3.495102780599999
 20
5.545805342899999
 10
3.4989339104
 20
5.545805342899999
 10
3.4989339104
 20
5.545805342899999
 10
3.4989339104
 20
5.5435617532
 10
3.4989339104
 20
5.5435617532
 10
3.495097772599999
 20
5.5435617532
 10
3.495097772599999
 20
5.5435617532
 10
3.4950877566
 20
5.527536112099999
 10
3.4950877566
 20
5.527536112099999
 10
3.492844166799999
 20
5.527536112099999
 10
3.492844166799999
 20
5.527536112099999
 10
3.492844166799999
 20
5.5435617532
 10
3.492844166799999
 20
5.5435617532
 10
3.4902800643
 20
5.5435617532
 10
3.4902800643
 20
5.5435617532
 10
3.4902800643
 20
5.545805342899999
 10
3.4902800643
 20
5.545805342899999
 10
3.492844166799999
 20
5.545805342899999
 10
3.492844166799999
 20
5.545805342899999
 10
3.492844166799999
 20
5.5487250144
 10
3.492844166799999
 20
5.5487250144
 10
3.492849174899999
 20
5.549210791599999
 10
3.4928692069
 20
5.5496565048
 10
3.492894246999999
 20
5.550067161799999
 10
3.492934311099999
 20
5.5504477708
 10
3.4929843912
 20
5.550783307599999
 10
3.4930494954
 20
5.5510887964
 10
3.493119607599999
 20
5.5513592291
 10
3.493204743799999
 20
5.551589597699999
 10
3.493415080299999
 20
5.5520002548
 10
3.493690521
 20
5.5523658397
 10
3.4940260579
 20
5.552691360499999
 10
3.494426698899999
 20
5.552971809199999
 10
3.494882428099999
 20
5.553202177799999
 10
3.4953832293
 20
5.553367442299999
 10
3.495929102699999
 20
5.5534625945
 10
3.496520048299999
 20
5.553497650599999
 10
3.496520048299999
 20
5.553497650599999
 10
3.4971210098
 20
5.553467602499999
 10
3.497777059499999
 20
5.553382466299999
 10
3.4984881973
 20
5.5532322259
 10
3.4992544233
 20
5.553026897399999
  0
ARC
  5
FC
330
1F
100
AcDbEntity
  8
0
  6
Continuous
 62
     5
370
     0
100
AcDbCircle
 10
3.511283821499999
 20
5.5366706359
 30
0.0
 40
0.0094552197924869
100
AcDbArc
 50
90.00091772309998
 51
89.99908227700002
  0
ARC
  5
FD
330
1F
100
AcDbEntity
  8
0
  6
Continuous
 62
     5
370
     0
100
AcDbCircle
 10
3.5112738269
 20
5.536672157299999
 30
0.0
 40
0.0072101087197235
100
AcDbArc
 50
90.00137354999999
 51
89.99862640180001
  0
LWPOLYLINE
  5
FE
330
1F
100
AcDbEntity
  8
0
  6
Continuous
 62
     5
370
     0
100
AcDbPolyline
 90
       36
 70
   128
 43
0.0
 10
3.526007376199999
 20
5.553497650599999
 10
3.526422892799999
 20
5.5534625945
 10
3.5268085098
 20
5.553357426199999
 10
3.5271640787
 20
5.553177137799999
 10
3.527484591499999
 20
5.552931745099999
 10
3.5277550242
 20
5.5526362724
 10
3.527945328699999
 20
5.552305743499999
 10
3.528060513
 20
5.551950174599999
 10
3.528100577099999
 20
5.551564557599999
 10
3.528100577099999
 20
5.551564557599999
 10
3.528060513
 20
5.551188956699999
 10
3.527945328699999
 20
5.5508383958
 10
3.5277550242
 20
5.550512874899999
 10
3.527484591499999
 20
5.5502174022
 10
3.5271640787
 20
5.5499720096
 10
3.5268085098
 20
5.5497917211
 10
3.526422892799999
 20
5.549686552799999
 10
3.526007227699999
 20
5.549651496699999
 10
3.526007227699999
 20
5.549651496699999
 10
3.525596570699999
 20
5.549686552799999
 10
3.5252209697
 20
5.5497917211
 10
3.524865400799999
 20
5.5499720096
 10
3.524544888
 20
5.5502174022
 10
3.524279463299999
 20
5.550512874899999
 10
3.524089158799999
 20
5.5508383958
 10
3.5239739745
 20
5.551188956699999
 10
3.5239339104
 20
5.551564557599999
 10
3.5239339104
 20
5.551564557599999
 10
3.5239739745
 20
5.551950174599999
 10
3.524089158799999
 20
5.552305743499999
 10
3.524279463299999
 20
5.5526362724
 10
3.524544888
 20
5.552931745099999
 10
3.524865400799999
 20
5.553177137799999
 10
3.5252209697
 20
5.553357426199999
 10
3.525596570699999
 20
5.5534625945
 10
3.526007227699999
 20
5.553497650599999
  0
LWPOLYLINE
  5
FF
330
1F
100
AcDbEntity
  8
0
  6
Continuous
 62
     5
370
     0
100
AcDbPolyline
 90
        8
 70
   128
 43
0.0
 10
3.524895655699999
 20
5.545805342899999
 10
3.5271390386
 20
5.545805342899999
 10
3.5271390386
 20
5.545805342899999
 10
3.5271390386
 20
5.527536112099999
 10
3.5271390386
 20
5.527536112099999
 10
3.524895448899999
 20
5.527536112099999
 10
3.524895448899999
 20
5.527536112099999
 10
3.524895448899999
 20
5.545805342899999
  0
LWPOLYLINE
  5
100
330
1F
100
AcDbEntity
  8
0
  6
Continuous
 62
     5
370
     0
100
AcDbPolyline
 90
        8
 70
   128
 43
0.0
 10
3.532267623899999
 20
5.553177137799999
 10
3.5345108335
 20
5.553177137799999
 10
3.5345108335
 20
5.553177137799999
 10
3.5345108335
 20
5.527536112099999
 10
3.5345108335
 20
5.527536112099999
 10
3.532267243799999
 20
5.527536112099999
 10
3.532267243799999
 20
5.527536112099999
 10
3.532267243799999
 20
5.553177137799999
  0
LWPOLYLINE
  5
101
330
1F
100
AcDbEntity
  8
0
  6
Continuous
 62
     5
370
     0
100
AcDbPolyline
 90
      171
 70
   128
 43
0.0
 10
3.3051293411
 20
5.862964838999999
 10
3.307242691199999
 20
5.864231866199999
 10
3.307242691199999
 20
5.864231866199999
 10
3.307848660799999
 20
5.863255303699999
 10
3.3084746624
 20
5.8624089496
 10
3.309125703999999
 20
5.8616928037
 10
3.309801785799999
 20
5.8611068662
 10
3.3104978995
 20
5.8606511371
 10
3.311219053399999
 20
5.860325616199999
 10
3.3119652473
 20
5.8601303037
 10
3.312731473299999
 20
5.8600651996
 10
3.312731473299999
 20
5.8600651996
 10
3.3133875229
 20
5.8601002557
 10
3.3140235406
 20
5.8602104319
 10
3.3146395261
 20
5.860390720399999
 10
3.3152354797
 20
5.8606461291
 10
3.3157863611
 20
5.860961633899999
 10
3.316267130299999
 20
5.861332226799999
 10
3.3166777874
 20
5.8617478919
 10
3.3170183322
 20
5.862213637099999
 10
3.317283756899999
 20
5.8627144384
 10
3.3174790694
 20
5.8632302637
 10
3.317589245699999
 20
5.863756105
 10
3.3176293098
 20
5.8643019784
 10
3.3176293098
 20
5.8643019784
 10
3.3175742217
 20
5.864922972
 10
3.3174039492
 20
5.865543965599999
 10
3.3171235005
 20
5.8661499351
 10
3.3167328755
 20
5.8667559047
 10
3.3167328755
 20
5.8667559047
 10
3.316392330599999
 20
5.8671815858
 10
3.315991689599999
 20
5.867627298899999
 10
3.3155209364
 20
5.8680930441
 10
3.314990086999999
 20
5.8685838294
 10
3.3143941335
 20
5.8690896387
 10
3.3137380838
 20
5.869620487999999
 10
3.313011921999999
 20
5.8701713694
 10
3.312225663999999
 20
5.870742282899999
 10
3.312225663999999
 20
5.870742282899999
 10
3.311439406
 20
5.8713081884
 10
3.3107332761
 20
5.8718390377
 10
3.310107274499999
 20
5.872324814999999
 10
3.309556393099999
 20
5.872770528099999
 10
3.3090806319
 20
5.8731761771
 10
3.3086849989
 20
5.873536754099999
 10
3.3083694941
 20
5.8738622749
 10
3.308129109499999
 20
5.8741427236
 10
3.308129109499999
 20
5.8741427236
 10
3.3078035886
 20
5.874588436799999
 10
3.307518131899999
 20
5.875039157899999
 10
3.3072777473
 20
5.875499895099999
 10
3.3070824348
 20
5.875975656299999
 10
3.306927186399999
 20
5.8764514175
 10
3.3068170101
 20
5.876942202799999
 10
3.306751906
 20
5.877443004099999
 10
3.3067318739
 20
5.8779488134
 10
3.3067318739
 20
5.8779488134
 10
3.306781953999999
 20
5.8787400794
 10
3.306932194399999
 20
5.8795012973
 10
3.307177586999999
 20
5.880222451199999
 10
3.3075231399
 20
5.880908548899999
 10
3.307963845099999
 20
5.8815395585
 10
3.3084796704
 20
5.882105463999999
 10
3.3090806319
 20
5.8825912412
 10
3.3097567136
 20
5.883011914299999
 10
3.310492891499999
 20
5.883347451199999
 10
3.3112641255
 20
5.883592843799999
 10
3.312060399499999
 20
5.8837330682
 10
3.3128917297
 20
5.8837831483
 10
3.3128917297
 20
5.8837831483
 10
3.313773139899999
 20
5.8837280601
 10
3.3146295101
 20
5.8835577877
 10
3.3154508242
 20
5.883272331
 10
3.316247098299999
 20
5.882876697999999
 10
3.316642731299999
 20
5.882626297299999
 10
3.3170383643
 20
5.8823308246
 10
3.317444013299999
 20
5.881985271699999
 10
3.3178546704
 20
5.881594646699999
 10
3.3182703354
 20
5.8811539416
 10
3.3186910085
 20
5.880668164299999
 10
3.319121697599999
 20
5.8801323069
 10
3.3195523867
 20
5.8795513775
 10
3.3195523867
 20
5.8795513775
 10
3.317524141499999
 20
5.878013917499999
 10
3.317524141499999
 20
5.878013917499999
 10
3.3171535486
 20
5.8784846707
 10
3.3167979797
 20
5.878910351799999
 10
3.3164574348
 20
5.8792959688
 10
3.316126906
 20
5.8796365137
 10
3.315816409199999
 20
5.8799369944
 10
3.315515928399999
 20
5.8801974111
 10
3.3152254636
 20
5.880417763699999
 10
3.314955031
 20
5.880593044099999
 10
3.3144141656
 20
5.8808684848
 10
3.313848260099999
 20
5.8810637973
 10
3.313257314599999
 20
5.881178981599999
 10
3.312641328999999
 20
5.8812190457
 10
3.312641328999999
 20
5.8812190457
 10
3.311870095099999
 20
5.8811639576
 10
3.3111739813
 20
5.8809886771
 10
3.310552987699999
 20
5.8807032204
 10
3.310002106299999
 20
5.8803025794
 10
3.309551385099999
 20
5.8798218101
 10
3.3092308723
 20
5.8792859528
 10
3.309040567799999
 20
5.8786950073
 10
3.308975463599999
 20
5.878053981599999
 10
3.308975463599999
 20
5.878053981599999
 10
3.3089954957
 20
5.877653340599999
 10
3.3090656079
 20
5.8772577076
 10
3.3091707761
 20
5.876867082599999
 10
3.309326024499999
 20
5.876481465599999
 10
3.3095413691
 20
5.876090840599999
 10
3.309826825799999
 20
5.875685191599999
 10
3.3101874027
 20
5.875264518499999
 10
3.310623099899999
 20
5.874823813399999
 10
3.310623099899999
 20
5.874823813399999
 10
3.3107883643
 20
5.874678581
 10
3.311023740899999
 20
5.8744882765
 10
3.311334237699999
 20
5.8742528999
 10
3.3117198547
 20
5.8739624351
 10
3.312175583799999
 20
5.8736268983
 10
3.312706433199999
 20
5.873246289299999
 10
3.3133073947
 20
5.8728156002
 10
3.313983476499999
 20
5.872334830999999
 10
3.313983476499999
 20
5.872334830999999
 10
3.314794774499999
 20
5.8717388775
 10
3.3155409685
 20
5.871162956
 10
3.316217050199999
 20
5.8706020585
 10
3.316828027699999
 20
5.8700561851
 10
3.3173739011
 20
5.8695303438
 10
3.3178546704
 20
5.869019526499999
 10
3.3182703354
 20
5.8685237332
 10
3.318615888299999
 20
5.868042963999999
 10
3.3191667697
 20
5.867101457599999
 10
3.3195573947
 20
5.8661599512
 10
3.319792771299999
 20
5.865213436799999
 10
3.319872899499999
 20
5.8642669223
 10
3.319872899499999
 20
5.8642669223
 10
3.319842851499999
 20
5.8635958486
 10
3.3197426912
 20
5.8629448069
 10
3.3195824348
 20
5.8623188053
 10
3.3193520662
 20
5.8617128358
 10
3.319061601499999
 20
5.8611268983
 10
3.318701024499999
 20
5.8605660009
 10
3.318280351499999
 20
5.8600301435
 10
3.3177895662
 20
5.8595143182
 10
3.3172537088
 20
5.859043565
 10
3.316692811399999
 20
5.858632907899999
 10
3.316101865899999
 20
5.858287354999999
 10
3.315485880299999
 20
5.858006906299999
 10
3.314839846699999
 20
5.8577865537
 10
3.314163764899999
 20
5.8576262973
 10
3.313462643099999
 20
5.8575311451
 10
3.312731473299999
 20
5.857501097
 10
3.312731473299999
 20
5.857501097
 10
3.312165567799999
 20
5.857521129099999
 10
3.311609678399999
 20
5.857581225199999
 10
3.311068813
 20
5.857676377499999
 10
3.3105429717
 20
5.857816601799999
 10
3.310032154299999
 20
5.8579918823
 10
3.3095313531
 20
5.858207226799999
 10
3.309045575799999
 20
5.858462635499999
 10
3.308569814599999
 20
5.8587581082
 10
3.3081090774
 20
5.859098653099999
 10
3.3076583563
 20
5.8594942861
 10
3.3072126431
 20
5.859939999299999
 10
3.306776946
 20
5.860440800499999
 10
3.306351264899999
 20
5.8609916819
 10
3.3059355999
 20
5.861597651499999
 10
3.3055299508
 20
5.8622537012
 10
3.3051293098
 20
5.862964838999999
  0
LWPOLYLINE
  5
102
330
1F
100
AcDbEntity
  8
0
  6
Continuous
 62
     5
370
     0
100
AcDbPolyline
 90
      100
 70
   128
 43
0.0
 10
3.3393550791
 20
5.8639113534
 10
3.3413472585
 20
5.8628646787
 10
3.3413472585
 20
5.8628646787
 10
3.340856473299999
 20
5.862028340599999
 10
3.3403306319
 20
5.8612771387
 10
3.339769734499999
 20
5.860606064999999
 10
3.3391687729
 20
5.860025135499999
 10
3.338532755299999
 20
5.8595193262
 10
3.3378616816
 20
5.859078621
 10
3.337145535799999
 20
5.8586980121
 10
3.336394333799999
 20
5.858382507299999
 10
3.3355980598
 20
5.8581371146
 10
3.3347517056
 20
5.857961834199999
 10
3.3338552713
 20
5.857856665899999
 10
3.332908756899999
 20
5.8578216098
 10
3.332908756899999
 20
5.8578216098
 10
3.3318570742
 20
5.8578666819
 10
3.330865487699999
 20
5.8580018983
 10
3.3299339973
 20
5.858227258899999
 10
3.3290575951
 20
5.8585427637
 10
3.328246296999999
 20
5.8589484127
 10
3.327490086999999
 20
5.859444206
 10
3.3267889652
 20
5.8600301435
 10
3.326152947599999
 20
5.860706225199999
 10
3.325582034199999
 20
5.8614373951
 10
3.325086240899999
 20
5.862193604999999
 10
3.324670575799999
 20
5.862974855
 10
3.324330031
 20
5.863781145099999
 10
3.324059598299999
 20
5.864607467199999
 10
3.3238692938
 20
5.8654538214
 10
3.323759117499999
 20
5.8663302236
 10
3.323719053399999
 20
5.867226657899999
 10
3.323719053399999
 20
5.867226657899999
 10
3.323754109499999
 20
5.868068004099999
 10
3.323849261699999
 20
5.8688893182
 10
3.3240145261
 20
5.8696855922
 10
3.3242448947
 20
5.870461834199999
 10
3.3245403675
 20
5.8712130361
 10
3.324900944399999
 20
5.871939197999999
 10
3.3253316335
 20
5.872645327799999
 10
3.3258224188
 20
5.8733264175
 10
3.3258224188
 20
5.8733264175
 10
3.326518532599999
 20
5.874122691599999
 10
3.327269734499999
 20
5.874818805299999
 10
3.3280760245
 20
5.8753997348
 10
3.328942410799999
 20
5.875880504099999
 10
3.329863885099999
 20
5.876251097
 10
3.330840447599999
 20
5.8765215297
 10
3.331872098299999
 20
5.876676778099999
 10
3.3329638451
 20
5.8767318662
 10
3.3329638451
 20
5.8767318662
 10
3.3340856399
 20
5.876676778099999
 10
3.3351523467
 20
5.8765065057
 10
3.3361589572
 20
5.8762260569
 10
3.3371054717
 20
5.8758354319
 10
3.3379968979
 20
5.875329622599999
 10
3.3388282281
 20
5.874708629099999
 10
3.339604470099999
 20
5.873977459199999
 10
3.340320615899999
 20
5.873136112999999
 10
3.340320615899999
 20
5.873136112999999
 10
3.3407813531
 20
5.8724800634
 10
3.3411769861
 20
5.871788957599999
 10
3.341517531
 20
5.8710527797
 10
3.3417929717
 20
5.8702815457
 10
3.3420133242
 20
5.869470247599999
 10
3.342173580599999
 20
5.868618885499999
 10
3.3422687329
 20
5.867727459199999
 10
3.342308796999999
 20
5.866795968799999
 10
3.342308796999999
 20
5.866795968799999
 10
3.3259626431
 20
5.866795968799999
 10
3.3259626431
 20
5.866795968799999
 10
3.326007715199999
 20
5.866074815
 10
3.326107875499999
 20
5.865383709199999
 10
3.3262681319
 20
5.8647276595
 10
3.3264884845
 20
5.8641066659
 10
3.3267589172
 20
5.8635207284
 10
3.327089446
 20
5.862964838999999
 10
3.327480071
 20
5.8624440057
 10
3.3279257842
 20
5.861953220399999
 10
3.328416569399999
 20
5.861512515299999
 10
3.3289323947
 20
5.8611268983
 10
3.329478268099999
 20
5.860801377499999
 10
3.330054189599999
 20
5.860535952799999
 10
3.3306551511
 20
5.860330624299999
 10
3.331286160799999
 20
5.8601853919
 10
3.3319422104
 20
5.8600952476
 10
3.332628308199999
 20
5.8600651996
 10
3.332628308199999
 20
5.8600651996
 10
3.333299381899999
 20
5.8600902396
 10
3.3339554316
 20
5.860170367799999
 10
3.3346064733
 20
5.860305584199999
 10
3.335247498899999
 20
5.8604908807
 10
3.335863484499999
 20
5.860721249299999
 10
3.3364293899
 20
5.8609916819
 10
3.336945215199999
 20
5.861292162699999
 10
3.3374159685
 20
5.8616276996
 10
3.337871697599999
 20
5.862033348599999
 10
3.338347458799999
 20
5.8625541819
 10
3.338843252099999
 20
5.863175175499999
 10
3.3393540694
 20
5.8639113534
  0
LWPOLYLINE
  5
103
330
1F
100
AcDbEntity
  8
0
  6
Continuous
 62
     5
370
     0
100
AcDbPolyline
 90
       33
 70
   128
 43
0.0
 10
3.340066110899999
 20
5.869039558499999
 10
3.3397997826
 20
5.869925976799999
 10
3.339474261699999
 20
5.870717242799999
 10
3.339098660799999
 20
5.871413356599999
 10
3.3386679717
 20
5.8720143182
 10
3.338177186399999
 20
5.8725451675
 10
3.3376062729
 20
5.873020928699999
 10
3.3369652473
 20
5.873441601799999
 10
3.336249101499999
 20
5.873807186799999
 10
3.3354878835
 20
5.874107667499999
 10
3.3347016255
 20
5.8743180041
 10
3.3339003435
 20
5.874448212399999
 10
3.333079029299999
 20
5.8744882765
 10
3.333079029299999
 20
5.8744882765
 10
3.332407955599999
 20
5.874463236399999
 10
3.331756913999999
 20
5.8743831082
 10
3.331130912399999
 20
5.8742478919
 10
3.330534958799999
 20
5.874062595399999
 10
3.3299540293
 20
5.873817202799999
 10
3.3294031479
 20
5.873526737999999
 10
3.3288773066
 20
5.8731761771
 10
3.3283714973
 20
5.872775536099999
 10
3.3283714973
 20
5.872775536099999
 10
3.328020936399999
 20
5.8724450073
 10
3.3276954156
 20
5.872074414299999
 10
3.3273899268
 20
5.871668765299999
 10
3.3271094781
 20
5.8712230521
 10
3.326849061399999
 20
5.8707322669
 10
3.3266086768
 20
5.870206425499999
 10
3.3263933322
 20
5.869645528099999
 10
3.3261980197
 20
5.869039558499999
 10
3.3261980197
 20
5.869039558499999
 10
3.3400652072
 20
5.869039558499999
  0
LWPOLYLINE
  5
104
330
1F
100
AcDbEntity
  8
0
  6
Continuous
 62
     5
370
     0
100
AcDbPolyline
 90
       53
 70
   128
 43
0.0
 10
3.3461556405
 20
5.876411353399999
 10
3.348398540599999
 20
5.876411353399999
 10
3.348398540599999
 20
5.876411353399999
 10
3.348398540599999
 20
5.873722050499999
 10
3.348398540599999
 20
5.873722050499999
 10
3.3489093579
 20
5.874463236399999
 10
3.3494351992
 20
5.875094246
 10
3.3499710566
 20
5.875610071399999
 10
3.350521937999999
 20
5.8760207284
 10
3.3510878435
 20
5.876331225199999
 10
3.3516687729
 20
5.8765565858
 10
3.3522547104
 20
5.876686794099999
 10
3.352855672
 20
5.8767318662
 10
3.352855672
 20
5.8767318662
 10
3.3533214172
 20
5.8766918021
 10
3.353802186399999
 20
5.876576617799999
 10
3.3542979797
 20
5.876381305299999
 10
3.354808797
 20
5.8761058646
 10
3.354808797
 20
5.8761058646
 10
3.353576825799999
 20
5.8741627557
 10
3.353576825799999
 20
5.8741627557
 10
3.353251305
 20
5.87430298
 10
3.3529508242
 20
5.8744081483
 10
3.3526753835
 20
5.8744682444
 10
3.352429990899999
 20
5.8744882765
 10
3.352429990899999
 20
5.8744882765
 10
3.3518941335
 20
5.874428180299999
 10
3.3513632842
 20
5.8742478919
 10
3.3508474588
 20
5.8739474111
 10
3.350336641499999
 20
5.873526737999999
 10
3.350091248899999
 20
5.8732713294
 10
3.349860880299999
 20
5.8729808646
 10
3.3496505438
 20
5.872660351799999
 10
3.349450223299999
 20
5.872304782899999
 10
3.3492649268
 20
5.8719141579
 10
3.349094654299999
 20
5.8714934848
 10
3.348939406
 20
5.8710377557
 10
3.3487991816
 20
5.870551978399999
 10
3.3487991816
 20
5.870551978399999
 10
3.348704029299999
 20
5.870116281299999
 10
3.3486239011
 20
5.869580423899999
 10
3.348553788999999
 20
5.868944406299999
 10
3.3484987008
 20
5.8682082284
 10
3.3484536287
 20
5.8673768983
 10
3.3484235806
 20
5.866445407899999
 10
3.3484035486
 20
5.865413757299999
 10
3.348398540599999
 20
5.8642819464
 10
3.348398540599999
 20
5.8642819464
 10
3.348398540599999
 20
5.8581421226
 10
3.348398540599999
 20
5.8581421226
 10
3.346154950799999
 20
5.8581421226
 10
3.346154950799999
 20
5.8581421226
 10
3.346154950799999
 20
5.876411353399999
  0
LWPOLYLINE
  5
105
330
1F
100
AcDbEntity
  8
0
  6
Continuous
 62
     5
370
     0
100
AcDbPolyline
 90
       14
 70
   128
 43
0.0
 10
3.3551303635
 20
5.876411353399999
 10
3.357558196
 20
5.876411353399999
 10
3.357558196
 20
5.876411353399999
 10
3.363622899499999
 20
5.863110071399999
 10
3.363622899499999
 20
5.863110071399999
 10
3.3696876031
 20
5.876411353399999
 10
3.3696876031
 20
5.876411353399999
 10
3.3721164893
 20
5.876411353399999
 10
3.3721164893
 20
5.876411353399999
 10
3.363783156
 20
5.8581421226
 10
3.363783156
 20
5.8581421226
 10
3.3634626431
 20
5.8581421226
 10
3.3634626431
 20
5.8581421226
 10
3.3551293098
 20
5.876411353399999
  0
ARC
  5
106
330
1F
100
AcDbEntity
  8
0
  6
Continuous
 62
     5
370
     0
100
AcDbCircle
 10
3.384786978
 20
5.867276646399999
 30
0.0
 40
0.0094552198300765
100
AcDbArc
 50
90.0013104962
 51
89.99868950379999
  0
ARC
  5
107
330
1F
100
AcDbEntity
  8
0
  6
Continuous
 62
     5
370
     0
100
AcDbCircle
 10
3.384776983399999
 20
5.867278170299999
 30
0.0
 40
0.0072101061952375
100
AcDbArc
 50
90.0018886512
 51
89.9981113491
  0
LWPOLYLINE
  5
108
330
1F
100
AcDbEntity
  8
0
  6
Continuous
 62
     5
370
     0
100
AcDbPolyline
 90
       16
 70
   128
 43
0.0
 10
3.419232343
 20
5.883142122599999
 10
3.4307703354
 20
5.8581421226
 10
3.4307703354
 20
5.8581421226
 10
3.428331433199999
 20
5.8581421226
 10
3.428331433199999
 20
5.8581421226
 10
3.4246355197
 20
5.8661549432
 10
3.4246355197
 20
5.8661549432
 10
3.4133023867
 20
5.8661549432
 10
3.4133023867
 20
5.8661549432
 10
3.409501305
 20
5.8581421226
 10
3.409501305
 20
5.8581421226
 10
3.4070523867
 20
5.8581421226
 10
3.4070523867
 20
5.8581421226
 10
3.4189113611
 20
5.883142122599999
 10
3.4189113611
 20
5.883142122599999
 10
3.419231873899999
 20
5.883142122599999
  0
LWPOLYLINE
  5
109
330
1F
100
AcDbEntity
  8
0
  6
Continuous
 62
     5
370
     0
100
AcDbPolyline
 90
        6
 70
   128
 43
0.0
 10
3.4190469585
 20
5.878269326199999
 10
3.414519333799999
 20
5.8687190457
 10
3.414519333799999
 20
5.8687190457
 10
3.423453628699999
 20
5.8687190457
 10
3.423453628699999
 20
5.8687190457
 10
3.4190465774
 20
5.878269326199999
  0
LWPOLYLINE
  5
10A
330
1F
100
AcDbEntity
  8
0
  6
Continuous
 62
     5
370
     0
100
AcDbPolyline
 90
      124
 70
   128
 43
0.0
 10
3.452565771299999
 20
5.8724500153
 10
3.4506872024
 20
5.8712831483
 10
3.4506872024
 20
5.8712831483
 10
3.4500511848
 20
5.872034350199999
 10
3.449355071
 20
5.8726853919
 10
3.448608877099999
 20
5.8732362733
 10
3.4478075951
 20
5.8736869944
 10
3.4469462168
 20
5.8740375553
 10
3.4460297505
 20
5.874287955999999
 10
3.445063203999999
 20
5.874438196399999
 10
3.444036561399999
 20
5.8744882765
 10
3.444036561399999
 20
5.8744882765
 10
3.4432152473
 20
5.874453220399999
 10
3.4424239813
 20
5.8743580682
 10
3.4416727793
 20
5.874192803699999
 10
3.4409566335
 20
5.8739674432
 10
3.440275543799999
 20
5.873671970399999
 10
3.4396295101
 20
5.873311393499999
 10
3.4390185326
 20
5.8728907204
 10
3.4384426111
 20
5.872399935099999
 10
3.437921777699999
 20
5.871864077799999
 10
3.4374710566
 20
5.8712981723
 10
3.437085439599999
 20
5.870707226799999
 10
3.436774942799999
 20
5.8700862332
 10
3.436529550199999
 20
5.8694401996
 10
3.436359277699999
 20
5.868764117799999
 10
3.4362541095
 20
5.868057987999999
 10
3.436219053399999
 20
5.8673268182
 10
3.436219053399999
 20
5.8673268182
 10
3.436284157599999
 20
5.866370287699999
 10
3.436474462
 20
5.865443805299999
 10
3.4367949749
 20
5.864542362999999
 10
3.437240688
 20
5.8636709688
 10
3.4378015854
 20
5.8628646787
 10
3.438457635099999
 20
5.8621485329
 10
3.439203828999999
 20
5.8615325473
 10
3.440050183199999
 20
5.861011713999999
 10
3.4409716576
 20
5.860596048899999
 10
3.441943211999999
 20
5.8603005762
 10
3.4429698547
 20
5.8601252957
 10
3.4440515854
 20
5.8600651996
 10
3.4440515854
 20
5.8600651996
 10
3.445043172
 20
5.8601152797
 10
3.445989686399999
 20
5.860265520099999
 10
3.446886120699999
 20
5.8605159207
 10
3.447742490899999
 20
5.860866481599999
 10
3.448548781
 20
5.861317202799999
 10
3.449304990899999
 20
5.861868084199999
 10
3.4500211367
 20
5.8625191259
 10
3.4506872024
 20
5.863270327799999
 10
3.4506872024
 20
5.863270327799999
 10
3.4525652072
 20
5.862038356599999
 10
3.4525652072
 20
5.862038356599999
 10
3.452224662399999
 20
5.8615525794
 10
3.451854069399999
 20
5.8610918422
 10
3.451453428399999
 20
5.860661153099999
 10
3.4510277473
 20
5.860260512099999
 10
3.450577026099999
 20
5.859884911099999
 10
3.450091248899999
 20
5.8595393582
 10
3.4495804316
 20
5.8592188454
 10
3.4490445742
 20
5.8589283807
 10
3.4484836768
 20
5.858667963999999
 10
3.4479027473
 20
5.8584426034
 10
3.4473067938
 20
5.8582522989
 10
3.446685800199999
 20
5.858097050499999
 10
3.446049782599999
 20
5.8579768582
 10
3.445388724899999
 20
5.857891722
 10
3.444712643099999
 20
5.857836633899999
 10
3.4440165293
 20
5.8578216098
 10
3.4440165293
 20
5.8578216098
 10
3.4429548306
 20
5.857861673899999
 10
3.441943211999999
 20
5.8579918823
 10
3.4409766656
 20
5.858202218799999
 10
3.440055191199999
 20
5.858497691599999
 10
3.439178788999999
 20
5.858878300499999
 10
3.4383474588
 20
5.8593440457
 10
3.437566208799999
 20
5.8598949271
 10
3.436830031
 20
5.860530944799999
 10
3.4361589572
 20
5.861227058499999
 10
3.435583035799999
 20
5.8619632364
 10
3.4350922505
 20
5.862729462399999
 10
3.434691609499999
 20
5.863535752499999
 10
3.4343761047
 20
5.864382106599999
 10
3.434155752099999
 20
5.8652585089
 10
3.434020535799999
 20
5.866174975199999
 10
3.433975463599999
 20
5.8671264976
 10
3.433975463599999
 20
5.8671264976
 10
3.4339954957
 20
5.867772531299999
 10
3.4340605999
 20
5.868408548899999
 10
3.434160760099999
 20
5.869034550499999
 10
3.4343110005
 20
5.869645528099999
 10
3.434496296999999
 20
5.8702464896
 10
3.434726665599999
 20
5.8708374351
 10
3.434997098299999
 20
5.871413356599999
 10
3.435307595099999
 20
5.871979262099999
 10
3.435658156
 20
5.872525135499999
 10
3.4360387649
 20
5.873035952799999
 10
3.436449421999999
 20
5.87352173
 10
3.436895135099999
 20
5.8739724512
 10
3.4373658883
 20
5.874393124299999
 10
3.437871697599999
 20
5.874783749299999
 10
3.438412562999999
 20
5.8751443262
 10
3.4389784685
 20
5.875474855
 10
3.439569413999999
 20
5.875770327799999
 10
3.440180391499999
 20
5.876025736399999
 10
3.440806393099999
 20
5.876241080999999
 10
3.4414524268
 20
5.876416361399999
 10
3.4421134845
 20
5.8765565858
 10
3.4427895662
 20
5.876651737999999
 10
3.44348568
 20
5.876711834199999
 10
3.4442018258
 20
5.8767318662
 10
3.4442018258
 20
5.8767318662
 10
3.445098260099999
 20
5.8766968101
 10
3.445984678399999
 20
5.8765916419
 10
3.446851064599999
 20
5.8764213694
 10
3.4477024268
 20
5.876175976799999
 10
3.4485137249
 20
5.875875495999999
 10
3.4492649268
 20
5.875534951199999
 10
3.449946016499999
 20
5.875149334199999
 10
3.450567010099999
 20
5.874723653099999
 10
3.4511329156
 20
5.8742478919
 10
3.451653748899999
 20
5.8737120345
 10
3.452134518099999
 20
5.873111072999999
 10
3.4525652072
 20
5.8724500153
  0
LWPOLYLINE
  5
10B
330
1F
100
AcDbEntity
  8
0
  6
Continuous
 62
     5
370
     0
100
AcDbPolyline
 90
      124
 70
   128
 43
0.0
 10
3.4750014054
 20
5.8724500153
 10
3.4731230999
 20
5.8712831483
 10
3.4731230999
 20
5.8712831483
 10
3.4724870822
 20
5.872034350199999
 10
3.4717909685
 20
5.8726853919
 10
3.471044774499999
 20
5.8732362733
 10
3.470243492499999
 20
5.8736869944
 10
3.4693821143
 20
5.8740375553
 10
3.4684656479
 20
5.874287955999999
 10
3.467499101499999
 20
5.874438196399999
 10
3.466472458799999
 20
5.8744882765
 10
3.466472458799999
 20
5.8744882765
 10
3.4656511447
 20
5.874453220399999
 10
3.4648598787
 20
5.8743580682
 10
3.4641086768
 20
5.874192803699999
 10
3.463392531
 20
5.8739674432
 10
3.4627114412
 20
5.873671970399999
 10
3.462065407599999
 20
5.873311393499999
 10
3.461454429999999
 20
5.8728907204
 10
3.4608785085
 20
5.872399935099999
 10
3.460357675199999
 20
5.871864077799999
 10
3.459906953999999
 20
5.8712981723
 10
3.459521336999999
 20
5.870707226799999
 10
3.459210840199999
 20
5.8700862332
 10
3.458965447599999
 20
5.8694401996
 10
3.458795175199999
 20
5.868764117799999
 10
3.458690006899999
 20
5.868057987999999
 10
3.458654950799999
 20
5.8673268182
 10
3.458654950799999
 20
5.8673268182
 10
3.458720055
 20
5.866370287699999
 10
3.458910359499999
 20
5.865443805299999
 10
3.4592308723
 20
5.864542362999999
 10
3.4596765854
 20
5.8636709688
 10
3.4602374829
 20
5.8628646787
 10
3.4608935326
 20
5.8621485329
 10
3.461639726499999
 20
5.8615325473
 10
3.4624860806
 20
5.861011713999999
 10
3.463407554999999
 20
5.860596048899999
 10
3.464379109499999
 20
5.8603005762
 10
3.465405752099999
 20
5.8601252957
 10
3.4664874829
 20
5.8600651996
 10
3.4664874829
 20
5.8600651996
 10
3.467479069399999
 20
5.8601152797
 10
3.468425583799999
 20
5.860265520099999
 10
3.4693220181
 20
5.8605159207
 10
3.470178388299999
 20
5.860866481599999
 10
3.470984678399999
 20
5.861317202799999
 10
3.471740888299999
 20
5.861868084199999
 10
3.4724570342
 20
5.8625191259
 10
3.4731230999
 20
5.863270327799999
 10
3.4731230999
 20
5.863270327799999
 10
3.4750011047
 20
5.862038356599999
 10
3.4750011047
 20
5.862038356599999
 10
3.4746605598
 20
5.8615525794
 10
3.4742899668
 20
5.8610918422
 10
3.473889325799999
 20
5.860661153099999
 10
3.4734636447
 20
5.860260512099999
 10
3.4730129236
 20
5.859884911099999
 10
3.4725271463
 20
5.8595393582
 10
3.472016328999999
 20
5.8592188454
 10
3.4714804717
 20
5.8589283807
 10
3.4709195742
 20
5.858667963999999
 10
3.4703386447
 20
5.8584426034
 10
3.4697426912
 20
5.8582522989
 10
3.469121697599999
 20
5.858097050499999
 10
3.46848568
 20
5.8579768582
 10
3.4678246223
 20
5.857891722
 10
3.4671485406
 20
5.857836633899999
 10
3.4664524268
 20
5.8578216098
 10
3.4664524268
 20
5.8578216098
 10
3.4653907281
 20
5.857861673899999
 10
3.464379109499999
 20
5.8579918823
 10
3.463412563
 20
5.858202218799999
 10
3.4624910886
 20
5.858497691599999
 10
3.461614686399999
 20
5.858878300499999
 10
3.460783356299999
 20
5.8593440457
 10
3.4600021063
 20
5.8598949271
 10
3.459265928399999
 20
5.860530944799999
 10
3.4585948547
 20
5.861227058499999
 10
3.458018933199999
 20
5.8619632364
 10
3.4575281479
 20
5.862729462399999
 10
3.4571275069
 20
5.863535752499999
 10
3.456812002099999
 20
5.864382106599999
 10
3.456591649499999
 20
5.8652585089
 10
3.4564564332
 20
5.866174975199999
 10
3.4564113611
 20
5.8671264976
 10
3.4564113611
 20
5.8671264976
 10
3.456431393099999
 20
5.867772531299999
 10
3.4564964973
 20
5.868408548899999
 10
3.4565966576
 20
5.869034550499999
 10
3.4567468979
 20
5.869645528099999
 10
3.456932194399999
 20
5.8702464896
 10
3.457162563
 20
5.8708374351
 10
3.4574329957
 20
5.871413356599999
 10
3.4577434925
 20
5.871979262099999
 10
3.458094053399999
 20
5.872525135499999
 10
3.4584746624
 20
5.873035952799999
 10
3.458885319399999
 20
5.87352173
 10
3.459331032599999
 20
5.8739724512
 10
3.459801785799999
 20
5.874393124299999
 10
3.460307595099999
 20
5.874783749299999
 10
3.4608484604
 20
5.8751443262
 10
3.461414365899999
 20
5.875474855
 10
3.4620053114
 20
5.875770327799999
 10
3.462616288999999
 20
5.876025736399999
 10
3.4632422906
 20
5.876241080999999
 10
3.4638883242
 20
5.876416361399999
 10
3.464549381899999
 20
5.8765565858
 10
3.465225463599999
 20
5.876651737999999
 10
3.4659215774
 20
5.876711834199999
 10
3.466637723299999
 20
5.8767318662
 10
3.466637723299999
 20
5.8767318662
 10
3.467534157599999
 20
5.8766968101
 10
3.468420575799999
 20
5.8765916419
 10
3.469286961999999
 20
5.8764213694
 10
3.4701383242
 20
5.876175976799999
 10
3.4709496223
 20
5.875875495999999
 10
3.4717008242
 20
5.875534951199999
 10
3.472381913999999
 20
5.875149334199999
 10
3.473002907599999
 20
5.874723653099999
 10
3.473568812999999
 20
5.8742478919
 10
3.474089646299999
 20
5.8737120345
 10
3.4745704156
 20
5.873111072999999
 10
3.4750011047
 20
5.8724500153
  0
LWPOLYLINE
  5
10C
330
1F
100
AcDbEntity
  8
0
  6
Continuous
 62
     5
370
     0
100
AcDbPolyline
 90
      100
 70
   128
 43
0.0
 10
3.4944826204
 20
5.8639113534
 10
3.496475463599999
 20
5.8628646787
 10
3.496475463599999
 20
5.8628646787
 10
3.495984678399999
 20
5.862028340599999
 10
3.495458836999999
 20
5.8612771387
 10
3.494897939599999
 20
5.860606064999999
 10
3.494296978099999
 20
5.860025135499999
 10
3.4936609604
 20
5.8595193262
 10
3.4929898867
 20
5.859078621
 10
3.492273740899999
 20
5.8586980121
 10
3.491522538999999
 20
5.858382507299999
 10
3.4907262649
 20
5.8581371146
 10
3.4898799108
 20
5.857961834199999
 10
3.488983476499999
 20
5.857856665899999
 10
3.488036961999999
 20
5.8578216098
 10
3.488036961999999
 20
5.8578216098
 10
3.4869852793
 20
5.8578666819
 10
3.485993692799999
 20
5.8580018983
 10
3.485062202399999
 20
5.858227258899999
 10
3.484185800199999
 20
5.8585427637
 10
3.483374502099999
 20
5.8589484127
 10
3.4826182922
 20
5.859444206
 10
3.4819171704
 20
5.8600301435
 10
3.481281152699999
 20
5.860706225199999
 10
3.4807102393
 20
5.8614373951
 10
3.480214446
 20
5.862193604999999
 10
3.479798781
 20
5.862974855
 10
3.4794582361
 20
5.863781145099999
 10
3.479187803399999
 20
5.864607467199999
 10
3.478997498899999
 20
5.8654538214
 10
3.478887322599999
 20
5.8663302236
 10
3.4788472585
 20
5.867226657899999
 10
3.4788472585
 20
5.867226657899999
 10
3.478882314599999
 20
5.868068004099999
 10
3.478977466799999
 20
5.8688893182
 10
3.4791427313
 20
5.8696855922
 10
3.4793730999
 20
5.870461834199999
 10
3.4796685726
 20
5.8712130361
 10
3.480029149499999
 20
5.871939197999999
 10
3.4804598386
 20
5.872645327799999
 10
3.480950623899999
 20
5.8733264175
 10
3.480950623899999
 20
5.8733264175
 10
3.481646737699999
 20
5.874122691599999
 10
3.482397939599999
 20
5.874818805299999
 10
3.4832042297
 20
5.8753997348
 10
3.484070615899999
 20
5.875880504099999
 10
3.4849920902
 20
5.876251097
 10
3.4859686527
 20
5.8765215297
 10
3.487000303399999
 20
5.876676778099999
 10
3.488092050199999
 20
5.8767318662
 10
3.488092050199999
 20
5.8767318662
 10
3.4892138451
 20
5.876676778099999
 10
3.4902805518
 20
5.8765065057
 10
3.491287162399999
 20
5.8762260569
 10
3.4922336768
 20
5.8758354319
 10
3.4931251031
 20
5.875329622599999
 10
3.493956433199999
 20
5.874708629099999
 10
3.494732675199999
 20
5.873977459199999
 10
3.495448821
 20
5.873136112999999
 10
3.495448821
 20
5.873136112999999
 10
3.495909558199999
 20
5.8724800634
 10
3.496305191199999
 20
5.871788957599999
 10
3.4966457361
 20
5.8710527797
 10
3.496921176799999
 20
5.8702815457
 10
3.497141529299999
 20
5.869470247599999
 10
3.497301785799999
 20
5.868618885499999
 10
3.497396938
 20
5.867727459199999
 10
3.497437002099999
 20
5.866795968799999
 10
3.497437002099999
 20
5.866795968799999
 10
3.4810908483
 20
5.866795968799999
 10
3.4810908483
 20
5.866795968799999
 10
3.4811359204
 20
5.866074815
 10
3.4812360806
 20
5.865383709199999
 10
3.481396337
 20
5.8647276595
 10
3.481616689599999
 20
5.8641066659
 10
3.4818871223
 20
5.8635207284
 10
3.4822176511
 20
5.862964838999999
 10
3.4826082761
 20
5.8624440057
 10
3.4830539893
 20
5.861953220399999
 10
3.483544774499999
 20
5.861512515299999
 10
3.4840605999
 20
5.8611268983
 10
3.484606473299999
 20
5.860801377499999
 10
3.4851823947
 20
5.860535952799999
 10
3.485783356299999
 20
5.860330624299999
 10
3.486414365899999
 20
5.8601853919
 10
3.487070415599999
 20
5.8600952476
 10
3.487756513299999
 20
5.8600651996
 10
3.487756513299999
 20
5.8600651996
 10
3.488427586999999
 20
5.8600902396
 10
3.4890836367
 20
5.860170367799999
 10
3.489734678399999
 20
5.860305584199999
 10
3.490375703999999
 20
5.8604908807
 10
3.490991689599999
 20
5.860721249299999
 10
3.491557595099999
 20
5.8609916819
 10
3.4920734204
 20
5.861292162699999
 10
3.4925441736
 20
5.8616276996
 10
3.492999902699999
 20
5.862033348599999
 10
3.493475663999999
 20
5.8625541819
 10
3.4939714572
 20
5.863175175499999
 10
3.494482274499999
 20
5.8639113534
  0
LWPOLYLINE
  5
10D
330
1F
100
AcDbEntity
  8
0
  6
Continuous
 62
     5
370
     0
100
AcDbPolyline
 90
       33
 70
   128
 43
0.0
 10
3.4951936522
 20
5.869039558499999
 10
3.494927987699999
 20
5.869925976799999
 10
3.494602466799999
 20
5.870717242799999
 10
3.494226865899999
 20
5.871413356599999
 10
3.4937961768
 20
5.8720143182
 10
3.493305391499999
 20
5.8725451675
 10
3.4927344781
 20
5.873020928699999
 10
3.4920934524
 20
5.873441601799999
 10
3.4913773066
 20
5.873807186799999
 10
3.490616088599999
 20
5.874107667499999
 10
3.4898298306
 20
5.8743180041
 10
3.4890285486
 20
5.874448212399999
 10
3.488207234499999
 20
5.8744882765
 10
3.488207234499999
 20
5.8744882765
 10
3.487536160799999
 20
5.874463236399999
 10
3.4868851191
 20
5.8743831082
 10
3.486259117499999
 20
5.8742478919
 10
3.485663163999999
 20
5.874062595399999
 10
3.4850822345
 20
5.873817202799999
 10
3.484531353099999
 20
5.873526737999999
 10
3.484005511699999
 20
5.8731761771
 10
3.4834997024
 20
5.872775536099999
 10
3.4834997024
 20
5.872775536099999
 10
3.483149141499999
 20
5.8724450073
 10
3.4828236207
 20
5.872074414299999
 10
3.4825181319
 20
5.871668765299999
 10
3.482237683199999
 20
5.8712230521
 10
3.481977266499999
 20
5.8707322669
 10
3.481736881899999
 20
5.870206425499999
 10
3.481521537399999
 20
5.869645528099999
 10
3.4813262249
 20
5.869039558499999
 10
3.4813262249
 20
5.869039558499999
 10
3.495193412399999
 20
5.869039558499999
  0
LWPOLYLINE
  5
10E
330
1F
100
AcDbEntity
  8
0
  6
Continuous
 62
     5
370
     0
100
AcDbPolyline
 90
      148
 70
   128
 43
0.0
 10
3.5105782211
 20
5.8741327076
 10
3.5090555918
 20
5.8725651996
 10
3.5090555918
 20
5.8725651996
 10
3.5086549508
 20
5.8730159207
 10
3.5082543098
 20
5.8734065457
 10
3.5078536688
 20
5.8737370746
 10
3.5074630438
 20
5.874007507299999
 10
3.507067410799999
 20
5.8742178438
 10
3.506676785799999
 20
5.874368084199999
 10
3.506286160799999
 20
5.874458228399999
 10
3.5059005438
 20
5.8744882765
 10
3.5059005438
 20
5.8744882765
 10
3.5054297906
 20
5.8744432044
 10
3.5049940935
 20
5.87430298
 10
3.504588444399999
 20
5.874072611399999
 10
3.5042228595
 20
5.873747090599999
 10
3.503917370699999
 20
5.8733614736
 10
3.5037020261
 20
5.872950816599999
 10
3.503571817799999
 20
5.872505103399999
 10
3.503526745699999
 20
5.8720293422
 10
3.503526745699999
 20
5.8720293422
 10
3.5035668098
 20
5.871598653099999
 10
3.5036819941
 20
5.871182987999999
 10
3.5038773066
 20
5.870772331
 10
3.5041477393
 20
5.870371689999999
 10
3.5041477393
 20
5.870371689999999
 10
3.5043230197
 20
5.870166361399999
 10
3.5045433723
 20
5.8699560249
 10
3.504803788999999
 20
5.869730664299999
 10
3.505109277699999
 20
5.8695002957
 10
3.5054598386
 20
5.8692599111
 10
3.5058504636
 20
5.8690145185
 10
3.506281152699999
 20
5.868754101799999
 10
3.506756913999999
 20
5.8684886771
 10
3.506756913999999
 20
5.8684886771
 10
3.5073378435
 20
5.8681581483
 10
3.507868692799999
 20
5.8678326275
 10
3.5083544701
 20
5.867507106599999
 10
3.5087901672
 20
5.867186593799999
 10
3.509175784199999
 20
5.866866081
 10
3.509516328999999
 20
5.866550576199999
 10
3.5098067938
 20
5.8662350714
 10
3.510047178399999
 20
5.8659245746
 10
3.510047178399999
 20
5.8659245746
 10
3.510417771299999
 20
5.8652785409
 10
3.510688203999999
 20
5.8645924432
 10
3.5108434524
 20
5.863866281299999
 10
3.510898540599999
 20
5.863100055299999
 10
3.510898540599999
 20
5.863100055299999
 10
3.5108735005
 20
5.862559189999999
 10
3.510803388299999
 20
5.862038356599999
 10
3.510683196
 20
5.861537555299999
 10
3.5105179316
 20
5.861061794099999
 10
3.510297578999999
 20
5.8606010569
 10
3.5100371624
 20
5.860165359799999
 10
3.5097266656
 20
5.8597496948
 10
3.5093660886
 20
5.859354061799999
 10
3.5089704556
 20
5.8589934848
 10
3.508554790599999
 20
5.858682987999999
 10
3.5081140854
 20
5.8584225714
 10
3.507648340199999
 20
5.858207226799999
 10
3.507157555
 20
5.8580369544
 10
3.5066417297
 20
5.8579167621
 10
3.5061058723
 20
5.857846649899999
 10
3.5055449749
 20
5.8578216098
 10
3.5055449749
 20
5.8578216098
 10
3.5047887649
 20
5.857861673899999
 10
3.504052586999999
 20
5.857986874299999
 10
3.5033314332
 20
5.858192202799999
 10
3.502625303399999
 20
5.8584776595
 10
3.501959237699999
 20
5.858838236399999
 10
3.501353268099999
 20
5.859263917499999
 10
3.5008073947
 20
5.8597496948
 10
3.5003216175
 20
5.8602955682
 10
3.5003216175
 20
5.8602955682
 10
3.5018089973
 20
5.861988276499999
 10
3.5018089973
 20
5.861988276499999
 10
3.502239686399999
 20
5.861537555299999
 10
3.5026753835
 20
5.861146930299999
 10
3.5031210967
 20
5.8608164015
 10
3.5035668098
 20
5.8605459688
 10
3.504022538999999
 20
5.860335632299999
 10
3.5044882842
 20
5.8601853919
 10
3.504954029299999
 20
5.8600952476
 10
3.5054297906
 20
5.8600651996
 10
3.5054297906
 20
5.8600651996
 10
3.5060758242
 20
5.8601202877
 10
3.506671777699999
 20
5.8602855521
 10
3.507217651099999
 20
5.8605559848
 10
3.507713444399999
 20
5.860941601799999
 10
3.508124101499999
 20
5.861397331
 10
3.508419574199999
 20
5.8618981323
 10
3.5085948547
 20
5.862428981599999
 10
3.5086549508
 20
5.863004903099999
 10
3.5086549508
 20
5.863004903099999
 10
3.5086148867
 20
5.863480664299999
 10
3.508499702399999
 20
5.863931385499999
 10
3.5083093979
 20
5.8643520585
 10
3.508038965199999
 20
5.864747691599999
 10
3.508038965199999
 20
5.864747691599999
 10
3.5078636848
 20
5.864937996
 10
3.5076383242
 20
5.865143324599999
 10
3.5073628835
 20
5.8653636771
 10
3.507042370699999
 20
5.8655940457
 10
3.506671777699999
 20
5.865834430299999
 10
3.5062511047
 20
5.866084831
 10
3.505785359499999
 20
5.8663502557
 10
3.505269534199999
 20
5.8666307044
 10
3.505269534199999
 20
5.8666307044
 10
3.5047136447
 20
5.866946209199999
 10
3.504202827399999
 20
5.867261713999999
 10
3.503742090199999
 20
5.8675772188
 10
3.5033214172
 20
5.867887715599999
 10
3.5029508242
 20
5.8681982124
 10
3.502630311399999
 20
5.868508709199999
 10
3.502349862699999
 20
5.868819206
 10
3.5021194941
 20
5.869124694799999
 10
3.5021194941
 20
5.869124694799999
 10
3.5017539092
 20
5.869760712399999
 10
3.501493492499999
 20
5.870446810099999
 10
3.5013332361
 20
5.871167963999999
 10
3.501283156
 20
5.871939197999999
 10
3.501283156
 20
5.871939197999999
 10
3.501303188
 20
5.8724450073
 10
3.501363284199999
 20
5.872925776499999
 10
3.5014684524
 20
5.873386513699999
 10
3.5016086768
 20
5.873827218799999
 10
3.501793973299999
 20
5.8742428839
 10
3.502019333799999
 20
5.8746385169
 10
3.5022847585
 20
5.8750141178
 10
3.5025902473
 20
5.8753646787
 10
3.5029307922
 20
5.875685191599999
 10
3.5032913691
 20
5.875960632299999
 10
3.503671978099999
 20
5.8761960089
 10
3.5040726191
 20
5.876391321399999
 10
3.504498300199999
 20
5.876541561799999
 10
3.504944013299999
 20
5.87664673
 10
3.5054097585
 20
5.876711834199999
 10
3.5059005438
 20
5.8767318662
 10
3.5059005438
 20
5.8767318662
 10
3.5064814733
 20
5.8766918021
 10
3.507062402699999
 20
5.8765716098
 10
3.507648340199999
 20
5.8763662813
 10
3.508234277699999
 20
5.8760808246
 10
3.5088152072
 20
5.8757152396
 10
3.5094011447
 20
5.875269526499999
 10
3.509992090199999
 20
5.8747436851
 10
3.510578027699999
 20
5.8741327076
  0
LWPOLYLINE
  5
10F
330
1F
100
AcDbEntity
  8
0
  6
Continuous
 62
     5
370
     0
100
AcDbPolyline
 90
      148
 70
   128
 43
0.0
 10
3.524039718899999
 20
5.8741327076
 10
3.522517130299999
 20
5.8725651996
 10
3.522517130299999
 20
5.8725651996
 10
3.5221164893
 20
5.8730159207
 10
3.521715848299999
 20
5.8734065457
 10
3.5213152072
 20
5.8737370746
 10
3.5209245822
 20
5.874007507299999
 10
3.5205289492
 20
5.8742178438
 10
3.520138324199999
 20
5.874368084199999
 10
3.5197476992
 20
5.874458228399999
 10
3.5193620822
 20
5.8744882765
 10
3.5193620822
 20
5.8744882765
 10
3.518891328999999
 20
5.8744432044
 10
3.518455631899999
 20
5.87430298
 10
3.5180499829
 20
5.874072611399999
 10
3.5176843979
 20
5.873747090599999
 10
3.5173789092
 20
5.8733614736
 10
3.517163564599999
 20
5.872950816599999
 10
3.517033356299999
 20
5.872505103399999
 10
3.516988284199999
 20
5.8720293422
 10
3.516988284199999
 20
5.8720293422
 10
3.517028348299999
 20
5.871598653099999
 10
3.5171435326
 20
5.871182987999999
 10
3.517338845099999
 20
5.870772331
 10
3.517609277699999
 20
5.870371689999999
 10
3.517609277699999
 20
5.870371689999999
 10
3.517784558199999
 20
5.870166361399999
 10
3.518004910799999
 20
5.8699560249
 10
3.518265327399999
 20
5.869730664299999
 10
3.5185708162
 20
5.8695002957
 10
3.518921377099999
 20
5.8692599111
 10
3.519312002099999
 20
5.8690145185
 10
3.519742691199999
 20
5.868754101799999
 10
3.520218452399999
 20
5.8684886771
 10
3.520218452399999
 20
5.8684886771
 10
3.520799381899999
 20
5.8681581483
 10
3.521330231299999
 20
5.8678326275
 10
3.5218160085
 20
5.867507106599999
 10
3.5222517056
 20
5.867186593799999
 10
3.5226373226
 20
5.866866081
 10
3.522977867499999
 20
5.866550576199999
 10
3.5232683322
 20
5.8662350714
 10
3.523508716799999
 20
5.8659245746
 10
3.523508716799999
 20
5.8659245746
 10
3.5238793098
 20
5.8652785409
 10
3.5241497425
 20
5.8645924432
 10
3.524304990899999
 20
5.863866281299999
 10
3.524360078999999
 20
5.863100055299999
 10
3.524360078999999
 20
5.863100055299999
 10
3.524335038999999
 20
5.862559189999999
 10
3.524264926799999
 20
5.862038356599999
 10
3.5241447345
 20
5.861537555299999
 10
3.5239794701
 20
5.861061794099999
 10
3.5237591175
 20
5.8606010569
 10
3.523498700799999
 20
5.860165359799999
 10
3.523188203999999
 20
5.8597496948
 10
3.522827627099999
 20
5.859354061799999
 10
3.5224319941
 20
5.8589934848
 10
3.522016328999999
 20
5.858682987999999
 10
3.5215756239
 20
5.8584225714
 10
3.521109878699999
 20
5.858207226799999
 10
3.5206190935
 20
5.8580369544
 10
3.5201032681
 20
5.8579167621
 10
3.519567410799999
 20
5.857846649899999
 10
3.519006513299999
 20
5.8578216098
 10
3.519006513299999
 20
5.8578216098
 10
3.518250303399999
 20
5.857861673899999
 10
3.517514125499999
 20
5.857986874299999
 10
3.5167929717
 20
5.858192202799999
 10
3.516086841799999
 20
5.8584776595
 10
3.5154207761
 20
5.858838236399999
 10
3.5148148066
 20
5.859263917499999
 10
3.514268933199999
 20
5.8597496948
 10
3.513783156
 20
5.8602955682
 10
3.513783156
 20
5.8602955682
 10
3.5152705358
 20
5.861988276499999
 10
3.5152705358
 20
5.861988276499999
 10
3.515701224899999
 20
5.861537555299999
 10
3.516136921999999
 20
5.861146930299999
 10
3.516582635099999
 20
5.8608164015
 10
3.517028348299999
 20
5.8605459688
 10
3.5174840774
 20
5.860335632299999
 10
3.517949822599999
 20
5.8601853919
 10
3.518415567799999
 20
5.8600952476
 10
3.518891328999999
 20
5.8600651996
 10
3.518891328999999
 20
5.8600651996
 10
3.519537362699999
 20
5.8601202877
 10
3.520133316199999
 20
5.8602855521
 10
3.520679189599999
 20
5.8605559848
 10
3.5211749829
 20
5.860941601799999
 10
3.5215856399
 20
5.861397331
 10
3.521881112699999
 20
5.8618981323
 10
3.5220563931
 20
5.862428981599999
 10
3.5221164893
 20
5.863004903099999
 10
3.5221164893
 20
5.863004903099999
 10
3.522076425199999
 20
5.863480664299999
 10
3.521961240899999
 20
5.863931385499999
 10
3.521770936399999
 20
5.8643520585
 10
3.5215005037
 20
5.864747691599999
 10
3.5215005037
 20
5.864747691599999
 10
3.521325223299999
 20
5.864937996
 10
3.521099862699999
 20
5.865143324599999
 10
3.520824422
 20
5.8653636771
 10
3.5205039092
 20
5.8655940457
 10
3.520133316199999
 20
5.865834430299999
 10
3.5197126431
 20
5.866084831
 10
3.5192468979
 20
5.8663502557
 10
3.5187310726
 20
5.8666307044
 10
3.5187310726
 20
5.8666307044
 10
3.518175183199999
 20
5.866946209199999
 10
3.517664365899999
 20
5.867261713999999
 10
3.517203628699999
 20
5.8675772188
 10
3.5167829556
 20
5.867887715599999
 10
3.516412362699999
 20
5.8681982124
 10
3.5160918499
 20
5.868508709199999
 10
3.5158114011
 20
5.868819206
 10
3.5155810326
 20
5.869124694799999
 10
3.5155810326
 20
5.869124694799999
 10
3.515215447599999
 20
5.869760712399999
 10
3.514955031
 20
5.870446810099999
 10
3.514794774499999
 20
5.871167963999999
 10
3.5147446944
 20
5.871939197999999
 10
3.5147446944
 20
5.871939197999999
 10
3.514764726499999
 20
5.8724450073
 10
3.5148248226
 20
5.872925776499999
 10
3.514929990899999
 20
5.873386513699999
 10
3.515070215199999
 20
5.873827218799999
 10
3.515255511699999
 20
5.8742428839
 10
3.5154808723
 20
5.8746385169
 10
3.515746296999999
 20
5.8750141178
 10
3.516051785799999
 20
5.8753646787
 10
3.5163923306
 20
5.875685191599999
 10
3.516752907599999
 20
5.875960632299999
 10
3.517133516499999
 20
5.8761960089
 10
3.5175341576
 20
5.876391321399999
 10
3.517959838599999
 20
5.876541561799999
 10
3.518405551799999
 20
5.87664673
 10
3.518871297
 20
5.876711834199999
 10
3.5193620822
 20
5.8767318662
 10
3.5193620822
 20
5.8767318662
 10
3.5199430117
 20
5.8766918021
 10
3.5205239412
 20
5.8765716098
 10
3.521109878699999
 20
5.8763662813
 10
3.521695816199999
 20
5.8760808246
 10
3.522276745699999
 20
5.8757152396
 10
3.5228626832
 20
5.875269526499999
 10
3.5234536287
 20
5.8747436851
 10
3.524039566199999
 20
5.8741327076
  0
LWPOLYLINE
  5
110
330
1F
100
AcDbEntity
  8
0
  6
Continuous
 62
     5
370
     0
100
AcDbPolyline
 90
       16
 70
   128
 43
0.0
 10
3.549360546399999
 20
5.883142122599999
 10
3.5608985406
 20
5.8581421226
 10
3.5608985406
 20
5.8581421226
 10
3.5584596383
 20
5.8581421226
 10
3.5584596383
 20
5.8581421226
 10
3.554763724899999
 20
5.8661549432
 10
3.554763724899999
 20
5.8661549432
 10
3.543430591799999
 20
5.8661549432
 10
3.543430591799999
 20
5.8661549432
 10
3.539629510099999
 20
5.8581421226
 10
3.539629510099999
 20
5.8581421226
 10
3.537180591799999
 20
5.8581421226
 10
3.537180591799999
 20
5.8581421226
 10
3.549039566199999
 20
5.883142122599999
 10
3.549039566199999
 20
5.883142122599999
 10
3.549360078999999
 20
5.883142122599999
  0
LWPOLYLINE
  5
111
330
1F
100
AcDbEntity
  8
0
  6
Continuous
 62
     5
370
     0
100
AcDbPolyline
 90
        6
 70
   128
 43
0.0
 10
3.5491751619
 20
5.878269326199999
 10
3.544647538999999
 20
5.8687190457
 10
3.544647538999999
 20
5.8687190457
 10
3.5535818338
 20
5.8687190457
 10
3.5535818338
 20
5.8687190457
 10
3.549174782599999
 20
5.878269326199999
  0
LWPOLYLINE
  5
112
330
1F
100
AcDbEntity
  8
0
  6
Continuous
 62
     5
370
     0
100
AcDbPolyline
 90
       36
 70
   128
 43
0.0
 10
3.565536519499999
 20
5.8841036611
 10
3.5659516255
 20
5.884068605
 10
3.566337242499999
 20
5.883963436799999
 10
3.566692811399999
 20
5.8837831483
 10
3.567013324199999
 20
5.8835377557
 10
3.567283756899999
 20
5.883242282899999
 10
3.5674740614
 20
5.882911754099999
 10
3.567589245699999
 20
5.8825561851
 10
3.5676293098
 20
5.8821705682
 10
3.5676293098
 20
5.8821705682
 10
3.567589245699999
 20
5.8817949672
 10
3.5674740614
 20
5.881444406299999
 10
3.567283756899999
 20
5.881118885499999
 10
3.567013324199999
 20
5.880823412699999
 10
3.566692811399999
 20
5.880578020099999
 10
3.566337242499999
 20
5.880397731599999
 10
3.5659516255
 20
5.8802925634
 10
3.5655359604
 20
5.8802575073
 10
3.5655359604
 20
5.8802575073
 10
3.565125303399999
 20
5.8802925634
 10
3.564749702399999
 20
5.880397731599999
 10
3.5643941335
 20
5.880578020099999
 10
3.564073620699999
 20
5.880823412699999
 10
3.563808196
 20
5.881118885499999
 10
3.563617891499999
 20
5.881444406299999
 10
3.5635027072
 20
5.8817949672
 10
3.563462643099999
 20
5.8821705682
 10
3.563462643099999
 20
5.8821705682
 10
3.5635027072
 20
5.8825561851
 10
3.563617891499999
 20
5.882911754099999
 10
3.563808196
 20
5.883242282899999
 10
3.564073620699999
 20
5.8835377557
 10
3.5643941335
 20
5.8837831483
 10
3.564749702399999
 20
5.883963436799999
 10
3.565125303399999
 20
5.884068605
 10
3.5655359604
 20
5.8841036611
  0
LWPOLYLINE
  5
113
330
1F
100
AcDbEntity
  8
0
  6
Continuous
 62
     5
370
     0
100
AcDbPolyline
 90
        8
 70
   128
 43
0.0
 10
3.5644242124
 20
5.876411353399999
 10
3.5666677713
 20
5.876411353399999
 10
3.5666677713
 20
5.876411353399999
 10
3.5666677713
 20
5.8581421226
 10
3.5666677713
 20
5.8581421226
 10
3.5644241816
 20
5.8581421226
 10
3.5644241816
 20
5.8581421226
 10
3.5644241816
 20
5.876411353399999
  0
LWPOLYLINE
  5
114
330
1F
100
AcDbEntity
  8
0
  6
Continuous
 62
     5
370
     0
100
AcDbPolyline
 90
       53
 70
   128
 43
0.0
 10
3.571475864299999
 20
5.876411353399999
 10
3.573719053399999
 20
5.876411353399999
 10
3.573719053399999
 20
5.876411353399999
 10
3.573719053399999
 20
5.873722050499999
 10
3.573719053399999
 20
5.873722050499999
 10
3.574229870699999
 20
5.874463236399999
 10
3.574755711999999
 20
5.875094246
 10
3.5752915694
 20
5.875610071399999
 10
3.575842450799999
 20
5.8760207284
 10
3.576408356299999
 20
5.876331225199999
 10
3.576989285799999
 20
5.8765565858
 10
3.577575223299999
 20
5.876686794099999
 10
3.5781761848
 20
5.8767318662
 10
3.5781761848
 20
5.8767318662
 10
3.578641929999999
 20
5.8766918021
 10
3.5791226992
 20
5.876576617799999
 10
3.579618492499999
 20
5.876381305299999
 10
3.5801293098
 20
5.8761058646
 10
3.5801293098
 20
5.8761058646
 10
3.5788973386
 20
5.8741627557
 10
3.5788973386
 20
5.8741627557
 10
3.578571817799999
 20
5.87430298
 10
3.578271336999999
 20
5.8744081483
 10
3.5779958963
 20
5.8744682444
 10
3.577750503699999
 20
5.8744882765
 10
3.577750503699999
 20
5.8744882765
 10
3.577214646299999
 20
5.874428180299999
 10
3.576683796999999
 20
5.8742478919
 10
3.5761679717
 20
5.8739474111
 10
3.575657154299999
 20
5.873526737999999
 10
3.5754117617
 20
5.8732713294
 10
3.575181393099999
 20
5.8729808646
 10
3.5749710566
 20
5.872660351799999
 10
3.5747707361
 20
5.872304782899999
 10
3.574585439599999
 20
5.8719141579
 10
3.5744151672
 20
5.8714934848
 10
3.5742599188
 20
5.8710377557
 10
3.574119694399999
 20
5.870551978399999
 10
3.574119694399999
 20
5.870551978399999
 10
3.5740245422
 20
5.870116281299999
 10
3.573944413999999
 20
5.869580423899999
 10
3.5738743018
 20
5.868944406299999
 10
3.5738192136
 20
5.8682082284
 10
3.573774141499999
 20
5.8673768983
 10
3.5737440935
 20
5.866445407899999
 10
3.573724061399999
 20
5.865413757299999
 10
3.573719053399999
 20
5.8642819464
 10
3.573719053399999
 20
5.8642819464
 10
3.573719053399999
 20
5.8581421226
 10
3.573719053399999
 20
5.8581421226
 10
3.5714754636
 20
5.8581421226
 10
3.5714754636
 20
5.8581421226
 10
3.5714754636
 20
5.876411353399999
  0
LWPOLYLINE
  5
115
330
1F
100
AcDbEntity
  8
0
  6
Continuous
 62
     5
370
     0
100
AcDbPolyline
 90
       68
 70
   128
 43
0.0
 10
3.5900653562
 20
5.8836329079
 10
3.5900652072
 20
5.881299173899999
 10
3.5900652072
 20
5.881299173899999
 10
3.5894241816
 20
5.881544566599999
 10
3.5888332361
 20
5.881719847
 10
3.588287362699999
 20
5.881825015299999
 10
3.587791569399999
 20
5.8818600714
 10
3.587791569399999
 20
5.8818600714
 10
3.5874560326
 20
5.881840039299999
 10
3.587145535799999
 20
5.881789959199999
 10
3.5868700951
 20
5.881699815
 10
3.586619694399999
 20
5.8815746146
 10
3.5864093579
 20
5.881424374299999
 10
3.5862390854
 20
5.8812691259
 10
3.5861138851
 20
5.8810988534
 10
3.5860337569
 20
5.880918564999999
 10
3.586003708799999
 20
5.8808083887
 10
3.5859836768
 20
5.8806581483
 10
3.5859586367
 20
5.880467843799999
 10
3.585943612699999
 20
5.8802424832
 10
3.5859285886
 20
5.879972050499999
 10
3.585923580599999
 20
5.8796715698
 10
3.585913564599999
 20
5.8793260169
 10
3.585913564599999
 20
5.878945407899999
 10
3.585913564599999
 20
5.878945407899999
 10
3.585913564599999
 20
5.876411353399999
 10
3.585913564599999
 20
5.876411353399999
 10
3.589744694399999
 20
5.876411353399999
 10
3.589744694399999
 20
5.876411353399999
 10
3.589744694399999
 20
5.8741677637
 10
3.589744694399999
 20
5.8741677637
 10
3.5859085566
 20
5.8741677637
 10
3.5859085566
 20
5.8741677637
 10
3.5858985406
 20
5.8581421226
 10
3.5858985406
 20
5.8581421226
 10
3.583654950799999
 20
5.8581421226
 10
3.583654950799999
 20
5.8581421226
 10
3.583654950799999
 20
5.8741677637
 10
3.583654950799999
 20
5.8741677637
 10
3.581090848299999
 20
5.8741677637
 10
3.581090848299999
 20
5.8741677637
 10
3.581090848299999
 20
5.876411353399999
 10
3.581090848299999
 20
5.876411353399999
 10
3.583654950799999
 20
5.876411353399999
 10
3.583654950799999
 20
5.876411353399999
 10
3.583654950799999
 20
5.879331024899999
 10
3.583654950799999
 20
5.879331024899999
 10
3.583659958799999
 20
5.8798168021
 10
3.583679990899999
 20
5.8802625153
 10
3.583705031
 20
5.880673172299999
 10
3.583745095099999
 20
5.8810537813
 10
3.583795175199999
 20
5.8813893182
 10
3.5838602793
 20
5.8816948069
 10
3.583930391499999
 20
5.8819652396
 10
3.584015527699999
 20
5.8821956082
 10
3.5842258643
 20
5.882606265299999
 10
3.584501304999999
 20
5.882971850199999
 10
3.5848368418
 20
5.883297371
 10
3.5852374829
 20
5.8835778198
 10
3.585693211999999
 20
5.8838081884
 10
3.586194013299999
 20
5.883973452799999
 10
3.5867398867
 20
5.884068605
 10
3.5873308322
 20
5.8841036611
 10
3.5873308322
 20
5.8841036611
 10
3.5879317938
 20
5.884073612999999
 10
3.5885878435
 20
5.883988476799999
 10
3.589298981299999
 20
5.883838236399999
 10
3.5900652072
 20
5.8836329079
  0
ARC
  5
116
330
1F
100
AcDbEntity
  8
0
  6
Continuous
 62
     5
370
     0
100
AcDbCircle
 10
3.602094635599999
 20
5.867276646399999
 30
0.0
 40
0.0094552198050031
100
AcDbArc
 50
90.00110043499999
 51
89.998899565
  0
ARC
  5
117
330
1F
100
AcDbEntity
  8
0
  6
Continuous
 62
     5
370
     0
100
AcDbCircle
 10
3.602084641
 20
5.867278168999999
 30
0.0
 40
0.0072101075421346
100
AcDbArc
 50
90.00161317989999
 51
89.99838682020001
  0
LWPOLYLINE
  5
118
330
1F
100
AcDbEntity
  8
0
  6
Continuous
 62
     5
370
     0
100
AcDbPolyline
 90
       36
 70
   128
 43
0.0
 10
3.616818220499999
 20
5.8841036611
 10
3.6172336768
 20
5.884068605
 10
3.617619293799999
 20
5.883963436799999
 10
3.617974862699999
 20
5.8837831483
 10
3.6182953755
 20
5.8835377557
 10
3.6185658082
 20
5.883242282899999
 10
3.618756112699999
 20
5.882911754099999
 10
3.618871297
 20
5.8825561851
 10
3.6189113611
 20
5.8821705682
 10
3.6189113611
 20
5.8821705682
 10
3.618871297
 20
5.8817949672
 10
3.618756112699999
 20
5.881444406299999
 10
3.6185658082
 20
5.881118885499999
 10
3.6182953755
 20
5.880823412699999
 10
3.617974862699999
 20
5.880578020099999
 10
3.617619293799999
 20
5.880397731599999
 10
3.6172336768
 20
5.8802925634
 10
3.616818011699999
 20
5.8802575073
 10
3.616818011699999
 20
5.8802575073
 10
3.6164073547
 20
5.8802925634
 10
3.6160317537
 20
5.880397731599999
 10
3.6156761848
 20
5.880578020099999
 10
3.615355671999999
 20
5.880823412699999
 10
3.6150902473
 20
5.881118885499999
 10
3.614899942799999
 20
5.881444406299999
 10
3.6147847585
 20
5.8817949672
 10
3.6147446944
 20
5.8821705682
 10
3.6147446944
 20
5.8821705682
 10
3.6147847585
 20
5.8825561851
 10
3.614899942799999
 20
5.882911754099999
 10
3.6150902473
 20
5.883242282899999
 10
3.615355671999999
 20
5.8835377557
 10
3.6156761848
 20
5.8837831483
 10
3.6160317537
 20
5.883963436799999
 10
3.6164073547
 20
5.884068605
 10
3.616818011699999
 20
5.8841036611
  0
LWPOLYLINE
  5
119
330
1F
100
AcDbEntity
  8
0
  6
Continuous
 62
     5
370
     0
100
AcDbPolyline
 90
        8
 70
   128
 43
0.0
 10
3.6157065
 20
5.876411353399999
 10
3.617949822599999
 20
5.876411353399999
 10
3.617949822599999
 20
5.876411353399999
 10
3.617949822599999
 20
5.8581421226
 10
3.617949822599999
 20
5.8581421226
 10
3.6157062329
 20
5.8581421226
 10
3.6157062329
 20
5.8581421226
 10
3.6157062329
 20
5.876411353399999
  0
LWPOLYLINE
  5
11A
330
1F
100
AcDbEntity
  8
0
  6
Continuous
 62
     5
370
     0
100
AcDbPolyline
 90
        8
 70
   128
 43
0.0
 10
3.6230784682
 20
5.8837831483
 10
3.6253216175
 20
5.8837831483
 10
3.6253216175
 20
5.8837831483
 10
3.6253216175
 20
5.8581421226
 10
3.6253216175
 20
5.8581421226
 10
3.623078027699999
 20
5.8581421226
 10
3.623078027699999
 20
5.8581421226
 10
3.623078027699999
 20
5.8837831483
  0
ARC
  5
120
330
1F
100
AcDbEntity
  8
0
  6
Continuous
 62
     1
370
     0
100
AcDbCircle
 10
5.456634271299999
 20
5.700008665499999
 30
0.0
 40
0.0156250000000009
100
AcDbArc
 50
359.9999999981
 51
180.0000000019
  0
ARC
  5
122
330
1F
100
AcDbEntity
  8
0
  6
Continuous
 62
     1
370
     0
100
AcDbCircle
 10
5.3562776874
 20
5.700008665499999
 30
0.0
 40
0.0318750000000003
100
AcDbArc
 50
360.0
 51
180.0
  0
ARC
  5
124
330
1F
100
AcDbEntity
  8
0
  6
Continuous
 62
     1
370
     0
100
AcDbCircle
 10
5.165427941099999
 20
5.700008665499999
 30
0.0
 40
0.0631250000000003
100
AcDbArc
 50
0.0
 51
180.0
  0
ARC
  5
126
330
1F
100
AcDbEntity
  8
0
  6
Continuous
 62
     1
370
     0
100
AcDbCircle
 10
4.4650742692
 20
5.700008665499999
 30
0.0
 40
0.03125
100
AcDbArc
 50
0.0
 51
180.0
  0
ARC
  5
128
330
1F
100
AcDbEntity
  8
0
  6
Continuous
 62
     1
370
     0
100
AcDbCircle
 10
4.271324269199999
 20
5.700008665499999
 30
0.0
 40
0.0625000000000009
100
AcDbArc
 50
0.0
 51
88.85400800159999
  0
LINE
  5
129
330
1F
100
AcDbEntity
  8
0
  6
Continuous
 62
     1
370
     0
100
AcDbLine
 10
4.2725742692
 20
5.762496164299999
 30
0.0
 11
4.2725742692
 21
5.850008665499999
 31
0.0
  0
LINE
  5
12A
330
1F
100
AcDbEntity
  8
0
  6
Continuous
 62
     1
370
     0
100
AcDbLine
 10
4.2725742692
 20
5.850008665499999
 30
0.0
 11
3.8350742692
 21
5.850008665499999
 31
0.0
  0
LINE
  5
12B
330
1F
100
AcDbEntity
  8
0
  6
Continuous
 62
     1
370
     0
100
AcDbLine
 10
3.8350742692
 20
5.850008665499999
 30
0.0
 11
3.8350742692
 21
5.700008665499999
 31
0.0
  0
ARC
  5
12D
330
1F
100
AcDbEntity
  8
0
  6
Continuous
 62
     1
370
     0
100
AcDbCircle
 10
3.4963242692
 20
5.700008665499999
 30
0.0
 40
0.0956250000000005
100
AcDbArc
 50
0.0
 51
180.0
  0
ARC
  5
133
330
1F
100
AcDbEntity
  8
0
  6
Continuous
 62
     1
370
     0
100
AcDbCircle
 10
3.1838242692
 20
5.700008665499999
 30
0.0
 40
0.0625000000000004
100
AcDbArc
 50
0.0
 51
180.0
  0
SPLINE
  5
135
330
1F
100
AcDbEntity
  8
0
  6
Continuous
 62
     1
370
     0
100
AcDbSpline
210
0.0
220
0.0
230
1.0
 70
     8
 71
     3
 72
    38
 73
    34
 74
     0
 42
0.000000001
 43
0.0000000001
 40
0.0
 40
0.0
 40
0.0
 40
0.0
 40
0.0231218790619272
 40
0.0556855463906285
 40
0.0882476605445123
 40
0.1533710850064481
 40
0.2184951568362238
 40
0.2836194138248996
 40
0.3487436430528943
 40
0.4138676858991033
 40
0.4789913700112174
 40
0.5224073797148679
 40
0.5658232966606434
 40
0.6092390868518622
 40
0.652654640173656
 40
0.6960698041542166
 40
0.7394843542298024
 40
0.7655343320951879
 40
0.7915842641203503
 40
0.8176341007623925
 40
0.8436836926440351
 40
0.8697327246603766
 40
0.8860151023342675
 40
0.9022976391001188
 40
0.9185803995949763
 40
0.9348628592792248
 40
0.9457211047909099
 40
0.956578947613826
 40
0.9674370385477375
 40
0.9755847711110646
 40
0.9837293457567316
 40
0.9918688868343103
 40
1.0
 40
1.0
 40
1.0
 40
1.0
 10
6.145787110190878
 20
5.707794291064116
 30
0.0
 10
6.120512331554249
 20
5.710059665303334
 30
0.0
 10
6.059641852363815
 20
5.715515476310394
 30
0.0
 10
5.963409801095233
 20
5.726514858576468
 30
0.0
 10
5.821634841982063
 20
5.744775492886103
 30
0.0
 10
5.64485959032513
 20
5.770874510125299
 30
0.0
 10
5.433172053163858
 20
5.804964013680218
 30
0.0
 10
5.221677542916046
 20
5.840232206134436
 30
0.0
 10
5.010141004610721
 20
5.875248058042255
 30
0.0
 10
4.798346739582662
 20
5.908684622444726
 30
0.0
 10
4.60968518007138
 20
5.935801681631487
 30
0.0
 10
4.444224087781183
 20
5.956674982899377
 30
0.0
 10
4.302109541984838
 20
5.972117302317718
 30
0.0
 10
4.159697216419634
 20
5.984556508122624
 30
0.0
 10
4.01700718801015
 20
5.993342334984233
 30
0.0
 10
3.874107286653665
 20
5.997687534263707
 30
0.0
 10
3.750188194227178
 20
5.996749821309417
 30
0.0
 10
3.645457187605027
 20
5.991991265808912
 30
0.0
 10
3.559935069905928
 20
5.985286305595053
 30
0.0
 10
3.474726707375573
 20
5.975300162040167
 30
0.0
 10
3.390057874562848
 20
5.961419028106704
 30
0.0
 10
3.316743398799899
 20
5.945135254015752
 30
0.0
 10
3.254839429483848
 20
5.927559976945022
 30
0.0
 10
3.204094694539015
 20
5.910174463381552
 30
0.0
 10
3.154583468088753
 20
5.889503881042542
 30
0.0
 10
3.112207950131002
 20
5.867527026547994
 30
0.0
 10
3.077073961338233
 20
5.844978500702987
 30
0.0
 10
3.048851384697796
 20
5.822932672884108
 30
0.0
 10
3.025525732235379
 20
5.7997636348412
 30
0.0
 10
3.007387267847646
 20
5.775998191589253
 30
0.0
 10
2.994478066114946
 20
5.752411134500757
 30
0.0
 10
2.985569042694928
 20
5.726839186490209
 30
0.0
 10
2.984405659514997
 20
5.708949083585002
 30
0.0
 10
2.983824269231013
 20
5.700008665511263
 30
0.0
  0
ARC
  5
136
330
1F
100
AcDbEntity
  8
0
  6
Continuous
 62
     1
370
     0
100
AcDbCircle
 10
6.145139660599999
 20
5.700008665499999
 30
0.0
 40
0.0078125000000008
100
AcDbArc
 50
40.3826782892
 51
85.24624321520001
  0
ARC
  5
137
330
1F
100
AcDbEntity
  8
0
  6
Continuous
 62
     1
370
     0
100
AcDbCircle
 10
6.1476417314
 20
5.700008665499999
 30
0.0
 40
0.0061250000000015
100
AcDbArc
 50
55.7296547934
 51
180.0
  0
ARC
  5
138
330
1F
100
AcDbEntity
  8
0
  6
Continuous
 62
     1
370
     0
100
AcDbCircle
 10
4.9798960894
 20
5.6987966484
 30
0.0
 40
0.0943750000000008
100
AcDbArc
 50
0.7358450188
 51
179.2641549812
  0
ARC
  5
13A
330
1F
100
AcDbEntity
  8
0
  6
Continuous
 62
     1
370
     0
100
AcDbCircle
 10
6.145139660599999
 20
5.700008665499999
 30
0.0
 40
0.0078125000000003
100
AcDbArc
 50
274.7537567848
 51
319.6173217108
  0
SPLINE
  5
13B
330
1F
100
AcDbEntity
  8
0
  6
Continuous
 62
     1
370
     0
100
AcDbSpline
210
0.0
220
0.0
230
1.0
 70
     8
 71
     3
 72
    38
 73
    34
 74
     0
 42
0.000000001
 43
0.0000000001
 40
0.0
 40
0.0
 40
0.0
 40
0.0
 40
0.0081311131656897
 40
0.0162706542432683
 40
0.0244152288889351
 40
0.0325629614522619
 40
0.0434210523861736
 40
0.05427889520909
 40
0.0651371407207748
 40
0.0814196004050233
 40
0.0977023608998808
 40
0.1139848976657322
 40
0.1302672753396231
 40
0.1563163073559644
 40
0.182365899237607
 40
0.2084157358796494
 40
0.2344656679048116
 40
0.2605156457701978
 40
0.3039301958457832
 40
0.3473453598263441
 40
0.3907609131481382
 40
0.4341767033393568
 40
0.4775926202851326
 40
0.5210086299887827
 40
0.5861323141008969
 40
0.6512563569471059
 40
0.7163805861751009
 40
0.7815048431637761
 40
0.8466289149935521
 40
0.9117523394554877
 40
0.9443144536093715
 40
0.9768781209380728
 40
1.0
 40
1.0
 40
1.0
 40
1.0
 10
2.983824269231013
 20
5.700008665511263
 30
0.0
 10
2.984405659514997
 20
5.691068247437525
 30
0.0
 10
2.98556904269493
 20
5.67317814453232
 30
0.0
 10
2.994478066114946
 20
5.64760619652177
 30
0.0
 10
3.007387267847646
 20
5.624019139433277
 30
0.0
 10
3.025525732235378
 20
5.600253696181329
 30
0.0
 10
3.048851384697794
 20
5.577084658138419
 30
0.0
 10
3.077073961338232
 20
5.55503883031954
 30
0.0
 10
3.112207950131002
 20
5.532490304474534
 30
0.0
 10
3.154583468088751
 20
5.510513449979987
 30
0.0
 10
3.204094694539015
 20
5.489842867640974
 30
0.0
 10
3.254839429483848
 20
5.472457354077507
 30
0.0
 10
3.316743398799899
 20
5.454882077006777
 30
0.0
 10
3.390057874562848
 20
5.438598302915824
 30
0.0
 10
3.474726707375571
 20
5.424717168982361
 30
0.0
 10
3.559935069905926
 20
5.414731025427474
 30
0.0
 10
3.645457187605026
 20
5.408026065213617
 30
0.0
 10
3.750188194227178
 20
5.403267509713111
 30
0.0
 10
3.874107286653665
 20
5.402329796758819
 30
0.0
 10
4.01700718801015
 20
5.406674996038295
 30
0.0
 10
4.159697216419636
 20
5.415460822899905
 30
0.0
 10
4.302109541984838
 20
5.427900028704811
 30
0.0
 10
4.444224087781184
 20
5.443342348123148
 30
0.0
 10
4.60968518007138
 20
5.464215649391041
 30
0.0
 10
4.798346739582663
 20
5.491332708577802
 30
0.0
 10
5.010141004610721
 20
5.524769272980271
 30
0.0
 10
5.221677542916047
 20
5.559785124888092
 30
0.0
 10
5.433172053163859
 20
5.59505331734231
 30
0.0
 10
5.64485959032513
 20
5.629142820897228
 30
0.0
 10
5.821634841982063
 20
5.655241838136423
 30
0.0
 10
5.963409801095233
 20
5.673502472446062
 30
0.0
 10
6.059641852363815
 20
5.684501854712133
 30
0.0
 10
6.120512331554249
 20
5.689957665719195
 30
0.0
 10
6.145787110190875
 20
5.692223039958411
 30
0.0
  0
ARC
  5
13C
330
1F
100
AcDbEntity
  8
0
  6
Continuous
 62
     1
370
     0
100
AcDbCircle
 10
3.1838242692
 20
5.700008665499999
 30
0.0
 40
0.0625000000000004
100
AcDbArc
 50
180.0
 51
0.0
  0
ARC
  5
142
330
1F
100
AcDbEntity
  8
0
  6
Continuous
 62
     1
370
     0
100
AcDbCircle
 10
3.4963242692
 20
5.700008665499999
 30
0.0
 40
0.0956250000000005
100
AcDbArc
 50
180.0
 51
0.0
  0
LINE
  5
143
330
1F
100
AcDbEntity
  8
0
  6
Continuous
 62
     1
370
     0
100
AcDbLine
 10
3.8350742692
 20
5.700008665499999
 30
0.0
 11
3.8350742692
 21
5.550008665499999
 31
0.0
  0
LINE
  5
144
330
1F
100
AcDbEntity
  8
0
  6
Continuous
 62
     1
370
     0
100
AcDbLine
 10
3.8350742692
 20
5.550008665499999
 30
0.0
 11
4.2725742692
 21
5.550008665499999
 31
0.0
  0
LINE
  5
145
330
1F
100
AcDbEntity
  8
0
  6
Continuous
 62
     1
370
     0
100
AcDbLine
 10
4.2725742692
 20
5.550008665499999
 30
0.0
 11
4.2725742692
 21
5.637521166799999
 31
0.0
  0
ARC
  5
146
330
1F
100
AcDbEntity
  8
0
  6
Continuous
 62
     1
370
     0
100
AcDbCircle
 10
4.271324269199999
 20
5.700008665499999
 30
0.0
 40
0.0625
100
AcDbArc
 50
271.1459919984
 51
0.0
  0
ARC
  5
147
330
1F
100
AcDbEntity
  8
0
  6
Continuous
 62
     1
370
     0
100
AcDbCircle
 10
4.4650742692
 20
5.700008665499999
 30
0.0
 40
0.03125
100
AcDbArc
 50
180.0
 51
0.0
  0
ARC
  5
148
330
1F
100
AcDbEntity
  8
0
  6
Continuous
 62
     1
370
     0
100
AcDbCircle
 10
5.165427941099999
 20
5.700008665499999
 30
0.0
 40
0.0631250000000003
100
AcDbArc
 50
180.0
 51
360.0
  0
ARC
  5
149
330
1F
100
AcDbEntity
  8
0
  6
Continuous
 62
     1
370
     0
100
AcDbCircle
 10
5.3562776874
 20
5.700008665499999
 30
0.0
 40
0.0318750000000003
100
AcDbArc
 50
180.0
 51
0.0
  0
ARC
  5
14A
330
1F
100
AcDbEntity
  8
0
  6
Continuous
 62
     1
370
     0
100
AcDbCircle
 10
5.456634271299999
 20
5.700008665499999
 30
0.0
 40
0.0156250000000009
100
AcDbArc
 50
180.0
 51
0.0
  0
ARC
  5
14B
330
1F
100
AcDbEntity
  8
0
  6
Continuous
 62
     1
370
     0
100
AcDbCircle
 10
6.1476417314
 20
5.700008665499999
 30
0.0
 40
0.0061250000000008
100
AcDbArc
 50
180.0
 51
304.2703452066
  0
ARC
  5
14C
330
1F
100
AcDbEntity
  8
0
  6
Continuous
 62
     1
370
     0
100
AcDbCircle
 10
4.9798960894
 20
5.700008665499999
 30
0.0
 40
0.0943750000000003
100
AcDbArc
 50
180.0
 51
0.0
  0
ENDSEC
  0
SECTION
  2
OBJECTS
  0
DICTIONARY
  5
C
330
0
100
AcDbDictionary
281
     1
  3
ACAD_CIP_PREVIOUS_PRODUCT_INFO
350
18E
  3
ACAD_COLOR
350
183
  3
ACAD_DETAILVIEWSTYLE
350
18A
  3
ACAD_GROUP
350
D
  3
ACAD_LAYOUT
350
1A
  3
ACAD_MATERIAL
350
151
  3
ACAD_MLEADERSTYLE
350
186
  3
ACAD_MLINESTYLE
350
17
  3
ACAD_PLOTSETTINGS
350
19
  3
ACAD_PLOTSTYLENAME
350
E
  3
ACAD_SCALELIST
350
47
  3
ACAD_SECTIONVIEWSTYLE
350
188
  3
ACAD_TABLESTYLE
350
184
  3
ACAD_VISUALSTYLE
350
16A
  3
ACDB_RECOMPOSE_DATA
350
1AB
  3
AcDbVariableDictionary
350
19A
  0
DICTIONARY
  5
196
330
10
100
AcDbDictionary
280
     1
281
     1
  3
ADSK_XREC_LAYER_RECONCILED
360
197
  0
DICTIONARY
  5
198
330
73
100
AcDbDictionary
280
     1
281
     1
  3
ADSK_XREC_LAYER_RECONCILED
360
199
  0
XRECORD
  5
18E
102
{ACAD_REACTORS
330
C
102
}
330
C
100
AcDbXrecord
280
     1
300
ACD
300
2016
300
86443BDSADV_2016_0F
  0
DICTIONARY
  5
183
102
{ACAD_REACTORS
330
C
102
}
330
C
100
AcDbDictionary
281
     1
  0
DICTIONARY
  5
18A
102
{ACAD_REACTORS
330
C
102
}
330
C
100
AcDbDictionary
281
     1
  3
Imperial24
350
18B
  0
DICTIONARY
  5
D
102
{ACAD_REACTORS
330
C
102
}
330
C
100
AcDbDictionary
281
     1
  0
DICTIONARY
  5
1A
102
{ACAD_REACTORS
330
C
102
}
330
C
100
AcDbDictionary
281
     1
  3
Layout1
350
1E
  3
Layout2
350
26
  3
Model
350
22
  0
DICTIONARY
  5
151
102
{ACAD_REACTORS
330
C
102
}
330
C
100
AcDbDictionary
281
     1
  3
ByBlock
350
15A
  3
ByLayer
350
152
  3
Global
350
162
  0
DICTIONARY
  5
186
102
{ACAD_REACTORS
330
C
102
}
330
C
100
AcDbDictionary
281
     1
  3
Standard
350
187
  0
DICTIONARY
  5
17
102
{ACAD_REACTORS
330
C
102
}
330
C
100
AcDbDictionary
281
     1
  3
Standard
350
18
  0
DICTIONARY
  5
19
102
{ACAD_REACTORS
330
C
102
}
330
C
100
AcDbDictionary
281
     1
  0
ACDBDICTIONARYWDFLT
  5
E
102
{ACAD_REACTORS
330
C
102
}
330
C
100
AcDbDictionary
281
     1
  3
Normal
350
F
100
AcDbDictionaryWithDefault
340
F
  0
DICTIONARY
  5
47
102
{ACAD_REACTORS
330
C
102
}
330
C
100
AcDbDictionary
281
     1
  3
A0
350
48
  3
A1
350
49
  3
A2
350
4A
  3
A3
350
4B
  3
A4
350
4C
  3
A5
350
4D
  3
A6
350
4E
  3
A7
350
4F
  3
A8
350
50
  3
A9
350
51
  3
B0
350
52
  3
B1
350
53
  3
B2
350
54
  3
B3
350
55
  3
B4
350
56
  3
B5
350
57
  3
B6
350
58
  3
B7
350
59
  3
B8
350
5A
  3
B9
350
5B
  3
C0
350
5C
  3
C1
350
5D
  3
C2
350
5E
  3
C3
350
5F
  3
C4
350
60
  3
C5
350
61
  3
C6
350
62
  3
C7
350
63
  3
C8
350
64
  3
C9
350
65
  3
D0
350
66
  3
D1
350
67
  3
D2
350
68
  0
DICTIONARY
  5
188
102
{ACAD_REACTORS
330
C
102
}
330
C
100
AcDbDictionary
281
     1
  3
Imperial24
350
189
  0
DICTIONARY
  5
184
102
{ACAD_REACTORS
330
C
102
}
330
C
100
AcDbDictionary
281
     1
  3
Standard
350
185
  0
DICTIONARY
  5
16A
102
{ACAD_REACTORS
330
C
102
}
330
C
100
AcDbDictionary
281
     1
  3
2dWireframe
350
170
  3
Basic
350
16F
  3
Brighten
350
176
  3
ColorChange
350
17A
  3
Conceptual
350
173
  3
Dim
350
175
  3
EdgeColorOff
350
182
  3
Facepattern
350
179
  3
Flat
350
16B
  3
FlatWithEdges
350
16C
  3
Gouraud
350
16D
  3
GouraudWithEdges
350
16E
  3
Hidden
350
172
  3
JitterOff
350
180
  3
Linepattern
350
178
  3
OverhangOff
350
181
  3
Realistic
350
174
  3
Shaded
350
17F
  3
Shaded with edges
350
17E
  3
Shades of Gray
350
17B
  3
Sketchy
350
17C
  3
Thicken
350
177
  3
Wireframe
350
171
  3
X-Ray
350
17D
  0
XRECORD
  5
1AB
102
{ACAD_REACTORS
330
C
102
}
330
C
100
AcDbXrecord
280
     1
 90
        1
330
185
330
189
330
18B
  0
DICTIONARY
  5
19A
102
{ACAD_REACTORS
330
C
102
}
330
C
100
AcDbDictionary
281
     1
  3
CANNOSCALE
350
1A0
  3
CMLEADERSTYLE
350
19C
  3
CTABLESTYLE
350
19B
  3
CVIEWDETAILSTYLE
350
19D
  3
CVIEWSECTIONSTYLE
350
19E
  3
LAYEREVAL
350
1A2
  3
LAYERNOTIFY
350
1A3
  3
LIGHTINGUNITS
350
1A1
  3
MSLTSCALE
350
19F
  0
XRECORD
  5
197
102
{ACAD_REACTORS
330
196
102
}
330
196
100
AcDbXrecord
280
     1
290
     1
  0
XRECORD
  5
199
102
{ACAD_REACTORS
330
198
102
}
330
198
100
AcDbXrecord
280
     1
290
     1
  0
ACDBDETAILVIEWSTYLE
  5
18B
102
{ACAD_XDICTIONARY
360
1A9
102
}
102
{ACAD_REACTORS
330
18A
102
}
330
18A
100
AcDbModelDocViewStyle
 70
     0
  3
Imperial24
290
     0
100
AcDbDetailViewStyle
 70
     0
 71
     0
 90
        3
 71
     1
340
11
 62
   256
 40
0.24
340
0
 62
   256
 40
0.24
300

 40
0.36
280
     3
 71
     2
340
16
 90
       25
 62
   256
 71
     3
340
11
 62
   256
 40
0.24
 90
        1
 40
0.75
 90
        1
300
%<\AcVar ViewType \f "%tc1">% %<\AcVar ViewDetailId>%\PSCALE %<\AcVar ViewScale \f "%sn">%
 71
     4
340
16
 90
       25
 62
   256
340
16
 90
       25
 62
   256
280
     0
  0
LAYOUT
  5
1E
102
{ACAD_REACTORS
330
1A
102
}
330
1A
100
AcDbPlotSettings
  1

  2
none_device
  4

  6

 40
0.0
 41
0.0
 42
0.0
 43
0.0
 44
0.0
 45
0.0
 46
0.0
 47
0.0
 48
0.0
 49
0.0
140
0.0
141
0.0
142
1.0
143
1.0
 70
   688
 72
     0
 73
     0
 74
     5
  7

 75
    16
147
1.0
 76
     0
 77
     2
 78
   300
148
0.0
149
0.0
100
AcDbLayout
  1
Layout1
 70
     1
 71
     1
 10
0.0
 20
0.0
 11
12.0
 21
9.0
 12
0.0
 22
0.0
 32
0.0
 14
1.000000000000000E+20
 24
1.000000000000000E+20
 34
1.000000000000000E+20
 15
-1.000000000000000E+20
 25
-1.000000000000000E+20
 35
-1.000000000000000E+20
146
0.0
 13
0.0
 23
0.0
 33
0.0
 16
1.0
 26
0.0
 36
0.0
 17
0.0
 27
1.0
 37
0.0
 76
     0
330
1B
  0
LAYOUT
  5
26
102
{ACAD_REACTORS
330
1A
102
}
330
1A
100
AcDbPlotSettings
  1

  2
none_device
  4

  6

 40
0.0
 41
0.0
 42
0.0
 43
0.0
 44
0.0
 45
0.0
 46
0.0
 47
0.0
 48
0.0
 49
0.0
140
0.0
141
0.0
142
1.0
143
1.0
 70
   688
 72
     0
 73
     0
 74
     5
  7

 75
    16
147
1.0
 76
     0
 77
     2
 78
   300
148
0.0
149
0.0
100
AcDbLayout
  1
Layout2
 70
     1
 71
     2
 10
0.0
 20
0.0
 11
0.0
 21
0.0
 12
0.0
 22
0.0
 32
0.0
 14
0.0
 24
0.0
 34
0.0
 15
0.0
 25
0.0
 35
0.0
146
0.0
 13
0.0
 23
0.0
 33
0.0
 16
1.0
 26
0.0
 36
0.0
 17
0.0
 27
1.0
 37
0.0
 76
     0
330
23
  0
LAYOUT
  5
22
102
{ACAD_REACTORS
330
1A
102
}
330
1A
100
AcDbPlotSettings
  1

  2
none_device
  4
Letter_(8.50_x_11.00_Inches)
  6

 40
6.349999999999999
 41
6.349999999999999
 42
6.350005079999999
 43
6.350005079999999
 44
215.9
 45
279.4
 46
0.0
 47
0.0
 48
0.0
 49
0.0
140
0.0
141
0.0
142
1.0
143
1.0
 70
  1712
 72
     0
 73
     0
 74
     0
  7

 75
     0
147
1.0
 76
     0
 77
     2
 78
   300
148
0.0
149
0.0
100
AcDbLayout
  1
Model
 70
     1
 71
     0
 10
0.0
 20
0.0
 11
11.0
 21
8.5
 12
0.0
 22
0.0
 32
0.0
 14
0.0
 24
0.0
 34
0.0
 15
11.0
 25
8.5
 35
0.0
146
0.0
 13
0.0
 23
0.0
 33
0.0
 16
1.0
 26
0.0
 36
0.0
 17
0.0
 27
1.0
 37
0.0
 76
     0
330
1F
331
29
  0
MATERIAL
  5
15A
102
{ACAD_XDICTIONARY
360
15B
102
}
102
{ACAD_REACTORS
330
151
102
}
330
151
100
AcDbMaterial
  1
ByBlock
 72
     0
 43
0.0208333333333333
 43
0.0
 43
0.0
 43
0.0
 43
0.0
 43
0.0208333333333333
 43
0.0
 43
0.0
 43
0.0
 43
0.0
 43
1.0
 43
0.0
 43
0.0
 43
0.0
 43
0.0
 43
1.0
 77
     0
 47
0.0208333333333333
 47
0.0
 47
0.0
 47
0.0
 47
0.0
 47
0.0208333333333333
 47
0.0
 47
0.0
 47
0.0
 47
0.0
 47
1.0
 47
0.0
 47
0.0
 47
0.0
 47
0.0
 47
1.0
171
     0
 49
0.0208333333333333
 49
0.0
 49
0.0
 49
0.0
 49
0.0
 49
0.0208333333333333
 49
0.0
 49
0.0
 49
0.0
 49
0.0
 49
1.0
 49
0.0
 49
0.0
 49
0.0
 49
0.0
 49
1.0
175
     0
142
0.0208333333333333
142
0.0
142
0.0
142
0.0
142
0.0
142
0.0208333333333333
142
0.0
142
0.0
142
0.0
142
0.0
142
1.0
142
0.0
142
0.0
142
0.0
142
0.0
142
1.0
179
     0
144
0.0208333333333333
144
0.0
144
0.0
144
0.0
144
0.0
144
0.0208333333333333
144
0.0
144
0.0
144
0.0
144
0.0
144
1.0
144
0.0
144
0.0
144
0.0
144
0.0
144
1.0
147
0.0208333333333333
147
0.0
147
0.0
147
0.0
147
0.0
147
0.0208333333333333
147
0.0
147
0.0
147
0.0
147
0.0
147
1.0
147
0.0
147
0.0
147
0.0
147
0.0
147
1.0
  0
MATERIAL
  5
152
102
{ACAD_XDICTIONARY
360
153
102
}
102
{ACAD_REACTORS
330
151
102
}
330
151
100
AcDbMaterial
  1
ByLayer
 72
     0
 43
0.0208333333333333
 43
0.0
 43
0.0
 43
0.0
 43
0.0
 43
0.0208333333333333
 43
0.0
 43
0.0
 43
0.0
 43
0.0
 43
1.0
 43
0.0
 43
0.0
 43
0.0
 43
0.0
 43
1.0
 77
     0
 47
0.0208333333333333
 47
0.0
 47
0.0
 47
0.0
 47
0.0
 47
0.0208333333333333
 47
0.0
 47
0.0
 47
0.0
 47
0.0
 47
1.0
 47
0.0
 47
0.0
 47
0.0
 47
0.0
 47
1.0
171
     0
 49
0.0208333333333333
 49
0.0
 49
0.0
 49
0.0
 49
0.0
 49
0.0208333333333333
 49
0.0
 49
0.0
 49
0.0
 49
0.0
 49
1.0
 49
0.0
 49
0.0
 49
0.0
 49
0.0
 49
1.0
175
     0
142
0.0208333333333333
142
0.0
142
0.0
142
0.0
142
0.0
142
0.0208333333333333
142
0.0
142
0.0
142
0.0
142
0.0
142
1.0
142
0.0
142
0.0
142
0.0
142
0.0
142
1.0
179
     0
144
0.0208333333333333
144
0.0
144
0.0
144
0.0
144
0.0
144
0.0208333333333333
144
0.0
144
0.0
144
0.0
144
0.0
144
1.0
144
0.0
144
0.0
144
0.0
144
0.0
144
1.0
147
0.0208333333333333
147
0.0
147
0.0
147
0.0
147
0.0
147
0.0208333333333333
147
0.0
147
0.0
147
0.0
147
0.0
147
1.0
147
0.0
147
0.0
147
0.0
147
0.0
147
1.0
  0
MATERIAL
  5
162
102
{ACAD_XDICTIONARY
360
163
102
}
102
{ACAD_REACTORS
330
151
102
}
330
151
100
AcDbMaterial
  1
Global
 72
     0
 43
0.0208333333333333
 43
0.0
 43
0.0
 43
0.0
 43
0.0
 43
0.0208333333333333
 43
0.0
 43
0.0
 43
0.0
 43
0.0
 43
1.0
 43
0.0
 43
0.0
 43
0.0
 43
0.0
 43
1.0
 77
     0
 47
0.0208333333333333
 47
0.0
 47
0.0
 47
0.0
 47
0.0
 47
0.0208333333333333
 47
0.0
 47
0.0
 47
0.0
 47
0.0
 47
1.0
 47
0.0
 47
0.0
 47
0.0
 47
0.0
 47
1.0
171
     0
 49
0.0208333333333333
 49
0.0
 49
0.0
 49
0.0
 49
0.0
 49
0.0208333333333333
 49
0.0
 49
0.0
 49
0.0
 49
0.0
 49
1.0
 49
0.0
 49
0.0
 49
0.0
 49
0.0
 49
1.0
175
     0
142
0.0208333333333333
142
0.0
142
0.0
142
0.0
142
0.0
142
0.0208333333333333
142
0.0
142
0.0
142
0.0
142
0.0
142
1.0
142
0.0
142
0.0
142
0.0
142
0.0
142
1.0
179
     0
144
0.0208333333333333
144
0.0
144
0.0
144
0.0
144
0.0
144
0.0208333333333333
144
0.0
144
0.0
144
0.0
144
0.0
144
1.0
144
0.0
144
0.0
144
0.0
144
0.0
144
1.0
147
0.0208333333333333
147
0.0
147
0.0
147
0.0
147
0.0
147
0.0208333333333333
147
0.0
147
0.0
147
0.0
147
0.0
147
1.0
147
0.0
147
0.0
147
0.0
147
0.0
147
1.0
  0
MLEADERSTYLE
  5
187
102
{ACAD_REACTORS
330
186
102
}
330
186
100
AcDbMLeaderStyle
179
     2
170
     2
171
     1
172
     0
 90
        2
 40
0.0
 41
0.0
173
     1
 91
-1056964608
340
14
 92
       -2
290
     1
 42
0.09
291
     1
 43
0.36
  3
Standard
 44
0.18
300

342
11
174
     1
178
     6
175
     1
176
     0
 93
-1056964608
 45
0.18
292
     0
297
     0
 46
0.18
 94
-1056964608
 47
1.0
 49
1.0
140
1.0
293
     1
141
0.0
294
     1
177
     0
142
1.0
295
     0
296
     0
143
0.125
271
     0
272
     9
273
     9
298
     0
  0
MLINESTYLE
  5
18
102
{ACAD_REACTORS
330
17
102
}
330
17
100
AcDbMlineStyle
  2
STANDARD
 70
     0
  3

 62
   256
 51
90.0
 52
90.0
 71
     2
 49
0.5
 62
   256
  6
BYLAYER
 49
-0.5
 62
   256
  6
BYLAYER
  0
ACDBPLACEHOLDER
  5
F
102
{ACAD_REACTORS
330
E
102
}
330
E
  0
SCALE
  5
48
102
{ACAD_REACTORS
330
47
102
}
330
47
100
AcDbScale
 70
     0
300
1:1
140
1.0
141
1.0
290
     1
  0
SCALE
  5
49
102
{ACAD_REACTORS
330
47
102
}
330
47
100
AcDbScale
 70
     0
300
1:2
140
1.0
141
2.0
290
     0
  0
SCALE
  5
4A
102
{ACAD_REACTORS
330
47
102
}
330
47
100
AcDbScale
 70
     0
300
1:4
140
1.0
141
4.0
290
     0
  0
SCALE
  5
4B
102
{ACAD_REACTORS
330
47
102
}
330
47
100
AcDbScale
 70
     0
300
1:5
140
1.0
141
5.0
290
     0
  0
SCALE
  5
4C
102
{ACAD_REACTORS
330
47
102
}
330
47
100
AcDbScale
 70
     0
300
1:8
140
1.0
141
8.0
290
     0
  0
SCALE
  5
4D
102
{ACAD_REACTORS
330
47
102
}
330
47
100
AcDbScale
 70
     0
300
1:10
140
1.0
141
10.0
290
     0
  0
SCALE
  5
4E
102
{ACAD_REACTORS
330
47
102
}
330
47
100
AcDbScale
 70
     0
300
1:16
140
1.0
141
16.0
290
     0
  0
SCALE
  5
4F
102
{ACAD_REACTORS
330
47
102
}
330
47
100
AcDbScale
 70
     0
300
1:20
140
1.0
141
20.0
290
     0
  0
SCALE
  5
50
102
{ACAD_REACTORS
330
47
102
}
330
47
100
AcDbScale
 70
     0
300
1:30
140
1.0
141
30.0
290
     0
  0
SCALE
  5
51
102
{ACAD_REACTORS
330
47
102
}
330
47
100
AcDbScale
 70
     0
300
1:40
140
1.0
141
40.0
290
     0
  0
SCALE
  5
52
102
{ACAD_REACTORS
330
47
102
}
330
47
100
AcDbScale
 70
     0
300
1:50
140
1.0
141
50.0
290
     0
  0
SCALE
  5
53
102
{ACAD_REACTORS
330
47
102
}
330
47
100
AcDbScale
 70
     0
300
1:100
140
1.0
141
100.0
290
     0
  0
SCALE
  5
54
102
{ACAD_REACTORS
330
47
102
}
330
47
100
AcDbScale
 70
     0
300
2:1
140
2.0
141
1.0
290
     0
  0
SCALE
  5
55
102
{ACAD_REACTORS
330
47
102
}
330
47
100
AcDbScale
 70
     0
300
4:1
140
4.0
141
1.0
290
     0
  0
SCALE
  5
56
102
{ACAD_REACTORS
330
47
102
}
330
47
100
AcDbScale
 70
     0
300
8:1
140
8.0
141
1.0
290
     0
  0
SCALE
  5
57
102
{ACAD_REACTORS
330
47
102
}
330
47
100
AcDbScale
 70
     0
300
10:1
140
10.0
141
1.0
290
     0
  0
SCALE
  5
58
102
{ACAD_REACTORS
330
47
102
}
330
47
100
AcDbScale
 70
     0
300
100:1
140
100.0
141
1.0
290
     0
  0
SCALE
  5
59
102
{ACAD_REACTORS
330
47
102
}
330
47
100
AcDbScale
 70
     0
300
1/128" = 1'-0"
140
0.0078125
141
12.0
290
     0
  0
SCALE
  5
5A
102
{ACAD_REACTORS
330
47
102
}
330
47
100
AcDbScale
 70
     0
300
1/64" = 1'-0"
140
0.015625
141
12.0
290
     0
  0
SCALE
  5
5B
102
{ACAD_REACTORS
330
47
102
}
330
47
100
AcDbScale
 70
     0
300
1/32" = 1'-0"
140
0.03125
141
12.0
290
     0
  0
SCALE
  5
5C
102
{ACAD_REACTORS
330
47
102
}
330
47
100
AcDbScale
 70
     0
300
1/16" = 1'-0"
140
0.0625
141
12.0
290
     0
  0
SCALE
  5
5D
102
{ACAD_REACTORS
330
47
102
}
330
47
100
AcDbScale
 70
     0
300
3/32" = 1'-0"
140
0.09375
141
12.0
290
     0
  0
SCALE
  5
5E
102
{ACAD_REACTORS
330
47
102
}
330
47
100
AcDbScale
 70
     0
300
1/8" = 1'-0"
140
0.125
141
12.0
290
     0
  0
SCALE
  5
5F
102
{ACAD_REACTORS
330
47
102
}
330
47
100
AcDbScale
 70
     0
300
3/16" = 1'-0"
140
0.1875
141
12.0
290
     0
  0
SCALE
  5
60
102
{ACAD_REACTORS
330
47
102
}
330
47
100
AcDbScale
 70
     0
300
1/4" = 1'-0"
140
0.25
141
12.0
290
     0
  0
SCALE
  5
61
102
{ACAD_REACTORS
330
47
102
}
330
47
100
AcDbScale
 70
     0
300
3/8" = 1'-0"
140
0.375
141
12.0
290
     0
  0
SCALE
  5
62
102
{ACAD_REACTORS
330
47
102
}
330
47
100
AcDbScale
 70
     0
300
1/2" = 1'-0"
140
0.5
141
12.0
290
     0
  0
SCALE
  5
63
102
{ACAD_REACTORS
330
47
102
}
330
47
100
AcDbScale
 70
     0
300
3/4" = 1'-0"
140
0.75
141
12.0
290
     0
  0
SCALE
  5
64
102
{ACAD_REACTORS
330
47
102
}
330
47
100
AcDbScale
 70
     0
300
1" = 1'-0"
140
1.0
141
12.0
290
     0
  0
SCALE
  5
65
102
{ACAD_REACTORS
330
47
102
}
330
47
100
AcDbScale
 70
     0
300
1-1/2" = 1'-0"
140
1.5
141
12.0
290
     0
  0
SCALE
  5
66
102
{ACAD_REACTORS
330
47
102
}
330
47
100
AcDbScale
 70
     0
300
3" = 1'-0"
140
3.0
141
12.0
290
     0
  0
SCALE
  5
67
102
{ACAD_REACTORS
330
47
102
}
330
47
100
AcDbScale
 70
     0
300
6" = 1'-0"
140
6.0
141
12.0
290
     0
  0
SCALE
  5
68
102
{ACAD_REACTORS
330
47
102
}
330
47
100
AcDbScale
 70
     0
300
1'-0" = 1'-0"
140
12.0
141
12.0
290
     0
  0
ACDBSECTIONVIEWSTYLE
  5
189
102
{ACAD_XDICTIONARY
360
1A7
102
}
102
{ACAD_REACTORS
330
188
102
}
330
188
100
AcDbModelDocViewStyle
 70
     0
  3
Imperial24
290
     0
100
AcDbSectionViewStyle
 70
     0
 71
     0
 90
       78
 71
     1
340
11
 62
   256
 40
0.24
340
0
340
0
 62
   256
 40
0.24
300
I, O, Q, S, X, Z
 40
0.48
 90
        3
 40
0.18
 90
        1
 71
     2
340
16
 90
       25
 62
   256
340
16
 90
       50
 62
   256
 40
0.24
 40
0.0
 40
0.24
 71
     3
340
11
 62
   256
 40
0.24
 90
        1
 40
0.75
 90
        1
300
%<\AcVar ViewType \f "%tc1">% %<\AcVar ViewSectionStartId>%-%<\AcVar ViewSectionEndId>%\PSCALE %<\AcVar ViewScale \f "%sn">%
 71
     4
 62
   256
 62
   257
300
ANSI31
 40
1.0
 90
        0
290
     0
290
     0
 90
        6
 40
0.0
 40
1.570796326794896
 40
0.2617993877991494
 40
1.308996938995747
 40
-0.2617993877991494
 40
1.832595714594046
  0
TABLESTYLE
  5
185
102
{ACAD_XDICTIONARY
360
1A5
102
}
102
{ACAD_REACTORS
330
184
102
}
330
184
100
AcDbTableStyle
280
     0
  3
Standard
 70
     0
 71
     0
 40
0.06
 41
0.06
280
     0
281
     0
  7
Standard
140
0.18
170
     2
 62
     0
 63
     7
283
     0
 90
      512
 91
        0
  1

274
    -2
284
     1
 64
     0
275
    -2
285
     1
 65
     0
276
    -2
286
     1
 66
     0
277
    -2
287
     1
 67
     0
278
    -2
288
     1
 68
     0
279
    -2
289
     1
 69
     0
  7
Standard
140
0.25
170
     5
 62
     0
 63
     7
283
     0
 90
      512
 91
        0
  1

274
    -2
284
     1
 64
     0
275
    -2
285
     1
 65
     0
276
    -2
286
     1
 66
     0
277
    -2
287
     1
 67
     0
278
    -2
288
     1
 68
     0
279
    -2
289
     1
 69
     0
  7
Standard
140
0.18
170
     5
 62
     0
 63
     7
283
     0
 90
      512
 91
        0
  1

274
    -2
284
     1
 64
     0
275
    -2
285
     1
 65
     0
276
    -2
286
     1
 66
     0
277
    -2
287
     1
 67
     0
278
    -2
288
     1
 68
     0
279
    -2
289
     1
 69
     0
  0
VISUALSTYLE
  5
170
102
{ACAD_REACTORS
330
16A
102
}
330
16A
100
AcDbVisualStyle
  2
2dWireframe
 70
     4
177
     3
291
     0
 70
    58
 90
        0
176
     1
 90
        2
176
     1
 90
        0
176
     1
 90
        0
176
     1
 40
0.6
176
     1
 40
30.0
176
     1
 62
     7
420
 16777215
176
     1
 90
        1
176
     1
 90
        4
176
     1
 62
     7
176
     1
 62
   257
176
     1
 90
        1
176
     1
 90
        1
176
     1
 40
1.0
176
     1
 90
        0
176
     1
 62
   257
176
     1
 40
1.0
176
     1
 90
        1
176
     1
 90
        6
176
     1
 90
        2
176
     1
 62
     7
176
     1
 90
        5
176
     1
 90
        0
176
     1
 90
        0
176
     1
290
     0
176
     1
 90
        1
176
     1
 40
0.0
176
     1
 90
        0
176
     1
290
     1
176
     1
290
     1
176
     1
290
     0
176
     1
290
     0
176
     1
290
     0
176
     1
290
     0
176
     1
290
     0
176
     1
290
     0
176
     1
290
     0
176
     1
 90
       50
176
     1
 40
0.0
176
     1
 40
1.0
176
     1
 90
        0
176
     1
 62
    18
420
        0
176
     1
 90
       50
176
     1
 90
        3
176
     1
 62
     5
420
      255
176
     1
290
     0
176
     1
 90
       50
176
     1
 90
       50
176
     1
 90
       50
176
     1
290
     0
176
     1
 90
       50
176
     1
 62
   256
176
     0
 40
1.0
176
     0
 90
        2
176
     1
  1
strokes_ogs.tif
176
     1
290
     0
176
     1
 40
1.0
176
     1
 40
1.0
176
     1
  0
VISUALSTYLE
  5
16F
102
{ACAD_REACTORS
330
16A
102
}
330
16A
100
AcDbVisualStyle
  2
Basic
 70
     7
177
     3
291
     1
 70
    58
 90
        1
176
     1
 90
        0
176
     1
 90
        1
176
     1
 90
        0
176
     1
 40
0.6
176
     1
 40
30.0
176
     1
 62
     7
420
 16777215
176
     1
 90
        0
176
     1
 90
        4
176
     1
 62
     7
176
     1
 62
   257
176
     1
 90
        1
176
     1
 90
        1
176
     1
 40
1.0
176
     1
 90
        8
176
     1
 62
     7
176
     1
 40
1.0
176
     1
 90
        1
176
     1
 90
        6
176
     1
 90
        2
176
     1
 62
     7
176
     1
 90
        5
176
     1
 90
        0
176
     1
 90
        0
176
     1
290
     0
176
     1
 90
        1
176
     1
 40
0.0
176
     1
 90
        0
176
     1
290
     0
176
     1
290
     1
176
     1
290
     1
176
     1
290
     0
176
     1
290
     0
176
     1
290
     0
176
     1
290
     0
176
     1
290
     0
176
     1
290
     0
176
     1
 90
       50
176
     1
 40
0.0
176
     1
 40
1.0
176
     1
 90
        0
176
     1
 62
    18
420
        0
176
     1
 90
       50
176
     1
 90
        3
176
     1
 62
     5
420
      255
176
     1
290
     0
176
     1
 90
       50
176
     1
 90
       50
176
     1
 90
       50
176
     1
290
     0
176
     1
 90
       50
176
     1
 62
   256
176
     0
 40
1.0
176
     0
 90
        2
176
     1
  1
strokes_ogs.tif
176
     1
290
     0
176
     1
 40
1.0
176
     1
 40
1.0
176
     1
  0
VISUALSTYLE
  5
176
102
{ACAD_REACTORS
330
16A
102
}
330
16A
100
AcDbVisualStyle
  2
Brighten
 70
    12
177
     3
291
     1
 70
    58
 90
        2
176
     1
 90
        2
176
     1
 90
        0
176
     1
 90
        0
176
     1
 40
0.6
176
     1
 40
30.0
176
     1
 62
     7
420
 16777215
176
     1
 90
        1
176
     1
 90
        4
176
     1
 62
     7
176
     1
 62
   257
176
     1
 90
        1
176
     1
 90
        1
176
     1
 40
1.0
176
     1
 90
        8
176
     1
 62
     7
176
     1
 40
1.0
176
     1
 90
        1
176
     1
 90
        6
176
     1
 90
        2
176
     1
 62
     7
176
     1
 90
        5
176
     1
 90
        0
176
     1
 90
        0
176
     1
290
     0
176
     1
 90
        1
176
     1
 40
50.0
176
     1
 90
        0
176
     1
290
     0
176
     1
290
     1
176
     1
290
     1
176
     1
290
     0
176
     1
290
     0
176
     1
290
     0
176
     1
290
     0
176
     1
290
     0
176
     1
290
     0
176
     1
 90
       50
176
     1
 40
0.0
176
     1
 40
1.0
176
     1
 90
        0
176
     1
 62
    18
420
        0
176
     1
 90
       50
176
     1
 90
        3
176
     1
 62
     5
420
      255
176
     1
290
     0
176
     1
 90
       50
176
     1
 90
       50
176
     1
 90
       50
176
     1
290
     0
176
     1
 90
       50
176
     1
 62
   256
176
     0
 40
1.0
176
     0
 90
        2
176
     1
  1
strokes_ogs.tif
176
     1
290
     0
176
     1
 40
1.0
176
     1
 40
1.0
176
     1
  0
VISUALSTYLE
  5
17A
102
{ACAD_REACTORS
330
16A
102
}
330
16A
100
AcDbVisualStyle
  2
ColorChange
 70
    16
177
     3
291
     1
 70
    58
 90
        2
176
     1
 90
        2
176
     1
 90
        3
176
     1
 90
        0
176
     1
 40
0.6
176
     1
 40
30.0
176
     1
 62
     8
420
  8421504
176
     1
 90
        1
176
     1
 90
        4
176
     1
 62
     7
176
     1
 62
   257
176
     1
 90
        1
176
     1
 90
        1
176
     1
 40
1.0
176
     1
 90
        8
176
     1
 62
     8
420
  8421504
176
     1
 40
1.0
176
     1
 90
        1
176
     1
 90
        6
176
     1
 90
        2
176
     1
 62
     7
176
     1
 90
        5
176
     1
 90
        0
176
     1
 90
        0
176
     1
290
     0
176
     1
 90
        1
176
     1
 40
0.0
176
     1
 90
        0
176
     1
290
     0
176
     1
290
     1
176
     1
290
     1
176
     1
290
     0
176
     1
290
     0
176
     1
290
     0
176
     1
290
     0
176
     1
290
     0
176
     1
290
     0
176
     1
 90
       50
176
     1
 40
0.0
176
     1
 40
1.0
176
     1
 90
        0
176
     1
 62
    18
420
        0
176
     1
 90
       50
176
     1
 90
        3
176
     1
 62
     5
420
      255
176
     1
290
     0
176
     1
 90
       50
176
     1
 90
       50
176
     1
 90
       50
176
     1
290
     0
176
     1
 90
       50
176
     1
 62
   256
176
     0
 40
1.0
176
     0
 90
        2
176
     1
  1
strokes_ogs.tif
176
     1
290
     0
176
     1
 40
1.0
176
     1
 40
1.0
176
     1
  0
VISUALSTYLE
  5
173
102
{ACAD_REACTORS
330
16A
102
}
330
16A
100
AcDbVisualStyle
  2
Conceptual
 70
     9
177
     3
291
     0
 70
    58
 90
        3
176
     1
 90
        2
176
     1
 90
        0
176
     1
 90
        0
176
     1
 40
0.6
176
     1
 40
30.0
176
     1
 62
     7
420
 16777215
176
     1
 90
        2
176
     1
 90
        2
176
     1
 62
     7
176
     1
 62
   257
176
     1
 90
        1
176
     1
 90
        1
176
     1
 40
179.0
176
     1
 90
        8
176
     1
 62
     7
176
     1
 40
1.0
176
     1
 90
        1
176
     1
 90
        6
176
     1
 90
        2
176
     1
 62
     7
176
     1
 90
        3
176
     1
 90
        0
176
     1
 90
        0
176
     1
290
     0
176
     1
 90
        1
176
     1
 40
0.0
176
     1
 90
        0
176
     1
290
     0
176
     1
290
     1
176
     1
290
     1
176
     1
290
     0
176
     1
290
     0
176
     1
290
     0
176
     1
290
     0
176
     1
290
     0
176
     1
290
     0
176
     1
 90
       50
176
     1
 40
0.0
176
     1
 40
1.0
176
     1
 90
        0
176
     1
 62
    18
420
        0
176
     1
 90
       50
176
     1
 90
        3
176
     1
 62
     5
420
      255
176
     1
290
     0
176
     1
 90
       50
176
     1
 90
       50
176
     1
 90
       50
176
     1
290
     0
176
     1
 90
       50
176
     1
 62
   256
176
     0
 40
1.0
176
     0
 90
        2
176
     1
  1
strokes_ogs.tif
176
     1
290
     0
176
     1
 40
1.0
176
     1
 40
1.0
176
     1
  0
VISUALSTYLE
  5
175
102
{ACAD_REACTORS
330
16A
102
}
330
16A
100
AcDbVisualStyle
  2
Dim
 70
    11
177
     3
291
     1
 70
    58
 90
        2
176
     1
 90
        2
176
     1
 90
        0
176
     1
 90
        0
176
     1
 40
0.6
176
     1
 40
30.0
176
     1
 62
     7
420
 16777215
176
     1
 90
        1
176
     1
 90
        4
176
     1
 62
     7
176
     1
 62
   257
176
     1
 90
        1
176
     1
 90
        1
176
     1
 40
1.0
176
     1
 90
        8
176
     1
 62
     7
176
     1
 40
1.0
176
     1
 90
        1
176
     1
 90
        6
176
     1
 90
        2
176
     1
 62
     7
176
     1
 90
        5
176
     1
 90
        0
176
     1
 90
        0
176
     1
290
     0
176
     1
 90
        1
176
     1
 40
-50.0
176
     1
 90
        0
176
     1
290
     0
176
     1
290
     1
176
     1
290
     1
176
     1
290
     0
176
     1
290
     0
176
     1
290
     0
176
     1
290
     0
176
     1
290
     0
176
     1
290
     0
176
     1
 90
       50
176
     1
 40
0.0
176
     1
 40
1.0
176
     1
 90
        0
176
     1
 62
    18
420
        0
176
     1
 90
       50
176
     1
 90
        3
176
     1
 62
     5
420
      255
176
     1
290
     0
176
     1
 90
       50
176
     1
 90
       50
176
     1
 90
       50
176
     1
290
     0
176
     1
 90
       50
176
     1
 62
   256
176
     0
 40
1.0
176
     0
 90
        2
176
     1
  1
strokes_ogs.tif
176
     1
290
     0
176
     1
 40
1.0
176
     1
 40
1.0
176
     1
  0
VISUALSTYLE
  5
182
102
{ACAD_REACTORS
330
16A
102
}
330
16A
100
AcDbVisualStyle
  2
EdgeColorOff
 70
    22
177
     3
291
     1
 70
    58
 90
        2
176
     0
 90
        2
176
     0
 90
        0
176
     0
 90
        0
176
     0
 40
0.6
176
     0
 40
30.0
176
     0
 62
     7
420
 16777215
176
     0
 90
        1
176
     0
 90
        4
176
     0
 62
     7
176
     0
 62
   257
176
     0
 90
        1
176
     0
 90
        1
176
     0
 40
1.0
176
     0
 90
        8
176
     2
 62
     7
176
     0
 40
1.0
176
     0
 90
        1
176
     0
 90
        6
176
     0
 90
        2
176
     0
 62
     7
176
     0
 90
        5
176
     0
 90
        0
176
     0
 90
        0
176
     0
290
     0
176
     0
 90
        1
176
     0
 40
0.0
176
     0
 90
        0
176
     0
290
     0
176
     1
290
     1
176
     1
290
     1
176
     1
290
     0
176
     1
290
     0
176
     1
290
     0
176
     1
290
     0
176
     1
290
     0
176
     1
290
     0
176
     1
 90
       50
176
     0
 40
0.0
176
     0
 40
1.0
176
     0
 90
        0
176
     0
 62
    18
420
        0
176
     0
 90
       50
176
     0
 90
        3
176
     0
 62
     5
420
      255
176
     0
290
     0
176
     1
 90
       50
176
     0
 90
       50
176
     0
 90
       50
176
     0
290
     0
176
     1
 90
       50
176
     0
 62
   256
176
     0
 40
1.0
176
     0
 90
        2
176
     0
  1
strokes_ogs.tif
176
     0
290
     0
176
     1
 40
1.0
176
     0
 40
1.0
176
     0
  0
VISUALSTYLE
  5
179
102
{ACAD_REACTORS
330
16A
102
}
330
16A
100
AcDbVisualStyle
  2
Facepattern
 70
    15
177
     3
291
     1
 70
    58
 90
        2
176
     1
 90
        2
176
     1
 90
        0
176
     1
 90
        0
176
     1
 40
0.6
176
     1
 40
30.0
176
     1
 62
     7
420
 16777215
176
     1
 90
        1
176
     1
 90
        4
176
     1
 62
     7
176
     1
 62
   257
176
     1
 90
        1
176
     1
 90
        1
176
     1
 40
1.0
176
     1
 90
        8
176
     1
 62
     7
176
     1
 40
1.0
176
     1
 90
        1
176
     1
 90
        6
176
     1
 90
        2
176
     1
 62
     7
176
     1
 90
        5
176
     1
 90
        0
176
     1
 90
        0
176
     1
290
     0
176
     1
 90
        1
176
     1
 40
0.0
176
     1
 90
        0
176
     1
290
     0
176
     1
290
     1
176
     1
290
     1
176
     1
290
     0
176
     1
290
     0
176
     1
290
     0
176
     1
290
     0
176
     1
290
     0
176
     1
290
     0
176
     1
 90
       50
176
     1
 40
0.0
176
     1
 40
1.0
176
     1
 90
        0
176
     1
 62
    18
420
        0
176
     1
 90
       50
176
     1
 90
        3
176
     1
 62
     5
420
      255
176
     1
290
     0
176
     1
 90
       50
176
     1
 90
       50
176
     1
 90
       50
176
     1
290
     0
176
     1
 90
       50
176
     1
 62
   256
176
     0
 40
1.0
176
     0
 90
        2
176
     1
  1
strokes_ogs.tif
176
     1
290
     0
176
     1
 40
1.0
176
     1
 40
1.0
176
     1
  0
VISUALSTYLE
  5
16B
102
{ACAD_REACTORS
330
16A
102
}
330
16A
100
AcDbVisualStyle
  2
Flat
 70
     0
177
     3
291
     1
 70
    58
 90
        2
176
     1
 90
        1
176
     1
 90
        1
176
     1
 90
        2
176
     1
 40
0.6
176
     1
 40
30.0
176
     1
 62
     7
420
 16777215
176
     1
 90
        0
176
     1
 90
        0
176
     1
 62
     7
176
     1
 62
   257
176
     1
 90
        1
176
     1
 90
        1
176
     1
 40
1.0
176
     1
 90
        8
176
     1
 62
     7
176
     1
 40
1.0
176
     1
 90
        1
176
     1
 90
        6
176
     1
 90
        2
176
     1
 62
     7
176
     1
 90
        5
176
     1
 90
        0
176
     1
 90
        0
176
     1
290
     0
176
     1
 90
       13
176
     1
 40
0.0
176
     1
 90
        0
176
     1
290
     0
176
     1
290
     1
176
     1
290
     1
176
     1
290
     0
176
     1
290
     0
176
     1
290
     0
176
     1
290
     0
176
     1
290
     0
176
     1
290
     0
176
     1
 90
       50
176
     1
 40
0.0
176
     1
 40
1.0
176
     1
 90
        0
176
     1
 62
    18
420
        0
176
     1
 90
       50
176
     1
 90
        3
176
     1
 62
     5
420
      255
176
     1
290
     0
176
     1
 90
       50
176
     1
 90
       50
176
     1
 90
       50
176
     1
290
     0
176
     1
 90
       50
176
     1
 62
   256
176
     0
 40
1.0
176
     0
 90
        2
176
     1
  1
strokes_ogs.tif
176
     1
290
     0
176
     1
 40
1.0
176
     1
 40
1.0
176
     1
  0
VISUALSTYLE
  5
16C
102
{ACAD_REACTORS
330
16A
102
}
330
16A
100
AcDbVisualStyle
  2
FlatWithEdges
 70
     1
177
     3
291
     1
 70
    58
 90
        2
176
     1
 90
        1
176
     1
 90
        1
176
     1
 90
        2
176
     1
 40
0.6
176
     1
 40
30.0
176
     1
 62
     7
420
 16777215
176
     1
 90
        1
176
     1
 90
        0
176
     1
 62
     7
176
     1
 62
   257
176
     1
 90
        1
176
     1
 90
        1
176
     1
 40
1.0
176
     1
 90
        0
176
     1
 62
   257
176
     1
 40
1.0
176
     1
 90
        1
176
     1
 90
        6
176
     1
 90
        2
176
     1
 62
     7
176
     1
 90
        5
176
     1
 90
        0
176
     1
 90
        0
176
     1
290
     0
176
     1
 90
       13
176
     1
 40
0.0
176
     1
 90
        0
176
     1
290
     0
176
     1
290
     1
176
     1
290
     1
176
     1
290
     0
176
     1
290
     0
176
     1
290
     0
176
     1
290
     0
176
     1
290
     0
176
     1
290
     0
176
     1
 90
       50
176
     1
 40
0.0
176
     1
 40
1.0
176
     1
 90
        0
176
     1
 62
    18
420
        0
176
     1
 90
       50
176
     1
 90
        3
176
     1
 62
     5
420
      255
176
     1
290
     0
176
     1
 90
       50
176
     1
 90
       50
176
     1
 90
       50
176
     1
290
     0
176
     1
 90
       50
176
     1
 62
   256
176
     0
 40
1.0
176
     0
 90
        2
176
     1
  1
strokes_ogs.tif
176
     1
290
     0
176
     1
 40
1.0
176
     1
 40
1.0
176
     1
  0
VISUALSTYLE
  5
16D
102
{ACAD_REACTORS
330
16A
102
}
330
16A
100
AcDbVisualStyle
  2
Gouraud
 70
     2
177
     3
291
     1
 70
    58
 90
        2
176
     1
 90
        2
176
     1
 90
        1
176
     1
 90
        2
176
     1
 40
0.6
176
     1
 40
30.0
176
     1
 62
     7
420
 16777215
176
     1
 90
        0
176
     1
 90
        0
176
     1
 62
     7
176
     1
 62
   257
176
     1
 90
        1
176
     1
 90
        1
176
     1
 40
1.0
176
     1
 90
        0
176
     1
 62
     7
176
     1
 40
1.0
176
     1
 90
        1
176
     1
 90
        6
176
     1
 90
        2
176
     1
 62
     7
176
     1
 90
        5
176
     1
 90
        0
176
     1
 90
        0
176
     1
290
     0
176
     1
 90
       13
176
     1
 40
0.0
176
     1
 90
        0
176
     1
290
     0
176
     1
290
     1
176
     1
290
     1
176
     1
290
     0
176
     1
290
     0
176
     1
290
     0
176
     1
290
     0
176
     1
290
     0
176
     1
290
     0
176
     1
 90
       50
176
     1
 40
0.0
176
     1
 40
1.0
176
     1
 90
        0
176
     1
 62
    18
420
        0
176
     1
 90
       50
176
     1
 90
        3
176
     1
 62
     5
420
      255
176
     1
290
     0
176
     1
 90
       50
176
     1
 90
       50
176
     1
 90
       50
176
     1
290
     0
176
     1
 90
       50
176
     1
 62
   256
176
     0
 40
1.0
176
     0
 90
        2
176
     1
  1
strokes_ogs.tif
176
     1
290
     0
176
     1
 40
1.0
176
     1
 40
1.0
176
     1
  0
VISUALSTYLE
  5
16E
102
{ACAD_REACTORS
330
16A
102
}
330
16A
100
AcDbVisualStyle
  2
GouraudWithEdges
 70
     3
177
     3
291
     1
 70
    58
 90
        2
176
     1
 90
        2
176
     1
 90
        1
176
     1
 90
        2
176
     1
 40
0.6
176
     1
 40
30.0
176
     1
 62
     7
420
 16777215
176
     1
 90
        1
176
     1
 90
        0
176
     1
 62
     7
176
     1
 62
   257
176
     1
 90
        1
176
     1
 90
        1
176
     1
 40
1.0
176
     1
 90
        0
176
     1
 62
   257
176
     1
 40
1.0
176
     1
 90
        1
176
     1
 90
        6
176
     1
 90
        2
176
     1
 62
     7
176
     1
 90
        5
176
     1
 90
        0
176
     1
 90
        0
176
     1
290
     0
176
     1
 90
       13
176
     1
 40
0.0
176
     1
 90
        0
176
     1
290
     0
176
     1
290
     1
176
     1
290
     1
176
     1
290
     0
176
     1
290
     0
176
     1
290
     0
176
     1
290
     0
176
     1
290
     0
176
     1
290
     0
176
     1
 90
       50
176
     1
 40
0.0
176
     1
 40
1.0
176
     1
 90
        0
176
     1
 62
    18
420
        0
176
     1
 90
       50
176
     1
 90
        3
176
     1
 62
     5
420
      255
176
     1
290
     0
176
     1
 90
       50
176
     1
 90
       50
176
     1
 90
       50
176
     1
290
     0
176
     1
 90
       50
176
     1
 62
   256
176
     0
 40
1.0
176
     0
 90
        2
176
     1
  1
strokes_ogs.tif
176
     1
290
     0
176
     1
 40
1.0
176
     1
 40
1.0
176
     1
  0
VISUALSTYLE
  5
172
102
{ACAD_REACTORS
330
16A
102
}
330
16A
100
AcDbVisualStyle
  2
Hidden
 70
     6
177
     3
291
     0
 70
    58
 90
        1
176
     1
 90
        2
176
     1
 90
        2
176
     1
 90
        0
176
     1
 40
0.6
176
     1
 40
30.0
176
     1
 62
     7
420
 16777215
176
     1
 90
        2
176
     1
 90
        2
176
     1
 62
     7
176
     1
 62
   257
176
     1
 90
        2
176
     1
 90
        1
176
     1
 40
40.0
176
     1
 90
        0
176
     1
 62
   257
176
     1
 40
1.0
176
     1
 90
        1
176
     1
 90
        6
176
     1
 90
        2
176
     1
 62
     7
176
     1
 90
        3
176
     1
 90
        0
176
     1
 90
        0
176
     1
290
     0
176
     1
 90
        1
176
     1
 40
0.0
176
     1
 90
        0
176
     1
290
     0
176
     1
290
     1
176
     1
290
     1
176
     1
290
     0
176
     1
290
     0
176
     1
290
     0
176
     1
290
     0
176
     1
290
     0
176
     1
290
     0
176
     1
 90
       50
176
     1
 40
0.0
176
     1
 40
1.0
176
     1
 90
        0
176
     1
 62
    18
420
        0
176
     1
 90
       50
176
     1
 90
        3
176
     1
 62
     5
420
      255
176
     1
290
     0
176
     1
 90
       50
176
     1
 90
       50
176
     1
 90
       50
176
     1
290
     0
176
     1
 90
       50
176
     1
 62
   256
176
     0
 40
1.0
176
     0
 90
        2
176
     1
  1
strokes_ogs.tif
176
     1
290
     0
176
     1
 40
1.0
176
     1
 40
1.0
176
     1
  0
VISUALSTYLE
  5
180
102
{ACAD_REACTORS
330
16A
102
}
330
16A
100
AcDbVisualStyle
  2
JitterOff
 70
    20
177
     3
291
     1
 70
    58
 90
        2
176
     0
 90
        2
176
     0
 90
        0
176
     0
 90
        0
176
     0
 40
0.6
176
     0
 40
30.0
176
     0
 62
     7
420
 16777215
176
     0
 90
        1
176
     0
 90
        4
176
     0
 62
     7
176
     0
 62
   257
176
     0
 90
        1
176
     0
 90
        1
176
     0
 40
1.0
176
     0
 90
       10
176
     2
 62
     7
176
     0
 40
1.0
176
     0
 90
        1
176
     0
 90
        6
176
     0
 90
        2
176
     0
 62
     7
176
     0
 90
        5
176
     0
 90
        0
176
     0
 90
        0
176
     0
290
     0
176
     0
 90
        1
176
     0
 40
0.0
176
     0
 90
        0
176
     0
290
     0
176
     1
290
     1
176
     1
290
     1
176
     1
290
     0
176
     1
290
     0
176
     1
290
     0
176
     1
290
     0
176
     1
290
     0
176
     1
290
     0
176
     1
 90
       50
176
     0
 40
0.0
176
     0
 40
1.0
176
     0
 90
        0
176
     0
 62
    18
420
        0
176
     0
 90
       50
176
     0
 90
        3
176
     0
 62
     5
420
      255
176
     0
290
     0
176
     1
 90
       50
176
     0
 90
       50
176
     0
 90
       50
176
     0
290
     0
176
     1
 90
       50
176
     0
 62
   256
176
     0
 40
1.0
176
     0
 90
        2
176
     0
  1
strokes_ogs.tif
176
     0
290
     0
176
     1
 40
1.0
176
     0
 40
1.0
176
     0
  0
VISUALSTYLE
  5
178
102
{ACAD_REACTORS
330
16A
102
}
330
16A
100
AcDbVisualStyle
  2
Linepattern
 70
    14
177
     3
291
     1
 70
    58
 90
        2
176
     1
 90
        2
176
     1
 90
        0
176
     1
 90
        0
176
     1
 40
0.6
176
     1
 40
30.0
176
     1
 62
     7
420
 16777215
176
     1
 90
        1
176
     1
 90
        4
176
     1
 62
     7
176
     1
 62
   257
176
     1
 90
        7
176
     1
 90
        7
176
     1
 40
1.0
176
     1
 90
        8
176
     1
 62
     7
176
     1
 40
1.0
176
     1
 90
        1
176
     1
 90
        6
176
     1
 90
        2
176
     1
 62
     7
176
     1
 90
        5
176
     1
 90
        0
176
     1
 90
        0
176
     1
290
     0
176
     1
 90
        1
176
     1
 40
0.0
176
     1
 90
        0
176
     1
290
     0
176
     1
290
     1
176
     1
290
     1
176
     1
290
     0
176
     1
290
     0
176
     1
290
     0
176
     1
290
     0
176
     1
290
     0
176
     1
290
     0
176
     1
 90
       50
176
     1
 40
0.0
176
     1
 40
1.0
176
     1
 90
        0
176
     1
 62
    18
420
        0
176
     1
 90
       50
176
     1
 90
        3
176
     1
 62
     5
420
      255
176
     1
290
     0
176
     1
 90
       50
176
     1
 90
       50
176
     1
 90
       50
176
     1
290
     0
176
     1
 90
       50
176
     1
 62
   256
176
     0
 40
1.0
176
     0
 90
        2
176
     1
  1
strokes_ogs.tif
176
     1
290
     0
176
     1
 40
1.0
176
     1
 40
1.0
176
     1
  0
VISUALSTYLE
  5
181
102
{ACAD_REACTORS
330
16A
102
}
330
16A
100
AcDbVisualStyle
  2
OverhangOff
 70
    21
177
     3
291
     1
 70
    58
 90
        2
176
     0
 90
        2
176
     0
 90
        0
176
     0
 90
        0
176
     0
 40
0.6
176
     0
 40
30.0
176
     0
 62
     7
420
 16777215
176
     0
 90
        1
176
     0
 90
        4
176
     0
 62
     7
176
     0
 62
   257
176
     0
 90
        1
176
     0
 90
        1
176
     0
 40
1.0
176
     0
 90
        9
176
     2
 62
     7
176
     0
 40
1.0
176
     0
 90
        1
176
     0
 90
        6
176
     0
 90
        2
176
     0
 62
     7
176
     0
 90
        5
176
     0
 90
        0
176
     0
 90
        0
176
     0
290
     0
176
     0
 90
        1
176
     0
 40
0.0
176
     0
 90
        0
176
     0
290
     0
176
     1
290
     1
176
     1
290
     1
176
     1
290
     0
176
     1
290
     0
176
     1
290
     0
176
     1
290
     0
176
     1
290
     0
176
     1
290
     0
176
     1
 90
       50
176
     0
 40
0.0
176
     0
 40
1.0
176
     0
 90
        0
176
     0
 62
    18
420
        0
176
     0
 90
       50
176
     0
 90
        3
176
     0
 62
     5
420
      255
176
     0
290
     0
176
     1
 90
       50
176
     0
 90
       50
176
     0
 90
       50
176
     0
290
     0
176
     1
 90
       50
176
     0
 62
   256
176
     0
 40
1.0
176
     0
 90
        2
176
     0
  1
strokes_ogs.tif
176
     0
290
     0
176
     1
 40
1.0
176
     0
 40
1.0
176
     0
  0
VISUALSTYLE
  5
174
102
{ACAD_REACTORS
330
16A
102
}
330
16A
100
AcDbVisualStyle
  2
Realistic
 70
     8
177
     3
291
     0
 70
    58
 90
        2
176
     1
 90
        3
176
     1
 90
        0
176
     1
 90
        2
176
     1
 40
0.6
176
     1
 40
30.0
176
     1
 62
     7
420
 16777215
176
     1
 90
        0
176
     1
 90
        0
176
     1
 62
     7
176
     1
 62
   257
176
     1
 90
        1
176
     1
 90
        1
176
     1
 40
1.0
176
     1
 90
        8
176
     1
 62
   257
176
     1
 40
1.0
176
     1
 90
        1
176
     1
 90
        6
176
     1
 90
        2
176
     1
 62
     7
176
     1
 90
        3
176
     1
 90
        0
176
     1
 90
        0
176
     1
290
     0
176
     1
 90
       13
176
     1
 40
0.0
176
     1
 90
        0
176
     1
290
     0
176
     1
290
     1
176
     1
290
     1
176
     1
290
     0
176
     1
290
     0
176
     1
290
     0
176
     1
290
     0
176
     1
290
     0
176
     1
290
     0
176
     1
 90
       50
176
     1
 40
0.0
176
     1
 40
1.0
176
     1
 90
        0
176
     1
 62
    18
420
        0
176
     1
 90
       50
176
     1
 90
        3
176
     1
 62
     5
420
      255
176
     1
290
     0
176
     1
 90
       50
176
     1
 90
       50
176
     1
 90
       50
176
     1
290
     0
176
     1
 90
       50
176
     1
 62
   256
176
     0
 40
1.0
176
     0
 90
        2
176
     1
  1
strokes_ogs.tif
176
     1
290
     0
176
     1
 40
1.0
176
     1
 40
1.0
176
     1
  0
VISUALSTYLE
  5
17F
102
{ACAD_REACTORS
330
16A
102
}
330
16A
100
AcDbVisualStyle
  2
Shaded
 70
    27
177
     3
291
     0
 70
    58
 90
        2
176
     1
 90
        2
176
     1
 90
        1
176
     1
 90
        2
176
     1
 40
0.6
176
     1
 40
30.0
176
     1
 62
     7
420
 16777215
176
     1
 90
        0
176
     1
 90
        4
176
     1
 62
     7
176
     1
 62
   257
176
     1
 90
        1
176
     1
 90
        1
176
     1
 40
1.0
176
     1
 90
        8
176
     1
 62
   257
176
     1
 40
1.0
176
     1
 90
        1
176
     1
 90
        6
176
     1
 90
        2
176
     1
 62
     8
420
  7895160
176
     1
 90
        3
176
     1
 90
        0
176
     1
 90
        0
176
     1
290
     0
176
     1
 90
        5
176
     1
 40
0.0
176
     1
 90
        0
176
     1
290
     0
176
     1
290
     1
176
     1
290
     1
176
     1
290
     0
176
     1
290
     0
176
     1
290
     0
176
     1
290
     0
176
     1
290
     0
176
     1
290
     0
176
     1
 90
       50
176
     1
 40
0.0
176
     1
 40
1.0
176
     1
 90
        0
176
     1
 62
    18
420
        0
176
     1
 90
       50
176
     1
 90
        3
176
     1
 62
     5
420
      255
176
     1
290
     0
176
     1
 90
       50
176
     1
 90
       50
176
     1
 90
       50
176
     1
290
     0
176
     1
 90
       50
176
     1
 62
   256
176
     0
 40
1.0
176
     0
 90
        2
176
     1
  1
strokes_ogs.tif
176
     1
290
     0
176
     1
 40
1.0
176
     1
 40
1.0
176
     1
  0
VISUALSTYLE
  5
17E
102
{ACAD_REACTORS
330
16A
102
}
330
16A
100
AcDbVisualStyle
  2
Shaded with edges
 70
    26
177
     3
291
     0
 70
    58
 90
        2
176
     1
 90
        2
176
     1
 90
        1
176
     1
 90
        2
176
     1
 40
0.6
176
     1
 40
30.0
176
     1
 62
     7
420
 16777215
176
     1
 90
        1
176
     1
 90
       10
176
     1
 62
     7
176
     1
 62
   257
176
     1
 90
        2
176
     1
 90
        1
176
     1
 40
1.0
176
     1
 90
        8
176
     1
 62
   257
176
     1
 40
1.0
176
     1
 90
        1
176
     1
 90
        6
176
     1
 90
        2
176
     1
 62
     7
176
     1
 90
        3
176
     1
 90
        0
176
     1
 90
        0
176
     1
290
     0
176
     1
 90
        5
176
     1
 40
0.0
176
     1
 90
        0
176
     1
290
     0
176
     1
290
     1
176
     1
290
     1
176
     1
290
     0
176
     1
290
     0
176
     1
290
     0
176
     1
290
     0
176
     1
290
     0
176
     1
290
     0
176
     1
 90
       50
176
     1
 40
0.0
176
     1
 40
1.0
176
     1
 90
        0
176
     1
 62
    18
420
        0
176
     1
 90
       50
176
     1
 90
        3
176
     1
 62
     5
420
      255
176
     1
290
     0
176
     1
 90
       50
176
     1
 90
       50
176
     1
 90
       50
176
     1
290
     0
176
     1
 90
       50
176
     1
 62
   256
176
     0
 40
1.0
176
     0
 90
        2
176
     1
  1
strokes_ogs.tif
176
     1
290
     0
176
     1
 40
1.0
176
     1
 40
1.0
176
     1
  0
VISUALSTYLE
  5
17B
102
{ACAD_REACTORS
330
16A
102
}
330
16A
100
AcDbVisualStyle
  2
Shades of Gray
 70
    23
177
     3
291
     0
 70
    58
 90
        2
176
     1
 90
        2
176
     1
 90
        3
176
     1
 90
        0
176
     1
 40
0.6
176
     1
 40
30.0
176
     1
 62
     7
420
 16777215
176
     1
 90
        2
176
     1
 90
        2
176
     1
 62
     7
176
     1
 62
     7
176
     1
 90
        1
176
     1
 90
        1
176
     1
 40
40.0
176
     1
 90
        8
176
     1
 62
     7
176
     1
 40
1.0
176
     1
 90
        1
176
     1
 90
        6
176
     1
 90
        2
176
     1
 62
     7
176
     1
 90
        3
176
     1
 90
        0
176
     1
 90
        0
176
     1
290
     0
176
     1
 90
        1
176
     1
 40
0.0
176
     1
 90
        0
176
     1
290
     0
176
     1
290
     1
176
     1
290
     1
176
     1
290
     0
176
     1
290
     0
176
     1
290
     0
176
     1
290
     0
176
     1
290
     0
176
     1
290
     0
176
     1
 90
       50
176
     1
 40
0.0
176
     1
 40
1.0
176
     1
 90
        0
176
     1
 62
    18
420
        0
176
     1
 90
       50
176
     1
 90
        3
176
     1
 62
     5
420
      255
176
     1
290
     0
176
     1
 90
       50
176
     1
 90
       50
176
     1
 90
       50
176
     1
290
     0
176
     1
 90
       50
176
     1
 62
   256
176
     0
 40
1.0
176
     0
 90
        2
176
     1
  1
strokes_ogs.tif
176
     1
290
     0
176
     1
 40
1.0
176
     1
 40
1.0
176
     1
  0
VISUALSTYLE
  5
17C
102
{ACAD_REACTORS
330
16A
102
}
330
16A
100
AcDbVisualStyle
  2
Sketchy
 70
    24
177
     3
291
     0
 70
    58
 90
        1
176
     1
 90
        2
176
     1
 90
        2
176
     1
 90
        0
176
     1
 40
0.6
176
     1
 40
30.0
176
     1
 62
     7
420
 16777215
176
     1
 90
        2
176
     1
 90
        2
176
     1
 62
     7
176
     1
 62
     7
176
     1
 90
        1
176
     1
 90
        1
176
     1
 40
40.0
176
     1
 90
       11
176
     1
 62
     7
176
     1
 40
1.0
176
     1
 90
        1
176
     1
 90
        6
176
     1
 90
        2
176
     1
 62
     7
176
     1
 90
        6
176
     1
 90
        0
176
     1
 90
        0
176
     1
290
     0
176
     1
 90
        1
176
     1
 40
0.0
176
     1
 90
        0
176
     1
290
     0
176
     1
290
     1
176
     1
290
     1
176
     1
290
     0
176
     1
290
     0
176
     1
290
     0
176
     1
290
     0
176
     1
290
     0
176
     1
290
     0
176
     1
 90
       50
176
     1
 40
0.0
176
     1
 40
1.0
176
     1
 90
        0
176
     1
 62
    18
420
        0
176
     1
 90
       50
176
     1
 90
        3
176
     1
 62
     5
420
      255
176
     1
290
     0
176
     1
 90
       50
176
     1
 90
       50
176
     1
 90
       50
176
     1
290
     0
176
     1
 90
       50
176
     1
 62
   256
176
     0
 40
1.0
176
     0
 90
        2
176
     1
  1
strokes_ogs.tif
176
     1
290
     0
176
     1
 40
1.0
176
     1
 40
1.0
176
     1
  0
VISUALSTYLE
  5
177
102
{ACAD_REACTORS
330
16A
102
}
330
16A
100
AcDbVisualStyle
  2
Thicken
 70
    13
177
     3
291
     1
 70
    58
 90
        2
176
     1
 90
        2
176
     1
 90
        0
176
     1
 90
        0
176
     1
 40
0.6
176
     1
 40
30.0
176
     1
 62
     7
420
 16777215
176
     1
 90
        1
176
     1
 90
        4
176
     1
 62
     7
176
     1
 62
   257
176
     1
 90
        1
176
     1
 90
        1
176
     1
 40
1.0
176
     1
 90
       12
176
     1
 62
     7
176
     1
 40
1.0
176
     1
 90
        1
176
     1
 90
        6
176
     1
 90
        2
176
     1
 62
     7
176
     1
 90
        5
176
     1
 90
        0
176
     1
 90
        0
176
     1
290
     0
176
     1
 90
        1
176
     1
 40
0.0
176
     1
 90
        0
176
     1
290
     0
176
     1
290
     1
176
     1
290
     1
176
     1
290
     0
176
     1
290
     0
176
     1
290
     0
176
     1
290
     0
176
     1
290
     0
176
     1
290
     0
176
     1
 90
       50
176
     1
 40
0.0
176
     1
 40
1.0
176
     1
 90
        0
176
     1
 62
    18
420
        0
176
     1
 90
       50
176
     1
 90
        3
176
     1
 62
     5
420
      255
176
     1
290
     0
176
     1
 90
       50
176
     1
 90
       50
176
     1
 90
       50
176
     1
290
     0
176
     1
 90
       50
176
     1
 62
   256
176
     0
 40
1.0
176
     0
 90
        2
176
     1
  1
strokes_ogs.tif
176
     1
290
     0
176
     1
 40
1.0
176
     1
 40
1.0
176
     1
  0
VISUALSTYLE
  5
171
102
{ACAD_REACTORS
330
16A
102
}
330
16A
100
AcDbVisualStyle
  2
Wireframe
 70
     5
177
     3
291
     0
 70
    58
 90
        0
176
     1
 90
        2
176
     1
 90
        0
176
     1
 90
        0
176
     1
 40
0.6
176
     1
 40
30.0
176
     1
 62
     7
420
 16777215
176
     1
 90
        1
176
     1
 90
        4
176
     1
 62
     7
176
     1
 62
   257
176
     1
 90
        1
176
     1
 90
        1
176
     1
 40
1.0
176
     1
 90
        0
176
     1
 62
   257
176
     1
 40
1.0
176
     1
 90
        1
176
     1
 90
        6
176
     1
 90
        2
176
     1
 62
     7
176
     1
 90
        3
176
     1
 90
        0
176
     1
 90
        0
176
     1
290
     0
176
     1
 90
        1
176
     1
 40
0.0
176
     1
 90
        0
176
     1
290
     0
176
     1
290
     1
176
     1
290
     1
176
     1
290
     0
176
     1
290
     0
176
     1
290
     0
176
     1
290
     0
176
     1
290
     0
176
     1
290
     0
176
     1
 90
       50
176
     1
 40
0.0
176
     1
 40
1.0
176
     1
 90
        0
176
     1
 62
    18
420
        0
176
     1
 90
       50
176
     1
 90
        3
176
     1
 62
     5
420
      255
176
     1
290
     0
176
     1
 90
       50
176
     1
 90
       50
176
     1
 90
       50
176
     1
290
     0
176
     1
 90
       50
176
     1
 62
   256
176
     0
 40
1.0
176
     0
 90
        2
176
     1
  1
strokes_ogs.tif
176
     1
290
     0
176
     1
 40
1.0
176
     1
 40
1.0
176
     1
  0
VISUALSTYLE
  5
17D
102
{ACAD_REACTORS
330
16A
102
}
330
16A
100
AcDbVisualStyle
  2
X-Ray
 70
    25
177
     3
291
     0
 70
    58
 90
        2
176
     1
 90
        2
176
     1
 90
        1
176
     1
 90
        1
176
     1
 40
0.5
176
     1
 40
30.0
176
     1
 62
     7
420
 16777215
176
     1
 90
        1
176
     1
 90
        0
176
     1
 62
     7
176
     1
 62
   257
176
     1
 90
        1
176
     1
 90
        1
176
     1
 40
1.0
176
     1
 90
        8
176
     1
 62
     7
176
     1
 40
1.0
176
     1
 90
        1
176
     1
 90
        6
176
     1
 90
        2
176
     1
 62
     7
176
     1
 90
        3
176
     1
 90
        0
176
     1
 90
        0
176
     1
290
     0
176
     1
 90
       13
176
     1
 40
0.0
176
     1
 90
        0
176
     1
290
     0
176
     1
290
     1
176
     1
290
     1
176
     1
290
     0
176
     1
290
     0
176
     1
290
     0
176
     1
290
     0
176
     1
290
     0
176
     1
290
     0
176
     1
 90
       50
176
     1
 40
0.0
176
     1
 40
1.0
176
     1
 90
        0
176
     1
 62
    18
420
        0
176
     1
 90
       50
176
     1
 90
        3
176
     1
 62
     5
420
      255
176
     1
290
     0
176
     1
 90
       50
176
     1
 90
       50
176
     1
 90
       50
176
     1
290
     0
176
     1
 90
       50
176
     1
 62
   256
176
     0
 40
1.0
176
     0
 90
        2
176
     1
  1
strokes_ogs.tif
176
     1
290
     0
176
     1
 40
1.0
176
     1
 40
1.0
176
     1
  0
DICTIONARYVAR
  5
1A0
102
{ACAD_REACTORS
330
19A
102
}
330
19A
100
DictionaryVariables
280
     0
  1
1:1
  0
DICTIONARYVAR
  5
19C
102
{ACAD_REACTORS
330
19A
102
}
330
19A
100
DictionaryVariables
280
     0
  1
STANDARD
  0
DICTIONARYVAR
  5
19B
102
{ACAD_REACTORS
330
19A
102
}
330
19A
100
DictionaryVariables
280
     0
  1
STANDARD
  0
DICTIONARYVAR
  5
19D
102
{ACAD_REACTORS
330
19A
102
}
330
19A
100
DictionaryVariables
280
     0
  1
Imperial24
  0
DICTIONARYVAR
  5
19E
102
{ACAD_REACTORS
330
19A
102
}
330
19A
100
DictionaryVariables
280
     0
  1
Imperial24
  0
DICTIONARYVAR
  5
1A2
102
{ACAD_REACTORS
330
19A
102
}
330
19A
100
DictionaryVariables
280
     0
  1
1
  0
DICTIONARYVAR
  5
1A3
102
{ACAD_REACTORS
330
19A
102
}
330
19A
100
DictionaryVariables
280
     0
  1
15
  0
DICTIONARYVAR
  5
1A1
102
{ACAD_REACTORS
330
19A
102
}
330
19A
100
DictionaryVariables
280
     0
  1
0
  0
DICTIONARYVAR
  5
19F
102
{ACAD_REACTORS
330
19A
102
}
330
19A
100
DictionaryVariables
280
     0
  1
0
  0
DICTIONARY
  5
1A9
330
18B
100
AcDbDictionary
280
     1
281
     1
  3
ACAD_XREC_ROUNDTRIP
360
1AA
  0
DICTIONARY
  5
15B
330
15A
100
AcDbDictionary
280
     1
281
     1
  3
BUMPTILE
360
15D
  3
DIFFUSETILE
360
15C
  3
OPACITYTILE
360
160
  3
REFLECTIONTILE
360
15F
  3
REFRACTIONTILE
360
161
  3
SPECULARTILE
360
15E
  0
DICTIONARY
  5
153
330
152
100
AcDbDictionary
280
     1
281
     1
  3
BUMPTILE
360
155
  3
DIFFUSETILE
360
154
  3
OPACITYTILE
360
158
  3
REFLECTIONTILE
360
157
  3
REFRACTIONTILE
360
159
  3
SPECULARTILE
360
156
  0
DICTIONARY
  5
163
330
162
100
AcDbDictionary
280
     1
281
     1
  3
BUMPTILE
360
165
  3
DIFFUSETILE
360
164
  3
OPACITYTILE
360
168
  3
REFLECTIONTILE
360
167
  3
REFRACTIONTILE
360
169
  3
SPECULARTILE
360
166
  0
DICTIONARY
  5
1A7
330
189
100
AcDbDictionary
280
     1
281
     1
  3
ACAD_XREC_ROUNDTRIP
360
1A8
  0
DICTIONARY
  5
1A5
330
185
100
AcDbDictionary
280
     1
281
     1
  3
ACAD_ROUNDTRIP_2008_TABLESTYLE_CELLSTYLEMAP
360
1A6
  0
XRECORD
  5
1AA
102
{ACAD_REACTORS
330
1A9
102
}
330
1A9
100
AcDbXrecord
280
     1
102
DISPLAYNAME
  1
Imperial24
102
FLAGS
 90
        0
  0
XRECORD
  5
15D
102
{ACAD_REACTORS
330
15B
102
}
330
15B
100
AcDbXrecord
280
     1
270
     1
271
     1
  0
XRECORD
  5
15C
102
{ACAD_REACTORS
330
15B
102
}
330
15B
100
AcDbXrecord
280
     1
270
     1
271
     1
  0
XRECORD
  5
160
102
{ACAD_REACTORS
330
15B
102
}
330
15B
100
AcDbXrecord
280
     1
270
     1
271
     1
  0
XRECORD
  5
15F
102
{ACAD_REACTORS
330
15B
102
}
330
15B
100
AcDbXrecord
280
     1
270
     1
271
     1
  0
XRECORD
  5
161
102
{ACAD_REACTORS
330
15B
102
}
330
15B
100
AcDbXrecord
280
     1
270
     1
271
     1
  0
XRECORD
  5
15E
102
{ACAD_REACTORS
330
15B
102
}
330
15B
100
AcDbXrecord
280
     1
270
     1
271
     1
  0
XRECORD
  5
155
102
{ACAD_REACTORS
330
153
102
}
330
153
100
AcDbXrecord
280
     1
270
     1
271
     1
  0
XRECORD
  5
154
102
{ACAD_REACTORS
330
153
102
}
330
153
100
AcDbXrecord
280
     1
270
     1
271
     1
  0
XRECORD
  5
158
102
{ACAD_REACTORS
330
153
102
}
330
153
100
AcDbXrecord
280
     1
270
     1
271
     1
  0
XRECORD
  5
157
102
{ACAD_REACTORS
330
153
102
}
330
153
100
AcDbXrecord
280
     1
270
     1
271
     1
  0
XRECORD
  5
159
102
{ACAD_REACTORS
330
153
102
}
330
153
100
AcDbXrecord
280
     1
270
     1
271
     1
  0
XRECORD
  5
156
102
{ACAD_REACTORS
330
153
102
}
330
153
100
AcDbXrecord
280
     1
270
     1
271
     1
  0
XRECORD
  5
165
102
{ACAD_REACTORS
330
163
102
}
330
163
100
AcDbXrecord
280
     1
270
     1
271
     1
  0
XRECORD
  5
164
102
{ACAD_REACTORS
330
163
102
}
330
163
100
AcDbXrecord
280
     1
270
     1
271
     1
  0
XRECORD
  5
168
102
{ACAD_REACTORS
330
163
102
}
330
163
100
AcDbXrecord
280
     1
270
     1
271
     1
  0
XRECORD
  5
167
102
{ACAD_REACTORS
330
163
102
}
330
163
100
AcDbXrecord
280
     1
270
     1
271
     1
  0
XRECORD
  5
169
102
{ACAD_REACTORS
330
163
102
}
330
163
100
AcDbXrecord
280
     1
270
     1
271
     1
  0
XRECORD
  5
166
102
{ACAD_REACTORS
330
163
102
}
330
163
100
AcDbXrecord
280
     1
270
     1
271
     1
  0
XRECORD
  5
1A8
102
{ACAD_REACTORS
330
1A7
102
}
330
1A7
100
AcDbXrecord
280
     1
102
DISPLAYNAME
  1
Imperial24
102
FLAGS
 90
        0
  0
CELLSTYLEMAP
  5
1A6
102
{ACAD_REACTORS
330
1A5
102
}
330
1A5
100
AcDbCellStyleMap
 90
        3
300
CELLSTYLE
  1
TABLEFORMAT_BEGIN
 90
        5
170
     1
 91
        0
 92
    32768
 62
   257
 93
        1
300
CONTENTFORMAT
  1
CONTENTFORMAT_BEGIN
 90
        0
 91
        0
 92
      512
 93
        0
300

 40
0.0
140
1.0
 94
        5
 62
     0
340
11
144
0.25
309
CONTENTFORMAT_END
171
     0
 94
        0
309
TABLEFORMAT_END
  1
CELLSTYLE_BEGIN
 90
        1
 91
        1
300
_TITLE
309
CELLSTYLE_END
300
CELLSTYLE
  1
TABLEFORMAT_BEGIN
 90
        5
170
     1
 91
        0
 92
        0
 62
   257
 93
        1
300
CONTENTFORMAT
  1
CONTENTFORMAT_BEGIN
 90
        0
 91
        0
 92
      512
 93
        0
300

 40
0.0
140
1.0
 94
        5
 62
     0
340
11
144
0.18
309
CONTENTFORMAT_END
171
     0
 94
        0
309
TABLEFORMAT_END
  1
CELLSTYLE_BEGIN
 90
        2
 91
        1
300
_HEADER
309
CELLSTYLE_END
300
CELLSTYLE
  1
TABLEFORMAT_BEGIN
 90
        5
170
     1
 91
        0
 92
        0
 62
   257
 93
        1
300
CONTENTFORMAT
  1
CONTENTFORMAT_BEGIN
 90
        0
 91
        0
 92
      512
 93
        0
300

 40
0.0
140
1.0
 94
        2
 62
     0
340
11
144
0.18
309
CONTENTFORMAT_END
171
     0
 94
        0
309
TABLEFORMAT_END
  1
CELLSTYLE_BEGIN
 90
        3
 91
        2
300
_DATA
309
CELLSTYLE_END
  0
ENDSEC
  0
EOF
