  0
SECTION
  2
HEADER
  9
$ACADVER
  1
AC1015
  9
$ACADMAINTVER
 70
     6
  9
$DWGCODEPAGE
  3
ANSI_1252
  9
$INSBASE
 10
0.0
 20
0.0
 30
0.0
  9
$EXTMIN
 10
3.7394539007
 20
3.4606980564
 30
0.0
  9
$EXTMAX
 10
228.7843135847
 20
271.1170423101
 30
0.0
  9
$LIMMIN
 10
0.0
 20
0.0
  9
$LIMMAX
 10
420.0
 20
297.0
  9
$ORTHOMODE
 70
     0
  9
$REGENMODE
 70
     1
  9
$FILLMODE
 70
     1
  9
$QTEXTMODE
 70
     0
  9
$MIRRTEXT
 70
     1
  9
$LTSCALE
 40
1.0
  9
$ATTMODE
 70
     1
  9
$TEXTSIZE
 40
3.175
  9
$TRACEWID
 40
1.0
  9
$TEXTSTYLE
  7
Standard
  9
$CLAYER
  8
0
  9
$CELTYPE
  6
ByLayer
  9
$CECOLOR
 62
   256
  9
$CELTSCALE
 40
1.0
  9
$DISPSILH
 70
     0
  9
$DIMSCALE
 40
1.0
  9
$DIMASZ
 40
3.302
  9
$DIMEXO
 40
1.27
  9
$DIMDLI
 40
3.75
  9
$DIMRND
 40
0.0
  9
$DIMDLE
 40
0.0
  9
$DIMEXE
 40
3.175
  9
$DIMTP
 40
0.0
  9
$DIMTM
 40
0.0
  9
$DIMTXT
 40
3.175
  9
$DIMCEN
 40
2.5
  9
$DIMTSZ
 40
0.0
  9
$DIMTOL
 70
     0
  9
$DIMLIM
 70
     0
  9
$DIMTIH
 70
     1
  9
$DIMTOH
 70
     1
  9
$DIMSE1
 70
     0
  9
$DIMSE2
 70
     0
  9
$DIMTAD
 70
     0
  9
$DIMZIN
 70
     0
  9
$DIMBLK
  1

  9
$DIMASO
 70
     1
  9
$DIMSHO
 70
     1
  9
$DIMPOST
  1

  9
$DIMAPOST
  1

  9
$DIMALT
 70
     0
  9
$DIMALTD
 70
     3
  9
$DIMALTF
 40
0.0393700787
  9
$DIMLFAC
 40
1.0
  9
$DIMTOFL
 70
     1
  9
$DIMTVP
 40
0.0
  9
$DIMTIX
 70
     0
  9
$DIMSOXD
 70
     0
  9
$DIMSAH
 70
     0
  9
$DIMBLK1
  1

  9
$DIMBLK2
  1

  9
$DIMSTYLE
  2
ISO-25
  9
$DIMCLRD
 70
     0
  9
$DIMCLRE
 70
     0
  9
$DIMCLRT
 70
     0
  9
$DIMTFAC
 40
1.0
  9
$DIMGAP
 40
1.524
  9
$DIMJUST
 70
     0
  9
$DIMSD1
 70
     0
  9
$DIMSD2
 70
     0
  9
$DIMTOLJ
 70
     0
  9
$DIMTZIN
 70
     0
  9
$DIMALTZ
 70
     0
  9
$DIMALTTZ
 70
     0
  9
$DIMUPT
 70
     0
  9
$DIMDEC
 70
     2
  9
$DIMTDEC
 70
     2
  9
$DIMALTU
 70
     2
  9
$DIMALTTD
 70
     3
  9
$DIMTXSTY
  7
Standard
  9
$DIMAUNIT
 70
     0
  9
$DIMADEC
 70
     2
  9
$DIMALTRND
 40
0.0
  9
$DIMAZIN
 70
     0
  9
$DIMDSEP
 70
    44
  9
$DIMATFIT
 70
     3
  9
$DIMFRAC
 70
     0
  9
$DIMLDRBLK
  1

  9
$DIMLUNIT
 70
     2
  9
$DIMLWD
 70
    -2
  9
$DIMLWE
 70
    -2
  9
$DIMTMOVE
 70
     0
  9
$LUNITS
 70
     2
  9
$LUPREC
 70
     2
  9
$SKETCHINC
 40
1.0
  9
$FILLETRAD
 40
10.0
  9
$AUNITS
 70
     0
  9
$AUPREC
 70
     2
  9
$MENU
  1
.
  9
$ELEVATION
 40
0.0
  9
$PELEVATION
 40
0.0
  9
$THICKNESS
 40
0.0
  9
$LIMCHECK
 70
     0
  9
$CHAMFERA
 40
0.0
  9
$CHAMFERB
 40
0.0
  9
$CHAMFERC
 40
0.0
  9
$CHAMFERD
 40
0.0
  9
$SKPOLY
 70
     0
  9
$TDCREATE
 40
2458047.701746597
  9
$TDUCREATE
 40
2458047.868413264
  9
$TDUPDATE
 40
2458047.70185044
  9
$TDUUPDATE
 40
2458047.868517106
  9
$TDINDWG
 40
0.0000000116
  9
$TDUSRTIMER
 40
0.0000000116
  9
$USRTIMER
 70
     1
  9
$ANGBASE
 50
0.0
  9
$ANGDIR
 70
     0
  9
$PDMODE
 70
     0
  9
$PDSIZE
 40
-1.0
  9
$PLINEWID
 40
0.0
  9
$SPLFRAME
 70
     0
  9
$SPLINETYPE
 70
     6
  9
$SPLINESEGS
 70
     8
  9
$HANDSEED
  5
EC
  9
$SURFTAB1
 70
     6
  9
$SURFTAB2
 70
     6
  9
$SURFTYPE
 70
     6
  9
$SURFU
 70
     6
  9
$SURFV
 70
     6
  9
$UCSBASE
  2

  9
$UCSNAME
  2

  9
$UCSORG
 10
0.0
 20
0.0
 30
0.0
  9
$UCSXDIR
 10
1.0
 20
0.0
 30
0.0
  9
$UCSYDIR
 10
0.0
 20
1.0
 30
0.0
  9
$UCSORTHOREF
  2

  9
$UCSORTHOVIEW
 70
     0
  9
$UCSORGTOP
 10
0.0
 20
0.0
 30
0.0
  9
$UCSORGBOTTOM
 10
0.0
 20
0.0
 30
0.0
  9
$UCSORGLEFT
 10
0.0
 20
0.0
 30
0.0
  9
$UCSORGRIGHT
 10
0.0
 20
0.0
 30
0.0
  9
$UCSORGFRONT
 10
0.0
 20
0.0
 30
0.0
  9
$UCSORGBACK
 10
0.0
 20
0.0
 30
0.0
  9
$PUCSBASE
  2

  9
$PUCSNAME
  2

  9
$PUCSORG
 10
0.0
 20
0.0
 30
0.0
  9
$PUCSXDIR
 10
1.0
 20
0.0
 30
0.0
  9
$PUCSYDIR
 10
0.0
 20
1.0
 30
0.0
  9
$PUCSORTHOREF
  2

  9
$PUCSORTHOVIEW
 70
     0
  9
$PUCSORGTOP
 10
0.0
 20
0.0
 30
0.0
  9
$PUCSORGBOTTOM
 10
0.0
 20
0.0
 30
0.0
  9
$PUCSORGLEFT
 10
0.0
 20
0.0
 30
0.0
  9
$PUCSORGRIGHT
 10
0.0
 20
0.0
 30
0.0
  9
$PUCSORGFRONT
 10
0.0
 20
0.0
 30
0.0
  9
$PUCSORGBACK
 10
0.0
 20
0.0
 30
0.0
  9
$USERI1
 70
     0
  9
$USERI2
 70
     0
  9
$USERI3
 70
     0
  9
$USERI4
 70
     0
  9
$USERI5
 70
     0
  9
$USERR1
 40
0.0
  9
$USERR2
 40
0.0
  9
$USERR3
 40
0.0
  9
$USERR4
 40
0.0
  9
$USERR5
 40
0.0
  9
$WORLDVIEW
 70
     1
  9
$SHADEDGE
 70
     3
  9
$SHADEDIF
 70
    70
  9
$TILEMODE
 70
     1
  9
$MAXACTVP
 70
    64
  9
$PINSBASE
 10
0.0
 20
0.0
 30
0.0
  9
$PLIMCHECK
 70
     0
  9
$PEXTMIN
 10
1.0000000000E+20
 20
1.0000000000E+20
 30
1.0000000000E+20
  9
$PEXTMAX
 10
-1.0000000000E+20
 20
-1.0000000000E+20
 30
-1.0000000000E+20
  9
$PLIMMIN
 10
0.0
 20
0.0
  9
$PLIMMAX
 10
420.0
 20
297.0
  9
$UNITMODE
 70
     0
  9
$VISRETAIN
 70
     1
  9
$PLINEGEN
 70
     0
  9
$PSLTSCALE
 70
     1
  9
$TREEDEPTH
 70
  3020
  9
$CMLSTYLE
  2
Standard
  9
$CMLJUST
 70
     0
  9
$CMLSCALE
 40
20.0
  9
$PROXYGRAPHICS
 70
     1
  9
$MEASUREMENT
 70
     1
  9
$CELWEIGHT
370
    -1
  9
$ENDCAPS
280
     0
  9
$JOINSTYLE
280
     0
  9
$LWDISPLAY
290
     1
  9
$INSUNITS
 70
     4
  9
$HYPERLINKBASE
  1

  9
$STYLESHEET
  1

  9
$XEDIT
290
     1
  9
$CEPSNTYPE
380
     0
  9
$PSTYLEMODE
290
     1
  9
$FINGERPRINTGUID
  2
{A1F460BF-FB87-4846-98AF-2F606824A488}
  9
$VERSIONGUID
  2
{FAEB1C32-E019-11D5-929B-00C0DF256EC4}
  9
$EXTNAMES
290
     1
  9
$PSVPSCALE
 40
0.0
  9
$OLESTARTUP
290
     0
  0
ENDSEC
  0
SECTION
  2
CLASSES
  0
CLASS
  1
ACDBDICTIONARYWDFLT
  2
AcDbDictionaryWithDefault
  3
ObjectDBX Classes
 90
        0
280
     0
281
     0
  0
CLASS
  1
VISUALSTYLE
  2
AcDbVisualStyle
  3
ObjectDBX Classes
 90
     4095
280
     0
281
     0
  0
CLASS
  1
MATERIAL
  2
AcDbMaterial
  3
ObjectDBX Classes
 90
     1153
280
     0
281
     0
  0
CLASS
  1
SCALE
  2
AcDbScale
  3
ObjectDBX Classes
 90
     1153
280
     0
281
     0
  0
CLASS
  1
TABLESTYLE
  2
AcDbTableStyle
  3
ObjectDBX Classes
 90
     4095
280
     0
281
     0
  0
CLASS
  1
MLEADERSTYLE
  2
AcDbMLeaderStyle
  3
ACDB_MLEADERSTYLE_CLASS
 90
     4095
280
     0
281
     0
  0
CLASS
  1
SUN
  2
AcDbSun
  3
SCENEOE
 90
     1153
280
     0
281
     0
  0
CLASS
  1
ACDBPLACEHOLDER
  2
AcDbPlaceHolder
  3
ObjectDBX Classes
 90
        0
280
     0
281
     0
  0
CLASS
  1
LAYOUT
  2
AcDbLayout
  3
ObjectDBX Classes
 90
        0
280
     0
281
     0
  0
ENDSEC
  0
SECTION
  2
TABLES
  0
TABLE
  2
VPORT
  5
8
330
0
100
AcDbSymbolTable
 70
     1
  0
VPORT
  5
29
330
8
100
AcDbSymbolTableRecord
100
AcDbViewportTableRecord
  2
*Active
 70
     0
 10
0.0
 20
0.0
 11
1.0
 21
1.0
 12
116.2618837427
 22
137.2888701832
 13
0.0
 23
0.0
 14
10.0
 24
10.0
 15
10.0
 25
10.0
 16
0.0
 26
0.0
 36
1.0
 17
0.0
 27
0.0
 37
0.0
 40
273.0094711388
 41
0.8407977786
 42
50.0
 43
0.0
 44
0.0
 50
0.0
 51
0.0
 71
     0
 72
   100
 73
     1
 74
     3
 75
     0
 76
     0
 77
     0
 78
     0
281
     0
 65
     1
110
0.0
120
0.0
130
0.0
111
1.0
121
0.0
131
0.0
112
0.0
122
1.0
132
0.0
 79
     0
146
0.0
  0
ENDTAB
  0
TABLE
  2
LTYPE
  5
5
330
0
100
AcDbSymbolTable
 70
     6
  0
LTYPE
  5
14
330
5
100
AcDbSymbolTableRecord
100
AcDbLinetypeTableRecord
  2
ByBlock
 70
     0
  3

 72
    65
 73
     0
 40
0.0
  0
LTYPE
  5
15
330
5
100
AcDbSymbolTableRecord
100
AcDbLinetypeTableRecord
  2
ByLayer
 70
     0
  3

 72
    65
 73
     0
 40
0.0
  0
LTYPE
  5
16
330
5
100
AcDbSymbolTableRecord
100
AcDbLinetypeTableRecord
  2
Continuous
 70
     0
  3
Solid line
 72
    65
 73
     0
 40
0.0
  0
LTYPE
  5
6E
330
5
100
AcDbSymbolTableRecord
100
AcDbLinetypeTableRecord
  2
HIDDEN
 70
     0
  3
Hidden __ __ __ __ __ __ __ __ __ __ __ __ __ __
 72
    65
 73
     2
 40
1.905
 49
1.27
 74
     0
 49
-0.635
 74
     0
  0
LTYPE
  5
6F
330
5
100
AcDbSymbolTableRecord
100
AcDbLinetypeTableRecord
  2
PHANTOM
 70
     0
  3
Phantom ______  __  __  ______  __  __  ______
 72
    65
 73
     6
 40
12.7
 49
6.35
 74
     0
 49
-1.27
 74
     0
 49
1.27
 74
     0
 49
-1.27
 74
     0
 49
1.27
 74
     0
 49
-1.27
 74
     0
  0
LTYPE
  5
70
330
5
100
AcDbSymbolTableRecord
100
AcDbLinetypeTableRecord
  2
CENTER
 70
     0
  3
Center ____ _ ____ _ ____ _ ____ _ ____ _ ____
 72
    65
 73
     4
 40
10.16
 49
6.35
 74
     0
 49
-1.27
 74
     0
 49
1.27
 74
     0
 49
-1.27
 74
     0
  0
LTYPE
  5
71
330
5
100
AcDbSymbolTableRecord
100
AcDbLinetypeTableRecord
  2
CENTERX2
 70
     0
  3
Center (2x) ________  __  ________  __  _____
 72
    65
 73
     4
 40
20.32
 49
12.7
 74
     0
 49
-2.54
 74
     0
 49
2.54
 74
     0
 49
-2.54
 74
     0
  0
LTYPE
  5
72
330
5
100
AcDbSymbolTableRecord
100
AcDbLinetypeTableRecord
  2
DOT2
 70
     0
  3
Dot (.5x) ........................................
 72
    65
 73
     2
 40
0.635
 49
0.0
 74
     0
 49
-0.635
 74
     0
  0
ENDTAB
  0
TABLE
  2
LAYER
  5
2
330
0
100
AcDbSymbolTable
 70
     1
  0
LAYER
  5
10
330
2
100
AcDbSymbolTableRecord
100
AcDbLayerTableRecord
  2
0
 70
     0
 62
     7
  6
Continuous
370
    -3
390
F
  0
ENDTAB
  0
TABLE
  2
STYLE
  5
3
330
0
100
AcDbSymbolTable
 70
     2
  0
STYLE
  5
11
330
3
100
AcDbSymbolTableRecord
100
AcDbTextStyleTableRecord
  2
Standard
 70
     0
 40
0.0
 41
1.0
 50
0.0
 71
     0
 42
3.175
  3
txt
  4

  0
STYLE
  5
E9
330
3
100
AcDbSymbolTableRecord
100
AcDbTextStyleTableRecord
  2
SLDTEXTSTYLE0
 70
     0
 40
0.0
 41
0.7
 50
0.0
 71
     0
 42
3.175
  3
TXT
  4

  0
ENDTAB
  0
TABLE
  2
VIEW
  5
6
330
0
100
AcDbSymbolTable
 70
     0
  0
ENDTAB
  0
TABLE
  2
UCS
  5
7
330
0
100
AcDbSymbolTable
 70
     0
  0
ENDTAB
  0
TABLE
  2
APPID
  5
9
330
0
100
AcDbSymbolTable
 70
     1
  0
APPID
  5
12
330
9
100
AcDbSymbolTableRecord
100
AcDbRegAppTableRecord
  2
ACAD
 70
     0
  0
ENDTAB
  0
TABLE
  2
DIMSTYLE
  5
A
330
0
100
AcDbSymbolTable
 70
     1
100
AcDbDimStyleTable
  0
DIMSTYLE
105
27
330
A
100
AcDbSymbolTableRecord
100
AcDbDimStyleTableRecord
  2
ISO-25
 70
     0
 41
2.5
 42
0.625
 43
3.75
 44
1.25
 73
     0
 74
     0
 77
     1
 78
     8
140
2.5
141
2.5
143
0.0393700787
147
0.625
171
     3
172
     1
178
     0
271
     2
272
     2
274
     3
278
    44
283
     0
284
     8
340
11
  0
ENDTAB
  0
TABLE
  2
BLOCK_RECORD
  5
1
330
0
100
AcDbSymbolTable
 70
     1
  0
BLOCK_RECORD
  5
1F
330
1
100
AcDbSymbolTableRecord
100
AcDbBlockTableRecord
  2
*Model_Space
340
22
  0
BLOCK_RECORD
  5
1B
330
1
100
AcDbSymbolTableRecord
100
AcDbBlockTableRecord
  2
*Paper_Space
340
1E
  0
BLOCK_RECORD
  5
23
330
1
100
AcDbSymbolTableRecord
100
AcDbBlockTableRecord
  2
*Paper_Space0
340
26
  0
ENDTAB
  0
ENDSEC
  0
SECTION
  2
BLOCKS
  0
BLOCK
  5
20
330
1F
100
AcDbEntity
  8
0
100
AcDbBlockBegin
  2
*Model_Space
 70
     0
 10
0.0
 20
0.0
 30
0.0
  3
*Model_Space
  1

  0
ENDBLK
  5
21
330
1F
100
AcDbEntity
  8
0
100
AcDbBlockEnd
  0
BLOCK
  5
1C
330
1B
100
AcDbEntity
 67
     1
  8
0
100
AcDbBlockBegin
  2
*Paper_Space
 70
     0
 10
0.0
 20
0.0
 30
0.0
  3
*Paper_Space
  1

  0
ENDBLK
  5
1D
330
1B
100
AcDbEntity
 67
     1
  8
0
100
AcDbBlockEnd
  0
BLOCK
  5
24
330
23
100
AcDbEntity
  8
0
100
AcDbBlockBegin
  2
*Paper_Space0
 70
     0
 10
0.0
 20
0.0
 30
0.0
  3
*Paper_Space0
  1

  0
ENDBLK
  5
25
330
23
100
AcDbEntity
  8
0
100
AcDbBlockEnd
  0
ENDSEC
  0
SECTION
  2
ENTITIES
  0
LINE
  5
73
330
1F
100
AcDbEntity
  8
0
  6
Continuous
 62
     7
370
    25
100
AcDbLine
 10
31.4310527308
 20
197.2786405505
 30
0.0
 11
20.8913922596
 21
198.3535088647
 31
0.0
  0
ARC
  5
74
330
1F
100
AcDbEntity
  8
0
  6
Continuous
 62
     7
370
    25
100
AcDbCircle
 10
30.9156513706
 20
192.2248537091
 30
0.0
 40
5.080000000000013
100
AcDbArc
 50
347.5852466616
 51
84.1769250761
  0
LINE
  5
75
330
1F
100
AcDbEntity
  8
0
  6
Continuous
 62
     7
370
    25
100
AcDbLine
 10
25.9138535689
 20
145.8739141421
 30
0.0
 11
35.876865491
 21
191.1327207264
 31
0.0
  0
ARC
  5
76
330
1F
100
AcDbEntity
  8
0
  6
Continuous
 62
     7
370
    25
100
AcDbCircle
 10
20.9748747205
 20
146.9611523806
 30
0.0
 40
5.05723235106176
100
AcDbArc
 50
180.7686034907
 51
347.5852466616
  0
LINE
  5
77
330
1F
100
AcDbEntity
  8
0
  6
Continuous
 62
     7
370
    25
100
AcDbLine
 10
15.2964479736
 20
193.2315775865
 30
0.0
 11
15.918097395
 21
146.8933133549
 31
0.0
  0
ARC
  5
78
330
1F
100
AcDbEntity
  8
0
  6
Continuous
 62
     7
370
    25
100
AcDbCircle
 10
20.3759908995
 20
193.2997220233
 30
0.0
 40
5.080000000000014
100
AcDbArc
 50
84.1769250761
 51
180.7686034907
  0
ARC
  5
79
330
1F
100
AcDbEntity
  8
0
  6
Continuous
 62
     7
370
    25
100
AcDbCircle
 10
11.6731023356
 20
55.752283889
 30
0.0
 40
0.5349875000000044
100
AcDbArc
 50
178.9306818609
 51
349.4231682914
  0
SPLINE
  5
7A
330
1F
100
AcDbEntity
  8
0
  6
Continuous
 62
     7
370
    25
100
AcDbSpline
210
0.0
220
0.0
230
1.0
 70
     8
 71
     3
 72
    89
 73
    85
 74
     0
 42
0.000000001
 43
0.00000001
 40
0.0201570420762689
 40
0.0201570420762689
 40
0.0201570420762689
 40
0.0201570420762689
 40
0.0212708876900959
 40
0.0285525550130683
 40
0.0367806836725549
 40
0.0459201019032637
 40
0.0559317636633187
 40
0.0667728836144854
 40
0.0783971303496518
 40
0.0907548266908363
 40
0.1037931645775456
 40
0.1174564319143189
 40
0.1316862256525212
 40
0.1464217384971132
 40
0.1615999980008452
 40
0.1771561326265735
 40
0.193023668070302
 40
0.2091347856310368
 40
0.2254206325115232
 40
0.2418116019242494
 40
0.2582376468608688
 40
0.2746285566983486
 40
0.2909142873980135
 40
0.3070252289087972
 40
0.3228925171772384
 40
0.3384483418235802
 40
0.3536262065735817
 40
0.3683612319707122
 40
0.382590427827798
 40
0.3962529605720843
 40
0.4092904118671603
 40
0.4216470095902564
 40
0.4332698814870312
 40
0.4441092489140411
 40
0.4541186396889815
 40
0.4632550549873117
 40
0.4714791137773031
 40
0.4787552885709032
 40
0.485052318112802
 40
0.4903440256941651
 40
0.4946098326142872
 40
0.4978332314372555
 40
0.5000000000000001
 40
0.5021667685627446
 40
0.5053901673857129
 40
0.509655974305835
 40
0.5149476818871982
 40
0.5212447114290969
 40
0.528520886222697
 40
0.5367449450126884
 40
0.5458813603110186
 40
0.5558907510859591
 40
0.566730118512969
 40
0.5783529904097438
 40
0.5907095881328398
 40
0.6037470394279159
 40
0.617409572172202
 40
0.6316387680292876
 40
0.6463737934264183
 40
0.6615516581764197
 40
0.6771074828227615
 40
0.6929747710912028
 40
0.7090857126019865
 40
0.7253714433016514
 40
0.7417623531391312
 40
0.7581883980757507
 40
0.7745793674884768
 40
0.7908652143689631
 40
0.8069763319296979
 40
0.8228438673734264
 40
0.8384000019991548
 40
0.8535782615028867
 40
0.8683137743474788
 40
0.8825435680856811
 40
0.8962068354224544
 40
0.9092451733091637
 40
0.9216028696503481
 40
0.9332271163855145
 40
0.9440682363366812
 40
0.9540798980967362
 40
0.9632193163274451
 40
0.9714474449869317
 40
0.978729112309904
 40
0.9798429579237308
 40
0.9798429579237308
 40
0.9798429579237308
 40
0.9798429579237308
 10
11.13820800422754
 20
55.76226784655827
 30
0.0
 10
11.14147357961775
 20
55.93722229342061
 30
0.0
 10
11.1646818364136
 20
57.25585865397736
 30
0.0
 10
11.18928423795038
 20
59.85490382139751
 30
0.0
 10
11.18147568649367
 20
63.71732304074249
 30
0.0
 10
11.12575670622182
 20
68.00448691177411
 30
0.0
 10
11.01757817622807
 20
72.70076474249664
 30
0.0
 10
10.8541421844834
 20
77.78458318136936
 30
0.0
 10
10.63475006088417
 20
83.2341007272866
 30
0.0
 10
10.36099249342659
 20
89.02565366587059
 30
0.0
 10
10.03648499136152
 20
95.13439808230808
 30
0.0
 10
9.667031295494386
 20
101.5342886733908
 30
0.0
 10
9.260426196197217
 20
108.1982380307784
 30
0.0
 10
8.82633269541154
 20
115.0982055984442
 30
0.0
 10
8.376165165042877
 20
122.2052972504513
 30
0.0
 10
7.922839535345455
 20
129.4898372348266
 30
0.0
 10
7.480588579597713
 20
136.9214336527883
 30
0.0
 10
7.064683187203768
 20
144.4690312815624
 30
0.0
 10
6.691188031851684
 20
152.1009524796754
 30
0.0
 10
6.376622716704742
 20
159.7849329432586
 30
0.0
 10
6.137713380617557
 20
167.4881506188137
 30
0.0
 10
5.991037829785758
 20
175.1772543413614
 30
0.0
 10
5.952740812544876
 20
182.8183876131596
 30
0.0
 10
6.038191016674756
 20
190.3772186625102
 30
0.0
 10
6.261708954253766
 20
197.8189713237052
 30
0.0
 10
6.636236362295037
 20
205.1084594006569
 30
0.0
 10
7.173029136787651
 20
212.2101253493005
 30
0.0
 10
7.88142405385942
 20
219.0880757734749
 30
0.0
 10
8.768766172973875
 20
225.7060770748593
 30
0.0
 10
9.839650198358424
 20
232.0276322664564
 30
0.0
 10
11.09649077680496
 20
238.0158181191848
 30
0.0
 10
12.5383972615869
 20
243.6333418332082
 30
0.0
 10
14.16179150122182
 20
248.8421285954681
 30
0.0
 10
15.9590436668929
 20
253.6031997191241
 30
0.0
 10
17.91832632962759
 20
257.8759616764349
 30
0.0
 10
20.02170081217666
 20
261.6176256080555
 30
0.0
 10
22.24175237295932
 20
264.7829444529077
 30
0.0
 10
24.53526229246362
 20
267.3256549307233
 30
0.0
 10
26.83175557562462
 20
269.2061893631962
 30
0.0
 10
29.01895954323477
 20
270.4148428427794
 30
0.0
 10
30.94245927565291
 20
271.0170404381295
 30
0.0
 10
32.45336433256546
 20
271.1853472730547
 30
0.0
 10
33.63881484597346
 20
271.1378793203444
 30
0.0
 10
34.80944266150824
 20
270.9450668628359
 30
0.0
 10
36.25526709692645
 20
270.4752232892566
 30
0.0
 10
38.01760393876242
 20
269.4971322810341
 30
0.0
 10
39.91579277700855
 20
267.8718373650278
 30
0.0
 10
41.78539048266025
 20
265.5664316371044
 30
0.0
 10
43.51839483681655
 20
262.6130843440599
 30
0.0
 10
45.05376911865034
 20
259.0647751499799
 30
0.0
 10
46.3585233773511
 20
254.9755393392896
 30
0.0
 10
47.41494114208737
 20
250.3952265985825
 30
0.0
 10
48.21409069284868
 20
245.3693661163327
 30
0.0
 10
48.75258258072915
 20
239.9401032862001
 30
0.0
 10
49.03081255797939
 20
234.1471545493104
 30
0.0
 10
49.05296218001023
 20
228.0285331816582
 30
0.0
 10
48.82568731668582
 20
221.6209440271686
 30
0.0
 10
48.35880648112077
 20
214.9600627381152
 30
0.0
 10
47.66418731880209
 20
208.0807074183724
 30
0.0
 10
46.7563380393599
 20
201.0168829999226
 30
0.0
 10
45.6516488900128
 20
193.8018591547291
 30
0.0
 10
44.36832193145127
 20
186.4681892101345
 30
0.0
 10
42.92613539607617
 20
179.0477224750028
 30
0.0
 10
41.34613513492058
 20
171.5716283401179
 30
0.0
 10
39.65030388746639
 20
164.0704293590572
 30
0.0
 10
37.86128853490294
 20
156.5740259350048
 30
0.0
 10
36.0020580909609
 20
149.111736121647
 30
0.0
 10
34.09562003822199
 20
141.712329810574
 30
0.0
 10
32.1646669843603
 20
134.4040723188677
 30
0.0
 10
30.23132754551921
 20
127.2147462140411
 30
0.0
 10
28.31682724950337
 20
120.1716846974093
 30
0.0
 10
26.44124097658047
 20
113.3017808634208
 30
0.0
 10
24.62320930756489
 20
106.6314922300317
 30
0.0
 10
22.87974439314632
 20
100.1868138954062
 30
0.0
 10
21.22597076206884
 20
93.99325850384203
 30
0.0
 10
19.67499078349308
 20
88.0757823044553
 30
0.0
 10
18.23774640030709
 20
82.45872282202481
 30
0.0
 10
16.92279385251625
 20
77.16568265741093
 30
0.0
 10
15.7364680005573
 20
72.21951725219115
 30
0.0
 10
14.68249363335858
 20
67.64175949418598
 30
0.0
 10
13.76248538456534
 20
63.45410340945402
 30
0.0
 10
12.97514310504549
 20
59.6727762172737
 30
0.0
 10
12.47457790024169
 20
57.12227126017378
 30
0.0
 10
12.2311193716523
 20
55.8260967273956
 30
0.0
 10
12.19900021176002
 20
55.65408486144636
 30
0.0
  0
LINE
  5
7B
330
1F
100
AcDbEntity
  8
0
  6
Continuous
 62
     7
370
    25
100
AcDbLine
 10
40.8334603305
 20
229.2769821835
 30
0.0
 11
38.7954773545
 21
209.2934657574
 31
0.0
  0
ARC
  5
7C
330
1F
100
AcDbEntity
  8
0
  6
Continuous
 62
     7
370
    25
100
AcDbCircle
 10
36.2685839338
 20
209.5511664375
 30
0.0
 40
2.540000000000007
100
AcDbArc
 50
264.1769250761
 51
354.1769250761
  0
LINE
  5
7D
330
1F
100
AcDbEntity
  8
0
  6
Continuous
 62
     7
370
    25
100
AcDbLine
 10
36.0108832537
 20
207.0242730168
 30
0.0
 11
18.3731671774
 21
208.8230237638
 31
0.0
  0
ARC
  5
7E
330
1F
100
AcDbEntity
  8
0
  6
Continuous
 62
     7
370
    25
100
AcDbCircle
 10
18.6308678574
 20
211.3499171845
 30
0.0
 40
2.540000000000007
100
AcDbArc
 50
174.1769250761
 51
264.1769250761
  0
LINE
  5
7F
330
1F
100
AcDbEntity
  8
0
  6
Continuous
 62
     7
370
    25
100
AcDbLine
 10
16.1039744368
 20
211.6076178646
 30
0.0
 11
18.1419574127
 21
231.5911342907
 31
0.0
  0
ARC
  5
80
330
1F
100
AcDbEntity
  8
0
  6
Continuous
 62
     7
370
    25
100
AcDbCircle
 10
20.6688508334
 20
231.3334336106
 30
0.0
 40
2.54
100
AcDbArc
 50
84.1769250761
 51
174.1769250761
  0
LINE
  5
81
330
1F
100
AcDbEntity
  8
0
  6
Continuous
 62
     7
370
    25
100
AcDbLine
 10
20.9265515135
 20
233.8603270313
 30
0.0
 11
38.5642675899
 21
232.0615762843
 31
0.0
  0
ARC
  5
82
330
1F
100
AcDbEntity
  8
0
  6
Continuous
 62
     7
370
    25
100
AcDbCircle
 10
38.3065669098
 20
229.5346828636
 30
0.0
 40
2.540000000000007
100
AcDbArc
 50
354.1769250761
 51
84.1769250761
  0
ARC
  5
83
330
1F
100
AcDbEntity
  8
0
  6
Continuous
 62
     7
370
    25
100
AcDbCircle
 10
140.6680639628
 20
157.0894532442
 30
0.0
 40
3.19226590385023
100
AcDbArc
 50
325.8591401472
 51
131.4121631769
  0
LINE
  5
84
330
1F
100
AcDbEntity
  8
0
  6
Continuous
 62
     7
370
    25
100
AcDbLine
 10
143.3101757523
 20
155.2978598492
 30
0.0
 11
86.7745206819
 21
71.9231827584
 31
0.0
  0
ARC
  5
85
330
1F
100
AcDbEntity
  8
0
  6
Continuous
 62
     7
370
    25
100
AcDbCircle
 10
82.5700063042
 20
74.7742279785
 30
0.0
 40
5.079999999999997
100
AcDbArc
 50
228.635651662
 51
325.8591401472
  0
LINE
  5
86
330
1F
100
AcDbEntity
  8
0
  6
Continuous
 62
     7
370
    25
100
AcDbLine
 10
79.2129137598
 20
70.9615740933
 30
0.0
 11
63.0110719895
 21
85.2275116396
 31
0.0
  0
ARC
  5
87
330
1F
100
AcDbEntity
  8
0
  6
Continuous
 62
     7
370
    25
100
AcDbCircle
 10
66.3681645339
 20
89.0401655248
 30
0.0
 40
5.080000000000012
100
AcDbArc
 50
131.4121631769
 51
228.635651662
  0
LINE
  5
88
330
1F
100
AcDbEntity
  8
0
  6
Continuous
 62
     7
370
    25
100
AcDbLine
 10
63.0078913987
 20
92.8500165005
 30
0.0
 11
138.5564723571
 21
159.4835590254
 31
0.0
  0
CIRCLE
  5
89
330
1F
100
AcDbEntity
  8
0
  6
Continuous
 62
     7
370
    25
100
AcDbCircle
 10
58.5228958332
 20
63.7970907969
 30
0.0
 40
2.247899999999982
  0
CIRCLE
  5
8A
330
1F
100
AcDbEntity
  8
0
  6
Continuous
 62
     7
370
    25
100
AcDbCircle
 10
16.5592390283
 20
16.1389172318
 30
0.0
 40
2.247899999999989
  0
LINE
  5
8B
330
1F
100
AcDbEntity
  8
0
  6
Continuous
 62
     7
370
    25
100
AcDbLine
 10
52.4330137159
 20
43.4667663234
 30
0.0
 11
39.1268516565
 21
55.1830193034
 31
0.0
  0
ARC
  5
8C
330
1F
100
AcDbEntity
  8
0
  6
Continuous
 62
     7
370
    25
100
AcDbCircle
 10
50.7544674437
 20
41.5604393808
 30
0.0
 40
2.540000000000008
100
AcDbArc
 50
318.635651662
 51
48.635651662
  0
LINE
  5
8D
330
1F
100
AcDbEntity
  8
0
  6
Continuous
 62
     7
370
    25
100
AcDbLine
 10
39.3862903142
 20
24.8060234818
 30
0.0
 11
52.6607943863
 21
39.8818931086
 31
0.0
  0
ARC
  5
8E
330
1F
100
AcDbEntity
  8
0
  6
Continuous
 62
     7
370
    25
100
AcDbCircle
 10
37.4799633716
 20
26.484569754
 30
0.0
 40
2.54
100
AcDbArc
 50
228.635651662
 51
318.635651662
  0
LINE
  5
8F
330
1F
100
AcDbEntity
  8
0
  6
Continuous
 62
     7
370
    25
100
AcDbLine
 10
22.4952550401
 20
36.2944957913
 30
0.0
 11
35.8014170994
 21
24.5782428114
 31
0.0
  0
ARC
  5
90
330
1F
100
AcDbEntity
  8
0
  6
Continuous
 62
     7
370
    25
100
AcDbCircle
 10
24.1738013123
 20
38.2008227339
 30
0.0
 40
2.540000000000001
100
AcDbArc
 50
138.635651662
 51
228.635651662
  0
LINE
  5
91
330
1F
100
AcDbEntity
  8
0
  6
Continuous
 62
     7
370
    25
100
AcDbLine
 10
35.5419784417
 20
54.955238633
 30
0.0
 11
22.2674743697
 21
39.8793690061
 31
0.0
  0
ARC
  5
92
330
1F
100
AcDbEntity
  8
0
  6
Continuous
 62
     7
370
    25
100
AcDbCircle
 10
37.4483053843
 20
53.2766923608
 30
0.0
 40
2.540000000000004
100
AcDbArc
 50
48.635651662
 51
138.635651662
  0
SPLINE
  5
93
330
1F
100
AcDbEntity
  8
0
  6
Continuous
 62
     7
370
    25
100
AcDbSpline
210
0.0
220
0.0
230
1.0
 70
     8
 71
     3
 72
    26
 73
    22
 74
     0
 42
0.000000001
 43
0.00000001
 40
0.0
 40
0.0
 40
0.0
 40
0.0
 40
0.2500000000000001
 40
0.2500000000000001
 40
0.3750000000000001
 40
0.3750000000000001
 40
0.4375000000000001
 40
0.4375000000000001
 40
0.4687500000000001
 40
0.4687500000000001
 40
0.5000000000000001
 40
0.5000000000000001
 40
0.5312500000000001
 40
0.5312500000000001
 40
0.5625000000000001
 40
0.5625000000000001
 40
0.6250000000000001
 40
0.6250000000000001
 40
0.7500000000000002
 40
0.7500000000000002
 40
1.0
 40
1.0
 40
1.0
 40
1.0
 10
198.7022313706362
 20
224.0762080861673
 30
0.0
 10
162.5137884205247
 20
189.2733097698765
 30
0.0
 10
121.4195568950956
 20
159.9771227841412
 30
0.0
 10
65.06610370289874
 20
110.1950832425031
 30
0.0
 10
46.8046275699753
 20
92.82693422559666
 30
0.0
 10
23.18025940371704
 20
63.54994270443264
 30
0.0
 10
15.86284284613413
 20
53.24507320477167
 30
0.0
 10
7.615477335801534
 20
36.28653156825538
 30
0.0
 10
5.29572797894007
 20
30.40310263924252
 30
0.0
 10
3.174376386442766
 20
17.91791208962617
 30
0.0
 10
3.433925053547044
 20
10.57510351677083
 30
0.0
 10
13.29638053503269
 20
2.297925347826169
 30
0.0
 10
20.61480485559457
 20
3.177305655253156
 30
0.0
 10
32.70488603207016
 20
7.045188725779433
 30
0.0
 10
38.29997176351429
 20
10.17471764243714
 30
0.0
 10
54.05733104261563
 20
20.64870406860983
 30
0.0
 10
63.24072557148108
 20
29.16958575081168
 30
0.0
 10
89.30077638818898
 20
56.46672785904155
 30
0.0
 10
104.1306031856934
 20
76.73340855957615
 30
0.0
 10
146.1858756881795
 20
138.7458189945545
 30
0.0
 10
169.9598340142794
 20
183.0102028378755
 30
0.0
 10
199.770851609099
 20
223.1352737282786
 30
0.0
  0
ARC
  5
94
330
1F
100
AcDbEntity
  8
0
  6
Continuous
 62
     7
370
    25
100
AcDbCircle
 10
199.1974176211
 20
223.5613078842
 30
0.0
 40
0.7143750000000166
100
AcDbArc
 50
323.3894084468
 51
133.8818948772
  0
LINE
  5
95
330
1F
100
AcDbEntity
  8
0
  6
Continuous
 62
     7
370
    25
100
AcDbLine
 10
68.0713516426
 20
162.3167246375
 30
0.0
 11
63.0728384493
 21
153.2444169789
 31
0.0
  0
ARC
  5
96
330
1F
100
AcDbEntity
  8
0
  6
Continuous
 62
     7
370
    25
100
AcDbCircle
 10
58.6234736672
 20
155.6958559514
 30
0.0
 40
5.080000000000002
100
AcDbArc
 50
248.1861000236
 51
331.1468263947
  0
LINE
  5
97
330
1F
100
AcDbEntity
  8
0
  6
Continuous
 62
     7
370
    25
100
AcDbLine
 10
56.7357808431
 20
150.979605767
 30
0.0
 11
53.5949010106
 21
152.2367520356
 31
0.0
  0
ARC
  5
98
330
1F
100
AcDbEntity
  8
0
  6
Continuous
 62
     7
370
    25
100
AcDbCircle
 10
55.4825938347
 20
156.95300222
 30
0.0
 40
5.080000000000015
100
AcDbArc
 50
165.2253736526
 51
248.1861000236
  0
LINE
  5
99
330
1F
100
AcDbEntity
  8
0
  6
Continuous
 62
     7
370
    25
100
AcDbLine
 10
50.5705568266
 20
158.2484914833
 30
0.0
 11
53.2120748276
 21
168.2641933083
 31
0.0
  0
ARC
  5
9A
330
1F
100
AcDbEntity
  8
0
  6
Continuous
 62
     7
370
    25
100
AcDbCircle
 10
58.1241118356
 20
166.968704045
 30
0.0
 40
5.079999999999986
100
AcDbArc
 50
68.1861000236
 51
165.2253736526
  0
LINE
  5
9B
330
1F
100
AcDbEntity
  8
0
  6
Continuous
 62
     7
370
    25
100
AcDbLine
 10
60.0118046597
 20
171.6849542294
 30
0.0
 11
65.5096796846
 21
169.4844137944
 31
0.0
  0
ARC
  5
9C
330
1F
100
AcDbEntity
  8
0
  6
Continuous
 62
     7
370
    25
100
AcDbCircle
 10
63.6219868605
 20
164.76816361
 30
0.0
 40
5.08000000000002
100
AcDbArc
 50
331.1468263947
 51
68.1861000236
  0
ARC
  5
9D
330
1F
100
AcDbEntity
  8
0
  6
Continuous
 62
     7
370
    25
100
AcDbCircle
 10
28.0102294051
 20
83.7632954082
 30
0.0
 40
0.3968750000000025
100
AcDbArc
 50
162.9398568084
 51
333.4323432388
  0
SPLINE
  5
9E
330
1F
100
AcDbEntity
  8
0
  6
Continuous
 62
     7
370
    25
100
AcDbSpline
210
0.0
220
0.0
230
1.0
 70
     8
 71
     3
 72
    89
 73
    85
 74
     0
 42
0.000000001
 43
0.00000001
 40
0.020157042076269
 40
0.020157042076269
 40
0.020157042076269
 40
0.020157042076269
 40
0.0212708876900959
 40
0.0285525550130683
 40
0.0367806836725549
 40
0.0459201019032637
 40
0.0559317636633187
 40
0.0667728836144854
 40
0.0783971303496518
 40
0.0907548266908363
 40
0.1037931645775456
 40
0.1174564319143189
 40
0.1316862256525212
 40
0.1464217384971132
 40
0.1615999980008452
 40
0.1771561326265735
 40
0.193023668070302
 40
0.2091347856310368
 40
0.2254206325115232
 40
0.2418116019242494
 40
0.2582376468608688
 40
0.2746285566983486
 40
0.2909142873980135
 40
0.3070252289087972
 40
0.3228925171772384
 40
0.3384483418235802
 40
0.3536262065735817
 40
0.3683612319707122
 40
0.382590427827798
 40
0.3962529605720843
 40
0.4092904118671603
 40
0.4216470095902564
 40
0.4332698814870312
 40
0.4441092489140411
 40
0.4541186396889815
 40
0.4632550549873117
 40
0.4714791137773031
 40
0.4787552885709032
 40
0.485052318112802
 40
0.4903440256941651
 40
0.4946098326142872
 40
0.4978332314372555
 40
0.5000000000000001
 40
0.5021667685627446
 40
0.5053901673857129
 40
0.509655974305835
 40
0.5149476818871982
 40
0.5212447114290969
 40
0.528520886222697
 40
0.5367449450126884
 40
0.5458813603110186
 40
0.5558907510859591
 40
0.566730118512969
 40
0.5783529904097438
 40
0.5907095881328398
 40
0.6037470394279159
 40
0.617409572172202
 40
0.6316387680292876
 40
0.6463737934264183
 40
0.6615516581764197
 40
0.6771074828227615
 40
0.6929747710912028
 40
0.7090857126019865
 40
0.7253714433016514
 40
0.7417623531391312
 40
0.7581883980757507
 40
0.7745793674884768
 40
0.7908652143689631
 40
0.8069763319296979
 40
0.8228438673734264
 40
0.8384000019991548
 40
0.8535782615028867
 40
0.8683137743474788
 40
0.8825435680856811
 40
0.8962068354224544
 40
0.9092451733091637
 40
0.9216028696503481
 40
0.9332271163855145
 40
0.9440682363366812
 40
0.9540798980967362
 40
0.9632193163274451
 40
0.9714474449869317
 40
0.978729112309904
 40
0.9798429579237308
 40
0.9798429579237308
 40
0.9798429579237308
 40
0.9798429579237308
 10
27.63081796575479
 20
83.87972875949625
 30
0.0
 10
27.6689012494663
 20
84.00382751061964
 30
0.0
 10
27.95493440232495
 20
84.93945015218962
 30
0.0
 10
28.50363194672767
 20
86.78789206464108
 30
0.0
 10
29.28740498811472
 20
89.5439137338193
 30
0.0
 10
30.1238141839368
 20
92.61262682402537
 30
0.0
 10
31.00642103794674
 20
95.98381422262968
 30
0.0
 10
31.92882143305145
 20
99.64266301415749
 30
0.0
 10
32.8860534945357
 20
103.5737400456796
 30
0.0
 10
33.87441557299724
 20
107.7598448167649
 30
0.0
 10
34.8914087985634
 20
112.1825213831848
 30
0.0
 10
35.93584928440826
 20
116.8220098517662
 30
0.0
 10
37.00776006125215
 20
121.6574002678525
 30
0.0
 10
38.10830165704996
 20
126.666721157694
 30
0.0
 10
39.23970912333461
 20
131.8270344191164
 30
0.0
 10
40.40512858861773
 20
137.1145376798475
 30
0.0
 10
41.60849891308194
 20
142.5046487423032
 30
0.0
 10
42.85436371381788
 20
147.9721002152798
 30
0.0
 10
44.14770548285708
 20
153.4910186177141
 30
0.0
 10
45.49371124530875
 20
159.0350191276638
 30
0.0
 10
46.89760132983226
 20
164.5772769638945
 30
0.0
 10
48.36438215226043
 20
170.0906203312561
 30
0.0
 10
49.89864802765344
 20
175.5476055658552
 30
0.0
 10
51.50434270606664
 20
180.920608668633
 30
0.0
 10
53.18457162851426
 20
186.1819029376233
 30
0.0
 10
54.94137318773895
 20
191.3037510366477
 30
0.0
 10
56.77550765407713
 20
196.2584953344857
 30
0.0
 10
58.6862980702828
 20
201.018630892151
 30
0.0
 10
60.67157759121599
 20
205.5568171969233
 30
0.0
 10
62.72716417016719
 20
209.8460879795581
 30
0.0
 10
64.8472339766481
 20
213.8596185291839
 30
0.0
 10
67.02353053290034
 20
217.5709960659766
 30
0.0
 10
69.24572099199042
 20
220.9537993599229
 30
0.0
 10
71.5003983947784
 20
223.9817906163285
 30
0.0
 10
73.77083231078335
 20
226.6284382818172
 30
0.0
 10
76.03548551722955
 20
228.8668941580123
 30
0.0
 10
78.2655607100055
 20
230.6704935888184
 30
0.0
 10
80.42078253786262
 20
232.0150769897321
 30
0.0
 10
82.44280659240265
 20
232.8868298602446
 30
0.0
 10
84.24958397054733
 20
233.3017758485714
 30
0.0
 10
85.74436657180503
 20
233.3381287900039
 30
0.0
 10
86.85624162448616
 20
233.149378822758
 30
0.0
 10
87.69192697053174
 20
232.8732637011127
 30
0.0
 10
88.48733846836214
 20
232.4965275771267
 30
0.0
 10
89.42238693426363
 20
231.865990465352
 30
0.0
 10
90.47928367636896
 20
230.8083204610971
 30
0.0
 10
91.50079567628413
 20
229.2613434407658
 30
0.0
 10
92.36292779757115
 20
227.2351986903024
 30
0.0
 10
92.99523414435517
 20
224.7748990473521
 30
0.0
 10
93.36501446744006
 20
221.9306999008615
 30
0.0
 10
93.45978537906637
 20
218.7478776737415
 30
0.0
 10
93.27710015498656
 20
215.2656025351166
 30
0.0
 10
92.81989382651868
 20
211.5181682644828
 30
0.0
 10
92.09436228410898
 20
207.5363228954393
 30
0.0
 10
91.10890438537949
 20
203.3483087298476
 30
0.0
 10
89.87427070965877
 20
198.9803797991177
 30
0.0
 10
88.40270895908353
 20
194.4573513839324
 30
0.0
 10
86.70851189671919
 20
189.8026584803204
 30
0.0
 10
84.80725834090725
 20
185.0387057666042
 30
0.0
 10
82.7162440048771
 20
180.186778382143
 30
0.0
 10
80.45395648742564
 20
175.2672525049513
 30
0.0
 10
78.0400290592872
 20
170.299623192249
 30
0.0
 10
75.49507513779993
 20
165.3025613274877
 30
0.0
 10
72.84047317220993
 20
160.2939938644985
 30
0.0
 10
70.09813754899854
 20
155.2911950081444
 30
0.0
 10
67.29032913177659
 20
150.3108595591147
 30
0.0
 10
64.4394194965101
 20
145.369201191884
 30
0.0
 10
61.5676956277408
 20
140.4820348057447
 30
0.0
 10
58.69711684458433
 20
135.6648798195771
 30
0.0
 10
55.84914160722037
 20
130.9330266465836
 30
0.0
 10
53.044492517508
 20
126.3016298005037
 30
0.0
 10
50.30298166816497
 20
121.7857650910918
 30
0.0
 10
47.64330928653929
 20
117.4004908232836
 30
0.0
 10
45.08291980743693
 20
113.1608683277312
 30
0.0
 10
42.63781294013779
 20
109.0820006434272
 30
0.0
 10
40.32243261392935
 20
105.1790072822987
 30
0.0
 10
38.14955563743693
 20
101.4670080369224
 30
0.0
 10
36.13010729893896
 20
97.96108615310474
 30
0.0
 10
34.27327605057942
 20
94.67624602255519
 30
0.0
 10
32.58611872835029
 20
91.62708228387152
 30
0.0
 10
31.07422027384723
 20
88.82873572989928
 30
0.0
 10
29.73996977384647
 20
86.29304426116082
 30
0.0
 10
28.86176644999897
 20
84.57648799324409
 30
0.0
 10
28.42325554681593
 20
83.70189501377189
 30
0.0
 10
28.36519712474095
 20
83.58579136975158
 30
0.0
  0
LINE
  5
9F
330
1F
100
AcDbEntity
  8
0
  6
Continuous
 62
     7
370
    25
100
AcDbLine
 10
85.532208296
 20
196.7862792472
 30
0.0
 11
78.0679558964
 21
178.1374390828
 31
0.0
  0
ARC
  5
A0
330
1F
100
AcDbEntity
  8
0
  6
Continuous
 62
     7
370
    25
100
AcDbCircle
 10
75.7098308042
 20
179.0812854949
 30
0.0
 40
2.54000000000001
100
AcDbArc
 50
248.1861000236
 51
338.1861000236
  0
LINE
  5
A1
330
1F
100
AcDbEntity
  8
0
  6
Continuous
 62
     7
370
    25
100
AcDbLine
 10
74.7659843921
 20
176.7231604027
 30
0.0
 11
58.3062712486
 21
183.3112083588
 31
0.0
  0
ARC
  5
A2
330
1F
100
AcDbEntity
  8
0
  6
Continuous
 62
     7
370
    25
100
AcDbCircle
 10
59.2501176606
 20
185.669333451
 30
0.0
 40
2.54000000000001
100
AcDbArc
 50
158.1861000236
 51
248.1861000236
  0
LINE
  5
A3
330
1F
100
AcDbEntity
  8
0
  6
Continuous
 62
     7
370
    25
100
AcDbLine
 10
56.8919925684
 20
186.613179863
 30
0.0
 11
64.3562449681
 21
205.2620200274
 31
0.0
  0
ARC
  5
A4
330
1F
100
AcDbEntity
  8
0
  6
Continuous
 62
     7
370
    25
100
AcDbCircle
 10
66.7143700603
 20
204.3181736154
 30
0.0
 40
2.540000000000016
100
AcDbArc
 50
68.1861000236
 51
158.1861000236
  0
LINE
  5
A5
330
1F
100
AcDbEntity
  8
0
  6
Continuous
 62
     7
370
    25
100
AcDbLine
 10
67.6582164723
 20
206.6762987076
 30
0.0
 11
84.1179296159
 21
200.0882507515
 31
0.0
  0
ARC
  5
A6
330
1F
100
AcDbEntity
  8
0
  6
Continuous
 62
     7
370
    25
100
AcDbCircle
 10
83.1740832038
 20
197.7301256593
 30
0.0
 40
2.540000000000005
100
AcDbArc
 50
338.1861000236
 51
68.1861000236
  0
LINE
  5
A7
330
1F
100
AcDbEntity
  8
0
  6
Continuous
 62
     7
370
    25
100
AcDbLine
 10
110.16324854
 20
167.6063992954
 30
0.0
 11
102.704879516
 21
160.4185879526
 31
0.0
  0
ARC
  5
A8
330
1F
100
AcDbEntity
  8
0
  6
Continuous
 62
     7
370
    25
100
AcDbCircle
 10
99.1797351038
 20
164.0764229507
 30
0.0
 40
5.080000000000016
100
AcDbArc
 50
230.9809737925
 51
313.9417001635
  0
LINE
  5
A9
330
1F
100
AcDbEntity
  8
0
  6
Continuous
 62
     7
370
    25
100
AcDbLine
 10
95.9814767141
 20
160.1295832944
 30
0.0
 11
93.3530009984
 21
162.2595265508
 31
0.0
  0
ARC
  5
AA
330
1F
100
AcDbEntity
  8
0
  6
Continuous
 62
     7
370
    25
100
AcDbCircle
 10
96.5512593882
 20
166.2063662071
 30
0.0
 40
5.080000000000021
100
AcDbArc
 50
148.0202474214
 51
230.9809737925
  0
LINE
  5
AB
330
1F
100
AcDbEntity
  8
0
  6
Continuous
 62
     7
370
    25
100
AcDbLine
 10
92.2422240221
 20
168.8968334925
 30
0.0
 11
97.7281187856
 21
177.6830078045
 31
0.0
  0
ARC
  5
AC
330
1F
100
AcDbEntity
  8
0
  6
Continuous
 62
     7
370
    25
100
AcDbCircle
 10
102.0371541517
 20
174.992540519
 30
0.0
 40
5.080000000000004
100
AcDbArc
 50
50.9809737925
 51
148.0202474214
  0
LINE
  5
AD
330
1F
100
AcDbEntity
  8
0
  6
Continuous
 62
     7
370
    25
100
AcDbLine
 10
105.2354125415
 20
178.9393801753
 30
0.0
 11
109.8363625176
 21
175.2110739497
 31
0.0
  0
ARC
  5
AE
330
1F
100
AcDbEntity
  8
0
  6
Continuous
 62
     7
370
    25
100
AcDbCircle
 10
106.6381041278
 20
171.2642342934
 30
0.0
 40
5.080000000000017
100
AcDbArc
 50
313.9417001635
 51
50.9809737925
  0
ARC
  5
AF
330
1F
100
AcDbEntity
  8
0
  6
Continuous
 62
     7
370
    25
100
AcDbCircle
 10
48.6591902265
 20
104.4179069127
 30
0.0
 40
0.3968750000000118
100
AcDbArc
 50
145.7347305773
 51
316.2272170077
  0
SPLINE
  5
B0
330
1F
100
AcDbEntity
  8
0
  6
Continuous
 62
     7
370
    25
100
AcDbSpline
210
0.0
220
0.0
230
1.0
 70
     8
 71
     3
 72
    89
 73
    85
 74
     0
 42
0.000000001
 43
0.00000001
 40
0.0201570420762691
 40
0.0201570420762691
 40
0.0201570420762691
 40
0.0201570420762691
 40
0.0212708876900959
 40
0.0285525550130683
 40
0.0367806836725549
 40
0.0459201019032637
 40
0.0559317636633187
 40
0.0667728836144854
 40
0.0783971303496518
 40
0.0907548266908363
 40
0.1037931645775456
 40
0.1174564319143189
 40
0.1316862256525212
 40
0.1464217384971132
 40
0.1615999980008452
 40
0.1771561326265735
 40
0.193023668070302
 40
0.2091347856310368
 40
0.2254206325115232
 40
0.2418116019242494
 40
0.2582376468608688
 40
0.2746285566983486
 40
0.2909142873980135
 40
0.3070252289087972
 40
0.3228925171772384
 40
0.3384483418235802
 40
0.3536262065735817
 40
0.3683612319707122
 40
0.382590427827798
 40
0.3962529605720843
 40
0.4092904118671603
 40
0.4216470095902564
 40
0.4332698814870312
 40
0.4441092489140411
 40
0.4541186396889815
 40
0.4632550549873117
 40
0.4714791137773031
 40
0.4787552885709032
 40
0.485052318112802
 40
0.4903440256941651
 40
0.4946098326142872
 40
0.4978332314372555
 40
0.5000000000000001
 40
0.5021667685627446
 40
0.5053901673857129
 40
0.509655974305835
 40
0.5149476818871982
 40
0.5212447114290969
 40
0.528520886222697
 40
0.5367449450126884
 40
0.5458813603110186
 40
0.5558907510859591
 40
0.566730118512969
 40
0.5783529904097438
 40
0.5907095881328398
 40
0.6037470394279159
 40
0.617409572172202
 40
0.6316387680292876
 40
0.6463737934264183
 40
0.6615516581764197
 40
0.6771074828227615
 40
0.6929747710912028
 40
0.7090857126019865
 40
0.7253714433016514
 40
0.7417623531391312
 40
0.7581883980757507
 40
0.7745793674884768
 40
0.7908652143689631
 40
0.8069763319296979
 40
0.8228438673734264
 40
0.8384000019991548
 40
0.8535782615028867
 40
0.8683137743474788
 40
0.8825435680856811
 40
0.8962068354224544
 40
0.9092451733091637
 40
0.9216028696503481
 40
0.9332271163855145
 40
0.9440682363366812
 40
0.9540798980967362
 40
0.9632193163274451
 40
0.9714474449869317
 40
0.978729112309904
 40
0.9798429579237308
 40
0.9798429579237308
 40
0.9798429579237308
 40
0.9798429579237308
 10
48.33119695815614
 20
104.6413575371258
 30
0.0
 10
48.40428369341409
 20
104.7486383166624
 30
0.0
 10
48.95426851851339
 20
105.5577868716961
 30
0.0
 10
50.02517002581158
 20
107.1612133466575
 30
0.0
 10
51.58908405700205
 20
109.5620733018466
 30
0.0
 10
53.29577097003772
 20
112.246062898274
 30
0.0
 10
55.13605822345543
 20
115.2053266851241
 30
0.0
 10
57.09944670785618
 20
118.4276088930439
 30
0.0
 10
59.17663155639659
 20
121.899634663727
 30
0.0
 10
61.35898896492597
 20
125.6060681103278
 30
0.0
 10
63.63867273458951
 20
129.5300183065382
 30
0.0
 10
66.0087071069437
 20
133.6529597628812
 30
0.0
 10
68.46292905309463
 20
137.9549113930747
 30
0.0
 10
70.99594815007838
 20
142.4145416283968
 30
0.0
 10
73.60311449320052
 20
147.0092776893766
 30
0.0
 10
76.28039284029066
 20
151.7154517102246
 30
0.0
 10
79.02427454034267
 20
156.5084164106504
 30
0.0
 10
81.83162596170598
 20
161.3626910946826
 30
0.0
 10
84.69955343140049
 20
166.2520862814968
 30
0.0
 10
87.6252074057402
 20
171.1498635313629
 30
0.0
 10
90.60564001721238
 20
176.0288542816265
 30
0.0
 10
93.63759641320327
 20
180.8616217579574
 30
0.0
 10
96.71734766404077
 20
185.620591379629
 30
0.0
 10
99.840490044622
 20
190.2782087333156
 30
0.0
 10
103.0017886546843
 20
194.8070692649236
 30
0.0
 10
106.1949861485437
 20
199.1800738879699
 30
0.0
 10
109.4126278278674
 20
203.3705777146054
 30
0.0
 10
112.6459312453146
 20
207.35250683913
 30
0.0
 10
115.8847393715244
 20
211.1003851235273
 30
0.0
 10
119.1170808507991
 20
214.589690010133
 30
0.0
 10
122.3294578824133
 20
217.7965197941859
 30
0.0
 10
125.506170721245
 20
220.6980858301338
 30
0.0
 10
128.6295336670585
 20
223.2722055769063
 30
0.0
 10
131.6789787270657
 20
225.4977810228324
 30
0.0
 10
134.6306762642472
 20
227.3544166039789
 30
0.0
 10
137.4561112825657
 20
228.8228360986733
 30
0.0
 10
140.1198878701005
 20
229.8860860993505
 30
0.0
 10
142.576386672516
 20
230.5330013047801
 30
0.0
 10
144.7657878430582
 20
230.7676432848556
 30
0.0
 10
146.6144537023174
 20
230.62958819363
 30
0.0
 10
148.0531005887788
 20
230.2221674069137
 30
0.0
 10
149.0593903302965
 20
229.7129782092413
 30
0.0
 10
149.7760072830949
 20
229.2020284064639
 30
0.0
 10
150.4243895256176
 20
228.6068729430948
 30
0.0
 10
151.1310875605399
 20
227.7279698936366
 30
0.0
 10
151.8278382523924
 20
226.4050054062914
 30
0.0
 10
152.3460537586891
 20
224.625096038813
 30
0.0
 10
152.5702866246333
 20
222.4346043209067
 30
0.0
 10
152.4465577798119
 20
219.8973662906377
 30
0.0
 10
151.9584954672604
 20
217.0710610255777
 30
0.0
 10
151.1075673794668
 20
214.0026314199744
 30
0.0
 10
149.9030225605376
 20
210.7302185775333
 30
0.0
 10
148.3578085823769
 20
207.2857135330881
 30
0.0
 10
146.4869391501211
 20
203.6966556999716
 30
0.0
 10
144.306791178286
 20
199.9875392631003
 30
0.0
 10
141.8353999505092
 20
196.1802634842266
 30
0.0
 10
139.0918053066992
 20
192.2949104165136
 30
0.0
 10
136.0965923558527
 20
188.3496386778191
 30
0.0
 10
132.871269952416
 20
184.3612422662395
 30
0.0
 10
129.4386558655738
 20
180.3449378917702
 30
0.0
 10
125.8224375505925
 20
176.3147214253297
 30
0.0
 10
122.0471362382158
 20
172.2834081631898
 30
0.0
 10
118.137965660837
 20
168.2627361870518
 30
0.0
 10
114.1206502994748
 20
164.2635066469539
 30
0.0
 10
110.0212335112979
 20
160.2957386264812
 30
0.0
 10
105.8659182424133
 20
156.3687952465916
 30
0.0
 10
101.6808708831005
 20
152.4915472835146
 30
0.0
 10
97.4920590624062
 20
148.6725096043235
 30
0.0
 10
93.3250500051657
 20
144.9200117391751
 30
0.0
 10
89.2048647513683
 20
141.2423126109433
 30
0.0
 10
85.1557812127633
 20
137.6477589864022
 30
0.0
 10
81.20118425538284
 20
134.1448917728964
 30
0.0
 10
77.36339145593871
 20
130.7425640388269
 30
0.0
 10
73.66352168791633
 20
127.4500031982096
 30
0.0
 10
70.12132608505219
 20
124.2769038474765
 30
0.0
 10
66.75507449187391
 20
121.2334365084977
 30
0.0
 10
63.58144431574113
 20
118.3302650947186
 30
0.0
 10
60.61533348538389
 20
115.5785662759284
 30
0.0
 10
57.86995748898163
 20
112.9899551412595
 30
0.0
 10
55.35637438201738
 20
110.5762858806444
 30
0.0
 10
53.08439773893936
 20
108.3503697757192
 30
0.0
 10
51.05981131366551
 20
106.3228083270864
 30
0.0
 10
49.71315970269657
 20
104.9428315382904
 30
0.0
 10
49.0355723950846
 20
104.2370836140882
 30
0.0
 10
48.94576927177467
 20
104.1433486922479
 30
0.0
  0
LINE
  5
B1
330
1F
100
AcDbEntity
  8
0
  6
Continuous
 62
     7
370
    25
100
AcDbLine
 10
137.0386358544
 20
195.3686986736
 30
0.0
 11
124.3921885322
 21
179.7622361182
 31
0.0
  0
ARC
  5
B2
330
1F
100
AcDbEntity
  8
0
  6
Continuous
 62
     7
370
    25
100
AcDbCircle
 10
122.4187687041
 20
181.3613653131
 30
0.0
 40
2.540000000000013
100
AcDbArc
 50
230.9809737925
 51
320.9809737925
  0
LINE
  5
B3
330
1F
100
AcDbEntity
  8
0
  6
Continuous
 62
     7
370
    25
100
AcDbLine
 10
120.8196395092
 20
179.387945485
 30
0.0
 11
107.0451691088
 21
190.5498672652
 31
0.0
  0
ARC
  5
B4
330
1F
100
AcDbEntity
  8
0
  6
Continuous
 62
     7
370
    25
100
AcDbCircle
 10
108.6442983037
 20
192.5232870933
 30
0.0
 40
2.54000000000002
100
AcDbArc
 50
140.9809737925
 51
230.9809737925
  0
LINE
  5
B5
330
1F
100
AcDbEntity
  8
0
  6
Continuous
 62
     7
370
    25
100
AcDbLine
 10
106.6708784756
 20
194.1224162882
 30
0.0
 11
119.3173257977
 21
209.7288788436
 31
0.0
  0
ARC
  5
B6
330
1F
100
AcDbEntity
  8
0
  6
Continuous
 62
     7
370
    25
100
AcDbCircle
 10
121.2907456258
 20
208.1297496487
 30
0.0
 40
2.539999999999991
100
AcDbArc
 50
50.9809737925
 51
140.9809737925
  0
LINE
  5
B7
330
1F
100
AcDbEntity
  8
0
  6
Continuous
 62
     7
370
    25
100
AcDbLine
 10
122.8898748207
 20
210.1031694768
 30
0.0
 11
136.6643452211
 21
198.9412476966
 31
0.0
  0
ARC
  5
B8
330
1F
100
AcDbEntity
  8
0
  6
Continuous
 62
     7
370
    25
100
AcDbCircle
 10
135.0652160262
 20
196.9678278685
 30
0.0
 40
2.539999999999995
100
AcDbArc
 50
320.9809737925
 51
50.9809737925
  0
LINE
  5
B9
330
1F
100
AcDbEntity
  8
0
  6
Continuous
 62
     7
370
    25
100
AcDbLine
 10
183.3033046658
 20
140.261289985
 30
0.0
 11
178.3259508687
 21
145.2322911392
 31
0.0
  0
ARC
  5
BA
330
1F
100
AcDbEntity
  8
0
  6
Continuous
 62
     7
370
    25
100
AcDbCircle
 10
179.7134967299
 20
136.6668944887
 30
0.0
 40
5.080000000000028
100
AcDbArc
 50
308.5558823081
 51
45.0365869112
  0
LINE
  5
BB
330
1F
100
AcDbEntity
  8
0
  6
Continuous
 62
     7
370
    25
100
AcDbLine
 10
167.9048992516
 20
120.7589343736
 30
0.0
 11
182.8797471505
 21
132.6943313018
 31
0.0
  0
ARC
  5
BC
330
1F
100
AcDbEntity
  8
0
  6
Continuous
 62
     7
370
    25
100
AcDbCircle
 10
164.738648831
 20
124.7314975605
 30
0.0
 40
5.080000000000007
100
AcDbArc
 50
225.0365869112
 51
308.5558823081
  0
LINE
  5
BD
330
1F
100
AcDbEntity
  8
0
  6
Continuous
 62
     7
370
    25
100
AcDbLine
 10
159.2300725366
 20
123.0534214808
 30
0.0
 11
161.1488408952
 21
121.1371020642
 31
0.0
  0
ARC
  5
BE
330
1F
100
AcDbEntity
  8
0
  6
Continuous
 62
     7
370
    25
100
AcDbCircle
 10
162.8198804725
 20
126.6478169771
 30
0.0
 40
5.08
100
AcDbArc
 50
141.5172915143
 51
225.0365869112
  0
LINE
  5
BF
330
1F
100
AcDbEntity
  8
0
  6
Continuous
 62
     7
370
    25
100
AcDbLine
 10
170.7595392919
 20
144.7990700264
 30
0.0
 11
158.8432768316
 21
129.8089913606
 31
0.0
  0
ARC
  5
C0
330
1F
100
AcDbEntity
  8
0
  6
Continuous
 62
     7
370
    25
100
AcDbCircle
 10
174.7361429328
 20
141.6378956429
 30
0.0
 40
5.080000000000009
100
AcDbArc
 50
45.0365869112
 51
141.5172915143
  0
ARC
  5
C1
330
1F
100
AcDbEntity
  8
0
  6
Continuous
 62
     7
370
    25
100
AcDbCircle
 10
104.0356743027
 20
65.8697181752
 30
0.0
 40
0.428625000000012
100
AcDbArc
 50
139.790343696
 51
310.2828301264
  0
SPLINE
  5
C2
330
1F
100
AcDbEntity
  8
0
  6
Continuous
 62
     7
370
    25
100
AcDbSpline
210
0.0
220
0.0
230
1.0
 70
     8
 71
     3
 72
    89
 73
    85
 74
     0
 42
0.000000001
 43
0.00000001
 40
0.020157042076269
 40
0.020157042076269
 40
0.020157042076269
 40
0.020157042076269
 40
0.0212708876900959
 40
0.0285525550130683
 40
0.0367806836725549
 40
0.0459201019032637
 40
0.0559317636633187
 40
0.0667728836144854
 40
0.0783971303496518
 40
0.0907548266908363
 40
0.1037931645775456
 40
0.1174564319143189
 40
0.1316862256525212
 40
0.1464217384971132
 40
0.1615999980008452
 40
0.1771561326265735
 40
0.193023668070302
 40
0.2091347856310368
 40
0.2254206325115232
 40
0.2418116019242494
 40
0.2582376468608688
 40
0.2746285566983486
 40
0.2909142873980135
 40
0.3070252289087972
 40
0.3228925171772384
 40
0.3384483418235802
 40
0.3536262065735817
 40
0.3683612319707122
 40
0.382590427827798
 40
0.3962529605720843
 40
0.4092904118671603
 40
0.4216470095902564
 40
0.4332698814870312
 40
0.4441092489140411
 40
0.4541186396889815
 40
0.4632550549873117
 40
0.4714791137773031
 40
0.4787552885709032
 40
0.485052318112802
 40
0.4903440256941651
 40
0.4946098326142872
 40
0.4978332314372555
 40
0.5000000000000001
 40
0.5021667685627446
 40
0.5053901673857129
 40
0.509655974305835
 40
0.5149476818871982
 40
0.5212447114290969
 40
0.528520886222697
 40
0.5367449450126884
 40
0.5458813603110186
 40
0.5558907510859591
 40
0.566730118512969
 40
0.5783529904097438
 40
0.5907095881328398
 40
0.6037470394279159
 40
0.617409572172202
 40
0.6316387680292876
 40
0.6463737934264183
 40
0.6615516581764197
 40
0.6771074828227615
 40
0.6929747710912028
 40
0.7090857126019865
 40
0.7253714433016514
 40
0.7417623531391312
 40
0.7581883980757507
 40
0.7745793674884768
 40
0.7908652143689631
 40
0.8069763319296979
 40
0.8228438673734264
 40
0.8384000019991548
 40
0.8535782615028867
 40
0.8683137743474788
 40
0.8825435680856811
 40
0.8962068354224544
 40
0.9092451733091637
 40
0.9216028696503481
 40
0.9332271163855145
 40
0.9440682363366812
 40
0.9540798980967362
 40
0.9632193163274451
 40
0.9714474449869317
 40
0.978729112309904
 40
0.9798429579237308
 40
0.9798429579237308
 40
0.9798429579237308
 40
0.9798429579237308
 10
103.7083388611173
 20
66.14643264773531
 30
0.0
 10
103.7988472562305
 20
66.25349826378931
 30
0.0
 10
104.4801387162663
 20
67.06116496433843
 30
0.0
 10
105.809833595969
 20
68.6637756554474
 30
0.0
 10
107.7583103953023
 20
71.06784104541572
 30
0.0
 10
109.8918203102364
 20
73.76007335147318
 30
0.0
 10
112.1996316459206
 20
76.73306023733862
 30
0.0
 10
114.6690955504138
 20
79.9748109507741
 30
0.0
 10
117.2887320352184
 20
83.4721064677935
 30
0.0
 10
120.0475621821969
 20
87.20943764696499
 30
0.0
 10
122.935268442874
 20
91.16953796108069
 30
0.0
 10
125.942285466662
 20
95.33328768993505
 30
0.0
 10
129.0597581253302
 20
99.67991261954205
 30
0.0
 10
132.2795101693514
 20
104.1871014429733
 30
0.0
 10
135.5940219814071
 20
108.831126728158
 30
0.0
 10
138.9963117268093
 20
113.5870159604131
 30
0.0
 10
142.479853685566
 20
118.4286856468866
 30
0.0
 10
146.0384317647453
 20
123.3291151004522
 30
0.0
 10
149.6660083569987
 20
128.260495423524
 30
0.0
 10
153.3565318583076
 20
133.1944230950784
 30
0.0
 10
157.1037969374626
 20
138.1020435565171
 30
0.0
 10
160.9012385031157
 20
142.9542484739284
 30
0.0
 10
164.7417668004057
 20
147.7218345074132
 30
0.0
 10
168.6175694698212
 20
152.3756954553672
 30
0.0
 10
172.5199580710251
 20
156.8869790592828
 30
0.0
 10
176.4391800262427
 20
161.2272755503609
 30
0.0
 10
180.3642473714804
 20
165.3687969783426
 30
0.0
 10
184.2828097477266
 20
169.2845172441012
 30
0.0
 10
188.1811070891835
 20
172.9482061106539
 30
0.0
 10
192.043537050113
 20
176.3348605991263
 30
0.0
 10
195.8529270298933
 20
179.4203153763589
 30
0.0
 10
199.5898636088801
 20
182.1818470326884
 30
0.0
 10
203.2328678605743
 20
184.5976053568716
 30
0.0
 10
206.7574860234147
 20
186.6472275103286
 30
0.0
 10
210.1358392688412
 20
188.3114700275881
 30
0.0
 10
213.3351409861214
 20
189.5728158812074
 30
0.0
 10
216.315472937253
 20
190.4170128114333
 30
0.0
 10
219.0265823258256
 20
190.8371695732726
 30
0.0
 10
221.4046653872284
 20
190.8443398145545
 30
0.0
 10
223.3750475820969
 20
190.4892721897208
 30
0.0
 10
224.874862328812
 20
189.8907137592212
 30
0.0
 10
225.8988595713288
 20
189.2311947885584
 30
0.0
 10
226.6114954936487
 20
188.6021839534638
 30
0.0
 10
227.2414159400541
 20
187.8903519370105
 30
0.0
 10
227.9022421440937
 20
186.8671978169482
 30
0.0
 10
228.5027155355349
 20
185.3681487265721
 30
0.0
 10
228.860299292761
 20
183.3982216039029
 30
0.0
 10
228.8561661637568
 20
181.0201313245957
 30
0.0
 10
228.4394721668372
 20
178.3084875548027
 30
0.0
 10
227.5990821778824
 20
175.3270798902249
 30
0.0
 10
226.3418232572243
 20
172.1261698872632
 30
0.0
 10
224.6818966724621
 20
168.7456939532655
 30
0.0
 10
222.6367775641925
 20
165.2184610436383
 30
0.0
 10
220.2256737774786
 20
161.5723745404934
 30
0.0
 10
217.4689169038134
 20
157.8319141913144
 30
0.0
 10
214.388329705373
 20
154.0185868105087
 30
0.0
 10
211.0066107799493
 20
150.1518348224951
 30
0.0
 10
207.3479035094578
 20
146.2488616760123
 30
0.0
 10
203.4371909262557
 20
142.3253016359736
 30
0.0
 10
199.300685672627
 20
138.3949482562143
 30
0.0
 10
194.9653980527209
 20
134.4701864013479
 30
0.0
 10
190.4591019611446
 20
130.5620395150592
 30
0.0
 10
185.8101946882793
 20
126.680296449961
 30
0.0
 10
181.047517372889
 20
122.8336824872099
 30
0.0
 10
176.2001662154913
 20
119.0300471521685
 30
0.0
 10
171.2973354776747
 20
115.276517490196
 30
0.0
 10
166.368125085178
 20
111.5796957622319
 30
0.0
 10
161.4413816480921
 20
107.9458241452681
 30
0.0
 10
156.5455009356294
 20
104.3809905131999
 30
0.0
 10
151.7082841119251
 20
100.8912679838567
 30
0.0
 10
146.9567439033492
 20
97.4829071538627
 30
0.0
 10
142.3169554473302
 20
94.16246704973747
 30
0.0
 10
137.813882321518
 20
90.93696139346736
 30
0.0
 10
133.4712423351513
 20
87.81394009910623
 30
0.0
 10
129.3113363348803
 20
84.80160790381376
 30
0.0
 10
125.3549272086543
 20
81.90884645984224
 30
0.0
 10
121.6211224449496
 20
79.14524552822763
 30
0.0
 10
118.1271753801064
 20
76.52114470052365
 30
0.0
 10
114.8885811214709
 20
74.0475426930076
 30
0.0
 10
111.9185440208825
 20
71.7359363671447
 30
0.0
 10
109.2290386666509
 20
69.59898987823574
 30
0.0
 10
106.8274636833095
 20
67.64744437885
 30
0.0
 10
105.2265524841182
 20
66.31570385131899
 30
0.0
 10
104.4197565357651
 20
65.63338145654197
 30
0.0
 10
104.3128065974493
 20
65.54273639919602
 30
0.0
  0
LINE
  5
C3
330
1F
100
AcDbEntity
  8
0
  6
Continuous
 62
     7
370
    25
100
AcDbLine
 10
213.8481690239
 20
159.683697774
 30
0.0
 11
199.653469464
 21
145.4708582349
 31
0.0
  0
ARC
  5
C4
330
1F
100
AcDbEntity
  8
0
  6
Continuous
 62
     7
370
    25
100
AcDbCircle
 10
197.8562717158
 20
147.2657622028
 30
0.0
 40
2.540000000000004
100
AcDbArc
 50
225.0365869112
 51
315.0365869112
  0
LINE
  5
C5
330
1F
100
AcDbEntity
  8
0
  6
Continuous
 62
     7
370
    25
100
AcDbLine
 10
196.0613677479
 20
145.4685644547
 30
0.0
 11
183.5169274659
 21
157.9969941508
 31
0.0
  0
ARC
  5
C6
330
1F
100
AcDbEntity
  8
0
  6
Continuous
 62
     7
370
    25
100
AcDbCircle
 10
185.3118314339
 20
159.794191899
 30
0.0
 40
2.540000000000004
100
AcDbArc
 50
135.0365869112
 51
225.0365869112
  0
LINE
  5
C7
330
1F
100
AcDbEntity
  8
0
  6
Continuous
 62
     7
370
    25
100
AcDbLine
 10
183.5146336857
 20
161.5890958669
 30
0.0
 11
197.7093332457
 21
175.8019354061
 31
0.0
  0
ARC
  5
C8
330
1F
100
AcDbEntity
  8
0
  6
Continuous
 62
     7
370
    25
100
AcDbCircle
 10
199.5065309938
 20
174.0070314382
 30
0.0
 40
2.540000000000024
100
AcDbArc
 50
45.0365869112
 51
135.0365869112
  0
LINE
  5
C9
330
1F
100
AcDbEntity
  8
0
  6
Continuous
 62
     7
370
    25
100
AcDbLine
 10
201.3014349617
 20
175.8042291863
 30
0.0
 11
213.8458752437
 21
163.2757994901
 31
0.0
  0
ARC
  5
CA
330
1F
100
AcDbEntity
  8
0
  6
Continuous
 62
     7
370
    25
100
AcDbCircle
 10
212.0509712758
 20
161.478601742
 30
0.0
 40
2.540000000000004
100
AcDbArc
 50
315.0365869112
 51
45.0365869112
  0
LINE
  5
CB
330
1F
100
AcDbEntity
  8
0
  6
Continuous
 62
     7
370
    25
100
AcDbLine
 10
116.4857966949
 20
61.3907864604
 30
0.0
 11
124.8411240899
 21
67.512910644
 31
0.0
  0
ARC
  5
CC
330
1F
100
AcDbEntity
  8
0
  6
Continuous
 62
     7
370
    25
100
AcDbCircle
 10
127.8436196796
 20
63.4151770956
 30
0.0
 40
5.08000000000002
100
AcDbArc
 50
43.2702914028
 51
126.2310177739
  0
LINE
  5
CD
330
1F
100
AcDbEntity
  8
0
  6
Continuous
 62
     7
370
    25
100
AcDbLine
 10
131.542511268
 20
66.8972168739
 30
0.0
 11
133.8614443373
 21
64.4338670645
 31
0.0
  0
ARC
  5
CE
330
1F
100
AcDbEntity
  8
0
  6
Continuous
 62
     7
370
    25
100
AcDbCircle
 10
130.1625527489
 20
60.9518272862
 30
0.0
 40
5.08
100
AcDbArc
 50
320.3095650318
 51
43.2702914028
  0
LINE
  5
CF
330
1F
100
AcDbEntity
  8
0
  6
Continuous
 62
     7
370
    25
100
AcDbLine
 10
134.0716441487
 20
57.7075393168
 30
0.0
 11
127.45650243
 21
49.7368555043
 31
0.0
  0
ARC
  5
D0
330
1F
100
AcDbEntity
  8
0
  6
Continuous
 62
     7
370
    25
100
AcDbCircle
 10
123.5474110302
 20
52.9811434737
 30
0.0
 40
5.08000000000002
100
AcDbArc
 50
223.2702914028
 51
320.3095650318
  0
LINE
  5
D1
330
1F
100
AcDbEntity
  8
0
  6
Continuous
 62
     7
370
    25
100
AcDbLine
 10
119.8485194419
 20
49.4991036955
 30
0.0
 11
115.7894006963
 21
53.8110131337
 31
0.0
  0
ARC
  5
D2
330
1F
100
AcDbEntity
  8
0
  6
Continuous
 62
     7
370
    25
100
AcDbCircle
 10
119.4882922846
 20
57.293052912
 30
0.0
 40
5.079999999999999
100
AcDbArc
 50
126.2310177739
 51
223.2702914028
  0
ARC
  5
D3
330
1F
100
AcDbEntity
  8
0
  6
Continuous
 62
     7
370
    25
100
AcDbCircle
 10
185.9118074459
 20
115.7558836259
 30
0.0
 40
0.396875000000021
100
AcDbArc
 50
318.0240481876
 51
128.5165346181
  0
SPLINE
  5
D4
330
1F
100
AcDbEntity
  8
0
  6
Continuous
 62
     7
370
    25
100
AcDbSpline
210
0.0
220
0.0
230
1.0
 70
     8
 71
     3
 72
    89
 73
    85
 74
     0
 42
0.000000001
 43
0.00000001
 40
0.0201570420762691
 40
0.0201570420762691
 40
0.0201570420762691
 40
0.0201570420762691
 40
0.0212708876900959
 40
0.0285525550130683
 40
0.0367806836725549
 40
0.0459201019032637
 40
0.0559317636633187
 40
0.0667728836144854
 40
0.0783971303496518
 40
0.0907548266908363
 40
0.1037931645775456
 40
0.1174564319143189
 40
0.1316862256525212
 40
0.1464217384971132
 40
0.1615999980008452
 40
0.1771561326265735
 40
0.193023668070302
 40
0.2091347856310368
 40
0.2254206325115232
 40
0.2418116019242494
 40
0.2582376468608688
 40
0.2746285566983486
 40
0.2909142873980135
 40
0.3070252289087972
 40
0.3228925171772384
 40
0.3384483418235802
 40
0.3536262065735817
 40
0.3683612319707122
 40
0.382590427827798
 40
0.3962529605720843
 40
0.4092904118671603
 40
0.4216470095902564
 40
0.4332698814870312
 40
0.4441092489140411
 40
0.4541186396889815
 40
0.4632550549873117
 40
0.4714791137773031
 40
0.4787552885709032
 40
0.485052318112802
 40
0.4903440256941651
 40
0.4946098326142872
 40
0.4978332314372555
 40
0.5000000000000001
 40
0.5021667685627446
 40
0.5053901673857129
 40
0.509655974305835
 40
0.5149476818871982
 40
0.5212447114290969
 40
0.528520886222697
 40
0.5367449450126884
 40
0.5458813603110186
 40
0.5558907510859591
 40
0.566730118512969
 40
0.5783529904097438
 40
0.5907095881328398
 40
0.6037470394279159
 40
0.617409572172202
 40
0.6316387680292876
 40
0.6463737934264183
 40
0.6615516581764197
 40
0.6771074828227615
 40
0.6929747710912028
 40
0.7090857126019865
 40
0.7253714433016514
 40
0.7417623531391312
 40
0.7581883980757507
 40
0.7745793674884768
 40
0.7908652143689631
 40
0.8069763319296979
 40
0.8228438673734264
 40
0.8384000019991548
 40
0.8535782615028867
 40
0.8683137743474788
 40
0.8825435680856811
 40
0.8962068354224544
 40
0.9092451733091637
 40
0.9216028696503481
 40
0.9332271163855145
 40
0.9440682363366812
 40
0.9540798980967362
 40
0.9632193163274451
 40
0.9714474449869317
 40
0.978729112309904
 40
0.9798429579237308
 40
0.9798429579237308
 40
0.9798429579237308
 40
0.9798429579237308
 10
186.2068544839159
 20
115.4904462302665
 30
0.0
 10
186.1200346206212
 20
115.3939415782226
 30
0.0
 10
185.4664584212203
 20
114.6659011648324
 30
0.0
 10
184.1901065441972
 20
113.2206564156773
 30
0.0
 10
182.318207459581
 20
111.0513363751121
 30
0.0
 10
180.2668386452391
 20
108.620602666866
 30
0.0
 10
178.0461436796234
 20
105.9350090257984
 30
0.0
 10
175.6681711094573
 20
103.0052917316399
 30
0.0
 10
173.1439227691368
 20
99.84335717132988
 30
0.0
 10
170.4840021185431
 20
96.46324550376768
 30
0.0
 10
167.6984506843259
 20
92.88064219899935
 30
0.0
 10
164.7966667339546
 20
89.11296929866164
 30
0.0
 10
161.7874384526845
 20
85.17920032467525
 30
0.0
 10
158.678969601093
 20
81.09975073187863
 30
0.0
 10
155.4788966515235
 20
76.89636531911775
 30
0.0
 10
152.1943939002159
 20
72.5919565398595
 30
0.0
 10
148.8322452225462
 20
68.21047805963711
 30
0.0
 10
145.3989746855534
 20
63.77675974078963
 30
0.0
 10
141.9009636655974
 20
59.31636601730111
 30
0.0
 10
138.3446234630869
 20
54.85541123935457
 30
0.0
 10
134.7365205232329
 20
50.42042279877205
 30
0.0
 10
131.0835614868635
 20
46.03815268545409
 30
0.0
 10
127.3931412749706
 20
41.73542584231375
 30
0.0
 10
123.6733207967335
 20
37.5389566892717
 30
0.0
 10
119.9329645144185
 20
33.47519962245715
 30
0.0
 10
116.1819091060898
 20
29.57016914989715
 30
0.0
 10
112.4311168359796
 20
25.8492690378209
 30
0.0
 10
108.6927891028749
 20
22.337159087675
 30
0.0
 10
104.9804092558347
 20
19.05772230914904
 30
0.0
 10
101.309130622705
 20
16.03365332378259
 30
0.0
 10
97.69553587413104
 20
13.28682670926722
 30
0.0
 10
94.15824037541176
 20
10.83771861118235
 30
0.0
 10
90.71774616874339
 20
8.705938093425843
 30
0.0
 10
87.39726601543238
 20
6.909632776677316
 30
0.0
 10
84.22315058181069
 20
5.465816567380839
 30
0.0
 10
81.22624334594828
 20
4.389765511540677
 30
0.0
 10
78.4438948317817
 20
3.693530624484722
 30
0.0
 10
75.92280997166273
 20
3.382055461167512
 30
0.0
 10
73.72172278868773
 20
3.443289090232016
 30
0.0
 10
71.90829517524104
 20
3.828133160204396
 30
0.0
 10
70.53732027562191
 20
4.424894742402731
 30
0.0
 10
69.60844759871092
 20
5.064494799468212
 30
0.0
 10
68.96686476964732
 20
5.666973870845228
 30
0.0
 10
68.40419763941627
 20
6.343742116668238
 30
0.0
 10
67.82181267813901
 20
7.309516645110518
 30
0.0
 10
67.30886526075098
 20
8.714002853077154
 30
0.0
 10
67.0341474760934
 20
10.54734810321326
 30
0.0
 10
67.10584242194922
 20
12.74811937236507
 30
0.0
 10
67.56887615932352
 20
15.24581539216769
 30
0.0
 10
68.43173355872132
 20
17.98108199353273
 30
0.0
 10
69.68666182575943
 20
20.90759765208097
 30
0.0
 10
71.31937811640086
 20
23.98880708125915
 30
0.0
 10
73.31277307779925
 20
27.19484478649332
 30
0.0
 10
75.64827376660423
 20
30.50043476327444
 30
0.0
 10
78.30636493712409
 20
33.88350160425904
 30
0.0
 10
81.26623613247718
 20
37.32476386744823
 30
0.0
 10
84.50632523909927
 20
40.80687567086271
 30
0.0
 10
88.00379691548187
 20
44.31460450672807
 30
0.0
 10
91.73508351930955
 20
47.83419408821462
 30
0.0
 10
95.67553195470613
 20
51.35362677339964
 30
0.0
 10
99.79979110437256
 20
54.86221140746042
 30
0.0
 10
104.0818420131777
 20
58.35053860414637
 30
0.0
 10
108.4951240166981
 20
61.81035936542122
 30
0.0
 10
113.012696028977
 20
65.2344216809906
 30
0.0
 10
117.6074059017169
 20
68.61629131964017
 30
0.0
 10
122.2520313517779
 20
71.95020549389976
 30
0.0
 10
126.9194523796752
 20
75.23088440461606
 30
0.0
 10
131.582793702665
 20
78.4533742757507
 30
0.0
 10
136.2156016886703
 20
81.61285126979139
 30
0.0
 10
140.7919734254129
 20
84.70448823595522
 30
0.0
 10
145.2867306235396
 20
87.72327126760756
 30
0.0
 10
149.6755539166513
 20
90.66387425213583
 30
0.0
 10
153.935139694511
 20
93.52051853915144
 30
0.0
 10
158.0433219853701
 20
96.28689368626432
 30
0.0
 10
161.9792275080961
 20
98.95604278190287
 30
0.0
 10
165.7233870218812
 20
101.5203385463066
 30
0.0
 10
169.2578431257762
 20
103.9714511104871
 30
0.0
 10
172.5663330107718
 20
106.3003037310228
 30
0.0
 10
175.6342022729833
 20
108.4971594746098
 30
0.0
 10
178.4489023537712
 20
110.5517550042621
 30
0.0
 10
180.9989895092861
 20
112.4527115719235
 30
0.0
 10
183.2773098677937
 20
114.1902995453496
 30
0.0
 10
184.7969381161577
 20
115.3771173433772
 30
0.0
 10
185.5630896818287
 20
115.9855715079388
 30
0.0
 10
185.6646573264409
 20
116.0664099276201
 30
0.0
  0
LINE
  5
D5
330
1F
100
AcDbEntity
  8
0
  6
Continuous
 62
     7
370
    25
100
AcDbLine
 10
86.1285172727
 20
37.4854043018
 30
0.0
 11
100.7545517959
 21
51.2539705848
 31
0.0
  0
ARC
  5
D6
330
1F
100
AcDbEntity
  8
0
  6
Continuous
 62
     7
370
    25
100
AcDbCircle
 10
102.495571685
 20
49.4045247906
 30
0.0
 40
2.540000000000002
100
AcDbArc
 50
43.2702914028
 51
133.2702914028
  0
LINE
  5
D7
330
1F
100
AcDbEntity
  8
0
  6
Continuous
 62
     7
370
    25
100
AcDbLine
 10
104.3450174792
 20
51.1455446798
 30
0.0
 11
116.4973363054
 21
38.2364130364
 31
0.0
  0
ARC
  5
D8
330
1F
100
AcDbEntity
  8
0
  6
Continuous
 62
     7
370
    25
100
AcDbCircle
 10
114.6478905112
 20
36.4953931472
 30
0.0
 40
2.540000000000017
100
AcDbArc
 50
313.2702914028
 51
43.2702914028
  0
LINE
  5
D9
330
1F
100
AcDbEntity
  8
0
  6
Continuous
 62
     7
370
    25
100
AcDbLine
 10
116.3889104003
 20
34.645947353
 30
0.0
 11
101.7628758771
 21
20.87738107
 31
0.0
  0
ARC
  5
DA
330
1F
100
AcDbEntity
  8
0
  6
Continuous
 62
     7
370
    25
100
AcDbCircle
 10
100.021855988
 20
22.7268268642
 30
0.0
 40
2.54
100
AcDbArc
 50
223.2702914028
 51
313.2702914028
  0
LINE
  5
DB
330
1F
100
AcDbEntity
  8
0
  6
Continuous
 62
     7
370
    25
100
AcDbLine
 10
98.1724101938
 20
20.9858069751
 30
0.0
 11
86.0200913676
 21
33.8949386185
 31
0.0
  0
ARC
  5
DC
330
1F
100
AcDbEntity
  8
0
  6
Continuous
 62
     7
370
    25
100
AcDbCircle
 10
87.8695371618
 20
35.6359585076
 30
0.0
 40
2.540000000000008
100
AcDbArc
 50
133.2702914028
 51
223.2702914028
  0
CIRCLE
  5
DD
330
1F
100
AcDbEntity
  8
0
  6
Continuous
 62
     7
370
    25
100
AcDbCircle
 10
215.2653425882
 20
112.6050967723
 30
0.0
 40
2.247899999999985
  0
CIRCLE
  5
DE
330
1F
100
AcDbEntity
  8
0
  6
Continuous
 62
     7
370
    25
100
AcDbCircle
 10
171.6379817209
 20
66.4650557694
 30
0.0
 40
2.247899999999985
  0
ARC
  5
DF
330
1F
100
AcDbEntity
  8
0
  6
Continuous
 62
     7
370
    25
100
AcDbCircle
 10
113.6549368467
 20
5.1425275489
 30
0.0
 40
0.3968750000000164
100
AcDbArc
 50
141.3571048015
 51
311.849591232
  0
SPLINE
  5
E0
330
1F
100
AcDbEntity
  8
0
  6
Continuous
 62
     7
370
    25
100
AcDbSpline
210
0.0
220
0.0
230
1.0
 70
     8
 71
     3
 72
    89
 73
    85
 74
     0
 42
0.000000001
 43
0.00000001
 40
0.020157042076269
 40
0.020157042076269
 40
0.020157042076269
 40
0.020157042076269
 40
0.0212708876900959
 40
0.0285525550130683
 40
0.0367806836725549
 40
0.0459201019032637
 40
0.0559317636633187
 40
0.0667728836144854
 40
0.0783971303496518
 40
0.0907548266908363
 40
0.1037931645775456
 40
0.1174564319143189
 40
0.1316862256525212
 40
0.1464217384971132
 40
0.1615999980008452
 40
0.1771561326265735
 40
0.193023668070302
 40
0.2091347856310368
 40
0.2254206325115232
 40
0.2418116019242494
 40
0.2582376468608688
 40
0.2746285566983486
 40
0.2909142873980135
 40
0.3070252289087972
 40
0.3228925171772384
 40
0.3384483418235802
 40
0.3536262065735817
 40
0.3683612319707122
 40
0.382590427827798
 40
0.3962529605720843
 40
0.4092904118671603
 40
0.4216470095902564
 40
0.4332698814870312
 40
0.4441092489140411
 40
0.4541186396889815
 40
0.4632550549873117
 40
0.4714791137773031
 40
0.4787552885709032
 40
0.485052318112802
 40
0.4903440256941651
 40
0.4946098326142872
 40
0.4978332314372555
 40
0.5000000000000001
 40
0.5021667685627446
 40
0.5053901673857129
 40
0.509655974305835
 40
0.5149476818871982
 40
0.5212447114290969
 40
0.528520886222697
 40
0.5367449450126884
 40
0.5458813603110186
 40
0.5558907510859591
 40
0.566730118512969
 40
0.5783529904097438
 40
0.5907095881328398
 40
0.6037470394279159
 40
0.617409572172202
 40
0.6316387680292876
 40
0.6463737934264183
 40
0.6615516581764197
 40
0.6771074828227615
 40
0.6929747710912028
 40
0.7090857126019865
 40
0.7253714433016514
 40
0.7417623531391312
 40
0.7581883980757507
 40
0.7745793674884768
 40
0.7908652143689631
 40
0.8069763319296979
 40
0.8228438673734264
 40
0.8384000019991548
 40
0.8535782615028867
 40
0.8683137743474788
 40
0.8825435680856811
 40
0.8962068354224544
 40
0.9092451733091637
 40
0.9216028696503481
 40
0.9332271163855145
 40
0.9440682363366812
 40
0.9540798980967362
 40
0.9632193163274451
 40
0.9714474449869317
 40
0.978729112309904
 40
0.9798429579237308
 40
0.9798429579237308
 40
0.9798429579237308
 40
0.9798429579237308
 10
113.3449563665841
 20
5.390361904049279
 30
0.0
 10
113.4260185876055
 20
5.491751020090991
 30
0.0
 10
114.0361609480156
 20
6.256558833849299
 30
0.0
 10
115.2263272576498
 20
7.773565971061436
 30
0.0
 10
116.9689356276825
 20
10.04804870128319
 30
0.0
 10
118.8755115508821
 20
12.5939372734586
 30
0.0
 10
120.9363096414711
 20
15.40409929104382
 30
0.0
 10
123.13992594096
 20
18.46711613278341
 30
0.0
 10
125.4760694626509
 20
21.77046190538363
 30
0.0
 10
127.9349709780033
 20
25.29950371449306
 30
0.0
 10
130.5075178995666
 20
29.03799880855993
 30
0.0
 10
133.1853407752431
 20
32.96800820105191
 30
0.0
 10
135.9607694062335
 20
37.07007951976057
 30
0.0
 10
138.8268008638169
 20
41.32335487713228
 30
0.0
 10
141.7770758359743
 20
45.70568227241429
 30
0.0
 10
144.8057642924393
 20
50.19377089631401
 30
0.0
 10
147.9074864994662
 20
54.76331318781806
 30
0.0
 10
151.0771730342533
 20
59.38914197650614
 30
0.0
 10
154.3099396313092
 20
64.04536505892283
 30
0.0
 10
157.6009041238433
 20
68.705539505846
 30
0.0
 10
160.9450534769443
 20
73.34280102497968
 30
0.0
 10
164.3370480936789
 20
77.93004132689501
 30
0.0
 10
167.7710651643944
 20
82.44005090394276
 30
0.0
 10
171.2406105920028
 20
86.84569186395159
 30
0.0
 10
174.7383729678028
 20
91.12003918011297
 30
0.0
 10
178.2560447367602
 20
95.23655044498943
 30
0.0
 10
181.7841591531373
 20
99.16922751824622
 30
0.0
 10
185.3119691785955
 20
102.8927429225772
 30
0.0
 10
188.8274028303427
 20
106.3824701258443
 30
0.0
 10
192.3166518787745
 20
109.6148718812496
 30
0.0
 10
195.7644334919527
 20
112.567146496688
 30
0.0
 10
199.1533542768585
 20
115.2177701657512
 30
0.0
 10
202.4640869428695
 20
117.5459750055821
 30
0.0
 10
205.6745130972801
 20
119.5322945031927
 30
0.0
 10
208.7593158361625
 20
121.1582115042621
 30
0.0
 10
211.6885920044968
 20
122.4066825631048
 30
0.0
 10
214.4257549051537
 20
123.2635054896808
 30
0.0
 10
216.9244660283414
 20
123.7210296662467
 30
0.0
 10
219.1253900619034
 20
123.7878708427367
 30
0.0
 10
220.9581249891494
 20
123.5091104548469
 30
0.0
 10
222.3614765240199
 20
122.9930668220502
 30
0.0
 10
223.3259643082715
 20
122.4085533517696
 30
0.0
 10
224.0014899985719
 20
121.8443950408845
 30
0.0
 10
224.6025526539051
 20
121.2014850609024
 30
0.0
 10
225.2401026137867
 20
120.2712040648776
 30
0.0
 10
225.8338391879156
 20
118.8989163975442
 30
0.0
 10
226.2146829771428
 20
117.0846444566239
 30
0.0
 10
226.271062165564
 20
114.8834275814618
 30
0.0
 10
225.9540277430778
 20
112.3630357817125
 30
0.0
 10
225.2516583400237
 20
109.5822295148374
 30
0.0
 10
224.1690005026896
 20
106.5877026970582
 30
0.0
 10
222.7181875901808
 20
103.4167791840923
 30
0.0
 10
220.9145636337549
 20
100.1002686891115
 30
0.0
 10
218.7752006124074
 20
96.66448429178747
 30
0.0
 10
216.3182972962564
 20
93.1325986740966
 30
0.0
 10
213.5635079168474
 20
89.52507058242136
 30
0.0
 10
210.5313496244088
 20
85.86047017856755
 30
0.0
 10
207.2437335149629
 20
82.15533185051932
 30
0.0
 10
203.7233875741042
 20
78.42475883840817
 30
0.0
 10
199.9942244897047
 20
74.6821817867604
 30
0.0
 10
196.0809309122837
 20
70.93974767980681
 30
0.0
 10
192.0089347225379
 20
67.20836272949222
 30
0.0
 10
187.8042720591022
 20
63.49780621739673
 30
0.0
 10
183.4934168035125
 20
59.81688424153475
 30
0.0
 10
179.1031010883032
 20
56.17359877532997
 30
0.0
 10
174.6601660999574
 20
52.57528556189009
 30
0.0
 10
170.1913789952668
 20
49.02879222623766
 30
0.0
 10
165.7232815832215
 20
45.54062669393511
 30
0.0
 10
161.2820022900194
 20
42.11714265704484
 30
0.0
 10
156.8931195610026
 20
38.76466509644212
 30
0.0
 10
152.581477586345
 20
35.48966330336271
 30
0.0
 10
148.3710449345287
 20
32.29886830911803
 30
0.0
 10
144.2847498255383
 20
29.1994038612295
 30
0.0
 10
140.3443538468634
 20
26.19885845735129
 30
0.0
 10
136.5702904963195
 20
23.30539081373509
 30
0.0
 10
132.9815526312055
 20
20.52774724993802
 30
0.0
 10
129.5955829777883
 20
17.87528758789179
 30
0.0
 10
126.4280891136152
 20
15.35801873699014
 30
0.0
 10
123.4931345483794
 20
12.98651316707159
 30
0.0
 10
120.8026499035805
 20
10.77174642735468
 30
0.0
 10
118.3673980047818
 20
8.725743357402324
 30
0.0
 10
116.1939549416169
 20
6.85863305734892
 30
0.0
 10
114.7458988325895
 20
5.585471636299213
 30
0.0
 10
114.0164187886057
 20
4.933502651314605
 30
0.0
 10
113.9197228981716
 20
4.846895831133992
 30
0.0
  0
LINE
  5
E1
330
1F
100
AcDbEntity
  8
0
  6
Continuous
 62
     7
370
    25
100
AcDbLine
 10
208.7187912574
 20
89.0820088196
 30
0.0
 11
194.9180021084
 21
74.4863751496
 31
0.0
  0
ARC
  5
E2
330
1F
100
AcDbEntity
  8
0
  6
Continuous
 62
     7
370
    25
100
AcDbCircle
 10
193.0724004683
 20
76.2314695843
 30
0.0
 40
2.539999999999992
100
AcDbArc
 50
226.6033480167
 51
316.6033480167
  0
LINE
  5
E3
330
1F
100
AcDbEntity
  8
0
  6
Continuous
 62
     7
370
    25
100
AcDbLine
 10
191.3273060336
 20
74.3858679442
 30
0.0
 11
178.4450065856
 21
86.5666270983
 31
0.0
  0
ARC
  5
E4
330
1F
100
AcDbEntity
  8
0
  6
Continuous
 62
     7
370
    25
100
AcDbCircle
 10
180.1901010203
 20
88.4122287384
 30
0.0
 40
2.539999999999992
100
AcDbArc
 50
136.6033480167
 51
226.6033480167
  0
LINE
  5
E5
330
1F
100
AcDbEntity
  8
0
  6
Continuous
 62
     7
370
    25
100
AcDbLine
 10
178.3444993802
 20
90.1573231731
 30
0.0
 11
192.1452885292
 21
104.7529568431
 31
0.0
  0
ARC
  5
E6
330
1F
100
AcDbEntity
  8
0
  6
Continuous
 62
     7
370
    25
100
AcDbCircle
 10
193.9908901693
 20
103.0078624084
 30
0.0
 40
2.540000000000001
100
AcDbArc
 50
46.6033480167
 51
136.6033480167
  0
LINE
  5
E7
330
1F
100
AcDbEntity
  8
0
  6
Continuous
 62
     7
370
    25
100
AcDbLine
 10
195.735984604
 20
104.8534640485
 30
0.0
 11
208.618284052
 21
92.6727048944
 31
0.0
  0
ARC
  5
E8
330
1F
100
AcDbEntity
  8
0
  6
Continuous
 62
     7
370
    25
100
AcDbCircle
 10
206.8731896173
 20
90.8271032543
 30
0.0
 40
2.540000000000012
100
AcDbArc
 50
316.6033480167
 51
46.6033480167
  0
MTEXT
  5
EA
330
1F
100
AcDbEntity
  8
0
  6
Continuous
 62
     7
100
AcDbMText
 10
3.7394539007
 20
2.4411316647
 30
0.0
 40
4.83362
 41
0.0
 71
     1
 72
     1
  1
SOLIDWORKS Educational Product.
  7
SLDTEXTSTYLE0
 73
     1
 44
1.0
  0
MTEXT
  5
EB
330
1F
100
AcDbEntity
  8
0
  6
Continuous
 62
     7
100
AcDbMText
 10
3.7394539007
 20
-4.8092983353
 30
0.0
 40
4.83362
 41
0.0
 71
     1
 72
     1
  1
For Instructional Use Only.
  7
SLDTEXTSTYLE0
 73
     1
 44
1.0
  0
ENDSEC
  0
SECTION
  2
OBJECTS
  0
DICTIONARY
  5
C
330
0
100
AcDbDictionary
281
     1
  3
ACAD_GROUP
350
D
  3
ACAD_LAYOUT
350
1A
  3
ACAD_MLINESTYLE
350
17
  3
ACAD_PLOTSETTINGS
350
19
  3
ACAD_PLOTSTYLENAME
350
E
  3
ACAD_SCALELIST
350
47
  0
DICTIONARY
  5
D
102
{ACAD_REACTORS
330
C
102
}
330
C
100
AcDbDictionary
281
     1
  0
DICTIONARY
  5
1A
102
{ACAD_REACTORS
330
C
102
}
330
C
100
AcDbDictionary
281
     1
  3
Layout1
350
1E
  3
Layout2
350
26
  3
Model
350
22
  0
DICTIONARY
  5
17
102
{ACAD_REACTORS
330
C
102
}
330
C
100
AcDbDictionary
281
     1
  3
Standard
350
18
  0
DICTIONARY
  5
19
102
{ACAD_REACTORS
330
C
102
}
330
C
100
AcDbDictionary
281
     1
  0
ACDBDICTIONARYWDFLT
  5
E
102
{ACAD_REACTORS
330
C
102
}
330
C
100
AcDbDictionary
281
     1
  3
Normal
350
F
100
AcDbDictionaryWithDefault
340
F
  0
DICTIONARY
  5
47
102
{ACAD_REACTORS
330
C
102
}
330
C
100
AcDbDictionary
281
     1
  3
A0
350
48
  3
A1
350
49
  3
A2
350
4A
  3
A3
350
4B
  3
A4
350
4C
  3
A5
350
4D
  3
A6
350
4E
  3
A7
350
4F
  3
A8
350
50
  3
A9
350
51
  3
B0
350
52
  3
B1
350
53
  3
B2
350
54
  3
B3
350
55
  3
B4
350
56
  3
B5
350
57
  3
B6
350
58
  3
B7
350
59
  3
B8
350
5A
  3
B9
350
5B
  3
C0
350
5C
  3
C1
350
5D
  3
C2
350
5E
  3
C3
350
5F
  3
C4
350
60
  3
C5
350
61
  3
C6
350
62
  3
C7
350
63
  3
C8
350
64
  3
C9
350
65
  3
D0
350
66
  3
D1
350
67
  3
D2
350
68
  0
LAYOUT
  5
1E
102
{ACAD_REACTORS
330
1A
102
}
330
1A
100
AcDbPlotSettings
  1

  2
none_device
  4

  6

 40
0.0
 41
0.0
 42
0.0
 43
0.0
 44
0.0
 45
0.0
 46
0.0
 47
0.0
 48
0.0
 49
0.0
140
0.0
141
0.0
142
1.0
143
1.0
 70
   688
 72
     1
 73
     0
 74
     5
  7

 75
    16
147
1.0
148
0.0
149
0.0
100
AcDbLayout
  1
Layout1
 70
     1
 71
     1
 10
0.0
 20
0.0
 11
420.0
 21
297.0
 12
0.0
 22
0.0
 32
0.0
 14
1.0000000000E+20
 24
1.0000000000E+20
 34
1.0000000000E+20
 15
-1.0000000000E+20
 25
-1.0000000000E+20
 35
-1.0000000000E+20
146
0.0
 13
0.0
 23
0.0
 33
0.0
 16
1.0
 26
0.0
 36
0.0
 17
0.0
 27
1.0
 37
0.0
 76
     0
330
1B
  0
LAYOUT
  5
26
102
{ACAD_REACTORS
330
1A
102
}
330
1A
100
AcDbPlotSettings
  1

  2
none_device
  4

  6

 40
0.0
 41
0.0
 42
0.0
 43
0.0
 44
0.0
 45
0.0
 46
0.0
 47
0.0
 48
0.0
 49
0.0
140
0.0
141
0.0
142
1.0
143
1.0
 70
   688
 72
     1
 73
     0
 74
     5
  7

 75
    16
147
1.0
148
0.0
149
0.0
100
AcDbLayout
  1
Layout2
 70
     1
 71
     2
 10
0.0
 20
0.0
 11
0.0
 21
0.0
 12
0.0
 22
0.0
 32
0.0
 14
0.0
 24
0.0
 34
0.0
 15
0.0
 25
0.0
 35
0.0
146
0.0
 13
0.0
 23
0.0
 33
0.0
 16
1.0
 26
0.0
 36
0.0
 17
0.0
 27
1.0
 37
0.0
 76
     0
330
23
  0
LAYOUT
  5
22
102
{ACAD_REACTORS
330
1A
102
}
330
1A
100
AcDbPlotSettings
  1

  2
none_device
  4
ANSI_A_(11.00_x_8.50_Inches)
  6

 40
6.35
 41
19.05
 42
6.35000508
 43
19.05000254
 44
279.4
 45
215.9
 46
40.507321295
 47
-20.7340937615
 48
0.0
 49
0.0
140
0.0
141
0.0
142
0.0314395686
143
1.0
 70
  1696
 72
     0
 73
     0
 74
     0
  7

 75
     0
147
0.0179189148
148
-1300.4909072572
149
0.0
100
AcDbLayout
  1
Model
 70
     1
 71
     0
 10
0.0
 20
0.0
 11
420.0
 21
297.0
 12
0.0
 22
0.0
 32
0.0
 14
3.7394539007
 24
3.4606980564
 34
0.0
 15
228.7843135847
 25
271.1170423101
 35
0.0
146
0.0
 13
0.0
 23
0.0
 33
0.0
 16
1.0
 26
0.0
 36
0.0
 17
0.0
 27
1.0
 37
0.0
 76
     0
330
1F
331
29
  0
MLINESTYLE
  5
18
102
{ACAD_REACTORS
330
17
102
}
330
17
100
AcDbMlineStyle
  2
Standard
 70
     0
  3

 62
   256
 51
90.0
 52
90.0
 71
     2
 49
0.5
 62
   256
  6
BYLAYER
 49
-0.5
 62
   256
  6
BYLAYER
  0
ACDBPLACEHOLDER
  5
F
102
{ACAD_REACTORS
330
E
102
}
330
E
  0
SCALE
  5
48
102
{ACAD_REACTORS
330
47
102
}
330
47
100
AcDbScale
 70
     0
300
1:1
140
1.0
141
1.0
290
     1
  0
SCALE
  5
49
102
{ACAD_REACTORS
330
47
102
}
330
47
100
AcDbScale
 70
     0
300
1:2
140
1.0
141
2.0
290
     0
  0
SCALE
  5
4A
102
{ACAD_REACTORS
330
47
102
}
330
47
100
AcDbScale
 70
     0
300
1:4
140
1.0
141
4.0
290
     0
  0
SCALE
  5
4B
102
{ACAD_REACTORS
330
47
102
}
330
47
100
AcDbScale
 70
     0
300
1:5
140
1.0
141
5.0
290
     0
  0
SCALE
  5
4C
102
{ACAD_REACTORS
330
47
102
}
330
47
100
AcDbScale
 70
     0
300
1:8
140
1.0
141
8.0
290
     0
  0
SCALE
  5
4D
102
{ACAD_REACTORS
330
47
102
}
330
47
100
AcDbScale
 70
     0
300
1:10
140
1.0
141
10.0
290
     0
  0
SCALE
  5
4E
102
{ACAD_REACTORS
330
47
102
}
330
47
100
AcDbScale
 70
     0
300
1:16
140
1.0
141
16.0
290
     0
  0
SCALE
  5
4F
102
{ACAD_REACTORS
330
47
102
}
330
47
100
AcDbScale
 70
     0
300
1:20
140
1.0
141
20.0
290
     0
  0
SCALE
  5
50
102
{ACAD_REACTORS
330
47
102
}
330
47
100
AcDbScale
 70
     0
300
1:30
140
1.0
141
30.0
290
     0
  0
SCALE
  5
51
102
{ACAD_REACTORS
330
47
102
}
330
47
100
AcDbScale
 70
     0
300
1:40
140
1.0
141
40.0
290
     0
  0
SCALE
  5
52
102
{ACAD_REACTORS
330
47
102
}
330
47
100
AcDbScale
 70
     0
300
1:50
140
1.0
141
50.0
290
     0
  0
SCALE
  5
53
102
{ACAD_REACTORS
330
47
102
}
330
47
100
AcDbScale
 70
     0
300
1:100
140
1.0
141
100.0
290
     0
  0
SCALE
  5
54
102
{ACAD_REACTORS
330
47
102
}
330
47
100
AcDbScale
 70
     0
300
2:1
140
2.0
141
1.0
290
     0
  0
SCALE
  5
55
102
{ACAD_REACTORS
330
47
102
}
330
47
100
AcDbScale
 70
     0
300
4:1
140
4.0
141
1.0
290
     0
  0
SCALE
  5
56
102
{ACAD_REACTORS
330
47
102
}
330
47
100
AcDbScale
 70
     0
300
8:1
140
8.0
141
1.0
290
     0
  0
SCALE
  5
57
102
{ACAD_REACTORS
330
47
102
}
330
47
100
AcDbScale
 70
     0
300
10:1
140
10.0
141
1.0
290
     0
  0
SCALE
  5
58
102
{ACAD_REACTORS
330
47
102
}
330
47
100
AcDbScale
 70
     0
300
100:1
140
100.0
141
1.0
290
     0
  0
SCALE
  5
59
102
{ACAD_REACTORS
330
47
102
}
330
47
100
AcDbScale
 70
     0
300
1/128" = 1'-0"
140
0.0078125
141
12.0
290
     0
  0
SCALE
  5
5A
102
{ACAD_REACTORS
330
47
102
}
330
47
100
AcDbScale
 70
     0
300
1/64" = 1'-0"
140
0.015625
141
12.0
290
     0
  0
SCALE
  5
5B
102
{ACAD_REACTORS
330
47
102
}
330
47
100
AcDbScale
 70
     0
300
1/32" = 1'-0"
140
0.03125
141
12.0
290
     0
  0
SCALE
  5
5C
102
{ACAD_REACTORS
330
47
102
}
330
47
100
AcDbScale
 70
     0
300
1/16" = 1'-0"
140
0.0625
141
12.0
290
     0
  0
SCALE
  5
5D
102
{ACAD_REACTORS
330
47
102
}
330
47
100
AcDbScale
 70
     0
300
3/32" = 1'-0"
140
0.09375
141
12.0
290
     0
  0
SCALE
  5
5E
102
{ACAD_REACTORS
330
47
102
}
330
47
100
AcDbScale
 70
     0
300
1/8" = 1'-0"
140
0.125
141
12.0
290
     0
  0
SCALE
  5
5F
102
{ACAD_REACTORS
330
47
102
}
330
47
100
AcDbScale
 70
     0
300
3/16" = 1'-0"
140
0.1875
141
12.0
290
     0
  0
SCALE
  5
60
102
{ACAD_REACTORS
330
47
102
}
330
47
100
AcDbScale
 70
     0
300
1/4" = 1'-0"
140
0.25
141
12.0
290
     0
  0
SCALE
  5
61
102
{ACAD_REACTORS
330
47
102
}
330
47
100
AcDbScale
 70
     0
300
3/8" = 1'-0"
140
0.375
141
12.0
290
     0
  0
SCALE
  5
62
102
{ACAD_REACTORS
330
47
102
}
330
47
100
AcDbScale
 70
     0
300
1/2" = 1'-0"
140
0.5
141
12.0
290
     0
  0
SCALE
  5
63
102
{ACAD_REACTORS
330
47
102
}
330
47
100
AcDbScale
 70
     0
300
3/4" = 1'-0"
140
0.75
141
12.0
290
     0
  0
SCALE
  5
64
102
{ACAD_REACTORS
330
47
102
}
330
47
100
AcDbScale
 70
     0
300
1" = 1'-0"
140
1.0
141
12.0
290
     0
  0
SCALE
  5
65
102
{ACAD_REACTORS
330
47
102
}
330
47
100
AcDbScale
 70
     0
300
1-1/2" = 1'-0"
140
1.5
141
12.0
290
     0
  0
SCALE
  5
66
102
{ACAD_REACTORS
330
47
102
}
330
47
100
AcDbScale
 70
     0
300
3" = 1'-0"
140
3.0
141
12.0
290
     0
  0
SCALE
  5
67
102
{ACAD_REACTORS
330
47
102
}
330
47
100
AcDbScale
 70
     0
300
6" = 1'-0"
140
6.0
141
12.0
290
     0
  0
SCALE
  5
68
102
{ACAD_REACTORS
330
47
102
}
330
47
100
AcDbScale
 70
     0
300
1'-0" = 1'-0"
140
12.0
141
12.0
290
     0
  0
ENDSEC
  0
EOF
